<svg width="300" height="300" viewBox="0 0 300 300" fill="none" xmlns="http://www.w3.org/2000/svg">
<line x1="157.352" y1="52.0951" x2="159.923" y2="23.8122" stroke="#E72626"/>
<line x1="157.352" y1="52.0951" x2="159.923" y2="23.8122" stroke="#E72626"/>
<line x1="157.352" y1="52.0951" x2="159.923" y2="23.8122" stroke="#E72626"/>
<line x1="157.352" y1="52.0951" x2="159.923" y2="23.8122" stroke="#E72626"/>
<line x1="157.352" y1="52.0951" x2="159.923" y2="23.8122" stroke="#E72626"/>
<line x1="157.352" y1="52.0951" x2="159.923" y2="23.8122" stroke="#E72626"/>
<line x1="157.366" y1="51.1752" x2="164.663" y2="23.7289" stroke="#E72626"/>
<line x1="157.436" y1="51.5151" x2="162.001" y2="23.4848" stroke="#E72626"/>
<line x1="156.397" y1="51.6839" x2="145.815" y2="25.3297" stroke="#E72626"/>
<line x1="156.267" y1="52.1704" x2="153.495" y2="23.9065" stroke="#E72626"/>
<line x1="157.851" y1="51.2447" x2="167.188" y2="24.4239" stroke="#E72626"/>
<line x1="158.74" y1="52.4042" x2="176.165" y2="29.9785" stroke="#E72626"/>
<line x1="157.657" y1="50.955" x2="156.065" y2="22.6001" stroke="#E72626"/>
<line x1="157.42" y1="51.8349" x2="171.99" y2="27.4577" stroke="#E72626"/>
<line x1="155.651" y1="51.7207" x2="149.647" y2="23.963" stroke="#E72626"/>
<line x1="151.452" y1="52.1133" x2="149.668" y2="23.7698" stroke="#FFE484"/>
<line x1="151.452" y1="52.1133" x2="149.668" y2="23.7698" stroke="#FFE484"/>
<line x1="151.452" y1="52.1133" x2="149.668" y2="23.7698" stroke="#FFE484"/>
<line x1="151.452" y1="52.1133" x2="149.668" y2="23.7698" stroke="#FFE484"/>
<line x1="151.452" y1="52.1133" x2="149.668" y2="23.7698" stroke="#FFE484"/>
<line x1="151.452" y1="52.1133" x2="149.668" y2="23.7698" stroke="#FFE484"/>
<line x1="151.325" y1="51.2021" x2="154.339" y2="22.9629" stroke="#FFE484"/>
<line x1="151.447" y1="51.528" x2="151.671" y2="23.1294" stroke="#FFE484"/>
<line x1="150.446" y1="51.853" x2="135.958" y2="27.4269" stroke="#FFE484"/>
<line x1="150.392" y1="52.3537" x2="143.33" y2="24.8461" stroke="#FFE484"/>
<line x1="151.815" y1="51.1969" x2="156.941" y2="23.2638" stroke="#FFE484"/>
<line x1="152.872" y1="52.2069" x2="166.662" y2="27.3805" stroke="#FFE484"/>
<line x1="151.578" y1="50.9398" x2="145.67" y2="23.1618" stroke="#FFE484"/>
<line x1="151.48" y1="51.8457" x2="162.151" y2="25.5272" stroke="#FFE484"/>
<line x1="149.714" y1="52.0037" x2="139.536" y2="25.4905" stroke="#FFE484"/>
<line x1="148.188" y1="55.2173" x2="135.361" y2="29.8797" stroke="#B74128"/>
<line x1="148.188" y1="55.2173" x2="135.361" y2="29.8797" stroke="#B74128"/>
<line x1="148.188" y1="55.2173" x2="135.361" y2="29.8797" stroke="#B74128"/>
<line x1="148.188" y1="55.2173" x2="135.361" y2="29.8797" stroke="#B74128"/>
<line x1="148.188" y1="55.2173" x2="135.361" y2="29.8797" stroke="#B74128"/>
<line x1="148.188" y1="55.2173" x2="135.361" y2="29.8797" stroke="#B74128"/>
<line x1="147.714" y1="54.4296" x2="139.335" y2="27.2941" stroke="#B74128"/>
<line x1="147.953" y1="54.6805" x2="136.949" y2="28.4994" stroke="#B74128"/>
<line x1="147.162" y1="55.3742" x2="124.209" y2="38.6506" stroke="#B74128"/>
<line x1="147.31" y1="55.8561" x2="129.963" y2="33.3698" stroke="#B74128"/>
<line x1="148.161" y1="54.2313" x2="141.844" y2="26.5432" stroke="#B74128"/>
<line x1="149.529" y1="54.7425" x2="152.4" y2="26.4885" stroke="#B74128"/>
<line x1="147.842" y1="54.0886" x2="131.448" y2="30.8987" stroke="#B74128"/>
<line x1="148.11" y1="54.9603" x2="147.525" y2="26.5668" stroke="#B74128"/>
<line x1="146.549" y1="55.8023" x2="126.732" y2="35.4596" stroke="#B74128"/>
<line x1="141.5" y1="57.4417" x2="117.914" y2="41.623" stroke="#FFCC4A"/>
<line x1="141.5" y1="57.4417" x2="117.914" y2="41.623" stroke="#FFCC4A"/>
<line x1="141.5" y1="57.4417" x2="117.914" y2="41.623" stroke="#FFCC4A"/>
<line x1="141.5" y1="57.4417" x2="117.914" y2="41.623" stroke="#FFCC4A"/>
<line x1="141.5" y1="57.4417" x2="117.914" y2="41.623" stroke="#FFCC4A"/>
<line x1="141.5" y1="57.4417" x2="117.914" y2="41.623" stroke="#FFCC4A"/>
<line x1="140.699" y1="56.9878" x2="120.113" y2="37.4238" stroke="#FFCC4A"/>
<line x1="141.032" y1="57.0896" x2="118.623" y2="39.6429" stroke="#FFCC4A"/>
<line x1="140.681" y1="58.0817" x2="112.48" y2="54.7303" stroke="#FFCC4A"/>
<line x1="141.045" y1="58.4294" x2="114.913" y2="47.3087" stroke="#FFCC4A"/>
<line x1="140.993" y1="56.5956" x2="121.935" y2="35.5408" stroke="#FFCC4A"/>
<line x1="142.437" y1="56.3715" x2="131.114" y2="30.3271" stroke="#FFCC4A"/>
<line x1="140.644" y1="56.6274" x2="114.999" y2="44.427" stroke="#FFCC4A"/>
<line x1="141.305" y1="57.2569" x2="126.9" y2="32.7817" stroke="#FFCC4A"/>
<line x1="140.356" y1="58.7546" x2="113.119" y2="50.7122" stroke="#FFCC4A"/>
<line x1="136.517" y1="62.6671" x2="108.42" y2="58.5358" stroke="#FFF858"/>
<line x1="136.517" y1="62.6671" x2="108.42" y2="58.5358" stroke="#FFF858"/>
<line x1="136.517" y1="62.6671" x2="108.42" y2="58.5358" stroke="#FFF858"/>
<line x1="136.517" y1="62.6671" x2="108.42" y2="58.5358" stroke="#FFF858"/>
<line x1="136.517" y1="62.6671" x2="108.42" y2="58.5358" stroke="#FFF858"/>
<line x1="136.517" y1="62.6671" x2="108.42" y2="58.5358" stroke="#FFF858"/>
<line x1="135.599" y1="62.6014" x2="108.598" y2="53.7984" stroke="#FFF858"/>
<line x1="135.943" y1="62.5502" x2="108.208" y2="56.4428" stroke="#FFF858"/>
<line x1="136.054" y1="63.597" x2="109.154" y2="72.7058" stroke="#FFF858"/>
<line x1="136.532" y1="63.7542" x2="108.158" y2="64.9591" stroke="#FFF858"/>
<line x1="135.695" y1="62.1213" x2="109.432" y2="51.3155" stroke="#FFF858"/>
<line x1="136.902" y1="61.2974" x2="115.474" y2="42.6591" stroke="#FFF858"/>
<line x1="135.395" y1="62.2996" x2="106.996" y2="62.3206" stroke="#FFF858"/>
<line x1="136.261" y1="62.5843" x2="112.727" y2="46.6885" stroke="#FFF858"/>
<line x1="136.05" y1="64.3448" x2="108.002" y2="68.8042" stroke="#FFF858"/>
<line x1="163.03" y1="53.8382" x2="182.684" y2="33.3383" stroke="#FFF737"/>
<line x1="163.03" y1="53.8382" x2="182.684" y2="33.3383" stroke="#FFF737"/>
<line x1="163.03" y1="53.8382" x2="182.684" y2="33.3383" stroke="#FFF737"/>
<line x1="163.03" y1="53.8382" x2="182.684" y2="33.3383" stroke="#FFF737"/>
<line x1="163.03" y1="53.8382" x2="182.684" y2="33.3383" stroke="#FFF737"/>
<line x1="163.03" y1="53.8382" x2="182.684" y2="33.3383" stroke="#FFF737"/>
<line x1="163.616" y1="53.1289" x2="186.441" y2="36.2307" stroke="#FFF737"/>
<line x1="163.458" y1="53.4381" x2="184.513" y2="34.3791" stroke="#FFF737"/>
<line x1="162.542" y1="52.9217" x2="170.713" y2="25.7231" stroke="#FFF737"/>
<line x1="162.137" y1="53.2208" x2="177.603" y2="29.4022" stroke="#FFF737"/>
<line x1="163.952" y1="53.4856" x2="187.981" y2="38.3493" stroke="#FFF737"/>
<line x1="163.923" y1="54.9467" x2="191.531" y2="48.2911" stroke="#FFF737"/>
<line x1="163.98" y1="53.137" x2="180.426" y2="29.9839" stroke="#FFF737"/>
<line x1="163.247" y1="53.6777" x2="189.842" y2="43.7159" stroke="#FFF737"/>
<line x1="161.935" y1="52.4849" x2="174.56" y2="27.046" stroke="#FFF737"/>
<line x1="170.743" y1="57.6946" x2="190.397" y2="37.1948" stroke="#FFCB12"/>
<line x1="170.743" y1="57.6946" x2="190.397" y2="37.1948" stroke="#FFCB12"/>
<line x1="170.743" y1="57.6946" x2="190.397" y2="37.1948" stroke="#FFCB12"/>
<line x1="170.743" y1="57.6946" x2="190.397" y2="37.1948" stroke="#FFCB12"/>
<line x1="170.743" y1="57.6946" x2="190.397" y2="37.1948" stroke="#FFCB12"/>
<line x1="170.743" y1="57.6946" x2="190.397" y2="37.1948" stroke="#FFCB12"/>
<line x1="171.329" y1="56.9853" x2="194.154" y2="40.0872" stroke="#FFCB12"/>
<line x1="171.171" y1="57.2946" x2="192.226" y2="38.2356" stroke="#FFCB12"/>
<line x1="170.255" y1="56.7782" x2="178.426" y2="29.5796" stroke="#FFCB12"/>
<line x1="169.85" y1="57.0772" x2="185.316" y2="33.2587" stroke="#FFCB12"/>
<line x1="171.665" y1="57.342" x2="195.694" y2="42.2058" stroke="#FFCB12"/>
<line x1="171.636" y1="58.8031" x2="199.244" y2="52.1476" stroke="#FFCB12"/>
<line x1="171.693" y1="56.9935" x2="188.139" y2="33.8404" stroke="#FFCB12"/>
<line x1="170.96" y1="57.5341" x2="197.555" y2="47.5724" stroke="#FFCB12"/>
<line x1="169.648" y1="56.3414" x2="182.273" y2="30.9024" stroke="#FFCB12"/>
<line x1="178.457" y1="62.8373" x2="198.111" y2="42.3375" stroke="#FFE484"/>
<line x1="178.457" y1="62.8373" x2="198.111" y2="42.3375" stroke="#FFE484"/>
<line x1="178.457" y1="62.8373" x2="198.111" y2="42.3375" stroke="#FFE484"/>
<line x1="178.457" y1="62.8373" x2="198.111" y2="42.3375" stroke="#FFE484"/>
<line x1="178.457" y1="62.8373" x2="198.111" y2="42.3375" stroke="#FFE484"/>
<line x1="178.457" y1="62.8373" x2="198.111" y2="42.3375" stroke="#FFE484"/>
<line x1="179.043" y1="62.128" x2="201.868" y2="45.2299" stroke="#FFE484"/>
<line x1="178.886" y1="62.4373" x2="199.94" y2="43.3783" stroke="#FFE484"/>
<line x1="177.969" y1="61.9209" x2="186.14" y2="34.7223" stroke="#FFE484"/>
<line x1="177.564" y1="62.2199" x2="193.03" y2="38.4014" stroke="#FFE484"/>
<line x1="179.379" y1="62.4847" x2="203.409" y2="47.3485" stroke="#FFE484"/>
<line x1="179.35" y1="63.9458" x2="206.959" y2="57.2903" stroke="#FFE484"/>
<line x1="179.407" y1="62.1362" x2="195.853" y2="38.9831" stroke="#FFE484"/>
<line x1="178.674" y1="62.6769" x2="205.269" y2="52.7151" stroke="#FFE484"/>
<line x1="177.362" y1="61.4841" x2="189.987" y2="36.0451" stroke="#FFE484"/>
<line x1="182.817" y1="68.0923" x2="207.272" y2="53.6524" stroke="#D23411"/>
<line x1="182.817" y1="68.0923" x2="207.272" y2="53.6524" stroke="#D23411"/>
<line x1="182.817" y1="68.0923" x2="207.272" y2="53.6524" stroke="#D23411"/>
<line x1="182.817" y1="68.0923" x2="207.272" y2="53.6524" stroke="#D23411"/>
<line x1="182.817" y1="68.0923" x2="207.272" y2="53.6524" stroke="#D23411"/>
<line x1="182.817" y1="68.0923" x2="207.272" y2="53.6524" stroke="#D23411"/>
<line x1="183.572" y1="67.5667" x2="210.109" y2="57.4501" stroke="#D23411"/>
<line x1="183.338" y1="67.8225" x2="208.752" y2="55.1476" stroke="#D23411"/>
<line x1="182.594" y1="67.0776" x2="197.797" y2="43.0903" stroke="#D23411"/>
<line x1="182.123" y1="67.2562" x2="203.44" y2="48.4912" stroke="#D23411"/>
<line x1="183.799" y1="68.001" x2="211.02" y2="59.9059" stroke="#D23411"/>
<line x1="183.378" y1="69.3998" x2="211.759" y2="70.4364" stroke="#D23411"/>
<line x1="183.921" y1="67.6734" x2="206.001" y2="49.8133" stroke="#D23411"/>
<line x1="183.069" y1="67.9965" x2="211.365" y2="65.576" stroke="#D23411"/>
<line x1="182.128" y1="66.4938" x2="201.145" y2="45.4022" stroke="#D23411"/>
</svg>
