<svg width="100" height="100" viewBox="0 0 100 100" fill="none" xmlns="http://www.w3.org/2000/svg">
<rect width="100" height="100" fill="#088E3E"/>
<ellipse cx="59.7965" cy="18.6074" rx="4.58015" ry="8.6758" fill="#1AAE20"/>
<ellipse cx="19.9747" cy="15.0684" rx="4.58015" ry="8.6758" fill="#086E31"/>
<ellipse cx="7.88826" cy="55.5938" rx="4.58015" ry="8.6758" fill="#086E31"/>
<ellipse cx="14.2496" cy="86.6441" rx="4.58015" ry="8.6758" fill="#1F9D1D"/>
<ellipse cx="91.5396" cy="67.3516" rx="4.58015" ry="8.6758" fill="#1AAE20"/>
<ellipse cx="53.5" cy="55.5" rx="4.5" ry="8.5" fill="#1F9D1D"/>
<ellipse cx="70.2926" cy="41.3242" rx="4.58015" ry="8.6758" fill="#086E31"/>
<ellipse cx="67.6846" cy="82.0777" rx="4.58015" ry="8.6758" fill="#1AAE20"/>
<ellipse cx="40.9669" cy="86.6441" rx="4.58015" ry="8.6758" fill="#086E31"/>
<ellipse cx="43.0025" cy="18.6074" rx="4.58015" ry="8.6758" fill="#1F9D1D"/>
<ellipse cx="21.692" cy="58.6758" rx="4.58015" ry="8.6758" fill="#1AAE20"/>
<ellipse cx="6.3614" cy="27.2832" rx="4.58015" ry="8.6758" fill="#1AAE20"/>
<ellipse cx="84.8599" cy="18.6074" rx="4.58015" ry="8.6758" fill="#1F9D1D"/>
<ellipse cx="38.5" cy="45" rx="4.5" ry="7" fill="#086E31"/>
<rect width="1.98348" height="11.5404" transform="matrix(0.639463 -0.768822 0.349766 0.936837 56.3809 57.457)" fill="#706549"/>
<rect width="2.99013" height="14.816" transform="matrix(0.740313 0.672263 -0.271402 0.962466 24.0273 23.7144)" fill="#BD9D80"/>
<rect width="2.26555" height="10.6727" transform="matrix(0.667909 -0.744243 0.326997 0.945025 86.9595 39.9282)" fill="#BD9D80"/>
</svg>
