<svg width="1572" height="876" viewBox="0 0 1572 876" fill="none" xmlns="http://www.w3.org/2000/svg">
<rect width="1572" height="876" rx="79" fill="#088E3E"/>
<ellipse cx="940" cy="163" rx="72" ry="76" fill="#1AAE20"/>
<ellipse cx="314" cy="132" rx="72" ry="76" fill="#086E31"/>
<ellipse cx="124" cy="487" rx="72" ry="76" fill="#086E31"/>
<ellipse cx="224" cy="759" rx="72" ry="76" fill="#1F9D1D"/>
<ellipse cx="1439" cy="590" rx="72" ry="76" fill="#1AAE20"/>
<ellipse cx="840" cy="490" rx="72" ry="76" fill="#1F9D1D"/>
<ellipse cx="1105" cy="362" rx="72" ry="76" fill="#086E31"/>
<ellipse cx="1064" cy="719" rx="72" ry="76" fill="#1AAE20"/>
<ellipse cx="644" cy="759" rx="72" ry="76" fill="#086E31"/>
<ellipse cx="676" cy="163" rx="72" ry="76" fill="#1F9D1D"/>
<ellipse cx="341" cy="514" rx="72" ry="76" fill="#1AAE20"/>
<ellipse cx="100" cy="239" rx="72" ry="76" fill="#1AAE20"/>
<ellipse cx="1334" cy="163" rx="72" ry="76" fill="#1F9D1D"/>
<ellipse cx="604" cy="411" rx="72" ry="76" fill="#086E31"/>
<rect x="886.304" y="503.325" width="24" height="114" transform="rotate(-33.8213 886.304 503.325)" fill="#706549"/>
<rect x="377.707" y="207.737" width="39" height="140" transform="rotate(26.8407 377.707 207.737)" fill="#BD9D80"/>
<rect x="1367" y="349.771" width="28" height="104" transform="rotate(-31.8377 1367 349.771)" fill="#BD9D80"/>
</svg>
