<svg width="847" height="807" viewBox="0 0 847 807" fill="none" xmlns="http://www.w3.org/2000/svg">
<ellipse cx="418" cy="372" rx="310" ry="308" fill="#706549"/>
<rect x="602.979" y="108" width="39" height="520" transform="rotate(26.3716 602.979 108)" fill="#BD9D80"/>
<rect x="372" y="387" width="93" height="36" fill="#BD9D80"/>
<rect x="108.933" y="530.781" width="39" height="520" transform="rotate(-129.676 108.933 530.781)" fill="#BD9D80"/>
<rect x="433.288" y="369.58" width="93" height="36" transform="rotate(-156.048 433.288 369.58)" fill="#BD9D80"/>
<rect x="185" y="314" width="28" height="117" fill="#BD9D80"/>
<rect x="249.477" y="43.8296" width="39" height="520" transform="rotate(-36.0306 249.477 43.8296)" fill="#BD9D80"/>
<rect x="389.729" y="377.778" width="93" height="36" transform="rotate(-62.4021 389.729 377.778)" fill="#BD9D80"/>
<rect x="460.983" y="133.527" width="28" height="117" transform="rotate(93.6455 460.983 133.527)" fill="#BD9D80"/>
<rect x="464.711" y="320" width="411" height="36" transform="rotate(27.6591 464.711 320)" fill="#BD9D80"/>
<rect x="509.221" y="314.523" width="411" height="36" transform="rotate(128.729 509.221 314.523)" fill="#BD9D80"/>
<rect x="603.308" y="264.733" width="18.1641" height="107.771" transform="rotate(-22.4177 603.308 264.733)" fill="#365E46"/>
<ellipse cx="594.76" cy="215.433" rx="77.5" ry="107.771" transform="rotate(-22.4177 594.76 215.433)" fill="#357C38"/>
<path d="M536.643 74.5548L605.06 122.154L521.687 156.548L536.643 74.5548Z" fill="#357C38"/>
<rect x="539.234" y="96.7114" width="8.47656" height="233.644" transform="rotate(-22.4177 539.234 96.7114)" fill="#365D46"/>
<rect width="4.53367" height="56.6241" transform="matrix(0.999822 -0.0188456 -0.28439 0.958709 624.244 220.575)" fill="#365D46"/>
<rect width="4.53367" height="56.6241" transform="matrix(-0.722298 0.691582 0.877629 0.47934 579.1 241.02)" fill="#365D46"/>
<rect width="4.53367" height="56.6241" transform="matrix(-0.722298 0.691582 0.877629 0.47934 543.325 173.352)" fill="#365D46"/>
<rect width="4.53367" height="56.6241" transform="matrix(0.999822 -0.0188456 -0.28439 0.958709 599.746 150.076)" fill="#365D46"/>
<rect x="476.699" y="497.989" width="18.1641" height="107.771" transform="rotate(-4.06502 476.699 497.989)" fill="#365E46"/>
<ellipse cx="484.108" cy="448.506" rx="77.5" ry="107.771" transform="rotate(-4.06502 484.108 448.506)" fill="#CBE42F"/>
<path d="M473.305 296.494L523.255 363.214L433.293 369.608L473.305 296.494Z" fill="#CBE42F"/>
<rect x="468.788" y="318.339" width="8.47656" height="233.644" transform="rotate(-4.06502 468.788 318.339)" fill="#365D46"/>
<rect width="4.53367" height="56.6241" transform="matrix(0.954902 0.296921 -0.571788 0.820401 510.474 462.669)" fill="#365D46"/>
<rect width="4.53367" height="56.6241" transform="matrix(-0.903314 0.42898 0.682063 0.731293 461.188 467.86)" fill="#365D46"/>
<rect width="4.53367" height="56.6241" transform="matrix(-0.903314 0.42898 0.682063 0.731293 448.54 392.37)" fill="#365D46"/>
<rect width="4.53367" height="56.6241" transform="matrix(0.954902 0.296921 -0.571788 0.820401 509.419 388.043)" fill="#365D46"/>
<rect x="582.977" y="501.649" width="18.1641" height="107.771" transform="rotate(-54.025 582.977 501.649)" fill="#365E46"/>
<ellipse cx="549.859" cy="464.143" rx="77.5" ry="107.771" transform="rotate(-54.025 549.859 464.143)" fill="#357C38"/>
<path d="M426.53 374.621L509.744 379.303L456.765 452.29L426.53 374.621Z" fill="#357C38"/>
<rect x="440.348" y="392.133" width="8.47656" height="233.644" transform="rotate(-54.025 440.348 392.133)" fill="#365D46"/>
<rect width="4.53367" height="56.6241" transform="matrix(0.841631 -0.540053 0.260251 0.965541 577.665 453.069)" fill="#365D46"/>
<rect width="4.53367" height="56.6241" transform="matrix(-0.252697 0.967545 0.998661 -0.0517275 549.932 494.141)" fill="#365D46"/>
<rect width="4.53367" height="56.6241" transform="matrix(-0.252697 0.967545 0.998661 -0.0517275 484 455.26)" fill="#365D46"/>
<rect width="4.53367" height="56.6241" transform="matrix(0.841631 -0.540053 0.260251 0.965541 519.853 405.868)" fill="#365D46"/>
<rect x="454.973" y="689.747" width="18.1641" height="107.771" transform="rotate(-54.025 454.973 689.747)" fill="#365E46"/>
<ellipse cx="421.856" cy="652.241" rx="77.5" ry="107.771" transform="rotate(-54.025 421.856 652.241)" fill="#357C38"/>
<path d="M298.526 562.719L381.74 567.4L328.761 640.387L298.526 562.719Z" fill="#357C38"/>
<rect x="312.344" y="580.231" width="8.47656" height="233.644" transform="rotate(-54.025 312.344 580.231)" fill="#365D46"/>
<rect width="4.53367" height="56.6241" transform="matrix(0.841631 -0.540053 0.260251 0.965541 449.661 641.167)" fill="#365D46"/>
<rect width="4.53367" height="56.6241" transform="matrix(-0.252697 0.967545 0.998661 -0.0517275 421.928 682.239)" fill="#365D46"/>
<rect width="4.53367" height="56.6241" transform="matrix(-0.252697 0.967545 0.998661 -0.0517275 355.996 643.358)" fill="#365D46"/>
<rect width="4.53367" height="56.6241" transform="matrix(0.841631 -0.540053 0.260251 0.965541 391.849 593.965)" fill="#365D46"/>
<rect x="431.308" y="564.733" width="18.1641" height="107.771" transform="rotate(-22.4177 431.308 564.733)" fill="#365E46"/>
<ellipse cx="422.76" cy="515.433" rx="77.5" ry="107.771" transform="rotate(-22.4177 422.76 515.433)" fill="#357C38"/>
<path d="M364.643 374.555L433.06 422.154L349.687 456.548L364.643 374.555Z" fill="#357C38"/>
<rect x="367.234" y="396.711" width="8.47656" height="233.644" transform="rotate(-22.4177 367.234 396.711)" fill="#365D46"/>
<rect width="4.53367" height="56.6241" transform="matrix(0.999822 -0.0188456 -0.28439 0.958709 452.244 520.575)" fill="#365D46"/>
<rect width="4.53367" height="56.6241" transform="matrix(-0.722298 0.691582 0.877629 0.47934 407.1 541.02)" fill="#365D46"/>
<rect width="4.53367" height="56.6241" transform="matrix(-0.722298 0.691582 0.877629 0.47934 371.325 473.352)" fill="#365D46"/>
<rect width="4.53367" height="56.6241" transform="matrix(0.999822 -0.0188456 -0.28439 0.958709 427.746 450.076)" fill="#365D46"/>
<rect x="299.879" y="202.404" width="18.1641" height="107.771" transform="rotate(35.5869 299.879 202.404)" fill="#365E46"/>
<ellipse cx="337.16" cy="169.033" rx="77.5" ry="107.771" transform="rotate(35.5869 337.16 169.033)" fill="#CBE42F"/>
<path d="M425.844 45.1L421.727 128.344L348.382 75.8602L425.844 45.1Z" fill="#CBE42F"/>
<rect x="408.426" y="59.0366" width="8.47656" height="233.644" transform="rotate(35.5869 408.426 59.0366)" fill="#365D46"/>
<rect width="4.53367" height="56.6241" transform="matrix(0.54574 0.837954 -0.963756 0.266784 348.422 196.763)" fill="#365D46"/>
<rect width="4.53367" height="56.6241" transform="matrix(-0.969235 -0.246138 0.0584898 0.998288 307.163 169.309)" fill="#365D46"/>
<rect width="4.53367" height="56.6241" transform="matrix(-0.969235 -0.246138 0.0584898 0.998288 345.597 103.115)" fill="#365D46"/>
<rect width="4.53367" height="56.6241" transform="matrix(0.54574 0.837954 -0.963756 0.266784 395.231 138.632)" fill="#365D46"/>
<rect x="736.828" y="357.741" width="16.0592" height="107.771" transform="rotate(-19.2142 736.828 357.741)" fill="#365E46"/>
<ellipse cx="729.856" cy="308.456" rx="68.5194" ry="107.771" transform="rotate(-19.2142 729.856 308.456)" fill="#CBE42F"/>
<path d="M679.702 164.55L740.418 217.618L665.122 243.86L679.702 164.55Z" fill="#CBE42F"/>
<rect x="681.713" y="186.586" width="7.49431" height="233.644" transform="rotate(-19.2142 681.713 186.586)" fill="#365D46"/>
<rect width="4.08175" height="54.1273" transform="matrix(0.996746 0.0806123 -0.281143 0.959666 756.239 316.202)" fill="#365D46"/>
<rect width="4.08175" height="54.1273" transform="matrix(-0.730732 0.682664 0.816711 0.577047 715.442 332.204)" fill="#365D46"/>
<rect width="4.08175" height="54.1273" transform="matrix(-0.730732 0.682664 0.816711 0.577047 684.3 262.364)" fill="#365D46"/>
<rect width="4.08175" height="54.1273" transform="matrix(0.996746 0.0806123 -0.281143 0.959666 735.255 244.606)" fill="#365D46"/>
<rect x="102.613" y="477.432" width="18.1641" height="107.771" transform="rotate(22.3757 102.613 477.432)" fill="#365E46"/>
<ellipse cx="131.281" cy="436.423" rx="77.5" ry="107.771" transform="rotate(22.3757 131.281 436.423)" fill="#357C38"/>
<path d="M189.294 295.503L204.31 377.485L120.912 343.152L189.294 295.503Z" fill="#357C38"/>
<rect x="175.522" y="313.051" width="8.47656" height="233.644" transform="rotate(22.3757 175.522 313.051)" fill="#365D46"/>
<rect width="4.53367" height="56.6241" transform="matrix(0.722805 0.691052 -0.877278 0.479983 148.582 460.846)" fill="#365D46"/>
<rect width="4.53367" height="56.6241" transform="matrix(-0.999836 -0.0181127 0.285093 0.9585 102.141 443.548)" fill="#365D46"/>
<rect width="4.53367" height="56.6241" transform="matrix(-0.999836 -0.0181127 0.285093 0.9585 124.429 370.322)" fill="#365D46"/>
<rect width="4.53367" height="56.6241" transform="matrix(0.722805 0.691052 -0.877278 0.479983 180.867 393.556)" fill="#365D46"/>
<rect x="137.26" y="255.82" width="15.485" height="106.15" transform="rotate(-9.36071 137.26 255.82)" fill="#365E46"/>
<ellipse cx="138.604" cy="206.85" rx="66.0695" ry="106.15" transform="rotate(-9.36071 138.604 206.85)" fill="#357C38"/>
<path d="M114.19 58.7462L163.351 120.613L87.4878 133.119L114.19 58.7462Z" fill="#357C38"/>
<rect x="112.537" y="80.4512" width="7.22635" height="230.13" transform="rotate(-9.36071 112.537 80.4512)" fill="#365D46"/>
<rect width="3.94975" height="52.937" transform="matrix(0.966238 0.25765 -0.43221 0.901773 162.444 218.89)" fill="#365D46"/>
<rect width="3.94975" height="52.937" transform="matrix(-0.832417 0.554149 0.698782 0.715335 121.052 227.394)" fill="#365D46"/>
<rect width="3.94975" height="52.937" transform="matrix(-0.832417 0.554149 0.698782 0.715335 102.733 154.349)" fill="#365D46"/>
<rect width="3.94975" height="52.937" transform="matrix(0.966238 0.25765 -0.43221 0.901773 154.072 145.886)" fill="#365D46"/>
<rect x="411.659" y="225.125" width="18.1641" height="107.771" transform="rotate(48.0099 411.659 225.125)" fill="#365E46"/>
<ellipse cx="455.246" cy="200.555" rx="77.5" ry="107.771" transform="rotate(48.0099 455.246 200.555)" fill="#31B637"/>
<path d="M568.515 98.6027L546.586 179.012L486.25 111.979L568.515 98.6027Z" fill="#31B637"/>
<rect x="548.507" y="108.466" width="8.47656" height="233.644" transform="rotate(48.0099 548.507 108.466)" fill="#365D46"/>
<rect width="4.53367" height="56.6241" transform="matrix(0.352696 0.935738 -0.998583 0.0532086 460.279 230.059)" fill="#365D46"/>
<rect width="4.53367" height="56.6241" transform="matrix(-0.89359 -0.448883 -0.157638 0.987497 425.892 194.372)" fill="#365D46"/>
<rect width="4.53367" height="56.6241" transform="matrix(-0.89359 -0.448883 -0.157638 0.987497 477.666 137.996)" fill="#365D46"/>
<rect width="4.53367" height="56.6241" transform="matrix(0.352696 0.935738 -0.998583 0.0532086 518.497 183.359)" fill="#365D46"/>
<rect x="431.659" y="581.125" width="18.1641" height="107.771" transform="rotate(48.0099 431.659 581.125)" fill="#365E46"/>
<ellipse cx="475.246" cy="556.555" rx="77.5" ry="107.771" transform="rotate(48.0099 475.246 556.555)" fill="#31B637"/>
<path d="M588.515 454.603L566.586 535.012L506.25 467.979L588.515 454.603Z" fill="#31B637"/>
<rect x="568.507" y="464.466" width="8.47656" height="233.644" transform="rotate(48.0099 568.507 464.466)" fill="#365D46"/>
<rect width="4.53367" height="56.6241" transform="matrix(0.352696 0.935738 -0.998583 0.0532086 480.279 586.059)" fill="#365D46"/>
<rect width="4.53367" height="56.6241" transform="matrix(-0.89359 -0.448883 -0.157638 0.987497 445.892 550.372)" fill="#365D46"/>
<rect width="4.53367" height="56.6241" transform="matrix(-0.89359 -0.448883 -0.157638 0.987497 497.666 493.996)" fill="#365D46"/>
<rect width="4.53367" height="56.6241" transform="matrix(0.352696 0.935738 -0.998583 0.0532086 538.497 539.359)" fill="#365D46"/>
<rect x="584.659" y="653.125" width="18.1641" height="107.771" transform="rotate(48.0099 584.659 653.125)" fill="#365E46"/>
<ellipse cx="628.246" cy="628.555" rx="77.5" ry="107.771" transform="rotate(48.0099 628.246 628.555)" fill="#31B637"/>
<path d="M741.515 526.603L719.586 607.012L659.25 539.979L741.515 526.603Z" fill="#31B637"/>
<rect x="721.507" y="536.466" width="8.47656" height="233.644" transform="rotate(48.0099 721.507 536.466)" fill="#365D46"/>
<rect width="4.53367" height="56.6241" transform="matrix(0.352696 0.935738 -0.998583 0.0532086 633.279 658.059)" fill="#365D46"/>
<rect width="4.53367" height="56.6241" transform="matrix(-0.89359 -0.448883 -0.157638 0.987497 598.892 622.372)" fill="#365D46"/>
<rect width="4.53367" height="56.6241" transform="matrix(-0.89359 -0.448883 -0.157638 0.987497 650.666 565.996)" fill="#365D46"/>
<rect width="4.53367" height="56.6241" transform="matrix(0.352696 0.935738 -0.998583 0.0532086 691.497 611.359)" fill="#365D46"/>
<rect x="626.798" y="469.454" width="18.1641" height="107.771" transform="rotate(-1.48615 626.798 469.454)" fill="#365E46"/>
<ellipse cx="636.426" cy="420.354" rx="77.5" ry="107.771" transform="rotate(-1.48615 636.426 420.354)" fill="#31B637"/>
<path d="M632.474 268.01L679.371 336.91L589.213 339.249L632.474 268.01Z" fill="#31B637"/>
<rect x="626.978" y="289.63" width="8.47656" height="233.644" transform="rotate(-1.48615 626.978 289.63)" fill="#365D46"/>
<rect width="4.53367" height="56.6241" transform="matrix(0.940575 0.339586 -0.608123 0.793843 662.128 435.689)" fill="#365D46"/>
<rect width="4.53367" height="56.6241" transform="matrix(-0.921701 0.387901 0.648468 0.761242 612.659 438.658)" fill="#365D46"/>
<rect width="4.53367" height="56.6241" transform="matrix(-0.921701 0.387901 0.648468 0.761242 603.42 362.674)" fill="#365D46"/>
<rect width="4.53367" height="56.6241" transform="matrix(0.940575 0.339586 -0.608123 0.793843 664.433 361.091)" fill="#365D46"/>
<rect x="284.098" y="282.271" width="18.1641" height="107.771" transform="rotate(-35.6985 284.098 282.271)" fill="#365E46"/>
<ellipse cx="264.453" cy="236.254" rx="77.5" ry="107.771" transform="rotate(-35.6985 264.453 236.254)" fill="#31B637"/>
<path d="M175.527 112.494L253.049 143.104L179.807 195.73L175.527 112.494Z" fill="#31B637"/>
<rect x="183.139" y="133.463" width="8.47656" height="233.644" transform="rotate(-35.6985 183.139 133.463)" fill="#365D46"/>
<rect width="4.53367" height="56.6241" transform="matrix(0.968753 -0.248026 -0.0565452 0.9984 294.33 234.485)" fill="#365D46"/>
<rect width="4.53367" height="56.6241" transform="matrix(-0.544107 0.839016 0.964274 0.264907 255.09 264.754)" fill="#365D46"/>
<rect width="4.53367" height="56.6241" transform="matrix(-0.544107 0.839016 0.964274 0.264907 204.727 207.114)" fill="#365D46"/>
<rect width="4.53367" height="56.6241" transform="matrix(0.968753 -0.248026 -0.0565452 0.9984 254.292 171.5)" fill="#365D46"/>
<rect x="265.205" y="566.286" width="18.1641" height="107.771" transform="rotate(29.469 265.205 566.286)" fill="#365E46"/>
<ellipse cx="298.717" cy="529.131" rx="77.5" ry="107.771" transform="rotate(29.469 298.717 529.131)" fill="#31B637"/>
<path d="M373.688 396.453L378.466 479.662L299.945 435.293L373.688 396.453Z" fill="#31B637"/>
<rect x="357.854" y="412.166" width="8.47656" height="233.644" transform="rotate(29.469 357.854 412.166)" fill="#365D46"/>
<rect width="4.53367" height="56.6241" transform="matrix(0.631937 0.775019 -0.929835 0.367978 312.87 555.503)" fill="#365D46"/>
<rect width="4.53367" height="56.6241" transform="matrix(-0.989947 -0.14144 0.16455 0.986369 268.92 532.603)" fill="#365D46"/>
<rect width="4.53367" height="56.6241" transform="matrix(-0.989947 -0.14144 0.16455 0.986369 300.08 462.689)" fill="#365D46"/>
<rect width="4.53367" height="56.6241" transform="matrix(0.631937 0.775019 -0.929835 0.367978 353.217 492.714)" fill="#365D46"/>
<rect x="375.879" y="346.404" width="18.1641" height="107.771" transform="rotate(35.5869 375.879 346.404)" fill="#365E46"/>
<ellipse cx="413.16" cy="313.033" rx="77.5" ry="107.771" transform="rotate(35.5869 413.16 313.033)" fill="#CBE42F"/>
<path d="M501.844 189.1L497.727 272.344L424.382 219.86L501.844 189.1Z" fill="#CBE42F"/>
<rect x="484.426" y="203.037" width="8.47656" height="233.644" transform="rotate(35.5869 484.426 203.037)" fill="#365D46"/>
<rect width="4.53367" height="56.6241" transform="matrix(0.54574 0.837954 -0.963756 0.266784 424.422 340.763)" fill="#365D46"/>
<rect width="4.53367" height="56.6241" transform="matrix(-0.969235 -0.246138 0.0584898 0.998288 383.163 313.309)" fill="#365D46"/>
<rect width="4.53367" height="56.6241" transform="matrix(-0.969235 -0.246138 0.0584898 0.998288 421.597 247.115)" fill="#365D46"/>
<rect width="4.53367" height="56.6241" transform="matrix(0.54574 0.837954 -0.963756 0.266784 471.231 282.632)" fill="#365D46"/>
<rect x="655.879" y="550.404" width="18.1641" height="107.771" transform="rotate(35.5869 655.879 550.404)" fill="#365E46"/>
<ellipse cx="693.16" cy="517.033" rx="77.5" ry="107.771" transform="rotate(35.5869 693.16 517.033)" fill="#CBE42F"/>
<path d="M781.844 393.1L777.727 476.344L704.382 423.86L781.844 393.1Z" fill="#CBE42F"/>
<rect x="764.426" y="407.037" width="8.47656" height="233.644" transform="rotate(35.5869 764.426 407.037)" fill="#365D46"/>
<rect width="4.53367" height="56.6241" transform="matrix(0.54574 0.837954 -0.963756 0.266784 704.422 544.763)" fill="#365D46"/>
<rect width="4.53367" height="56.6241" transform="matrix(-0.969235 -0.246138 0.0584898 0.998288 663.163 517.309)" fill="#365D46"/>
<rect width="4.53367" height="56.6241" transform="matrix(-0.969235 -0.246138 0.0584898 0.998288 701.597 451.115)" fill="#365D46"/>
<rect width="4.53367" height="56.6241" transform="matrix(0.54574 0.837954 -0.963756 0.266784 751.231 486.632)" fill="#365D46"/>
<rect x="283.726" y="474.461" width="18.1641" height="107.771" transform="rotate(-37.0656 283.726 474.461)" fill="#365E46"/>
<ellipse cx="262.989" cy="428.926" rx="77.5" ry="107.771" transform="rotate(-37.0656 262.989 428.926)" fill="#CBE42F"/>
<path d="M171.136 307.323L249.366 336.074L177.4 390.433L171.136 307.323Z" fill="#CBE42F"/>
<rect x="179.245" y="328.104" width="8.47656" height="233.644" transform="rotate(-37.0656 179.245 328.104)" fill="#365D46"/>
<rect width="4.53367" height="56.6241" transform="matrix(0.96256 -0.271068 -0.0327094 0.999465 292.815 426.444)" fill="#365D46"/>
<rect width="4.53367" height="56.6241" transform="matrix(-0.523935 0.851758 0.97032 0.241826 254.308 457.641)" fill="#365D46"/>
<rect width="4.53367" height="56.6241" transform="matrix(-0.523935 0.851758 0.97032 0.241826 202.584 401.218)" fill="#365D46"/>
<rect width="4.53367" height="56.6241" transform="matrix(0.96256 -0.271068 -0.0327094 0.999465 251.286 364.432)" fill="#365D46"/>
</svg>
