<svg width="1474" height="2540" viewBox="0 0 1474 2540" fill="none" xmlns="http://www.w3.org/2000/svg">
<rect x="604.049" y="927" width="352" height="1466" fill="#7B662F"/>
<rect x="967.357" y="807.733" width="18.1641" height="107.771" transform="rotate(-22.4177 967.357 807.733)" fill="#365E46"/>
<ellipse cx="958.809" cy="758.433" rx="77.5" ry="107.771" transform="rotate(-22.4177 958.809 758.433)" fill="#357C38"/>
<path d="M900.692 617.555L969.109 665.154L885.736 699.548L900.692 617.555Z" fill="#357C38"/>
<rect x="903.282" y="639.711" width="8.47656" height="233.644" transform="rotate(-22.4177 903.282 639.711)" fill="#365D46"/>
<rect width="4.53367" height="56.6241" transform="matrix(0.999822 -0.0188456 -0.28439 0.958709 988.293 763.575)" fill="#365D46"/>
<rect width="4.53367" height="56.6241" transform="matrix(-0.722298 0.691582 0.877629 0.47934 943.149 784.02)" fill="#365D46"/>
<rect width="4.53367" height="56.6241" transform="matrix(-0.722298 0.691582 0.877629 0.47934 907.374 716.352)" fill="#365D46"/>
<rect width="4.53367" height="56.6241" transform="matrix(0.999822 -0.0188456 -0.28439 0.958709 963.795 693.076)" fill="#365D46"/>
<rect x="600.748" y="616.989" width="18.1641" height="107.771" transform="rotate(-4.06502 600.748 616.989)" fill="#365E46"/>
<ellipse cx="608.157" cy="567.506" rx="77.5" ry="107.771" transform="rotate(-4.06502 608.157 567.506)" fill="#CBE42F"/>
<path d="M597.353 415.494L647.303 482.214L557.341 488.608L597.353 415.494Z" fill="#CBE42F"/>
<rect x="592.836" y="437.339" width="8.47656" height="233.644" transform="rotate(-4.06502 592.836 437.339)" fill="#365D46"/>
<rect width="4.53367" height="56.6241" transform="matrix(0.954902 0.296921 -0.571788 0.820401 634.522 581.669)" fill="#365D46"/>
<rect width="4.53367" height="56.6241" transform="matrix(-0.903314 0.42898 0.682063 0.731293 585.237 586.86)" fill="#365D46"/>
<rect width="4.53367" height="56.6241" transform="matrix(-0.903314 0.42898 0.682063 0.731293 572.589 511.37)" fill="#365D46"/>
<rect width="4.53367" height="56.6241" transform="matrix(0.954902 0.296921 -0.571788 0.820401 633.468 507.043)" fill="#365D46"/>
<rect x="987.022" y="644.747" width="18.1641" height="107.771" transform="rotate(-54.025 987.022 644.747)" fill="#365E46"/>
<ellipse cx="953.904" cy="607.241" rx="77.5" ry="107.771" transform="rotate(-54.025 953.904 607.241)" fill="#357C38"/>
<path d="M830.575 517.719L913.79 522.4L860.81 595.387L830.575 517.719Z" fill="#357C38"/>
<rect x="844.394" y="535.231" width="8.47656" height="233.644" transform="rotate(-54.025 844.394 535.231)" fill="#365D46"/>
<rect width="4.53367" height="56.6241" transform="matrix(0.841631 -0.540053 0.260251 0.965541 981.71 596.167)" fill="#365D46"/>
<rect width="4.53367" height="56.6241" transform="matrix(-0.252697 0.967545 0.998661 -0.0517275 953.978 637.239)" fill="#365D46"/>
<rect width="4.53367" height="56.6241" transform="matrix(-0.252697 0.967545 0.998661 -0.0517275 888.045 598.358)" fill="#365D46"/>
<rect width="4.53367" height="56.6241" transform="matrix(0.841631 -0.540053 0.260251 0.965541 923.897 548.965)" fill="#365D46"/>
<rect x="475.021" y="800.747" width="18.1641" height="107.771" transform="rotate(-54.025 475.021 800.747)" fill="#365E46"/>
<ellipse cx="441.903" cy="763.241" rx="77.5" ry="107.771" transform="rotate(-54.025 441.903 763.241)" fill="#357C38"/>
<path d="M318.574 673.719L401.789 678.4L348.809 751.387L318.574 673.719Z" fill="#357C38"/>
<rect x="332.393" y="691.231" width="8.47656" height="233.644" transform="rotate(-54.025 332.393 691.231)" fill="#365D46"/>
<rect width="4.53367" height="56.6241" transform="matrix(0.841631 -0.540053 0.260251 0.965541 469.709 752.167)" fill="#365D46"/>
<rect width="4.53367" height="56.6241" transform="matrix(-0.252697 0.967545 0.998661 -0.0517275 441.977 793.239)" fill="#365D46"/>
<rect width="4.53367" height="56.6241" transform="matrix(-0.252697 0.967545 0.998661 -0.0517275 376.044 754.358)" fill="#365D46"/>
<rect width="4.53367" height="56.6241" transform="matrix(0.841631 -0.540053 0.260251 0.965541 411.896 704.965)" fill="#365D46"/>
<rect x="546.357" y="955.733" width="18.1641" height="107.771" transform="rotate(-22.4177 546.357 955.733)" fill="#365E46"/>
<ellipse cx="537.809" cy="906.433" rx="77.5" ry="107.771" transform="rotate(-22.4177 537.809 906.433)" fill="#357C38"/>
<path d="M479.692 765.555L548.109 813.154L464.736 847.548L479.692 765.555Z" fill="#357C38"/>
<rect x="482.282" y="787.711" width="8.47656" height="233.644" transform="rotate(-22.4177 482.282 787.711)" fill="#365D46"/>
<rect width="4.53367" height="56.6241" transform="matrix(0.999822 -0.0188456 -0.28439 0.958709 567.293 911.575)" fill="#365D46"/>
<rect width="4.53367" height="56.6241" transform="matrix(-0.722298 0.691582 0.877629 0.47934 522.149 932.02)" fill="#365D46"/>
<rect width="4.53367" height="56.6241" transform="matrix(-0.722298 0.691582 0.877629 0.47934 486.374 864.352)" fill="#365D46"/>
<rect width="4.53367" height="56.6241" transform="matrix(0.999822 -0.0188456 -0.28439 0.958709 542.795 841.076)" fill="#365D46"/>
<rect x="839.927" y="673.404" width="18.1641" height="107.771" transform="rotate(35.5869 839.927 673.404)" fill="#365E46"/>
<ellipse cx="877.208" cy="640.033" rx="77.5" ry="107.771" transform="rotate(35.5869 877.208 640.033)" fill="#CBE42F"/>
<path d="M965.893 516.1L961.775 599.344L888.431 546.86L965.893 516.1Z" fill="#CBE42F"/>
<rect x="948.475" y="530.037" width="8.47656" height="233.644" transform="rotate(35.5869 948.475 530.037)" fill="#365D46"/>
<rect width="4.53367" height="56.6241" transform="matrix(0.54574 0.837954 -0.963756 0.266784 888.47 667.763)" fill="#365D46"/>
<rect width="4.53367" height="56.6241" transform="matrix(-0.969235 -0.246138 0.0584898 0.998288 847.211 640.309)" fill="#365D46"/>
<rect width="4.53367" height="56.6241" transform="matrix(-0.969235 -0.246138 0.0584898 0.998288 885.645 574.115)" fill="#365D46"/>
<rect width="4.53367" height="56.6241" transform="matrix(0.54574 0.837954 -0.963756 0.266784 935.279 609.632)" fill="#365D46"/>
<rect x="975.877" y="972.741" width="16.0592" height="107.771" transform="rotate(-19.2142 975.877 972.741)" fill="#365E46"/>
<ellipse cx="968.904" cy="923.456" rx="68.5194" ry="107.771" transform="rotate(-19.2142 968.904 923.456)" fill="#CBE42F"/>
<path d="M918.751 779.55L979.467 832.618L904.171 858.86L918.751 779.55Z" fill="#CBE42F"/>
<rect x="920.762" y="801.586" width="7.49431" height="233.644" transform="rotate(-19.2142 920.762 801.586)" fill="#365D46"/>
<rect width="4.08175" height="54.1273" transform="matrix(0.996746 0.0806123 -0.281143 0.959666 995.288 931.202)" fill="#365D46"/>
<rect width="4.08175" height="54.1273" transform="matrix(-0.730732 0.682664 0.816711 0.577047 954.491 947.204)" fill="#365D46"/>
<rect width="4.08175" height="54.1273" transform="matrix(-0.730732 0.682664 0.816711 0.577047 923.349 877.364)" fill="#365D46"/>
<rect width="4.08175" height="54.1273" transform="matrix(0.996746 0.0806123 -0.281143 0.959666 974.304 859.606)" fill="#365D46"/>
<rect x="754.661" y="876.432" width="18.1641" height="107.771" transform="rotate(22.3757 754.661 876.432)" fill="#365E46"/>
<ellipse cx="783.329" cy="835.423" rx="77.5" ry="107.771" transform="rotate(22.3757 783.329 835.423)" fill="#357C38"/>
<path d="M841.342 694.503L856.358 776.485L772.96 742.152L841.342 694.503Z" fill="#357C38"/>
<rect x="827.57" y="712.051" width="8.47656" height="233.644" transform="rotate(22.3757 827.57 712.051)" fill="#365D46"/>
<rect width="4.53367" height="56.6241" transform="matrix(0.722805 0.691052 -0.877278 0.479983 800.63 859.846)" fill="#365D46"/>
<rect width="4.53367" height="56.6241" transform="matrix(-0.999836 -0.0181127 0.285093 0.9585 754.189 842.548)" fill="#365D46"/>
<rect width="4.53367" height="56.6241" transform="matrix(-0.999836 -0.0181127 0.285093 0.9585 776.478 769.322)" fill="#365D46"/>
<rect width="4.53367" height="56.6241" transform="matrix(0.722805 0.691052 -0.877278 0.479983 832.915 792.556)" fill="#365D46"/>
<rect x="557.309" y="782.82" width="15.485" height="106.15" transform="rotate(-9.36071 557.309 782.82)" fill="#365E46"/>
<ellipse cx="558.652" cy="733.85" rx="66.0695" ry="106.15" transform="rotate(-9.36071 558.652 733.85)" fill="#357C38"/>
<path d="M534.239 585.746L583.399 647.613L507.537 660.119L534.239 585.746Z" fill="#357C38"/>
<rect x="532.585" y="607.451" width="7.22635" height="230.13" transform="rotate(-9.36071 532.585 607.451)" fill="#365D46"/>
<rect width="3.94975" height="52.937" transform="matrix(0.966238 0.25765 -0.43221 0.901773 582.493 745.89)" fill="#365D46"/>
<rect width="3.94975" height="52.937" transform="matrix(-0.832417 0.554149 0.698782 0.715335 541.101 754.394)" fill="#365D46"/>
<rect width="3.94975" height="52.937" transform="matrix(-0.832417 0.554149 0.698782 0.715335 522.782 681.349)" fill="#365D46"/>
<rect width="3.94975" height="52.937" transform="matrix(0.966238 0.25765 -0.43221 0.901773 574.121 672.886)" fill="#365D46"/>
<rect x="703.708" y="728.125" width="18.1641" height="107.771" transform="rotate(48.0099 703.708 728.125)" fill="#365E46"/>
<ellipse cx="747.296" cy="703.555" rx="77.5" ry="107.771" transform="rotate(48.0099 747.296 703.555)" fill="#31B637"/>
<path d="M860.565 601.603L838.635 682.012L778.299 614.979L860.565 601.603Z" fill="#31B637"/>
<rect x="840.556" y="611.466" width="8.47656" height="233.644" transform="rotate(48.0099 840.556 611.466)" fill="#365D46"/>
<rect width="4.53367" height="56.6241" transform="matrix(0.352696 0.935738 -0.998583 0.0532086 752.328 733.059)" fill="#365D46"/>
<rect width="4.53367" height="56.6241" transform="matrix(-0.89359 -0.448883 -0.157638 0.987497 717.941 697.372)" fill="#365D46"/>
<rect width="4.53367" height="56.6241" transform="matrix(-0.89359 -0.448883 -0.157638 0.987497 769.715 640.996)" fill="#365D46"/>
<rect width="4.53367" height="56.6241" transform="matrix(0.352696 0.935738 -0.998583 0.0532086 810.546 686.359)" fill="#365D46"/>
<rect x="828.708" y="900.125" width="18.1641" height="107.771" transform="rotate(48.0099 828.708 900.125)" fill="#365E46"/>
<ellipse cx="872.296" cy="875.555" rx="77.5" ry="107.771" transform="rotate(48.0099 872.296 875.555)" fill="#31B637"/>
<path d="M985.565 773.603L963.635 854.012L903.299 786.979L985.565 773.603Z" fill="#31B637"/>
<rect x="965.556" y="783.466" width="8.47656" height="233.644" transform="rotate(48.0099 965.556 783.466)" fill="#365D46"/>
<rect width="4.53367" height="56.6241" transform="matrix(0.352696 0.935738 -0.998583 0.0532086 877.328 905.059)" fill="#365D46"/>
<rect width="4.53367" height="56.6241" transform="matrix(-0.89359 -0.448883 -0.157638 0.987497 842.941 869.372)" fill="#365D46"/>
<rect width="4.53367" height="56.6241" transform="matrix(-0.89359 -0.448883 -0.157638 0.987497 894.715 812.996)" fill="#365D46"/>
<rect width="4.53367" height="56.6241" transform="matrix(0.352696 0.935738 -0.998583 0.0532086 935.546 858.359)" fill="#365D46"/>
<rect x="740.708" y="540.125" width="18.1641" height="107.771" transform="rotate(48.0099 740.708 540.125)" fill="#365E46"/>
<ellipse cx="784.296" cy="515.555" rx="77.5" ry="107.771" transform="rotate(48.0099 784.296 515.555)" fill="#31B637"/>
<path d="M897.565 413.603L875.635 494.012L815.299 426.979L897.565 413.603Z" fill="#31B637"/>
<rect x="877.556" y="423.466" width="8.47656" height="233.644" transform="rotate(48.0099 877.556 423.466)" fill="#365D46"/>
<rect width="4.53367" height="56.6241" transform="matrix(0.352696 0.935738 -0.998583 0.0532086 789.328 545.059)" fill="#365D46"/>
<rect width="4.53367" height="56.6241" transform="matrix(-0.89359 -0.448883 -0.157638 0.987497 754.941 509.372)" fill="#365D46"/>
<rect width="4.53367" height="56.6241" transform="matrix(-0.89359 -0.448883 -0.157638 0.987497 806.715 452.996)" fill="#365D46"/>
<rect width="4.53367" height="56.6241" transform="matrix(0.352696 0.935738 -0.998583 0.0532086 847.546 498.359)" fill="#365D46"/>
<rect x="638.847" y="883.454" width="18.1641" height="107.771" transform="rotate(-1.48615 638.847 883.454)" fill="#365E46"/>
<ellipse cx="648.475" cy="834.354" rx="77.5" ry="107.771" transform="rotate(-1.48615 648.475 834.354)" fill="#31B637"/>
<path d="M644.523 682.01L691.419 750.91L601.261 753.249L644.523 682.01Z" fill="#31B637"/>
<rect x="639.027" y="703.63" width="8.47656" height="233.644" transform="rotate(-1.48615 639.027 703.63)" fill="#365D46"/>
<rect width="4.53367" height="56.6241" transform="matrix(0.940575 0.339586 -0.608123 0.793843 674.177 849.689)" fill="#365D46"/>
<rect width="4.53367" height="56.6241" transform="matrix(-0.921701 0.387901 0.648468 0.761242 624.708 852.658)" fill="#365D46"/>
<rect width="4.53367" height="56.6241" transform="matrix(-0.921701 0.387901 0.648468 0.761242 615.469 776.674)" fill="#365D46"/>
<rect width="4.53367" height="56.6241" transform="matrix(0.940575 0.339586 -0.608123 0.793843 676.481 775.091)" fill="#365D46"/>
<rect x="497.557" y="625" width="18.1641" height="107.771" transform="rotate(-35.6985 497.557 625)" fill="#365E46"/>
<ellipse cx="477.912" cy="578.983" rx="77.5" ry="107.771" transform="rotate(-35.6985 477.912 578.983)" fill="#31B637"/>
<path d="M388.986 455.223L466.508 485.832L393.266 538.459L388.986 455.223Z" fill="#31B637"/>
<rect x="396.598" y="476.192" width="8.47656" height="233.644" transform="rotate(-35.6985 396.598 476.192)" fill="#365D46"/>
<rect width="4.53367" height="56.6241" transform="matrix(0.968753 -0.248026 -0.0565452 0.9984 507.789 577.214)" fill="#365D46"/>
<rect width="4.53367" height="56.6241" transform="matrix(-0.544107 0.839016 0.964274 0.264907 468.549 607.482)" fill="#365D46"/>
<rect width="4.53367" height="56.6241" transform="matrix(-0.544107 0.839016 0.964274 0.264907 418.186 549.842)" fill="#365D46"/>
<rect width="4.53367" height="56.6241" transform="matrix(0.968753 -0.248026 -0.0565452 0.9984 467.751 514.228)" fill="#365D46"/>
<rect x="645.052" y="660.959" width="18.1641" height="107.771" transform="rotate(29.469 645.052 660.959)" fill="#365E46"/>
<ellipse cx="678.564" cy="623.805" rx="77.5" ry="107.771" transform="rotate(29.469 678.564 623.805)" fill="#31B637"/>
<path d="M753.536 491.126L758.313 574.335L679.793 529.967L753.536 491.126Z" fill="#31B637"/>
<rect x="737.702" y="506.84" width="8.47656" height="233.644" transform="rotate(29.469 737.702 506.84)" fill="#365D46"/>
<rect width="4.53367" height="56.6241" transform="matrix(0.631937 0.775019 -0.929835 0.367978 692.718 650.177)" fill="#365D46"/>
<rect width="4.53367" height="56.6241" transform="matrix(-0.989947 -0.14144 0.16455 0.986369 648.768 627.276)" fill="#365D46"/>
<rect width="4.53367" height="56.6241" transform="matrix(-0.989947 -0.14144 0.16455 0.986369 679.928 557.363)" fill="#365D46"/>
<rect width="4.53367" height="56.6241" transform="matrix(0.631937 0.775019 -0.929835 0.367978 733.064 587.388)" fill="#365D46"/>
<rect x="627.927" y="1025.4" width="18.1641" height="107.771" transform="rotate(35.5869 627.927 1025.4)" fill="#365E46"/>
<ellipse cx="665.208" cy="992.033" rx="77.5" ry="107.771" transform="rotate(35.5869 665.208 992.033)" fill="#CBE42F"/>
<path d="M753.893 868.1L749.775 951.344L676.431 898.86L753.893 868.1Z" fill="#CBE42F"/>
<rect x="736.475" y="882.037" width="8.47656" height="233.644" transform="rotate(35.5869 736.475 882.037)" fill="#365D46"/>
<rect width="4.53367" height="56.6241" transform="matrix(0.54574 0.837954 -0.963756 0.266784 676.47 1019.76)" fill="#365D46"/>
<rect width="4.53367" height="56.6241" transform="matrix(-0.969235 -0.246138 0.0584898 0.998288 635.211 992.309)" fill="#365D46"/>
<rect width="4.53367" height="56.6241" transform="matrix(-0.969235 -0.246138 0.0584898 0.998288 673.645 926.115)" fill="#365D46"/>
<rect width="4.53367" height="56.6241" transform="matrix(0.54574 0.837954 -0.963756 0.266784 723.279 961.632)" fill="#365D46"/>
<rect x="1059.93" y="773.404" width="18.1641" height="107.771" transform="rotate(35.5869 1059.93 773.404)" fill="#365E46"/>
<ellipse cx="1097.21" cy="740.033" rx="77.5" ry="107.771" transform="rotate(35.5869 1097.21 740.033)" fill="#CBE42F"/>
<path d="M1185.89 616.1L1181.78 699.344L1108.43 646.86L1185.89 616.1Z" fill="#CBE42F"/>
<rect x="1168.47" y="630.037" width="8.47656" height="233.644" transform="rotate(35.5869 1168.47 630.037)" fill="#365D46"/>
<rect width="4.53367" height="56.6241" transform="matrix(0.54574 0.837954 -0.963756 0.266784 1108.47 767.763)" fill="#365D46"/>
<rect width="4.53367" height="56.6241" transform="matrix(-0.969235 -0.246138 0.0584898 0.998288 1067.21 740.309)" fill="#365D46"/>
<rect width="4.53367" height="56.6241" transform="matrix(-0.969235 -0.246138 0.0584898 0.998288 1105.64 674.115)" fill="#365D46"/>
<rect width="4.53367" height="56.6241" transform="matrix(0.54574 0.837954 -0.963756 0.266784 1155.28 709.632)" fill="#365D46"/>
<rect x="806.479" y="1009.85" width="18.1641" height="107.771" transform="rotate(-37.0656 806.479 1009.85)" fill="#365E46"/>
<ellipse cx="785.743" cy="964.314" rx="77.5" ry="107.771" transform="rotate(-37.0656 785.743 964.314)" fill="#CBE42F"/>
<path d="M693.89 842.711L772.12 871.462L700.155 925.822L693.89 842.711Z" fill="#CBE42F"/>
<rect x="701.999" y="863.493" width="8.47656" height="233.644" transform="rotate(-37.0656 701.999 863.493)" fill="#365D46"/>
<rect width="4.53367" height="56.6241" transform="matrix(0.96256 -0.271068 -0.0327094 0.999465 815.569 961.833)" fill="#365D46"/>
<rect width="4.53367" height="56.6241" transform="matrix(-0.523935 0.851758 0.97032 0.241826 777.062 993.029)" fill="#365D46"/>
<rect width="4.53367" height="56.6241" transform="matrix(-0.523935 0.851758 0.97032 0.241826 725.338 936.607)" fill="#365D46"/>
<rect width="4.53367" height="56.6241" transform="matrix(0.96256 -0.271068 -0.0327094 0.999465 774.039 899.821)" fill="#365D46"/>
<rect x="1046.36" y="435.733" width="18.1641" height="107.771" transform="rotate(-22.4177 1046.36 435.733)" fill="#365E46"/>
<ellipse cx="1037.81" cy="386.434" rx="77.5" ry="107.771" transform="rotate(-22.4177 1037.81 386.434)" fill="#357C38"/>
<path d="M979.692 245.555L1048.11 293.154L964.736 327.548L979.692 245.555Z" fill="#357C38"/>
<rect x="982.282" y="267.711" width="8.47656" height="233.644" transform="rotate(-22.4177 982.282 267.711)" fill="#365D46"/>
<rect width="4.53367" height="56.6241" transform="matrix(0.999822 -0.0188456 -0.28439 0.958709 1067.29 391.575)" fill="#365D46"/>
<rect width="4.53367" height="56.6241" transform="matrix(-0.722298 0.691582 0.877629 0.47934 1022.15 412.02)" fill="#365D46"/>
<rect width="4.53367" height="56.6241" transform="matrix(-0.722298 0.691582 0.877629 0.47934 986.374 344.352)" fill="#365D46"/>
<rect width="4.53367" height="56.6241" transform="matrix(0.999822 -0.0188456 -0.28439 0.958709 1042.79 321.076)" fill="#365D46"/>
<rect x="580.039" y="846.329" width="18.1641" height="107.771" transform="rotate(-142.305 580.039 846.329)" fill="#365E46"/>
<ellipse cx="541.556" cy="878.305" rx="77.5" ry="107.771" transform="rotate(-142.305 541.556 878.305)" fill="#CBE42F"/>
<path d="M448.371 998.892L455.549 915.856L526.913 971.002L448.371 998.892Z" fill="#CBE42F"/>
<rect x="466.29" y="985.605" width="8.47656" height="233.644" transform="rotate(-142.305 466.29 985.605)" fill="#365D46"/>
<rect width="4.53367" height="56.6241" transform="matrix(-0.514544 -0.857464 0.972918 -0.231149 531.321 850.18)" fill="#365D46"/>
<rect width="4.53367" height="56.6241" transform="matrix(0.959524 0.281628 -0.0217247 -0.999764 571.542 879.133)" fill="#365D46"/>
<rect width="4.53367" height="56.6241" transform="matrix(0.959524 0.281628 -0.0217247 -0.999764 530.699 943.869)" fill="#365D46"/>
<rect width="4.53367" height="56.6241" transform="matrix(-0.514544 -0.857464 0.972918 -0.231149 482.405 906.549)" fill="#365D46"/>
<rect x="658.022" y="392.747" width="18.1641" height="107.771" transform="rotate(-54.025 658.022 392.747)" fill="#365E46"/>
<ellipse cx="624.904" cy="355.241" rx="77.5" ry="107.771" transform="rotate(-54.025 624.904 355.241)" fill="#357C38"/>
<path d="M501.575 265.719L584.79 270.4L531.81 343.387L501.575 265.719Z" fill="#357C38"/>
<rect x="515.394" y="283.231" width="8.47656" height="233.644" transform="rotate(-54.025 515.394 283.231)" fill="#365D46"/>
<rect width="4.53367" height="56.6241" transform="matrix(0.841631 -0.540053 0.260251 0.965541 652.71 344.167)" fill="#365D46"/>
<rect width="4.53367" height="56.6241" transform="matrix(-0.252697 0.967545 0.998661 -0.0517275 624.978 385.239)" fill="#365D46"/>
<rect width="4.53367" height="56.6241" transform="matrix(-0.252697 0.967545 0.998661 -0.0517275 559.045 346.358)" fill="#365D46"/>
<rect width="4.53367" height="56.6241" transform="matrix(0.841631 -0.540053 0.260251 0.965541 594.897 296.965)" fill="#365D46"/>
<rect x="482.021" y="428.747" width="18.1641" height="107.771" transform="rotate(-54.025 482.021 428.747)" fill="#365E46"/>
<ellipse cx="448.903" cy="391.241" rx="77.5" ry="107.771" transform="rotate(-54.025 448.903 391.241)" fill="#357C38"/>
<path d="M325.574 301.719L408.789 306.4L355.809 379.387L325.574 301.719Z" fill="#357C38"/>
<rect x="339.393" y="319.231" width="8.47656" height="233.644" transform="rotate(-54.025 339.393 319.231)" fill="#365D46"/>
<rect width="4.53367" height="56.6241" transform="matrix(0.841631 -0.540053 0.260251 0.965541 476.709 380.167)" fill="#365D46"/>
<rect width="4.53367" height="56.6241" transform="matrix(-0.252697 0.967545 0.998661 -0.0517275 448.977 421.239)" fill="#365D46"/>
<rect width="4.53367" height="56.6241" transform="matrix(-0.252697 0.967545 0.998661 -0.0517275 383.044 382.358)" fill="#365D46"/>
<rect width="4.53367" height="56.6241" transform="matrix(0.841631 -0.540053 0.260251 0.965541 418.896 332.965)" fill="#365D46"/>
<rect x="833.357" y="447.733" width="18.1641" height="107.771" transform="rotate(-22.4177 833.357 447.733)" fill="#365E46"/>
<ellipse cx="824.809" cy="398.434" rx="77.5" ry="107.771" transform="rotate(-22.4177 824.809 398.434)" fill="#357C38"/>
<path d="M766.692 257.555L835.109 305.154L751.736 339.548L766.692 257.555Z" fill="#357C38"/>
<rect x="769.282" y="279.711" width="8.47656" height="233.644" transform="rotate(-22.4177 769.282 279.711)" fill="#365D46"/>
<rect width="4.53367" height="56.6241" transform="matrix(0.999822 -0.0188456 -0.28439 0.958709 854.293 403.575)" fill="#365D46"/>
<rect width="4.53367" height="56.6241" transform="matrix(-0.722298 0.691582 0.877629 0.47934 809.149 424.02)" fill="#365D46"/>
<rect width="4.53367" height="56.6241" transform="matrix(-0.722298 0.691582 0.877629 0.47934 773.374 356.352)" fill="#365D46"/>
<rect width="4.53367" height="56.6241" transform="matrix(0.999822 -0.0188456 -0.28439 0.958709 829.795 333.076)" fill="#365D46"/>
<rect x="1015.66" y="947.387" width="18.1641" height="107.771" transform="rotate(173.745 1015.66 947.387)" fill="#365E46"/>
<ellipse cx="1010.15" cy="997.117" rx="77.5" ry="107.771" transform="rotate(173.745 1010.15 997.117)" fill="#CBE42F"/>
<path d="M1026.76 1148.61L974.293 1083.84L1063.94 1074.02L1026.76 1148.61Z" fill="#CBE42F"/>
<rect x="1030.44" y="1126.6" width="8.47656" height="233.644" transform="rotate(173.745 1030.44 1126.6)" fill="#365D46"/>
<rect width="4.53367" height="56.6241" transform="matrix(-0.965552 -0.26021 0.540016 -0.841654 983.264 983.971)" fill="#365D46"/>
<rect width="4.53367" height="56.6241" transform="matrix(0.886259 -0.463189 -0.709514 -0.704692 1032.31 976.901)" fill="#365D46"/>
<rect width="4.53367" height="56.6241" transform="matrix(0.886259 -0.463189 -0.709514 -0.704692 1047.84 1051.85)" fill="#365D46"/>
<rect width="4.53367" height="56.6241" transform="matrix(-0.965552 -0.26021 0.540016 -0.841654 987.17 1058.5)" fill="#365D46"/>
<rect x="374.877" y="592.741" width="16.0592" height="107.771" transform="rotate(-19.2142 374.877 592.741)" fill="#365E46"/>
<ellipse cx="367.904" cy="543.456" rx="68.5194" ry="107.771" transform="rotate(-19.2142 367.904 543.456)" fill="#CBE42F"/>
<path d="M317.751 399.55L378.466 452.618L303.171 478.86L317.751 399.55Z" fill="#CBE42F"/>
<rect x="319.762" y="421.586" width="7.49431" height="233.644" transform="rotate(-19.2142 319.762 421.586)" fill="#365D46"/>
<rect width="4.08175" height="54.1273" transform="matrix(0.996746 0.0806123 -0.281143 0.959666 394.287 551.202)" fill="#365D46"/>
<rect width="4.08175" height="54.1273" transform="matrix(-0.730732 0.682664 0.816711 0.577047 353.49 567.204)" fill="#365D46"/>
<rect width="4.08175" height="54.1273" transform="matrix(-0.730732 0.682664 0.816711 0.577047 322.349 497.364)" fill="#365D46"/>
<rect width="4.08175" height="54.1273" transform="matrix(0.996746 0.0806123 -0.281143 0.959666 373.303 479.606)" fill="#365D46"/>
<rect x="313.661" y="624.432" width="18.1641" height="107.771" transform="rotate(22.3757 313.661 624.432)" fill="#365E46"/>
<ellipse cx="342.329" cy="583.423" rx="77.5" ry="107.771" transform="rotate(22.3757 342.329 583.423)" fill="#357C38"/>
<path d="M400.342 442.503L415.358 524.485L331.96 490.152L400.342 442.503Z" fill="#357C38"/>
<rect x="386.57" y="460.051" width="8.47656" height="233.644" transform="rotate(22.3757 386.57 460.051)" fill="#365D46"/>
<rect width="4.53367" height="56.6241" transform="matrix(0.722805 0.691052 -0.877278 0.479983 359.63 607.846)" fill="#365D46"/>
<rect width="4.53367" height="56.6241" transform="matrix(-0.999836 -0.0181127 0.285093 0.9585 313.189 590.548)" fill="#365D46"/>
<rect width="4.53367" height="56.6241" transform="matrix(-0.999836 -0.0181127 0.285093 0.9585 335.478 517.322)" fill="#365D46"/>
<rect width="4.53367" height="56.6241" transform="matrix(0.722805 0.691052 -0.877278 0.479983 391.915 540.556)" fill="#365D46"/>
<rect x="628.309" y="882.82" width="15.485" height="106.15" transform="rotate(-9.36071 628.309 882.82)" fill="#365E46"/>
<ellipse cx="629.652" cy="833.85" rx="66.0695" ry="106.15" transform="rotate(-9.36071 629.652 833.85)" fill="#357C38"/>
<path d="M605.239 685.746L654.399 747.613L578.537 760.119L605.239 685.746Z" fill="#357C38"/>
<rect x="603.585" y="707.451" width="7.22635" height="230.13" transform="rotate(-9.36071 603.585 707.451)" fill="#365D46"/>
<rect width="3.94975" height="52.937" transform="matrix(0.966238 0.25765 -0.43221 0.901773 653.493 845.89)" fill="#365D46"/>
<rect width="3.94975" height="52.937" transform="matrix(-0.832417 0.554149 0.698782 0.715335 612.101 854.394)" fill="#365D46"/>
<rect width="3.94975" height="52.937" transform="matrix(-0.832417 0.554149 0.698782 0.715335 593.782 781.349)" fill="#365D46"/>
<rect width="3.94975" height="52.937" transform="matrix(0.966238 0.25765 -0.43221 0.901773 645.121 772.886)" fill="#365D46"/>
<rect x="1046.71" y="612.125" width="18.1641" height="107.771" transform="rotate(48.0099 1046.71 612.125)" fill="#365E46"/>
<ellipse cx="1090.29" cy="587.555" rx="77.5" ry="107.771" transform="rotate(48.0099 1090.29 587.555)" fill="#31B637"/>
<path d="M1203.56 485.603L1181.63 566.012L1121.3 498.979L1203.56 485.603Z" fill="#31B637"/>
<rect x="1183.55" y="495.466" width="8.47656" height="233.644" transform="rotate(48.0099 1183.55 495.466)" fill="#365D46"/>
<rect width="4.53367" height="56.6241" transform="matrix(0.352696 0.935738 -0.998583 0.0532086 1095.33 617.059)" fill="#365D46"/>
<rect width="4.53367" height="56.6241" transform="matrix(-0.89359 -0.448883 -0.157638 0.987497 1060.94 581.372)" fill="#365D46"/>
<rect width="4.53367" height="56.6241" transform="matrix(-0.89359 -0.448883 -0.157638 0.987497 1112.71 524.996)" fill="#365D46"/>
<rect width="4.53367" height="56.6241" transform="matrix(0.352696 0.935738 -0.998583 0.0532086 1153.54 570.359)" fill="#365D46"/>
<rect x="922.696" y="968.959" width="18.1641" height="107.771" transform="rotate(173.134 922.696 968.959)" fill="#365E46"/>
<ellipse cx="917.714" cy="1018.75" rx="77.5" ry="107.771" transform="rotate(173.134 917.714 1018.75)" fill="#31B637"/>
<path d="M935.931 1170.05L882.781 1105.85L972.323 1095.07L935.931 1170.05Z" fill="#31B637"/>
<rect x="939.375" y="1148.01" width="8.47656" height="233.644" transform="rotate(173.134 939.375 1148.01)" fill="#365D46"/>
<rect width="4.53367" height="56.6241" transform="matrix(-0.968269 -0.249911 0.531022 -0.847358 890.688 1005.89)" fill="#365D46"/>
<rect width="4.53367" height="56.6241" transform="matrix(0.881276 -0.472603 -0.716979 -0.697095 939.66 998.295)" fill="#365D46"/>
<rect width="4.53367" height="56.6241" transform="matrix(0.881276 -0.472603 -0.716979 -0.697095 955.982 1073.08)" fill="#365D46"/>
<rect width="4.53367" height="56.6241" transform="matrix(-0.968269 -0.249911 0.531022 -0.847358 895.387 1080.37)" fill="#365D46"/>
<rect x="651.708" y="416.125" width="18.1641" height="107.771" transform="rotate(48.0099 651.708 416.125)" fill="#365E46"/>
<ellipse cx="695.296" cy="391.555" rx="77.5" ry="107.771" transform="rotate(48.0099 695.296 391.555)" fill="#31B637"/>
<path d="M808.565 289.603L786.635 370.012L726.299 302.979L808.565 289.603Z" fill="#31B637"/>
<rect x="788.556" y="299.466" width="8.47656" height="233.644" transform="rotate(48.0099 788.556 299.466)" fill="#365D46"/>
<rect width="4.53367" height="56.6241" transform="matrix(0.352696 0.935738 -0.998583 0.0532086 700.328 421.059)" fill="#365D46"/>
<rect width="4.53367" height="56.6241" transform="matrix(-0.89359 -0.448883 -0.157638 0.987497 665.941 385.372)" fill="#365D46"/>
<rect width="4.53367" height="56.6241" transform="matrix(-0.89359 -0.448883 -0.157638 0.987497 717.715 328.996)" fill="#365D46"/>
<rect width="4.53367" height="56.6241" transform="matrix(0.352696 0.935738 -0.998583 0.0532086 758.546 374.359)" fill="#365D46"/>
<rect x="965.847" y="519.454" width="18.1641" height="107.771" transform="rotate(-1.48615 965.847 519.454)" fill="#365E46"/>
<ellipse cx="975.475" cy="470.354" rx="77.5" ry="107.771" transform="rotate(-1.48615 975.475 470.354)" fill="#31B637"/>
<path d="M971.523 318.01L1018.42 386.91L928.261 389.249L971.523 318.01Z" fill="#31B637"/>
<rect x="966.027" y="339.63" width="8.47656" height="233.644" transform="rotate(-1.48615 966.027 339.63)" fill="#365D46"/>
<rect width="4.53367" height="56.6241" transform="matrix(0.940575 0.339586 -0.608123 0.793843 1001.18 485.689)" fill="#365D46"/>
<rect width="4.53367" height="56.6241" transform="matrix(-0.921701 0.387901 0.648468 0.761242 951.708 488.658)" fill="#365D46"/>
<rect width="4.53367" height="56.6241" transform="matrix(-0.921701 0.387901 0.648468 0.761242 942.469 412.674)" fill="#365D46"/>
<rect width="4.53367" height="56.6241" transform="matrix(0.940575 0.339586 -0.608123 0.793843 1003.48 411.091)" fill="#365D46"/>
<rect x="482.233" y="677.766" width="18.1641" height="107.771" transform="rotate(-126.359 482.233 677.766)" fill="#365E46"/>
<ellipse cx="436.446" cy="697.94" rx="77.5" ry="107.771" transform="rotate(-126.359 436.446 697.94)" fill="#31B637"/>
<path d="M313.718 788.286L343.432 710.417L396.9 783.047L313.718 788.286Z" fill="#31B637"/>
<rect x="334.599" y="780.434" width="8.47656" height="233.644" transform="rotate(-126.359 334.599 780.434)" fill="#365D46"/>
<rect width="4.53367" height="56.6241" transform="matrix(-0.259174 -0.965831 0.998985 0.0450351 434.332 668.085)" fill="#365D46"/>
<rect width="4.53367" height="56.6241" transform="matrix(0.845231 0.534401 0.253776 -0.967263 465.052 706.974)" fill="#365D46"/>
<rect width="4.53367" height="56.6241" transform="matrix(0.845231 0.534401 0.253776 -0.967263 407.995 757.998)" fill="#365D46"/>
<rect width="4.53367" height="56.6241" transform="matrix(-0.259174 -0.965831 0.998985 0.0450351 371.812 708.847)" fill="#365D46"/>
<rect x="1060.05" y="944.959" width="18.1641" height="107.771" transform="rotate(29.469 1060.05 944.959)" fill="#365E46"/>
<ellipse cx="1093.56" cy="907.805" rx="77.5" ry="107.771" transform="rotate(29.469 1093.56 907.805)" fill="#31B637"/>
<path d="M1168.54 775.126L1173.31 858.335L1094.79 813.967L1168.54 775.126Z" fill="#31B637"/>
<rect x="1152.7" y="790.84" width="8.47656" height="233.644" transform="rotate(29.469 1152.7 790.84)" fill="#365D46"/>
<rect width="4.53367" height="56.6241" transform="matrix(0.631937 0.775019 -0.929835 0.367978 1107.72 934.177)" fill="#365D46"/>
<rect width="4.53367" height="56.6241" transform="matrix(-0.989947 -0.14144 0.16455 0.986369 1063.77 911.276)" fill="#365D46"/>
<rect width="4.53367" height="56.6241" transform="matrix(-0.989947 -0.14144 0.16455 0.986369 1094.93 841.363)" fill="#365D46"/>
<rect width="4.53367" height="56.6241" transform="matrix(0.631937 0.775019 -0.929835 0.367978 1148.06 871.388)" fill="#365D46"/>
<rect x="570.927" y="501.404" width="18.1641" height="107.771" transform="rotate(35.5869 570.927 501.404)" fill="#365E46"/>
<ellipse cx="608.208" cy="468.033" rx="77.5" ry="107.771" transform="rotate(35.5869 608.208 468.033)" fill="#CBE42F"/>
<path d="M696.893 344.1L692.775 427.344L619.431 374.86L696.893 344.1Z" fill="#CBE42F"/>
<rect x="679.475" y="358.037" width="8.47656" height="233.644" transform="rotate(35.5869 679.475 358.037)" fill="#365D46"/>
<rect width="4.53367" height="56.6241" transform="matrix(0.54574 0.837954 -0.963756 0.266784 619.47 495.763)" fill="#365D46"/>
<rect width="4.53367" height="56.6241" transform="matrix(-0.969235 -0.246138 0.0584898 0.998288 578.211 468.309)" fill="#365D46"/>
<rect width="4.53367" height="56.6241" transform="matrix(-0.969235 -0.246138 0.0584898 0.998288 616.645 402.115)" fill="#365D46"/>
<rect width="4.53367" height="56.6241" transform="matrix(0.54574 0.837954 -0.963756 0.266784 666.279 437.632)" fill="#365D46"/>
<rect x="994.927" y="545.404" width="18.1641" height="107.771" transform="rotate(35.5869 994.927 545.404)" fill="#365E46"/>
<ellipse cx="1032.21" cy="512.033" rx="77.5" ry="107.771" transform="rotate(35.5869 1032.21 512.033)" fill="#CBE42F"/>
<path d="M1120.89 388.1L1116.78 471.344L1043.43 418.86L1120.89 388.1Z" fill="#CBE42F"/>
<rect x="1103.47" y="402.037" width="8.47656" height="233.644" transform="rotate(35.5869 1103.47 402.037)" fill="#365D46"/>
<rect width="4.53367" height="56.6241" transform="matrix(0.54574 0.837954 -0.963756 0.266784 1043.47 539.763)" fill="#365D46"/>
<rect width="4.53367" height="56.6241" transform="matrix(-0.969235 -0.246138 0.0584898 0.998288 1002.21 512.309)" fill="#365D46"/>
<rect width="4.53367" height="56.6241" transform="matrix(-0.969235 -0.246138 0.0584898 0.998288 1040.64 446.115)" fill="#365D46"/>
<rect width="4.53367" height="56.6241" transform="matrix(0.54574 0.837954 -0.963756 0.266784 1090.28 481.632)" fill="#365D46"/>
<rect x="813.479" y="501.85" width="18.1641" height="107.771" transform="rotate(-37.0656 813.479 501.85)" fill="#365E46"/>
<ellipse cx="792.743" cy="456.314" rx="77.5" ry="107.771" transform="rotate(-37.0656 792.743 456.314)" fill="#CBE42F"/>
<path d="M700.89 334.711L779.12 363.462L707.155 417.822L700.89 334.711Z" fill="#CBE42F"/>
<rect x="708.999" y="355.493" width="8.47656" height="233.644" transform="rotate(-37.0656 708.999 355.493)" fill="#365D46"/>
<rect width="4.53367" height="56.6241" transform="matrix(0.96256 -0.271068 -0.0327094 0.999465 822.569 453.833)" fill="#365D46"/>
<rect width="4.53367" height="56.6241" transform="matrix(-0.523935 0.851758 0.97032 0.241826 784.062 485.029)" fill="#365D46"/>
<rect width="4.53367" height="56.6241" transform="matrix(-0.523935 0.851758 0.97032 0.241826 732.338 428.607)" fill="#365D46"/>
<rect width="4.53367" height="56.6241" transform="matrix(0.96256 -0.271068 -0.0327094 0.999465 781.039 391.821)" fill="#365D46"/>
<rect x="456.021" y="919.747" width="18.1641" height="107.771" transform="rotate(-54.025 456.021 919.747)" fill="#365E46"/>
<ellipse cx="422.904" cy="882.241" rx="77.5" ry="107.771" transform="rotate(-54.025 422.904 882.241)" fill="#357C38"/>
<path d="M299.574 792.719L382.789 797.4L329.809 870.387L299.574 792.719Z" fill="#357C38"/>
<rect x="313.393" y="810.231" width="8.47656" height="233.644" transform="rotate(-54.025 313.393 810.231)" fill="#365D46"/>
<rect width="4.53367" height="56.6241" transform="matrix(0.841631 -0.540053 0.260251 0.965541 450.709 871.167)" fill="#365D46"/>
<rect width="4.53367" height="56.6241" transform="matrix(-0.252697 0.967545 0.998661 -0.0517275 422.977 912.239)" fill="#365D46"/>
<rect width="4.53367" height="56.6241" transform="matrix(-0.252697 0.967545 0.998661 -0.0517275 357.044 873.358)" fill="#365D46"/>
<rect width="4.53367" height="56.6241" transform="matrix(0.841631 -0.540053 0.260251 0.965541 392.896 823.965)" fill="#365D46"/>
<rect x="327.356" y="738.733" width="18.1641" height="107.771" transform="rotate(-22.4177 327.356 738.733)" fill="#365E46"/>
<ellipse cx="318.808" cy="689.433" rx="77.5" ry="107.771" transform="rotate(-22.4177 318.808 689.433)" fill="#357C38"/>
<path d="M260.691 548.555L329.108 596.154L245.736 630.548L260.691 548.555Z" fill="#357C38"/>
<rect x="263.282" y="570.711" width="8.47656" height="233.644" transform="rotate(-22.4177 263.282 570.711)" fill="#365D46"/>
<rect width="4.53367" height="56.6241" transform="matrix(0.999822 -0.0188456 -0.28439 0.958709 348.293 694.575)" fill="#365D46"/>
<rect width="4.53367" height="56.6241" transform="matrix(-0.722298 0.691582 0.877629 0.47934 303.148 715.02)" fill="#365D46"/>
<rect width="4.53367" height="56.6241" transform="matrix(-0.722298 0.691582 0.877629 0.47934 267.374 647.352)" fill="#365D46"/>
<rect width="4.53367" height="56.6241" transform="matrix(0.999822 -0.0188456 -0.28439 0.958709 323.795 624.076)" fill="#365D46"/>
<rect x="1300.66" y="726.387" width="18.1641" height="107.771" transform="rotate(173.745 1300.66 726.387)" fill="#365E46"/>
<ellipse cx="1295.15" cy="776.117" rx="77.5" ry="107.771" transform="rotate(173.745 1295.15 776.117)" fill="#CBE42F"/>
<path d="M1311.76 927.605L1259.29 862.843L1348.94 853.016L1311.76 927.605Z" fill="#CBE42F"/>
<rect x="1315.44" y="905.603" width="8.47656" height="233.644" transform="rotate(173.745 1315.44 905.603)" fill="#365D46"/>
<rect width="4.53367" height="56.6241" transform="matrix(-0.965552 -0.26021 0.540016 -0.841654 1268.26 762.971)" fill="#365D46"/>
<rect width="4.53367" height="56.6241" transform="matrix(0.886259 -0.463189 -0.709514 -0.704692 1317.31 755.901)" fill="#365D46"/>
<rect width="4.53367" height="56.6241" transform="matrix(0.886259 -0.463189 -0.709514 -0.704692 1332.84 830.853)" fill="#365D46"/>
<rect width="4.53367" height="56.6241" transform="matrix(-0.965552 -0.26021 0.540016 -0.841654 1272.17 837.503)" fill="#365D46"/>
<rect x="812.877" y="259.741" width="16.0592" height="107.771" transform="rotate(-19.2142 812.877 259.741)" fill="#365E46"/>
<ellipse cx="805.904" cy="210.456" rx="68.5194" ry="107.771" transform="rotate(-19.2142 805.904 210.456)" fill="#CBE42F"/>
<path d="M755.751 66.55L816.467 119.618L741.171 145.86L755.751 66.55Z" fill="#CBE42F"/>
<rect x="757.762" y="88.5859" width="7.49431" height="233.644" transform="rotate(-19.2142 757.762 88.5859)" fill="#365D46"/>
<rect width="4.08175" height="54.1273" transform="matrix(0.996746 0.0806123 -0.281143 0.959666 832.288 218.202)" fill="#365D46"/>
<rect width="4.08175" height="54.1273" transform="matrix(-0.730732 0.682664 0.816711 0.577047 791.491 234.204)" fill="#365D46"/>
<rect width="4.08175" height="54.1273" transform="matrix(-0.730732 0.682664 0.816711 0.577047 760.349 164.364)" fill="#365D46"/>
<rect width="4.08175" height="54.1273" transform="matrix(0.996746 0.0806123 -0.281143 0.959666 811.304 146.606)" fill="#365D46"/>
<rect x="607.661" y="299.432" width="18.1641" height="107.771" transform="rotate(22.3757 607.661 299.432)" fill="#365E46"/>
<ellipse cx="636.329" cy="258.423" rx="77.5" ry="107.771" transform="rotate(22.3757 636.329 258.423)" fill="#357C38"/>
<path d="M694.342 117.503L709.358 199.485L625.96 165.152L694.342 117.503Z" fill="#357C38"/>
<rect x="680.57" y="135.051" width="8.47656" height="233.644" transform="rotate(22.3757 680.57 135.051)" fill="#365D46"/>
<rect width="4.53367" height="56.6241" transform="matrix(0.722805 0.691052 -0.877278 0.479983 653.63 282.846)" fill="#365D46"/>
<rect width="4.53367" height="56.6241" transform="matrix(-0.999836 -0.0181127 0.285093 0.9585 607.189 265.548)" fill="#365D46"/>
<rect width="4.53367" height="56.6241" transform="matrix(-0.999836 -0.0181127 0.285093 0.9585 629.478 192.322)" fill="#365D46"/>
<rect width="4.53367" height="56.6241" transform="matrix(0.722805 0.691052 -0.877278 0.479983 685.915 215.556)" fill="#365D46"/>
<rect x="994.562" y="968.289" width="15.485" height="106.15" transform="rotate(178.829 994.562 968.289)" fill="#365E46"/>
<ellipse cx="986.256" cy="1016.57" rx="66.0695" ry="106.15" transform="rotate(178.829 986.256 1016.57)" fill="#357C38"/>
<path d="M989.323 1166.64L949.477 1098.4L1026.35 1096.83L989.323 1166.64Z" fill="#357C38"/>
<rect x="994.052" y="1145.39" width="7.22635" height="230.13" transform="rotate(178.829 994.052 1145.39)" fill="#365D46"/>
<rect width="3.94975" height="52.937" transform="matrix(-0.919681 -0.392667 0.556263 -0.831006 964.374 1001.25)" fill="#365D46"/>
<rect width="3.94975" height="52.937" transform="matrix(0.902869 -0.429917 -0.589753 -0.807583 1006.56 998.734)" fill="#365D46"/>
<rect width="3.94975" height="52.937" transform="matrix(0.902869 -0.429917 -0.589753 -0.807583 1014.28 1073.64)" fill="#365D46"/>
<rect width="3.94975" height="52.937" transform="matrix(-0.919681 -0.392667 0.556263 -0.831006 962.262 1074.71)" fill="#365D46"/>
<rect x="420.708" y="791.125" width="18.1641" height="107.771" transform="rotate(48.0099 420.708 791.125)" fill="#365E46"/>
<ellipse cx="464.296" cy="766.555" rx="77.5" ry="107.771" transform="rotate(48.0099 464.296 766.555)" fill="#31B637"/>
<path d="M577.565 664.603L555.635 745.012L495.299 677.979L577.565 664.603Z" fill="#31B637"/>
<rect x="557.556" y="674.466" width="8.47656" height="233.644" transform="rotate(48.0099 557.556 674.466)" fill="#365D46"/>
<rect width="4.53367" height="56.6241" transform="matrix(0.352696 0.935738 -0.998583 0.0532086 469.328 796.059)" fill="#365D46"/>
<rect width="4.53367" height="56.6241" transform="matrix(-0.89359 -0.448883 -0.157638 0.987497 434.941 760.372)" fill="#365D46"/>
<rect width="4.53367" height="56.6241" transform="matrix(-0.89359 -0.448883 -0.157638 0.987497 486.715 703.996)" fill="#365D46"/>
<rect width="4.53367" height="56.6241" transform="matrix(0.352696 0.935738 -0.998583 0.0532086 527.546 749.359)" fill="#365D46"/>
<rect x="1207.7" y="747.959" width="18.1641" height="107.771" transform="rotate(173.134 1207.7 747.959)" fill="#365E46"/>
<ellipse cx="1202.71" cy="797.746" rx="77.5" ry="107.771" transform="rotate(173.134 1202.71 797.746)" fill="#31B637"/>
<path d="M1220.93 949.049L1167.78 884.849L1257.32 874.067L1220.93 949.049Z" fill="#31B637"/>
<rect x="1224.38" y="927.009" width="8.47656" height="233.644" transform="rotate(173.134 1224.38 927.009)" fill="#365D46"/>
<rect width="4.53367" height="56.6241" transform="matrix(-0.968269 -0.249911 0.531022 -0.847358 1175.69 784.888)" fill="#365D46"/>
<rect width="4.53367" height="56.6241" transform="matrix(0.881276 -0.472603 -0.716979 -0.697095 1224.66 777.295)" fill="#365D46"/>
<rect width="4.53367" height="56.6241" transform="matrix(0.881276 -0.472603 -0.716979 -0.697095 1240.98 852.078)" fill="#365D46"/>
<rect width="4.53367" height="56.6241" transform="matrix(-0.968269 -0.249911 0.531022 -0.847358 1180.39 859.374)" fill="#365D46"/>
<rect x="417.708" y="267.125" width="18.1641" height="107.771" transform="rotate(48.0099 417.708 267.125)" fill="#365E46"/>
<ellipse cx="461.296" cy="242.555" rx="77.5" ry="107.771" transform="rotate(48.0099 461.296 242.555)" fill="#31B637"/>
<path d="M574.565 140.603L552.635 221.012L492.299 153.979L574.565 140.603Z" fill="#31B637"/>
<rect x="554.556" y="150.466" width="8.47656" height="233.644" transform="rotate(48.0099 554.556 150.466)" fill="#365D46"/>
<rect width="4.53367" height="56.6241" transform="matrix(0.352696 0.935738 -0.998583 0.0532086 466.328 272.059)" fill="#365D46"/>
<rect width="4.53367" height="56.6241" transform="matrix(-0.89359 -0.448883 -0.157638 0.987497 431.941 236.372)" fill="#365D46"/>
<rect width="4.53367" height="56.6241" transform="matrix(-0.89359 -0.448883 -0.157638 0.987497 483.715 179.996)" fill="#365D46"/>
<rect width="4.53367" height="56.6241" transform="matrix(0.352696 0.935738 -0.998583 0.0532086 524.546 225.359)" fill="#365D46"/>
<rect x="1187.85" y="562.454" width="18.1641" height="107.771" transform="rotate(-1.48615 1187.85 562.454)" fill="#365E46"/>
<ellipse cx="1197.48" cy="513.354" rx="77.5" ry="107.771" transform="rotate(-1.48615 1197.48 513.354)" fill="#31B637"/>
<path d="M1193.52 361.01L1240.42 429.91L1150.26 432.249L1193.52 361.01Z" fill="#31B637"/>
<rect x="1188.03" y="382.63" width="8.47656" height="233.644" transform="rotate(-1.48615 1188.03 382.63)" fill="#365D46"/>
<rect width="4.53367" height="56.6241" transform="matrix(0.940575 0.339586 -0.608123 0.793843 1223.18 528.689)" fill="#365D46"/>
<rect width="4.53367" height="56.6241" transform="matrix(-0.921701 0.387901 0.648468 0.761242 1173.71 531.658)" fill="#365D46"/>
<rect width="4.53367" height="56.6241" transform="matrix(-0.921701 0.387901 0.648468 0.761242 1164.47 455.674)" fill="#365D46"/>
<rect width="4.53367" height="56.6241" transform="matrix(0.940575 0.339586 -0.608123 0.793843 1225.48 454.091)" fill="#365D46"/>
<rect x="560.509" y="969.081" width="18.1641" height="107.771" transform="rotate(-126.359 560.509 969.081)" fill="#365E46"/>
<ellipse cx="514.721" cy="989.254" rx="77.5" ry="107.771" transform="rotate(-126.359 514.721 989.254)" fill="#31B637"/>
<path d="M391.994 1079.6L421.708 1001.73L475.175 1074.36L391.994 1079.6Z" fill="#31B637"/>
<rect x="412.874" y="1071.75" width="8.47656" height="233.644" transform="rotate(-126.359 412.874 1071.75)" fill="#365D46"/>
<rect width="4.53367" height="56.6241" transform="matrix(-0.259174 -0.965831 0.998985 0.0450351 512.607 959.4)" fill="#365D46"/>
<rect width="4.53367" height="56.6241" transform="matrix(0.845231 0.534401 0.253776 -0.967263 543.327 998.288)" fill="#365D46"/>
<rect width="4.53367" height="56.6241" transform="matrix(0.845231 0.534401 0.253776 -0.967263 486.271 1049.31)" fill="#365D46"/>
<rect width="4.53367" height="56.6241" transform="matrix(-0.259174 -0.965831 0.998985 0.0450351 450.088 1000.16)" fill="#365D46"/>
<rect x="1178.05" y="739.959" width="18.1641" height="107.771" transform="rotate(29.469 1178.05 739.959)" fill="#365E46"/>
<ellipse cx="1211.56" cy="702.805" rx="77.5" ry="107.771" transform="rotate(29.469 1211.56 702.805)" fill="#31B637"/>
<path d="M1286.54 570.126L1291.31 653.335L1212.79 608.967L1286.54 570.126Z" fill="#31B637"/>
<rect x="1270.7" y="585.84" width="8.47656" height="233.644" transform="rotate(29.469 1270.7 585.84)" fill="#365D46"/>
<rect width="4.53367" height="56.6241" transform="matrix(0.631937 0.775019 -0.929835 0.367978 1225.72 729.177)" fill="#365D46"/>
<rect width="4.53367" height="56.6241" transform="matrix(-0.989947 -0.14144 0.16455 0.986369 1181.77 706.276)" fill="#365D46"/>
<rect width="4.53367" height="56.6241" transform="matrix(-0.989947 -0.14144 0.16455 0.986369 1212.93 636.363)" fill="#365D46"/>
<rect width="4.53367" height="56.6241" transform="matrix(0.631937 0.775019 -0.929835 0.367978 1266.06 666.388)" fill="#365D46"/>
<rect x="247.927" y="408.404" width="18.1641" height="107.771" transform="rotate(35.5869 247.927 408.404)" fill="#365E46"/>
<ellipse cx="285.208" cy="375.033" rx="77.5" ry="107.771" transform="rotate(35.5869 285.208 375.033)" fill="#CBE42F"/>
<path d="M373.893 251.1L369.775 334.344L296.431 281.86L373.893 251.1Z" fill="#CBE42F"/>
<rect x="356.475" y="265.037" width="8.47656" height="233.644" transform="rotate(35.5869 356.475 265.037)" fill="#365D46"/>
<rect width="4.53367" height="56.6241" transform="matrix(0.54574 0.837954 -0.963756 0.266784 296.47 402.763)" fill="#365D46"/>
<rect width="4.53367" height="56.6241" transform="matrix(-0.969235 -0.246138 0.0584898 0.998288 255.211 375.309)" fill="#365D46"/>
<rect width="4.53367" height="56.6241" transform="matrix(-0.969235 -0.246138 0.0584898 0.998288 293.645 309.115)" fill="#365D46"/>
<rect width="4.53367" height="56.6241" transform="matrix(0.54574 0.837954 -0.963756 0.266784 343.279 344.632)" fill="#365D46"/>
<rect x="786.562" y="941.289" width="15.485" height="106.15" transform="rotate(178.829 786.562 941.289)" fill="#365E46"/>
<ellipse cx="778.256" cy="989.568" rx="66.0695" ry="106.15" transform="rotate(178.829 778.256 989.568)" fill="#357C38"/>
<path d="M781.323 1139.64L741.477 1071.4L818.347 1069.83L781.323 1139.64Z" fill="#357C38"/>
<rect x="786.052" y="1118.39" width="7.22635" height="230.13" transform="rotate(178.829 786.052 1118.39)" fill="#365D46"/>
<rect width="3.94975" height="52.937" transform="matrix(-0.919681 -0.392667 0.556263 -0.831006 756.374 974.255)" fill="#365D46"/>
<rect width="3.94975" height="52.937" transform="matrix(0.902869 -0.429917 -0.589753 -0.807583 798.556 971.734)" fill="#365D46"/>
<rect width="3.94975" height="52.937" transform="matrix(0.902869 -0.429917 -0.589753 -0.807583 806.282 1046.64)" fill="#365D46"/>
<rect width="3.94975" height="52.937" transform="matrix(-0.919681 -0.392667 0.556263 -0.831006 754.262 1047.71)" fill="#365D46"/>
<rect x="916.708" y="228.125" width="18.1641" height="107.771" transform="rotate(48.0099 916.708 228.125)" fill="#365E46"/>
<ellipse cx="960.296" cy="203.555" rx="77.5" ry="107.771" transform="rotate(48.0099 960.296 203.555)" fill="#31B637"/>
<path d="M1073.56 101.603L1051.64 182.012L991.299 114.979L1073.56 101.603Z" fill="#31B637"/>
<rect x="1053.56" y="111.466" width="8.47656" height="233.644" transform="rotate(48.0099 1053.56 111.466)" fill="#365D46"/>
<rect width="4.53367" height="56.6241" transform="matrix(0.352696 0.935738 -0.998583 0.0532086 965.328 233.059)" fill="#365D46"/>
<rect width="4.53367" height="56.6241" transform="matrix(-0.89359 -0.448883 -0.157638 0.987497 930.941 197.372)" fill="#365D46"/>
<rect width="4.53367" height="56.6241" transform="matrix(-0.89359 -0.448883 -0.157638 0.987497 982.715 140.996)" fill="#365D46"/>
<rect width="4.53367" height="56.6241" transform="matrix(0.352696 0.935738 -0.998583 0.0532086 1023.55 186.359)" fill="#365D46"/>
<rect x="1175.7" y="928.959" width="18.1641" height="107.771" transform="rotate(173.134 1175.7 928.959)" fill="#365E46"/>
<ellipse cx="1170.71" cy="978.746" rx="77.5" ry="107.771" transform="rotate(173.134 1170.71 978.746)" fill="#31B637"/>
<path d="M1188.93 1130.05L1135.78 1065.85L1225.32 1055.07L1188.93 1130.05Z" fill="#31B637"/>
<rect x="1192.38" y="1108.01" width="8.47656" height="233.644" transform="rotate(173.134 1192.38 1108.01)" fill="#365D46"/>
<rect width="4.53367" height="56.6241" transform="matrix(-0.968269 -0.249911 0.531022 -0.847358 1143.69 965.888)" fill="#365D46"/>
<rect width="4.53367" height="56.6241" transform="matrix(0.881276 -0.472603 -0.716979 -0.697095 1192.66 958.295)" fill="#365D46"/>
<rect width="4.53367" height="56.6241" transform="matrix(0.881276 -0.472603 -0.716979 -0.697095 1208.98 1033.08)" fill="#365D46"/>
<rect width="4.53367" height="56.6241" transform="matrix(-0.968269 -0.249911 0.531022 -0.847358 1148.39 1040.37)" fill="#365D46"/>
<rect x="1225.71" y="640.125" width="18.1641" height="107.771" transform="rotate(48.0099 1225.71 640.125)" fill="#365E46"/>
<ellipse cx="1269.3" cy="615.555" rx="77.5" ry="107.771" transform="rotate(48.0099 1269.3 615.555)" fill="#31B637"/>
<path d="M1382.56 513.603L1360.64 594.012L1300.3 526.979L1382.56 513.603Z" fill="#31B637"/>
<rect x="1362.56" y="523.466" width="8.47656" height="233.644" transform="rotate(48.0099 1362.56 523.466)" fill="#365D46"/>
<rect width="4.53367" height="56.6241" transform="matrix(0.352696 0.935738 -0.998583 0.0532086 1274.33 645.059)" fill="#365D46"/>
<rect width="4.53367" height="56.6241" transform="matrix(-0.89359 -0.448883 -0.157638 0.987497 1239.94 609.372)" fill="#365D46"/>
<rect width="4.53367" height="56.6241" transform="matrix(-0.89359 -0.448883 -0.157638 0.987497 1291.71 552.996)" fill="#365D46"/>
<rect width="4.53367" height="56.6241" transform="matrix(0.352696 0.935738 -0.998583 0.0532086 1332.55 598.359)" fill="#365D46"/>
<rect x="1075.85" y="311.454" width="18.1641" height="107.771" transform="rotate(-1.48615 1075.85 311.454)" fill="#365E46"/>
<ellipse cx="1085.48" cy="262.354" rx="77.5" ry="107.771" transform="rotate(-1.48615 1085.48 262.354)" fill="#31B637"/>
<path d="M1081.52 110.01L1128.42 178.91L1038.26 181.249L1081.52 110.01Z" fill="#31B637"/>
<rect x="1076.03" y="131.63" width="8.47656" height="233.644" transform="rotate(-1.48615 1076.03 131.63)" fill="#365D46"/>
<rect width="4.53367" height="56.6241" transform="matrix(0.940575 0.339586 -0.608123 0.793843 1111.18 277.689)" fill="#365D46"/>
<rect width="4.53367" height="56.6241" transform="matrix(-0.921701 0.387901 0.648468 0.761242 1061.71 280.658)" fill="#365D46"/>
<rect width="4.53367" height="56.6241" transform="matrix(-0.921701 0.387901 0.648468 0.761242 1052.47 204.674)" fill="#365D46"/>
<rect width="4.53367" height="56.6241" transform="matrix(0.940575 0.339586 -0.608123 0.793843 1113.48 203.091)" fill="#365D46"/>
<rect x="280.508" y="654.081" width="18.1641" height="107.771" transform="rotate(-126.359 280.508 654.081)" fill="#365E46"/>
<ellipse cx="234.721" cy="674.254" rx="77.5" ry="107.771" transform="rotate(-126.359 234.721 674.254)" fill="#31B637"/>
<path d="M111.994 764.6L141.708 686.731L195.175 759.362L111.994 764.6Z" fill="#31B637"/>
<rect x="132.874" y="756.748" width="8.47656" height="233.644" transform="rotate(-126.359 132.874 756.748)" fill="#365D46"/>
<rect width="4.53367" height="56.6241" transform="matrix(-0.259174 -0.965831 0.998985 0.0450351 232.607 644.4)" fill="#365D46"/>
<rect width="4.53367" height="56.6241" transform="matrix(0.845231 0.534401 0.253776 -0.967263 263.326 683.288)" fill="#365D46"/>
<rect width="4.53367" height="56.6241" transform="matrix(0.845231 0.534401 0.253776 -0.967263 206.271 734.312)" fill="#365D46"/>
<rect width="4.53367" height="56.6241" transform="matrix(-0.259174 -0.965831 0.998985 0.0450351 170.087 685.161)" fill="#365D46"/>
<rect x="1282.05" y="480.959" width="18.1641" height="107.771" transform="rotate(29.469 1282.05 480.959)" fill="#365E46"/>
<ellipse cx="1315.56" cy="443.805" rx="77.5" ry="107.771" transform="rotate(29.469 1315.56 443.805)" fill="#31B637"/>
<path d="M1390.54 311.126L1395.31 394.335L1316.79 349.967L1390.54 311.126Z" fill="#31B637"/>
<rect x="1374.7" y="326.84" width="8.47656" height="233.644" transform="rotate(29.469 1374.7 326.84)" fill="#365D46"/>
<rect width="4.53367" height="56.6241" transform="matrix(0.631937 0.775019 -0.929835 0.367978 1329.72 470.177)" fill="#365D46"/>
<rect width="4.53367" height="56.6241" transform="matrix(-0.989947 -0.14144 0.16455 0.986369 1285.77 447.276)" fill="#365D46"/>
<rect width="4.53367" height="56.6241" transform="matrix(-0.989947 -0.14144 0.16455 0.986369 1316.93 377.363)" fill="#365D46"/>
<rect width="4.53367" height="56.6241" transform="matrix(0.631937 0.775019 -0.929835 0.367978 1370.06 407.388)" fill="#365D46"/>
<rect x="355.339" y="882.872" width="18.1641" height="107.771" transform="rotate(-85.0266 355.339 882.872)" fill="#365E46"/>
<ellipse cx="307.633" cy="867.781" rx="77.5" ry="107.771" transform="rotate(-85.0266 307.633 867.781)" fill="#31B637"/>
<path d="M155.812 854.57L229.551 815.722L221.732 905.571L155.812 854.57Z" fill="#31B637"/>
<rect x="176.676" y="862.463" width="8.47656" height="233.644" transform="rotate(-85.0266 176.676 862.463)" fill="#365D46"/>
<rect width="4.53367" height="56.6241" transform="matrix(0.443247 -0.896399 0.720388 0.693571 325.764 843.968)" fill="#365D46"/>
<rect width="4.53367" height="56.6241" transform="matrix(0.281745 0.959489 0.829363 -0.55871 323.147 893.457)" fill="#365D46"/>
<rect width="4.53367" height="56.6241" transform="matrix(0.281745 0.959489 0.829363 -0.55871 246.606 894.089)" fill="#365D46"/>
<rect width="4.53367" height="56.6241" transform="matrix(0.443247 -0.896399 0.720388 0.693571 251.897 833.286)" fill="#365D46"/>
<rect x="386.917" y="972.979" width="18.1641" height="107.771" transform="rotate(-148.794 386.917 972.979)" fill="#365E46"/>
<ellipse cx="352.294" cy="1009.1" rx="77.5" ry="107.771" transform="rotate(-148.794 352.294 1009.1)" fill="#31B637"/>
<path d="M273.335 1139.44L271.082 1056.13L348.221 1102.86L273.335 1139.44Z" fill="#31B637"/>
<rect x="289.637" y="1124.22" width="8.47656" height="233.644" transform="rotate(-148.794 289.637 1124.22)" fill="#365D46"/>
<rect width="4.53367" height="56.6241" transform="matrix(-0.608151 -0.793822 0.940563 -0.339619 338.947 982.311)" fill="#365D46"/>
<rect width="4.53367" height="56.6241" transform="matrix(0.985204 0.171387 -0.134571 -0.990904 382.183 1006.53)" fill="#365D46"/>
<rect width="4.53367" height="56.6241" transform="matrix(0.985204 0.171387 -0.134571 -0.990904 348.917 1075.47)" fill="#365D46"/>
<rect width="4.53367" height="56.6241" transform="matrix(-0.608151 -0.793822 0.940563 -0.339619 296.715 1043.85)" fill="#365D46"/>
<rect x="331.759" y="262.775" width="18.1641" height="107.771" transform="rotate(-24.3737 331.759 262.775)" fill="#365E46"/>
<ellipse cx="321.533" cy="213.796" rx="77.5" ry="107.771" transform="rotate(-24.3737 321.533 213.796)" fill="#31B637"/>
<path d="M258.641 74.983L328.643 120.219L246.492 157.439L258.641 74.983Z" fill="#31B637"/>
<rect x="261.986" y="97.0381" width="8.47656" height="233.644" transform="rotate(-24.3737 261.986 97.0381)" fill="#365D46"/>
<rect width="4.53367" height="56.6241" transform="matrix(0.998597 -0.0529616 -0.251501 0.967857 351.175 217.928)" fill="#365D46"/>
<rect width="4.53367" height="56.6241" transform="matrix(-0.698271 0.715833 0.893479 0.449104 306.755 239.902)" fill="#365D46"/>
<rect width="4.53367" height="56.6241" transform="matrix(-0.698271 0.715833 0.893479 0.449104 268.691 173.494)" fill="#365D46"/>
<rect width="4.53367" height="56.6241" transform="matrix(0.998597 -0.0529616 -0.251501 0.967857 324.285 148.307)" fill="#365D46"/>
<rect x="244.553" y="787.428" width="18.1641" height="107.771" transform="rotate(-97.9336 244.553 787.428)" fill="#365E46"/>
<ellipse cx="194.682" cy="783.374" rx="77.5" ry="107.771" transform="rotate(-97.9336 194.682 783.374)" fill="#31B637"/>
<path d="M43.7456 804.408L106.944 750.071L119.392 839.396L43.7456 804.408Z" fill="#31B637"/>
<rect x="65.8457" y="807.441" width="8.47656" height="233.644" transform="rotate(-97.9336 65.8457 807.441)" fill="#365D46"/>
<rect width="4.53367" height="56.6241" transform="matrix(0.231819 -0.972759 0.857109 0.515135 207.035 756.112)" fill="#365D46"/>
<rect width="4.53367" height="56.6241" transform="matrix(0.488947 0.872313 0.683609 -0.729848 215.539 804.936)" fill="#365D46"/>
<rect width="4.53367" height="56.6241" transform="matrix(0.488947 0.872313 0.683609 -0.729848 141.073 822.648)" fill="#365D46"/>
<rect width="4.53367" height="56.6241" transform="matrix(0.231819 -0.972759 0.857109 0.515135 132.649 762.2)" fill="#365D46"/>
<rect x="300.013" y="329.051" width="18.1641" height="107.771" transform="rotate(-71.7215 300.013 329.051)" fill="#365E46"/>
<ellipse cx="257.061" cy="303.386" rx="77.5" ry="107.771" transform="rotate(-71.7215 257.061 303.386)" fill="#31B637"/>
<path d="M112.355 255.59L193.055 234.755L164.769 320.392L112.355 255.59Z" fill="#31B637"/>
<rect x="130.843" y="268.073" width="8.47656" height="233.644" transform="rotate(-71.7215 130.843 268.073)" fill="#365D46"/>
<rect width="4.53367" height="56.6241" transform="matrix(0.637643 -0.770332 0.541436 0.840742 280.185 284.384)" fill="#365D46"/>
<rect width="4.53367" height="56.6241" transform="matrix(0.0533702 0.998575 0.935681 -0.352848 266.249 331.943)" fill="#365D46"/>
<rect width="4.53367" height="56.6241" transform="matrix(0.0533702 0.998575 0.935681 -0.352848 191.618 314.943)" fill="#365D46"/>
<rect width="4.53367" height="56.6241" transform="matrix(0.637643 -0.770332 0.541436 0.840742 210.76 256.99)" fill="#365D46"/>
<rect x="841.052" y="215.959" width="18.1641" height="107.771" transform="rotate(29.469 841.052 215.959)" fill="#365E46"/>
<ellipse cx="874.564" cy="178.805" rx="77.5" ry="107.771" transform="rotate(29.469 874.564 178.805)" fill="#31B637"/>
<path d="M949.536 46.1264L954.313 129.335L875.793 84.967L949.536 46.1264Z" fill="#31B637"/>
<rect x="933.702" y="61.8398" width="8.47656" height="233.644" transform="rotate(29.469 933.702 61.8398)" fill="#365D46"/>
<rect width="4.53367" height="56.6241" transform="matrix(0.631937 0.775019 -0.929835 0.367978 888.718 205.177)" fill="#365D46"/>
<rect width="4.53367" height="56.6241" transform="matrix(-0.989947 -0.14144 0.16455 0.986369 844.768 182.276)" fill="#365D46"/>
<rect width="4.53367" height="56.6241" transform="matrix(-0.989947 -0.14144 0.16455 0.986369 875.928 112.363)" fill="#365D46"/>
<rect width="4.53367" height="56.6241" transform="matrix(0.631937 0.775019 -0.929835 0.367978 929.064 142.388)" fill="#365D46"/>
<rect x="1238.93" y="316.404" width="18.1641" height="107.771" transform="rotate(35.5869 1238.93 316.404)" fill="#365E46"/>
<ellipse cx="1276.21" cy="283.033" rx="77.5" ry="107.771" transform="rotate(35.5869 1276.21 283.033)" fill="#CBE42F"/>
<path d="M1364.89 159.1L1360.78 242.344L1287.43 189.86L1364.89 159.1Z" fill="#CBE42F"/>
<rect x="1347.47" y="173.037" width="8.47656" height="233.644" transform="rotate(35.5869 1347.47 173.037)" fill="#365D46"/>
<rect width="4.53367" height="56.6241" transform="matrix(0.54574 0.837954 -0.963756 0.266784 1287.47 310.763)" fill="#365D46"/>
<rect width="4.53367" height="56.6241" transform="matrix(-0.969235 -0.246138 0.0584898 0.998288 1246.21 283.309)" fill="#365D46"/>
<rect width="4.53367" height="56.6241" transform="matrix(-0.969235 -0.246138 0.0584898 0.998288 1284.64 217.115)" fill="#365D46"/>
<rect width="4.53367" height="56.6241" transform="matrix(0.54574 0.837954 -0.963756 0.266784 1334.28 252.632)" fill="#365D46"/>
<rect x="1193.56" y="465.289" width="15.485" height="106.15" transform="rotate(178.829 1193.56 465.289)" fill="#365E46"/>
<ellipse cx="1185.26" cy="513.568" rx="66.0695" ry="106.15" transform="rotate(178.829 1185.26 513.568)" fill="#357C38"/>
<path d="M1188.32 663.639L1148.48 595.4L1225.35 593.829L1188.32 663.639Z" fill="#357C38"/>
<rect x="1193.05" y="642.391" width="7.22635" height="230.13" transform="rotate(178.829 1193.05 642.391)" fill="#365D46"/>
<rect width="3.94975" height="52.937" transform="matrix(-0.919681 -0.392667 0.556263 -0.831006 1163.37 498.255)" fill="#365D46"/>
<rect width="3.94975" height="52.937" transform="matrix(0.902869 -0.429917 -0.589753 -0.807583 1205.56 495.734)" fill="#365D46"/>
<rect width="3.94975" height="52.937" transform="matrix(0.902869 -0.429917 -0.589753 -0.807583 1213.28 570.643)" fill="#365D46"/>
<rect width="3.94975" height="52.937" transform="matrix(-0.919681 -0.392667 0.556263 -0.831006 1161.26 571.706)" fill="#365D46"/>
<rect x="1131.71" y="208.125" width="18.1641" height="107.771" transform="rotate(48.0099 1131.71 208.125)" fill="#365E46"/>
<ellipse cx="1175.3" cy="183.555" rx="77.5" ry="107.771" transform="rotate(48.0099 1175.3 183.555)" fill="#31B637"/>
<path d="M1288.56 81.6027L1266.64 162.012L1206.3 94.9786L1288.56 81.6027Z" fill="#31B637"/>
<rect x="1268.56" y="91.4658" width="8.47656" height="233.644" transform="rotate(48.0099 1268.56 91.4658)" fill="#365D46"/>
<rect width="4.53367" height="56.6241" transform="matrix(0.352696 0.935738 -0.998583 0.0532086 1180.33 213.059)" fill="#365D46"/>
<rect width="4.53367" height="56.6241" transform="matrix(-0.89359 -0.448883 -0.157638 0.987497 1145.94 177.372)" fill="#365D46"/>
<rect width="4.53367" height="56.6241" transform="matrix(-0.89359 -0.448883 -0.157638 0.987497 1197.71 120.996)" fill="#365D46"/>
<rect width="4.53367" height="56.6241" transform="matrix(0.352696 0.935738 -0.998583 0.0532086 1238.55 166.359)" fill="#365D46"/>
<rect x="606.696" y="1028.96" width="18.1641" height="107.771" transform="rotate(173.134 606.696 1028.96)" fill="#365E46"/>
<ellipse cx="601.714" cy="1078.75" rx="77.5" ry="107.771" transform="rotate(173.134 601.714 1078.75)" fill="#31B637"/>
<path d="M619.931 1230.05L566.781 1165.85L656.323 1155.07L619.931 1230.05Z" fill="#31B637"/>
<rect x="623.375" y="1208.01" width="8.47656" height="233.644" transform="rotate(173.134 623.375 1208.01)" fill="#365D46"/>
<rect width="4.53367" height="56.6241" transform="matrix(-0.968269 -0.249911 0.531022 -0.847358 574.688 1065.89)" fill="#365D46"/>
<rect width="4.53367" height="56.6241" transform="matrix(0.881276 -0.472603 -0.716979 -0.697095 623.66 1058.29)" fill="#365D46"/>
<rect width="4.53367" height="56.6241" transform="matrix(0.881276 -0.472603 -0.716979 -0.697095 639.982 1133.08)" fill="#365D46"/>
<rect width="4.53367" height="56.6241" transform="matrix(-0.968269 -0.249911 0.531022 -0.847358 579.387 1140.37)" fill="#365D46"/>
<rect x="1264.71" y="484.125" width="18.1641" height="107.771" transform="rotate(48.0099 1264.71 484.125)" fill="#365E46"/>
<ellipse cx="1308.3" cy="459.555" rx="77.5" ry="107.771" transform="rotate(48.0099 1308.3 459.555)" fill="#31B637"/>
<path d="M1421.56 357.603L1399.64 438.012L1339.3 370.979L1421.56 357.603Z" fill="#31B637"/>
<rect x="1401.56" y="367.466" width="8.47656" height="233.644" transform="rotate(48.0099 1401.56 367.466)" fill="#365D46"/>
<rect width="4.53367" height="56.6241" transform="matrix(0.352696 0.935738 -0.998583 0.0532086 1313.33 489.059)" fill="#365D46"/>
<rect width="4.53367" height="56.6241" transform="matrix(-0.89359 -0.448883 -0.157638 0.987497 1278.94 453.372)" fill="#365D46"/>
<rect width="4.53367" height="56.6241" transform="matrix(-0.89359 -0.448883 -0.157638 0.987497 1330.71 396.996)" fill="#365D46"/>
<rect width="4.53367" height="56.6241" transform="matrix(0.352696 0.935738 -0.998583 0.0532086 1371.55 442.359)" fill="#365D46"/>
<rect x="642.847" y="203.454" width="18.1641" height="107.771" transform="rotate(-1.48615 642.847 203.454)" fill="#365E46"/>
<ellipse cx="652.475" cy="154.354" rx="77.5" ry="107.771" transform="rotate(-1.48615 652.475 154.354)" fill="#31B637"/>
<path d="M648.523 2.0099L695.419 70.9101L605.261 73.2492L648.523 2.0099Z" fill="#31B637"/>
<rect x="643.027" y="23.6299" width="8.47656" height="233.644" transform="rotate(-1.48615 643.027 23.6299)" fill="#365D46"/>
<rect width="4.53367" height="56.6241" transform="matrix(0.940575 0.339586 -0.608123 0.793843 678.177 169.689)" fill="#365D46"/>
<rect width="4.53367" height="56.6241" transform="matrix(-0.921701 0.387901 0.648468 0.761242 628.708 172.658)" fill="#365D46"/>
<rect width="4.53367" height="56.6241" transform="matrix(-0.921701 0.387901 0.648468 0.761242 619.469 96.6743)" fill="#365D46"/>
<rect width="4.53367" height="56.6241" transform="matrix(0.940575 0.339586 -0.608123 0.793843 680.481 95.0913)" fill="#365D46"/>
<rect x="208.286" y="438.007" width="18.1641" height="107.771" transform="rotate(-82.3771 208.286 438.007)" fill="#365E46"/>
<ellipse cx="161.329" cy="420.727" rx="77.5" ry="107.771" transform="rotate(-82.3771 161.329 420.727)" fill="#31B637"/>
<path d="M10.2808 400.511L85.7365 365.114L73.7728 454.505L10.2808 400.511Z" fill="#31B637"/>
<rect x="30.7578" y="409.361" width="8.47656" height="233.644" transform="rotate(-82.3771 30.7578 409.361)" fill="#365D46"/>
<rect width="4.53367" height="56.6241" transform="matrix(0.484209 -0.874952 0.687557 0.72613 180.54 397.777)" fill="#365D46"/>
<rect width="4.53367" height="56.6241" transform="matrix(0.237091 0.971487 0.854303 -0.519775 175.639 447.092)" fill="#365D46"/>
<rect width="4.53367" height="56.6241" transform="matrix(0.237091 0.971487 0.854303 -0.519775 99.1509 444.186)" fill="#365D46"/>
<rect width="4.53367" height="56.6241" transform="matrix(0.484209 -0.874952 0.687557 0.72613 107.247 383.692)" fill="#365D46"/>
<rect x="1145.05" y="412.959" width="18.1641" height="107.771" transform="rotate(29.469 1145.05 412.959)" fill="#365E46"/>
<ellipse cx="1178.56" cy="375.805" rx="77.5" ry="107.771" transform="rotate(29.469 1178.56 375.805)" fill="#31B637"/>
<path d="M1253.54 243.126L1258.31 326.335L1179.79 281.967L1253.54 243.126Z" fill="#31B637"/>
<rect x="1237.7" y="258.84" width="8.47656" height="233.644" transform="rotate(29.469 1237.7 258.84)" fill="#365D46"/>
<rect width="4.53367" height="56.6241" transform="matrix(0.631937 0.775019 -0.929835 0.367978 1192.72 402.177)" fill="#365D46"/>
<rect width="4.53367" height="56.6241" transform="matrix(-0.989947 -0.14144 0.16455 0.986369 1148.77 379.276)" fill="#365D46"/>
<rect width="4.53367" height="56.6241" transform="matrix(-0.989947 -0.14144 0.16455 0.986369 1179.93 309.363)" fill="#365D46"/>
<rect width="4.53367" height="56.6241" transform="matrix(0.631937 0.775019 -0.929835 0.367978 1233.06 339.388)" fill="#365D46"/>
<rect x="919.927" y="365.404" width="18.1641" height="107.771" transform="rotate(35.5869 919.927 365.404)" fill="#365E46"/>
<ellipse cx="957.208" cy="332.033" rx="77.5" ry="107.771" transform="rotate(35.5869 957.208 332.033)" fill="#CBE42F"/>
<path d="M1045.89 208.1L1041.78 291.344L968.431 238.86L1045.89 208.1Z" fill="#CBE42F"/>
<rect x="1028.47" y="222.037" width="8.47656" height="233.644" transform="rotate(35.5869 1028.47 222.037)" fill="#365D46"/>
<rect width="4.53367" height="56.6241" transform="matrix(0.54574 0.837954 -0.963756 0.266784 968.47 359.763)" fill="#365D46"/>
<rect width="4.53367" height="56.6241" transform="matrix(-0.969235 -0.246138 0.0584898 0.998288 927.211 332.309)" fill="#365D46"/>
<rect width="4.53367" height="56.6241" transform="matrix(-0.969235 -0.246138 0.0584898 0.998288 965.645 266.115)" fill="#365D46"/>
<rect width="4.53367" height="56.6241" transform="matrix(0.54574 0.837954 -0.963756 0.266784 1015.28 301.632)" fill="#365D46"/>
<rect x="1112.93" y="484.404" width="18.1641" height="107.771" transform="rotate(35.5869 1112.93 484.404)" fill="#365E46"/>
<ellipse cx="1150.21" cy="451.033" rx="77.5" ry="107.771" transform="rotate(35.5869 1150.21 451.033)" fill="#CBE42F"/>
<path d="M1238.89 327.1L1234.78 410.344L1161.43 357.86L1238.89 327.1Z" fill="#CBE42F"/>
<rect x="1221.47" y="341.037" width="8.47656" height="233.644" transform="rotate(35.5869 1221.47 341.037)" fill="#365D46"/>
<rect width="4.53367" height="56.6241" transform="matrix(0.54574 0.837954 -0.963756 0.266784 1161.47 478.763)" fill="#365D46"/>
<rect width="4.53367" height="56.6241" transform="matrix(-0.969235 -0.246138 0.0584898 0.998288 1120.21 451.309)" fill="#365D46"/>
<rect width="4.53367" height="56.6241" transform="matrix(-0.969235 -0.246138 0.0584898 0.998288 1158.64 385.115)" fill="#365D46"/>
<rect width="4.53367" height="56.6241" transform="matrix(0.54574 0.837954 -0.963756 0.266784 1208.28 420.632)" fill="#365D46"/>
<rect x="275.479" y="584.85" width="18.1641" height="107.771" transform="rotate(-37.0656 275.479 584.85)" fill="#365E46"/>
<ellipse cx="254.742" cy="539.314" rx="77.5" ry="107.771" transform="rotate(-37.0656 254.742 539.314)" fill="#CBE42F"/>
<path d="M162.889 417.711L241.119 446.462L169.154 500.822L162.889 417.711Z" fill="#CBE42F"/>
<rect x="170.999" y="438.493" width="8.47656" height="233.644" transform="rotate(-37.0656 170.999 438.493)" fill="#365D46"/>
<rect width="4.53367" height="56.6241" transform="matrix(0.96256 -0.271068 -0.0327094 0.999465 284.568 536.833)" fill="#365D46"/>
<rect width="4.53367" height="56.6241" transform="matrix(-0.523935 0.851758 0.97032 0.241826 246.062 568.029)" fill="#365D46"/>
<rect width="4.53367" height="56.6241" transform="matrix(-0.523935 0.851758 0.97032 0.241826 194.338 511.607)" fill="#365D46"/>
<rect width="4.53367" height="56.6241" transform="matrix(0.96256 -0.271068 -0.0327094 0.999465 243.039 474.821)" fill="#365D46"/>
<path d="M780.049 1964L1133.39 2396H426.71L780.049 1964Z" fill="#7B662F"/>
</svg>
