<svg width="296" height="300" viewBox="0 0 296 300" fill="none" xmlns="http://www.w3.org/2000/svg">
<g clip-path="url(#clip0_18_592)">
<ellipse cx="173.092" cy="268.373" rx="21.5838" ry="16.3514" fill="#B3B3B3"/>
<rect x="82.462" y="257.784" width="92.8758" height="7.43355" transform="rotate(2.71854 82.462 257.784)" fill="#BABABA"/>
<rect x="55.7394" y="244.533" width="38.1208" height="7.43355" transform="rotate(26.1805 55.7394 244.533)" fill="#BABABA"/>
<path d="M50.3325 237.082L61.626 247.55L53.7821 252.089L50.3325 237.082Z" fill="#BABABA"/>
<path d="M69.5133 241.672L76.4978 255.394L67.5688 256.946L69.5133 241.672Z" fill="#BABABA"/>
<path d="M97.8936 245.036L100.29 260.246L91.3193 258.96L97.8936 245.036Z" fill="#BABABA"/>
<path d="M122.084 247.661L124.481 262.871L115.51 261.585L122.084 247.661Z" fill="#BABABA"/>
<path d="M148.062 250.763L150.458 265.974L141.487 264.687L148.062 250.763Z" fill="#BABABA"/>
<path d="M55.8591 268.421L60.7112 253.808L68.0911 259.068L55.8591 268.421Z" fill="#848484"/>
<path d="M86.2314 279.826L82.4931 264.888L91.543 265.373L86.2314 279.826Z" fill="#848484"/>
<path d="M113.596 280.192L109.858 265.254L118.907 265.739L113.596 280.192Z" fill="#848484"/>
<path d="M139.872 278.587L136.134 263.649L145.184 264.134L139.872 278.587Z" fill="#848484"/>
<rect width="107.45" height="8.38771" transform="matrix(-0.637086 0.770793 0.804666 0.593728 241.517 175.141)" fill="#BABABA"/>
<rect width="43.0557" height="8.59205" transform="matrix(-0.278566 0.960417 0.974469 0.224521 250.788 142.76)" fill="#BABABA"/>
<path d="M248.505 132.815L248.831 149.962L258.902 146.455L248.505 132.815Z" fill="#BABABA"/>
<path d="M237.559 152.555L244.082 168.318L252.393 161.753L237.559 152.555Z" fill="#BABABA"/>
<path d="M218.376 179.327L229.771 192.207L235.641 183.586L218.376 179.327Z" fill="#BABABA"/>
<path d="M201.814 201.973L213.209 214.854L219.078 206.233L201.814 201.973Z" fill="#BABABA"/>
<path d="M184.275 226.494L195.67 239.375L201.539 230.753L184.275 226.494Z" fill="#BABABA"/>
<path d="M271.524 159.859L255.001 153.629L253.837 163.711L271.524 159.859Z" fill="#848484"/>
<path d="M257.8 194.061L247.688 180.223L241.058 188.341L257.8 194.061Z" fill="#848484"/>
<path d="M236.794 217.827L226.682 203.988L220.052 212.106L236.794 217.827Z" fill="#848484"/>
<path d="M214.918 239.255L204.806 225.417L198.176 233.535L214.918 239.255Z" fill="#848484"/>
<ellipse cx="122.18" cy="255.397" rx="1" ry="2.32502" transform="rotate(-4.52906 122.18 255.397)" fill="white"/>
<ellipse cx="122.18" cy="255.397" rx="1" ry="2.32502" transform="rotate(-4.52906 122.18 255.397)" fill="white"/>
<ellipse cx="122.18" cy="255.397" rx="1" ry="2.32502" transform="rotate(-4.52906 122.18 255.397)" fill="white"/>
<ellipse cx="54.8612" cy="243.531" rx="1" ry="2.32502" transform="rotate(-37.4837 54.8612 243.531)" fill="white"/>
<ellipse cx="54.8612" cy="243.531" rx="1" ry="2.32502" transform="rotate(-37.4837 54.8612 243.531)" fill="white"/>
<ellipse cx="54.8612" cy="243.531" rx="1" ry="2.32502" transform="rotate(-37.4837 54.8612 243.531)" fill="white"/>
<ellipse cx="210.53" cy="205.804" rx="1" ry="2.32502" transform="rotate(-67.8254 210.53 205.804)" fill="white"/>
<ellipse cx="210.53" cy="205.804" rx="1" ry="2.32502" transform="rotate(-67.8254 210.53 205.804)" fill="white"/>
<ellipse cx="210.53" cy="205.804" rx="1" ry="2.32502" transform="rotate(-67.8254 210.53 205.804)" fill="white"/>
<ellipse cx="97.1805" cy="253.397" rx="1" ry="2.32502" transform="rotate(-4.52906 97.1805 253.397)" fill="white"/>
<ellipse cx="97.1805" cy="253.397" rx="1" ry="2.32502" transform="rotate(-4.52906 97.1805 253.397)" fill="white"/>
<ellipse cx="97.1805" cy="253.397" rx="1" ry="2.32502" transform="rotate(-4.52906 97.1805 253.397)" fill="white"/>
<ellipse cx="71.8612" cy="248.531" rx="1" ry="2.32502" transform="rotate(-24.0653 71.8612 248.531)" fill="white"/>
<ellipse cx="71.8612" cy="248.531" rx="1" ry="2.32502" transform="rotate(-24.0653 71.8612 248.531)" fill="white"/>
<ellipse cx="71.8612" cy="248.531" rx="1" ry="2.32502" transform="rotate(-24.0653 71.8612 248.531)" fill="white"/>
<ellipse cx="228.53" cy="183.804" rx="1" ry="2.32502" transform="rotate(-67.8254 228.53 183.804)" fill="white"/>
<ellipse cx="228.53" cy="183.804" rx="1" ry="2.32502" transform="rotate(-67.8254 228.53 183.804)" fill="white"/>
<ellipse cx="228.53" cy="183.804" rx="1" ry="2.32502" transform="rotate(-67.8254 228.53 183.804)" fill="white"/>
<ellipse cx="190.53" cy="229.804" rx="1" ry="2.32502" transform="rotate(-67.8254 190.53 229.804)" fill="white"/>
<ellipse cx="190.53" cy="229.804" rx="1" ry="2.32502" transform="rotate(-67.8254 190.53 229.804)" fill="white"/>
<ellipse cx="190.53" cy="229.804" rx="1" ry="2.32502" transform="rotate(-67.8254 190.53 229.804)" fill="white"/>
<ellipse cx="252.479" cy="141.15" rx="1" ry="2.32502" transform="rotate(-28.2404 252.479 141.15)" fill="white"/>
<ellipse cx="252.479" cy="141.15" rx="1" ry="2.32502" transform="rotate(-28.2404 252.479 141.15)" fill="white"/>
<ellipse cx="252.479" cy="141.15" rx="1" ry="2.32502" transform="rotate(-28.2404 252.479 141.15)" fill="white"/>
<ellipse cx="242.53" cy="157.804" rx="1" ry="2.32502" transform="rotate(-55.107 242.53 157.804)" fill="white"/>
<ellipse cx="242.53" cy="157.804" rx="1" ry="2.32502" transform="rotate(-55.107 242.53 157.804)" fill="white"/>
<ellipse cx="242.53" cy="157.804" rx="1" ry="2.32502" transform="rotate(-55.107 242.53 157.804)" fill="white"/>
<ellipse cx="147.341" cy="257.45" rx="1" ry="2.32502" transform="rotate(-4.52906 147.341 257.45)" fill="white"/>
<ellipse cx="147.341" cy="257.45" rx="1" ry="2.32502" transform="rotate(-4.52906 147.341 257.45)" fill="white"/>
<ellipse cx="147.341" cy="257.45" rx="1" ry="2.32502" transform="rotate(-4.52906 147.341 257.45)" fill="white"/>
<path d="M124 140.83L132.393 137.989C132.393 137.989 170.17 165.556 181.26 177.732C192.349 189.908 173.475 259.375 173.475 259.375L165.081 262.215C183.594 199.962 174.701 173.338 124 140.83Z" fill="#848484"/>
</g>
<defs>
<clipPath id="clip0_18_592">
<rect width="300" height="300" fill="white"/>
</clipPath>
</defs>
</svg>
