<svg width="300" height="300" viewBox="0 0 300 300" fill="none" xmlns="http://www.w3.org/2000/svg">
<ellipse cx="73.6815" cy="89.3064" rx="55.8286" ry="22.0766" transform="rotate(5.47908 73.6815 89.3064)" fill="#E8E8E8"/>
<rect x="17.7187" y="81.5823" width="112.014" height="31.1211" transform="rotate(4.77333 17.7187 81.5823)" fill="#D6D6D6"/>
<rect x="83.0425" y="46.9989" width="4.12149" height="27.8313" transform="rotate(20.0993 83.0425 46.9989)" fill="#FF9900"/>
<rect x="83.2036" y="47.1293" width="31.9785" height="3.82314" transform="rotate(-42.6991 83.2036 47.1293)" fill="#FF9900"/>
<rect x="118.291" y="27.1165" width="1.77835" height="13.3376" transform="rotate(77.3206 118.291 27.1165)" fill="#FF9900"/>
<rect x="102.777" y="45.262" width="1.77835" height="13.3376" transform="rotate(90.4275 102.777 45.262)" fill="#FF9900"/>
<rect x="102.777" y="45.262" width="1.77835" height="13.3376" transform="rotate(90.4275 102.777 45.262)" fill="#FF9900"/>
<rect x="91.6635" y="51.3668" width="1.77835" height="13.3376" transform="rotate(63.3833 91.6635 51.3668)" fill="#FF9900"/>
<rect x="87.363" y="67.4116" width="1.77835" height="13.3376" transform="rotate(63.3833 87.363 67.4116)" fill="#FF9900"/>
<rect x="89.109" y="63.8389" width="1.77835" height="13.3376" transform="rotate(63.3833 89.109 63.8389)" fill="#FF9900"/>
<rect x="90.8389" y="58.4879" width="1.77835" height="13.3376" transform="rotate(63.3833 90.8389 58.4879)" fill="#FF9900"/>
<rect x="91.6877" y="54.0342" width="1.77835" height="13.3376" transform="rotate(63.3833 91.6877 54.0342)" fill="#FF9900"/>
<rect x="99.2606" y="49.7399" width="1.77835" height="13.3376" transform="rotate(90.4275 99.2606 49.7399)" fill="#FF9900"/>
<rect x="105.4" y="41.5887" width="1.77835" height="13.3376" transform="rotate(87.6354 105.4 41.5887)" fill="#FF9900"/>
<rect x="108.884" y="37.8724" width="1.77835" height="13.3376" transform="rotate(86.1255 108.884 37.8724)" fill="#FF9900"/>
<rect x="110.345" y="33.4131" width="1.77835" height="13.3376" transform="rotate(77.3206 110.345 33.4131)" fill="#FF9900"/>
<rect x="112.989" y="30.7215" width="1.77835" height="13.3376" transform="rotate(77.3206 112.989 30.7215)" fill="#FF9900"/>
<rect x="83.0887" y="36.328" width="1.77835" height="13.3376" transform="rotate(7.06935 83.0887 36.328)" fill="#FF9900"/>
<rect x="93.6938" y="29.1181" width="1.77835" height="13.3376" transform="rotate(7.06935 93.6938 29.1181)" fill="#FF9900"/>
<rect x="105.172" y="20.1218" width="1.77835" height="13.3376" transform="rotate(7.06935 105.172 20.1218)" fill="#FF9900"/>
<rect x="101.623" y="21.0432" width="1.77835" height="13.3376" transform="rotate(7.06935 101.623 21.0432)" fill="#FF9900"/>
<rect x="98.0911" y="23.7429" width="1.77835" height="13.3376" transform="rotate(7.06935 98.0911 23.7429)" fill="#FF9900"/>
<rect x="90.1534" y="30.9286" width="1.77835" height="13.3376" transform="rotate(7.06935 90.1534 30.9286)" fill="#FF9900"/>
<rect x="86.621" y="33.6283" width="1.77835" height="13.3376" transform="rotate(7.06935 86.621 33.6283)" fill="#FF9900"/>
<rect x="79.5974" y="41.6949" width="1.77835" height="13.3376" transform="rotate(-0.519796 79.5974 41.6949)" fill="#FF9900"/>
<rect x="77.8756" y="47.935" width="1.77835" height="13.3376" transform="rotate(-0.519796 77.8756 47.935)" fill="#FF9900"/>
<rect x="76.1538" y="54.1751" width="1.77835" height="13.3376" transform="rotate(-0.519796 76.1538 54.1751)" fill="#FF9900"/>
<rect x="74.4239" y="59.5261" width="1.77835" height="13.3376" transform="rotate(-0.519796 74.4239 59.5261)" fill="#FF9900"/>
<rect x="184" y="83" width="10" height="18" fill="#D6D6D6"/>
<rect x="199" y="84" width="10" height="18" fill="#D6D6D6"/>
<rect x="181" y="199" width="8" height="22" fill="#D6D6D6"/>
<rect x="196" y="199" width="8" height="22" fill="#D6D6D6"/>
<ellipse cx="195.5" cy="151" rx="54.5" ry="53" fill="#E8E8E8"/>
<circle cx="195.5" cy="149.5" r="19.5" fill="#A9A9A9"/>
<path d="M231 130L209 166L198 130H231Z" fill="#A9A9A9"/>
<rect x="18.4376" y="106.355" width="9" height="29" transform="rotate(13.2288 18.4376 106.355)" fill="#D6D6D6"/>
</svg>
