<svg width="300" height="300" viewBox="0 0 300 300" fill="none" xmlns="http://www.w3.org/2000/svg">
<ellipse cx="199.347" cy="110.983" rx="77.4967" ry="32.5514" transform="rotate(6.2518 199.347 110.983)" fill="#A0A0A0"/>
<rect x="173.911" y="136.441" width="11.5593" height="38.2345" transform="rotate(-0.519796 173.911 136.441)" fill="#A0A0A0"/>
<rect x="198.767" y="131.769" width="11.5593" height="38.2345" transform="rotate(-0.519796 198.767 131.769)" fill="#A0A0A0"/>
<ellipse cx="199.257" cy="186.916" rx="77.4967" ry="32.5514" transform="rotate(-7.56596 199.257 186.916)" fill="#A0A0A0"/>
<ellipse cx="199.526" cy="109.164" rx="50.9988" ry="29.961" transform="rotate(4.50192 199.526 109.164)" fill="#C4C4C4"/>
<ellipse cx="203.064" cy="184.478" rx="50.9988" ry="29.961" transform="rotate(-2.15711 203.064 184.478)" fill="#C4C4C4"/>
<ellipse cx="89.6346" cy="100.636" rx="46.2865" ry="22.0766" transform="rotate(30.0897 89.6346 100.636)" fill="#C4C4C4"/>
<rect x="51.49" y="70.8604" width="96.9199" height="31.1211" transform="rotate(28.5302 51.49 70.8604)" fill="#A0A0A0"/>
<rect x="108.282" y="55.2286" width="4.12149" height="27.8313" transform="rotate(20.0993 108.282 55.2286)" fill="#0085FF"/>
<rect x="108.443" y="55.359" width="31.9785" height="3.82314" transform="rotate(-42.6991 108.443 55.359)" fill="#0085FF"/>
<rect x="143.531" y="35.3462" width="1.77835" height="13.3376" transform="rotate(77.3206 143.531 35.3462)" fill="#0085FF"/>
<rect x="128.016" y="53.4917" width="1.77835" height="13.3376" transform="rotate(90.4275 128.016 53.4917)" fill="#0085FF"/>
<rect x="128.016" y="53.4917" width="1.77835" height="13.3376" transform="rotate(90.4275 128.016 53.4917)" fill="#0085FF"/>
<rect x="116.903" y="59.5964" width="1.77835" height="13.3376" transform="rotate(63.3833 116.903 59.5964)" fill="#0085FF"/>
<rect x="112.603" y="75.6412" width="1.77835" height="13.3376" transform="rotate(63.3833 112.603 75.6412)" fill="#0085FF"/>
<rect x="114.349" y="72.0686" width="1.77835" height="13.3376" transform="rotate(63.3833 114.349 72.0686)" fill="#0085FF"/>
<rect x="116.078" y="66.7176" width="1.77835" height="13.3376" transform="rotate(63.3833 116.078 66.7176)" fill="#0085FF"/>
<rect x="116.927" y="62.2638" width="1.77835" height="13.3376" transform="rotate(63.3833 116.927 62.2638)" fill="#0085FF"/>
<rect x="124.5" y="57.9696" width="1.77835" height="13.3376" transform="rotate(90.4275 124.5 57.9696)" fill="#0085FF"/>
<rect x="130.64" y="49.8184" width="1.77835" height="13.3376" transform="rotate(87.6354 130.64 49.8184)" fill="#0085FF"/>
<rect x="134.123" y="46.1021" width="1.77835" height="13.3376" transform="rotate(86.1255 134.123 46.1021)" fill="#0085FF"/>
<rect x="135.585" y="41.6427" width="1.77835" height="13.3376" transform="rotate(77.3206 135.585 41.6427)" fill="#0085FF"/>
<rect x="138.228" y="38.9511" width="1.77835" height="13.3376" transform="rotate(77.3206 138.228 38.9511)" fill="#0085FF"/>
<rect x="108.328" y="44.5577" width="1.77835" height="13.3376" transform="rotate(7.06935 108.328 44.5577)" fill="#0085FF"/>
<rect x="118.933" y="37.3478" width="1.77835" height="13.3376" transform="rotate(7.06935 118.933 37.3478)" fill="#0085FF"/>
<rect x="130.411" y="28.3515" width="1.77835" height="13.3376" transform="rotate(7.06935 130.411 28.3515)" fill="#0085FF"/>
<rect x="126.863" y="29.2729" width="1.77835" height="13.3376" transform="rotate(7.06935 126.863 29.2729)" fill="#0085FF"/>
<rect x="123.331" y="31.9726" width="1.77835" height="13.3376" transform="rotate(7.06935 123.331 31.9726)" fill="#0085FF"/>
<rect x="115.393" y="39.1583" width="1.77835" height="13.3376" transform="rotate(7.06935 115.393 39.1583)" fill="#0085FF"/>
<rect x="111.861" y="41.858" width="1.77835" height="13.3376" transform="rotate(7.06935 111.861 41.858)" fill="#0085FF"/>
<rect x="104.837" y="49.9246" width="1.77835" height="13.3376" transform="rotate(-0.519796 104.837 49.9246)" fill="#0085FF"/>
<rect x="103.115" y="56.1647" width="1.77835" height="13.3376" transform="rotate(-0.519796 103.115 56.1647)" fill="#0085FF"/>
<rect x="101.393" y="62.4048" width="1.77835" height="13.3376" transform="rotate(-0.519796 101.393 62.4048)" fill="#0085FF"/>
<rect x="99.6634" y="67.7557" width="1.77835" height="13.3376" transform="rotate(-0.519796 99.6634 67.7557)" fill="#0085FF"/>
</svg>
