<svg width="300" height="300" viewBox="0 0 300 300" fill="none" xmlns="http://www.w3.org/2000/svg">
<ellipse cx="76.0486" cy="99.665" rx="50.5229" ry="13.5501" transform="rotate(2.41282 76.0486 99.665)" fill="#77478E"/>
<path d="M75.2158 26.8386C76.0348 25.5879 77.8864 25.6452 78.6266 26.9441L117.704 95.5193C118.478 96.8765 117.466 98.5568 115.905 98.5086L33.5878 95.9635C32.0264 95.9153 31.1207 94.1757 31.9765 92.8688L75.2158 26.8386Z" fill="#77478E"/>
<path d="M95.3609 85L97.7621 89.6923H92.9597L95.3609 85Z" fill="#FFF387"/>
<path d="M95.3609 85L97.7621 89.6923H92.9597L95.3609 85Z" fill="#FFF387"/>
<path d="M95.3609 85L97.7621 89.6923H92.9597L95.3609 85Z" fill="#FFF387"/>
<path d="M101.487 90.2823L97.8441 93.813L96.9552 88.4885L101.487 90.2823Z" fill="#FFF387"/>
<path d="M101.487 90.2823L97.8441 93.813L96.9552 88.4885L101.487 90.2823Z" fill="#FFF387"/>
<path d="M101.487 90.2823L97.8441 93.813L96.9552 88.4885L101.487 90.2823Z" fill="#FFF387"/>
<path d="M99.112 96.7997L94.4798 95.3698L97.8935 91.5589L99.112 96.7997Z" fill="#FFF387"/>
<path d="M99.112 96.7997L94.4798 95.3698L97.8935 91.5589L99.112 96.7997Z" fill="#FFF387"/>
<path d="M99.112 96.7997L94.4798 95.3698L97.8935 91.5589L99.112 96.7997Z" fill="#FFF387"/>
<path d="M91.2397 96.7338L92.5924 91.535L95.9067 95.4561L91.2397 96.7338Z" fill="#FFF387"/>
<path d="M91.2397 96.7338L92.5924 91.535L95.9067 95.4561L91.2397 96.7338Z" fill="#FFF387"/>
<path d="M91.2397 96.7338L92.5924 91.535L95.9067 95.4561L91.2397 96.7338Z" fill="#FFF387"/>
<path d="M89.4469 90.2954L93.9386 88.3781L93.1645 93.7254L89.4469 90.2954Z" fill="#FFF387"/>
<path d="M89.4469 90.2954L93.9386 88.3781L93.1645 93.7254L89.4469 90.2954Z" fill="#FFF387"/>
<path d="M89.4469 90.2954L93.9386 88.3781L93.1645 93.7254L89.4469 90.2954Z" fill="#FFF387"/>
<ellipse cx="95.3609" cy="91.4404" rx="2.7727" ry="3.12818" fill="#FFF387"/>
<path d="M77.4201 80.2745L79.3226 75.3589L82.5199 78.9423L77.4201 80.2745Z" fill="#FFF387"/>
<path d="M77.4201 80.2745L79.3226 75.3589L82.5199 78.9423L77.4201 80.2745Z" fill="#FFF387"/>
<path d="M77.4201 80.2745L79.3226 75.3589L82.5199 78.9423L77.4201 80.2745Z" fill="#FFF387"/>
<path d="M77.2831 72.1869L82.3428 72.5543L78.9617 76.7625L77.2831 72.1869Z" fill="#FFF387"/>
<path d="M77.2831 72.1869L82.3428 72.5543L78.9617 76.7625L77.2831 72.1869Z" fill="#FFF387"/>
<path d="M77.2831 72.1869L82.3428 72.5543L78.9617 76.7625L77.2831 72.1869Z" fill="#FFF387"/>
<path d="M83.7273 69.6198L85.7443 74.0281L80.628 74.0182L83.7273 69.6198Z" fill="#FFF387"/>
<path d="M83.7273 69.6198L85.7443 74.0281L80.628 74.0182L83.7273 69.6198Z" fill="#FFF387"/>
<path d="M83.7273 69.6198L85.7443 74.0281L80.628 74.0182L83.7273 69.6198Z" fill="#FFF387"/>
<path d="M88.9191 75.5377L84.1394 77.9895L84.8586 72.906L88.9191 75.5377Z" fill="#FFF387"/>
<path d="M88.9191 75.5377L84.1394 77.9895L84.8586 72.906L88.9191 75.5377Z" fill="#FFF387"/>
<path d="M88.9191 75.5377L84.1394 77.9895L84.8586 72.906L88.9191 75.5377Z" fill="#FFF387"/>
<path d="M85.3086 81.1618L80.8876 79.0868L85.3929 76.1043L85.3086 81.1618Z" fill="#FFF387"/>
<path d="M85.3086 81.1618L80.8876 79.0868L85.3929 76.1043L85.3086 81.1618Z" fill="#FFF387"/>
<path d="M85.3086 81.1618L80.8876 79.0868L85.3929 76.1043L85.3086 81.1618Z" fill="#FFF387"/>
<ellipse cx="82.2256" cy="75.9868" rx="2.7727" ry="3.12818" transform="rotate(-131.741 82.2256 75.9868)" fill="#FFF387"/>
<path d="M50.8208 85.2147L53.5371 89.8272L48.3874 89.9825L50.8208 85.2147Z" fill="#FFF387"/>
<path d="M50.8208 85.2147L53.5371 89.8272L48.3874 89.9825L50.8208 85.2147Z" fill="#FFF387"/>
<path d="M50.8208 85.2147L53.5371 89.8272L48.3874 89.9825L50.8208 85.2147Z" fill="#FFF387"/>
<path d="M57.5489 90.2964L53.7492 93.9434L52.6355 88.65L57.5489 90.2964Z" fill="#FFF387"/>
<path d="M57.5489 90.2964L53.7492 93.9434L52.6355 88.65L57.5489 90.2964Z" fill="#FFF387"/>
<path d="M57.5489 90.2964L53.7492 93.9434L52.6355 88.65L57.5489 90.2964Z" fill="#FFF387"/>
<path d="M55.1988 96.8878L50.1885 95.6083L53.7342 91.6887L55.1988 96.8878Z" fill="#FFF387"/>
<path d="M55.1988 96.8878L50.1885 95.6083L53.7342 91.6887L55.1988 96.8878Z" fill="#FFF387"/>
<path d="M55.1988 96.8878L50.1885 95.6083L53.7342 91.6887L55.1988 96.8878Z" fill="#FFF387"/>
<path d="M46.7553 97.0764L48.0492 91.8362L51.7213 95.6484L46.7553 97.0764Z" fill="#FFF387"/>
<path d="M46.7553 97.0764L48.0492 91.8362L51.7213 95.6484L46.7553 97.0764Z" fill="#FFF387"/>
<path d="M46.7553 97.0764L48.0492 91.8362L51.7213 95.6484L46.7553 97.0764Z" fill="#FFF387"/>
<path d="M44.6389 90.6989L49.3976 88.6372L48.7287 94.0071L44.6389 90.6989Z" fill="#FFF387"/>
<path d="M44.6389 90.6989L49.3976 88.6372L48.7287 94.0071L44.6389 90.6989Z" fill="#FFF387"/>
<path d="M44.6389 90.6989L49.3976 88.6372L48.7287 94.0071L44.6389 90.6989Z" fill="#FFF387"/>
<ellipse cx="51.015" cy="91.6521" rx="2.97454" ry="3.12818" transform="rotate(-1.72723 51.015 91.6521)" fill="#FFF387"/>
<path d="M64.62 58.6528L64.8455 63.919L60.4807 61.9161L64.62 58.6528Z" fill="#FFF387"/>
<path d="M64.62 58.6528L64.8455 63.919L60.4807 61.9161L64.62 58.6528Z" fill="#FFF387"/>
<path d="M64.62 58.6528L64.8455 63.919L60.4807 61.9161L64.62 58.6528Z" fill="#FFF387"/>
<path d="M67.9848 66.0086L63.2014 67.6984L64.6141 62.4883L67.9848 66.0086Z" fill="#FFF387"/>
<path d="M67.9848 66.0086L63.2014 67.6984L64.6141 62.4883L67.9848 66.0086Z" fill="#FFF387"/>
<path d="M67.9848 66.0086L63.2014 67.6984L64.6141 62.4883L67.9848 66.0086Z" fill="#FFF387"/>
<path d="M63.1082 70.9418L59.4944 67.7103L64.1865 65.6703L63.1082 70.9418Z" fill="#FFF387"/>
<path d="M63.1082 70.9418L59.4944 67.7103L64.1865 65.6703L63.1082 70.9418Z" fill="#FFF387"/>
<path d="M63.1082 70.9418L59.4944 67.7103L64.1865 65.6703L63.1082 70.9418Z" fill="#FFF387"/>
<path d="M55.9808 67.5987L59.3784 63.4378L60.7554 68.3838L55.9808 67.5987Z" fill="#FFF387"/>
<path d="M55.9808 67.5987L59.3784 63.4378L60.7554 68.3838L55.9808 67.5987Z" fill="#FFF387"/>
<path d="M55.9808 67.5987L59.3784 63.4378L60.7554 68.3838L55.9808 67.5987Z" fill="#FFF387"/>
<path d="M57.0365 60.9993L61.9185 61.1299L58.9849 65.6672L57.0365 60.9993Z" fill="#FFF387"/>
<path d="M57.0365 60.9993L61.9185 61.1299L58.9849 65.6672L57.0365 60.9993Z" fill="#FFF387"/>
<path d="M57.0365 60.9993L61.9185 61.1299L58.9849 65.6672L57.0365 60.9993Z" fill="#FFF387"/>
<ellipse cx="61.9341" cy="64.5064" rx="2.7727" ry="3.12818" transform="rotate(24.6485 61.9341 64.5064)" fill="#FFF387"/>
<path d="M85.62 97.6528L85.8456 102.919L81.4807 100.916L85.62 97.6528Z" fill="#FFF387"/>
<path d="M85.62 97.6528L85.8456 102.919L81.4807 100.916L85.62 97.6528Z" fill="#FFF387"/>
<path d="M85.62 97.6528L85.8456 102.919L81.4807 100.916L85.62 97.6528Z" fill="#FFF387"/>
<path d="M88.9848 105.009L84.2014 106.698L85.6141 101.488L88.9848 105.009Z" fill="#FFF387"/>
<path d="M88.9848 105.009L84.2014 106.698L85.6141 101.488L88.9848 105.009Z" fill="#FFF387"/>
<path d="M88.9848 105.009L84.2014 106.698L85.6141 101.488L88.9848 105.009Z" fill="#FFF387"/>
<path d="M84.1082 109.942L80.4944 106.71L85.1865 104.67L84.1082 109.942Z" fill="#FFF387"/>
<path d="M84.1082 109.942L80.4944 106.71L85.1865 104.67L84.1082 109.942Z" fill="#FFF387"/>
<path d="M84.1082 109.942L80.4944 106.71L85.1865 104.67L84.1082 109.942Z" fill="#FFF387"/>
<path d="M76.9808 106.599L80.3784 102.438L81.7554 107.384L76.9808 106.599Z" fill="#FFF387"/>
<path d="M76.9808 106.599L80.3784 102.438L81.7554 107.384L76.9808 106.599Z" fill="#FFF387"/>
<path d="M76.9808 106.599L80.3784 102.438L81.7554 107.384L76.9808 106.599Z" fill="#FFF387"/>
<path d="M78.0365 99.9993L82.9185 100.13L79.9849 104.667L78.0365 99.9993Z" fill="#FFF387"/>
<path d="M78.0365 99.9993L82.9185 100.13L79.9849 104.667L78.0365 99.9993Z" fill="#FFF387"/>
<path d="M78.0365 99.9993L82.9185 100.13L79.9849 104.667L78.0365 99.9993Z" fill="#FFF387"/>
<ellipse cx="82.9341" cy="103.506" rx="2.7727" ry="3.12818" transform="rotate(24.6485 82.9341 103.506)" fill="#FFF387"/>
<path d="M77.3908 39.2205L80.6214 43.3854L75.9025 44.277L77.3908 39.2205Z" fill="#FFF387"/>
<path d="M77.3908 39.2205L80.6214 43.3854L75.9025 44.277L77.3908 39.2205Z" fill="#FFF387"/>
<path d="M77.3908 39.2205L80.6214 43.3854L75.9025 44.277L77.3908 39.2205Z" fill="#FFF387"/>
<path d="M84.3909 43.2736L81.467 47.4193L79.605 42.3524L84.3909 43.2736Z" fill="#FFF387"/>
<path d="M84.3909 43.2736L81.467 47.4193L79.605 42.3524L84.3909 43.2736Z" fill="#FFF387"/>
<path d="M84.3909 43.2736L81.467 47.4193L79.605 42.3524L84.3909 43.2736Z" fill="#FFF387"/>
<path d="M83.2674 50.1187L78.4503 49.5737L81.0971 45.1952L83.2674 50.1187Z" fill="#FFF387"/>
<path d="M83.2674 50.1187L78.4503 49.5737L81.0971 45.1952L83.2674 50.1187Z" fill="#FFF387"/>
<path d="M83.2674 50.1187L78.4503 49.5737L81.0971 45.1952L83.2674 50.1187Z" fill="#FFF387"/>
<path d="M75.5198 51.5155L75.8838 46.1559L79.8684 49.3935L75.5198 51.5155Z" fill="#FFF387"/>
<path d="M75.5198 51.5155L75.8838 46.1559L79.8684 49.3935L75.5198 51.5155Z" fill="#FFF387"/>
<path d="M75.5198 51.5155L75.8838 46.1559L79.8684 49.3935L75.5198 51.5155Z" fill="#FFF387"/>
<path d="M72.5628 45.5219L76.6204 42.8039L76.8526 48.202L72.5628 45.5219Z" fill="#FFF387"/>
<path d="M72.5628 45.5219L76.6204 42.8039L76.8526 48.202L72.5628 45.5219Z" fill="#FFF387"/>
<path d="M72.5628 45.5219L76.6204 42.8039L76.8526 48.202L72.5628 45.5219Z" fill="#FFF387"/>
<ellipse cx="78.5865" cy="45.5489" rx="2.7727" ry="3.12818" transform="rotate(-10.6998 78.5865 45.5489)" fill="#FFF387"/>
</svg>
