<svg width="102" height="107" viewBox="0 0 102 107" fill="none" xmlns="http://www.w3.org/2000/svg">
<ellipse cx="22.7456" cy="44.0699" rx="5.64123" ry="41.6616" transform="rotate(23.4432 22.7456 44.0699)" fill="#277D4F"/>
<ellipse cx="32.2302" cy="48.4567" rx="5.64123" ry="45.1298" transform="rotate(14.1205 32.2302 48.4567)" fill="#277D4F"/>
<ellipse cx="42.7761" cy="52.2618" rx="5.64123" ry="45.1298" transform="rotate(6.27076 42.7761 52.2618)" fill="#277D4F"/>
<ellipse rx="5.64123" ry="43.5018" transform="matrix(-0.917455 0.397839 0.397839 0.917455 78.5642 42.3816)" fill="#277D4F"/>
<ellipse rx="5.64123" ry="45.1298" transform="matrix(-0.969785 0.243962 0.243962 0.969785 69.8116 48.4567)" fill="#277D4F"/>
<ellipse rx="5.64123" ry="45.1298" transform="matrix(-0.994017 0.109227 0.109227 0.994017 59.2658 52.2618)" fill="#277D4F"/>
<ellipse cx="52.3113" cy="56.4253" rx="5.64123" ry="50.1612" transform="rotate(0.128911 52.3113 56.4253)" fill="#277D4F"/>
<ellipse cx="64.1985" cy="23.7703" rx="3.78949" ry="19.5" transform="rotate(-16.587 64.1985 23.7703)" fill="#1C9453"/>
<ellipse cx="64.1985" cy="23.7703" rx="3.78949" ry="19.5" transform="rotate(-16.587 64.1985 23.7703)" fill="#1C9453"/>
<ellipse cx="57.1985" cy="24.7703" rx="3.78949" ry="19.5" transform="rotate(-3.40571 57.1985 24.7703)" fill="#1C9453"/>
<ellipse cx="57.1985" cy="24.7703" rx="3.78949" ry="19.5" transform="rotate(-3.40571 57.1985 24.7703)" fill="#1C9453"/>
<ellipse cx="50.9412" cy="23.6907" rx="3.78949" ry="19.5" transform="rotate(4.38092 50.9412 23.6907)" fill="#1C9453"/>
<ellipse cx="50.9412" cy="23.6907" rx="3.78949" ry="19.5" transform="rotate(4.38092 50.9412 23.6907)" fill="#1C9453"/>
<ellipse cx="43.268" cy="22.7325" rx="3.78949" ry="19.5" transform="rotate(13.4678 43.268 22.7325)" fill="#1C9453"/>
<ellipse cx="43.268" cy="22.7325" rx="3.78949" ry="19.5" transform="rotate(13.4678 43.268 22.7325)" fill="#1C9453"/>
<ellipse cx="35.9466" cy="21.2147" rx="3.92179" ry="19.0564" transform="rotate(12.4838 35.9466 21.2147)" fill="#1C9453"/>
<ellipse cx="35.9466" cy="21.2147" rx="3.92179" ry="19.0564" transform="rotate(12.4838 35.9466 21.2147)" fill="#1C9453"/>
<ellipse cx="31.4254" cy="21.5831" rx="3.78949" ry="19.5" transform="rotate(20.6586 31.4254 21.5831)" fill="#1C9453"/>
<ellipse cx="31.4254" cy="21.5831" rx="3.78949" ry="19.5" transform="rotate(20.6586 31.4254 21.5831)" fill="#1C9453"/>
<ellipse cx="70.5308" cy="20.3169" rx="3.78949" ry="19.5" transform="rotate(-24.4857 70.5308 20.3169)" fill="#1C9453"/>
<ellipse cx="70.5308" cy="20.3169" rx="3.78949" ry="19.5" transform="rotate(-24.4857 70.5308 20.3169)" fill="#1C9453"/>
<ellipse cx="36.0927" cy="12.4731" rx="3" ry="9" transform="rotate(21.5232 36.0927 12.4731)" fill="#1EB664"/>
<ellipse cx="36.0927" cy="12.4731" rx="3" ry="9" transform="rotate(21.5232 36.0927 12.4731)" fill="#1EB664"/>
<ellipse cx="41.3623" cy="13.3569" rx="3" ry="9" transform="rotate(8.941 41.3623 13.3569)" fill="#1EB664"/>
<ellipse cx="41.3623" cy="13.3569" rx="3" ry="9" transform="rotate(8.941 41.3623 13.3569)" fill="#1EB664"/>
<ellipse cx="46.3622" cy="14.3569" rx="3" ry="9" transform="rotate(-0.515549 46.3622 14.3569)" fill="#1EB664"/>
<ellipse cx="46.3622" cy="14.3569" rx="3" ry="9" transform="rotate(-0.515549 46.3622 14.3569)" fill="#1EB664"/>
<ellipse cx="51.2841" cy="13.0285" rx="3.20329" ry="9" transform="rotate(-0.515549 51.2841 13.0285)" fill="#1EB664"/>
<ellipse cx="51.2841" cy="13.0285" rx="3.20329" ry="9" transform="rotate(-0.515549 51.2841 13.0285)" fill="#1EB664"/>
<ellipse cx="56.2841" cy="14.0285" rx="3.20329" ry="9" transform="rotate(-0.515549 56.2841 14.0285)" fill="#1EB664"/>
<ellipse cx="56.2841" cy="14.0285" rx="3.20329" ry="9" transform="rotate(-0.515549 56.2841 14.0285)" fill="#1EB664"/>
<ellipse cx="60.5486" cy="13.3854" rx="3.20329" ry="9" transform="rotate(-8.84165 60.5486 13.3854)" fill="#1EB664"/>
<ellipse cx="60.5486" cy="13.3854" rx="3.20329" ry="9" transform="rotate(-8.84165 60.5486 13.3854)" fill="#1EB664"/>
<ellipse cx="65.9131" cy="11.4783" rx="3.20329" ry="9" transform="rotate(-26.765 65.9131 11.4783)" fill="#1EB664"/>
<ellipse cx="65.9131" cy="11.4783" rx="3.20329" ry="9" transform="rotate(-26.765 65.9131 11.4783)" fill="#1EB664"/>
</svg>
