<svg width="300" height="300" viewBox="0 0 300 300" fill="none" xmlns="http://www.w3.org/2000/svg">
<path d="M158.492 93.921L152.064 102.92L155.278 93.921L158.492 93.921Z" fill="#FF9E0C"/>
<path d="M156.539 91.0247C157.674 91.7464 158.027 92.8989 158.598 94.0217L154.689 93.9503L156.539 91.0247Z" fill="#FF9E0C"/>
<ellipse cx="143.065" cy="159.486" rx="44.3527" ry="40.4959" fill="#FFD84E"/>
<ellipse cx="156.979" cy="190.92" rx="50.1378" ry="28.9257" transform="rotate(10.0338 156.979 190.92)" fill="#FFD84E"/>
<rect x="180.99" y="219.108" width="5.14234" height="30.8541" transform="rotate(-12.6638 180.99 219.108)" fill="#FF9E0C"/>
<rect x="135.879" y="214.345" width="5.14234" height="26.4993" transform="rotate(14.9906 135.879 214.345)" fill="#FF9E0C"/>
<path d="M191.071 245.181L206.349 264.939L184.251 276.579L168.973 256.82L191.071 245.181Z" fill="#FF9E0C"/>
<path d="M131.934 237.467L147.212 257.226L125.114 268.865L109.836 249.107L131.934 237.467Z" fill="#FF9E0C"/>
<ellipse cx="155.921" cy="80.423" rx="30.2113" ry="29.5685" fill="#FFD84E"/>
<rect x="150.873" y="93.0949" width="23.1405" height="42.5822" transform="rotate(27.3117 150.873 93.0949)" fill="#FFD84E"/>
<path d="M144.873 86.7758C150.774 85.8675 153.35 86.8312 156.631 91.1954L147.817 114.643L136.059 110.224L144.873 86.7758Z" fill="#FF9E0C"/>
<ellipse cx="142.872" cy="110.23" rx="7.43216" ry="7.07072" transform="rotate(20.6589 142.872 110.23)" fill="#FF9E0C"/>
<circle cx="169.419" cy="75.2806" r="5.14234" fill="black"/>
<circle cx="169.419" cy="75.2806" r="5.14234" fill="black"/>
<circle cx="169.419" cy="75.2806" r="5.14234" fill="black"/>
<circle cx="137.28" cy="75.2806" r="5.14234" fill="black"/>
<circle cx="137.28" cy="75.2806" r="5.14234" fill="black"/>
<circle cx="137.28" cy="75.2806" r="5.14234" fill="black"/>
<ellipse cx="166.921" cy="72.7921" rx="0.642793" ry="1.28559" transform="rotate(44.3998 166.921 72.7921)" fill="#FFFDFD"/>
<ellipse cx="134.782" cy="72.7921" rx="0.642793" ry="1.28559" transform="rotate(44.3998 134.782 72.7921)" fill="#FFFDFD"/>
<path d="M148.207 108.063C151.156 102.843 151.836 98.8447 155.921 90.0646" stroke="#C77C0B"/>
<path d="M141 115.16C144.095 111.69 146.55 111.582 149.116 106.57" stroke="#C77C0B"/>
<path d="M190.631 247.549C189.19 258.227 188.738 264.595 184.18 276.001" stroke="#C77C0B"/>
<path d="M191.758 247.175L205.416 264.904" stroke="#C77C0B"/>
<path d="M169.42 257.191L188.061 247.549" stroke="#C77C0B"/>
<path d="M132.137 239.193C127.301 250.063 125.762 256.437 125.045 268.281" stroke="#C77C0B"/>
<path d="M110.282 249.478L130.209 239.193" stroke="#C77C0B"/>
<path d="M133.423 240.478L146.922 257.191" stroke="#C77C0B"/>
</svg>
