<svg width="350" height="350" viewBox="0 0 350 350" fill="none" xmlns="http://www.w3.org/2000/svg">
<g id="Frame 11" clip-path="url(#clip0)">
<rect width="350" height="350" fill="white"/>
<g id="rose_pile">
<g id="rose_attack">
<path id="Polygon 45" d="M80.5952 76.5044C78.8158 61.498 96.0354 51.8029 107.943 61.1065L173.378 112.231C182.937 119.699 181.823 134.489 171.252 140.44L115.595 171.777C105.025 177.729 91.8015 171.012 90.3731 158.966L80.5952 76.5044Z" fill="#EC0B33"/>
<path id="Polygon 46" d="M143.781 48.7473C148.169 34.2675 167.865 32.3041 175.026 45.6327L214.471 119.058C220.208 129.737 213.244 142.817 201.181 144.019L137.561 150.361C125.498 151.563 116.089 140.115 119.605 128.514L143.781 48.7473Z" fill="#EC0B33"/>
<path id="Polygon 47" d="M105.416 39.7225C103.765 21.026 129.172 13.8395 137.559 30.6309L191.294 138.219C196.057 147.755 190.97 159.272 180.712 162.173L137.556 174.379C127.299 177.281 116.933 170.135 115.995 159.517L105.416 39.7225Z" fill="#CA0B2D"/>
<ellipse id="Ellipse 207" cx="162.371" cy="163.485" rx="11.9229" ry="9.68735" fill="#447C0C"/>
<path id="Rectangle 7" d="M157.793 166.503L166.564 163.535C166.564 163.535 206.632 194.087 218.454 207.501C230.276 220.914 211.475 296.235 211.475 296.235L202.704 299.204C221.23 231.727 211.503 202.623 157.793 166.503Z" fill="#447C0C"/>
<ellipse id="Ellipse 208" cx="209.512" cy="308.845" rx="24.591" ry="18.6295" fill="#264704"/>
<g id="thorn">
<rect id="Rectangle 8" x="106.254" y="296.78" width="105.816" height="8.46923" transform="rotate(2.71854 106.254 296.78)" fill="#264704"/>
<rect id="Rectangle 9" x="75.8087" y="281.683" width="43.4319" height="8.46923" transform="rotate(26.1805 75.8087 281.683)" fill="#264704"/>
<path id="Polygon 48" d="M69.6484 273.195L82.5153 285.12L73.5786 290.292L69.6484 273.195Z" fill="#264704"/>
<path id="Polygon 49" d="M91.5016 278.423L99.4592 294.058L89.2861 295.826L91.5016 278.423Z" fill="#264704"/>
<path id="Polygon 50" d="M123.836 282.256L126.567 299.586L116.346 298.12L123.836 282.256Z" fill="#264704"/>
<path id="Polygon 51" d="M151.396 285.247L154.127 302.577L143.906 301.111L151.396 285.247Z" fill="#264704"/>
<path id="Polygon 52" d="M180.994 288.781L183.724 306.111L173.503 304.645L180.994 288.781Z" fill="#264704"/>
<path id="Polygon 53" d="M75.9451 308.9L81.4732 292.25L89.8812 298.244L75.9451 308.9Z" fill="#264704"/>
<path id="Polygon 54" d="M110.549 321.893L106.29 304.875L116.601 305.427L110.549 321.893Z" fill="#264704"/>
<path id="Polygon 55" d="M141.726 322.31L137.467 305.292L147.778 305.843L141.726 322.31Z" fill="#264704"/>
<path id="Polygon 56" d="M171.663 320.482L167.404 303.463L177.715 304.015L171.663 320.482Z" fill="#264704"/>
</g>
<g id="thorn_2">
<rect id="Rectangle 8_2" width="122.42" height="9.55632" transform="matrix(-0.637086 0.770793 0.804666 0.593728 287.47 202.623)" fill="#264704"/>
<rect id="Rectangle 9_2" width="49.0544" height="9.78913" transform="matrix(-0.278566 0.960417 0.974469 0.224521 298.032 165.731)" fill="#264704"/>
<path id="Polygon 48_2" d="M295.431 154.4L295.802 173.937L307.277 169.94L295.431 154.4Z" fill="#264704"/>
<path id="Polygon 49_2" d="M282.96 176.891L290.392 194.85L299.861 187.37L282.96 176.891Z" fill="#264704"/>
<path id="Polygon 50_2" d="M261.104 207.392L274.087 222.067L280.774 212.245L261.104 207.392Z" fill="#264704"/>
<path id="Polygon 51_2" d="M242.235 233.194L255.218 247.869L261.905 238.047L242.235 233.194Z" fill="#264704"/>
<path id="Polygon 52_2" d="M222.252 261.131L235.235 275.806L241.922 265.984L222.252 261.131Z" fill="#264704"/>
<path id="Polygon 53_2" d="M321.658 185.212L302.832 178.114L301.506 189.601L321.658 185.212Z" fill="#264704"/>
<path id="Polygon 54_2" d="M306.021 224.18L294.501 208.413L286.947 217.662L306.021 224.18Z" fill="#264704"/>
<path id="Polygon 55_2" d="M282.089 251.256L270.568 235.49L263.015 244.739L282.089 251.256Z" fill="#264704"/>
<path id="Polygon 56_2" d="M257.165 275.67L245.644 259.904L238.09 269.153L257.165 275.67Z" fill="#264704"/>
</g>
</g>
<g id="rose_distract">
<path id="Polygon 48_3" d="M105.315 81.517C103.998 72.726 113.947 66.7149 121.116 71.9703L214.337 140.304C220.092 144.523 219.703 153.239 213.596 156.929L137.5 202.903C131.392 206.593 123.496 202.882 122.439 195.825L105.315 81.517Z" fill="#EC0B33"/>
<path id="Polygon 49_3" d="M250.946 98.4047C260.552 96.5163 267.654 107.175 262.211 115.313L199.926 208.45C195.566 214.97 185.978 214.962 181.628 208.435L133.973 136.909C129.624 130.382 133.309 121.53 141.006 120.017L250.946 98.4047Z" fill="#EC0B33"/>
<path id="Polygon 50_3" d="M182.205 60.1245C189.075 45.0553 211.704 50.5969 210.833 67.1351L203.405 208.242C202.91 217.635 193.993 224.26 184.858 222.023L133.674 209.489C124.538 207.252 119.691 197.256 123.593 188.697L182.205 60.1245Z" fill="#CA0B2D"/>
<ellipse id="Ellipse 209" cx="172.385" cy="211.981" rx="12.3416" ry="10.0275" fill="#447C0C"/>
<rect id="Rectangle 8_3" x="167.757" y="214.295" width="9.25617" height="75.592" fill="#447C0C"/>
<ellipse id="Ellipse 210" cx="173.157" cy="289.116" rx="25.4545" ry="19.2837" fill="#447C0C"/>
<ellipse id="Ellipse 211" cx="195.5" cy="68" rx="16.5" ry="15" fill="#EC0B33"/>
<path id="Polygon 57" d="M192.031 105.012L175.002 72.5849L213.162 75.0951L192.031 105.012Z" fill="#EC0B33"/>
<path id="Ellipse 212" d="M254.349 250.6C254.349 258.268 220.41 256.77 212.696 254.456C204.983 252.142 171.044 258.268 171.044 250.6C171.044 242.932 212.696 236.715 212.696 236.715C212.696 236.715 254.349 242.932 254.349 250.6Z" fill="#2E6900"/>
<path id="Ellipse 213" d="M93.909 235.173C93.909 242.841 127.848 241.344 135.562 239.03C143.275 236.715 177.214 242.841 177.214 235.173C177.214 227.505 135.562 221.289 135.562 221.289C135.562 221.289 93.909 227.505 93.909 235.173Z" fill="#2E6900"/>
</g>
<g id="rose">
<path id="Polygon 42" d="M120.646 90.949C123.204 76.0555 142.468 71.6526 151.242 83.9562L210.046 166.42C217.089 176.296 211.818 190.16 199.993 192.862L124.045 210.22C112.22 212.923 101.45 202.726 103.503 190.77L120.646 90.949Z" fill="#EC0B33"/>
<path id="Polygon 44" d="M199.385 81.9671C207.706 69.331 227.149 73.0449 230.227 87.8586L250.906 187.377C253.372 199.245 242.979 209.808 231.072 207.533L154.488 192.904C142.581 190.629 136.812 176.98 143.48 166.856L199.385 81.9671Z" fill="#EC0B33"/>
<path id="Polygon 43" d="M160.409 53.4775C164.138 35.0825 190.54 35.4112 193.81 53.8935L219.664 200.026C221.522 210.522 213.372 220.119 202.713 219.986L147.373 219.297C136.714 219.164 128.806 209.367 130.924 198.92L160.409 53.4775Z" fill="#CA0B2D"/>
<ellipse id="Ellipse 205" cx="176.869" cy="222.498" rx="13.3794" ry="10.8708" fill="#447C0C"/>
<rect id="Rectangle 6" x="171.852" y="225.007" width="10.0346" height="81.9489" fill="#447C0C"/>
<ellipse id="Ellipse 206" cx="177.705" cy="306.119" rx="27.595" ry="20.9053" fill="#447C0C"/>
</g>
</g>
</g>
<defs>
<clipPath id="clip0">
<rect width="350" height="350" fill="white"/>
</clipPath>
</defs>
</svg>
