<svg width="300" height="300" viewBox="0 0 300 300" fill="none" xmlns="http://www.w3.org/2000/svg">
<path d="M213.89 172.382C196.926 139.811 204.686 191.176 199.045 189.86C193.404 188.545 190.904 178.587 193.461 167.619C196.019 156.651 202.665 148.826 208.306 150.141C213.947 151.456 230.854 204.954 213.89 172.382Z" fill="#E2B94E"/>
<path d="M213.89 172.382C196.926 139.811 204.686 191.176 199.045 189.86C193.404 188.545 190.904 178.587 193.461 167.619C196.019 156.651 202.665 148.826 208.306 150.141C213.947 151.456 230.854 204.954 213.89 172.382Z" fill="#E2B94E"/>
<path d="M220.017 180.453C213.154 146.258 207.133 196.331 202.461 193.944C197.788 191.558 198.072 181.649 203.096 171.812C208.119 161.975 215.98 155.934 220.652 158.32C225.325 160.707 226.88 214.648 220.017 180.453Z" fill="#E2B94E"/>
<path d="M220.017 180.453C213.154 146.258 207.133 196.331 202.461 193.944C197.788 191.558 198.072 181.649 203.096 171.812C208.119 161.975 215.98 155.934 220.652 158.32C225.325 160.707 226.88 214.648 220.017 180.453Z" fill="#FBCB50"/>
<path d="M221.73 186.805C223.636 154.22 206.297 198.12 202.633 194.85C198.97 191.58 201.58 182.678 208.463 174.965C215.346 167.252 223.896 163.65 227.56 166.92C231.223 170.19 219.824 219.39 221.73 186.805Z" fill="#E2B94E"/>
<path d="M221.73 186.805C223.636 154.22 206.297 198.12 202.633 194.85C198.97 191.58 201.58 182.678 208.463 174.965C215.346 167.252 223.896 163.65 227.56 166.92C231.223 170.19 219.824 219.39 221.73 186.805Z" fill="#E2B94E"/>
</svg>
