<svg width="298" height="300" viewBox="0 0 298 300" fill="none" xmlns="http://www.w3.org/2000/svg">
<ellipse cx="213.496" cy="194.191" rx="12.5" ry="27" transform="rotate(81.8729 213.496 194.191)" fill="#5CE8B5"/>
<ellipse cx="208.752" cy="184.499" rx="12.5" ry="27" transform="rotate(56.9814 208.752 184.499)" fill="#6382D3"/>
<ellipse cx="203.834" cy="175.307" rx="12.5" ry="29.4992" transform="rotate(33.9174 203.834 175.307)" fill="#68DCE3"/>
<ellipse cx="191.439" cy="163.381" rx="12.5" ry="27" transform="rotate(33.9174 191.439 163.381)" fill="#33D0AB"/>
<ellipse cx="180.374" cy="159.564" rx="12.5" ry="27" transform="rotate(18.3752 180.374 159.564)" fill="#2797BA"/>
<ellipse cx="171.812" cy="158.701" rx="12.5" ry="27" transform="rotate(9.56333 171.812 158.701)" fill="#325CAE"/>
<ellipse cx="231" cy="192.5" rx="5" ry="5.5" fill="#632DD7"/>
<ellipse cx="231" cy="192.5" rx="5" ry="5.5" fill="#632DD7"/>
<ellipse cx="230.5" cy="192" rx="2.5" ry="3" fill="#632DD7"/>
<ellipse cx="230.5" cy="192" rx="2.5" ry="3" fill="white"/>
<ellipse cx="226" cy="174.5" rx="5" ry="5.5" fill="#632DD7"/>
<ellipse cx="226" cy="174.5" rx="5" ry="5.5" fill="#632DD7"/>
<ellipse cx="225.5" cy="174" rx="2.5" ry="3" fill="#632DD7"/>
<ellipse cx="225.5" cy="174" rx="2.5" ry="3" fill="white"/>
<ellipse cx="216" cy="157.5" rx="5" ry="5.5" fill="#632DD7"/>
<ellipse cx="216" cy="157.5" rx="5" ry="5.5" fill="#632DD7"/>
<ellipse cx="215.5" cy="157" rx="2.5" ry="3" fill="#632DD7"/>
<ellipse cx="215.5" cy="157" rx="2.5" ry="3" fill="white"/>
<ellipse cx="201" cy="148.5" rx="5" ry="5.5" fill="#632DD7"/>
<ellipse cx="201" cy="148.5" rx="5" ry="5.5" fill="#632DD7"/>
<ellipse cx="200.5" cy="148" rx="2.5" ry="3" fill="#632DD7"/>
<ellipse cx="200.5" cy="148" rx="2.5" ry="3" fill="white"/>
<ellipse cx="189" cy="142.5" rx="5" ry="5.5" fill="#632DD7"/>
<ellipse cx="189" cy="142.5" rx="5" ry="5.5" fill="#632DD7"/>
<ellipse cx="188.5" cy="142" rx="2.5" ry="3" fill="#632DD7"/>
<ellipse cx="188.5" cy="142" rx="2.5" ry="3" fill="white"/>
<ellipse cx="177" cy="139.5" rx="5" ry="5.5" fill="#632DD7"/>
<ellipse cx="177" cy="139.5" rx="5" ry="5.5" fill="#632DD7"/>
<ellipse cx="176.5" cy="139" rx="2.5" ry="3" fill="#632DD7"/>
<ellipse cx="176.5" cy="139" rx="2.5" ry="3" fill="white"/>
</svg>
