<svg width="300" height="300" viewBox="0 0 300 300" fill="none" xmlns="http://www.w3.org/2000/svg">
<ellipse cx="168.696" cy="150.978" rx="116.452" ry="69.1435" fill="white"/>
<ellipse cx="182.635" cy="130.935" rx="98.6099" ry="48" transform="rotate(5.31951 182.635 130.935)" fill="white"/>
<path d="M107.318 93.2649C168.797 81.2699 201.686 84.8068 257.436 110.017L256.117 121.83C200.245 97.6243 167.387 94.0015 106 105.078L107.318 93.2649Z" fill="#414141"/>
<ellipse cx="74.0783" cy="140.061" rx="63.0783" ry="58.2261" fill="white"/>
<path d="M55.4975 66.1942C54.6127 65.03 52.8185 65.1778 52.1362 66.4711L39.7665 89.9177C39.0297 91.3143 40.1259 92.9738 41.6996 92.8442L70.1093 90.5038C71.683 90.3742 72.4929 88.5576 71.5375 87.3004L55.4975 66.1942Z" fill="#414141"/>
<path d="M78.3591 73.4067C78.097 72.0058 76.4955 71.3208 75.3014 72.0988L46.1945 91.0632C44.8552 91.9358 45.0301 93.9491 46.4997 94.5777L81.996 109.761C83.4657 110.389 85.0424 109.125 84.7484 107.554L78.3591 73.4067Z" fill="#414141"/>
<path d="M72.7028 80.1367C72.4709 78.6838 70.8025 77.9701 69.5917 78.8059L51.3842 91.3736C50.0886 92.2679 50.2863 94.2393 51.7338 94.8584L73.4284 104.138C74.8759 104.757 76.4381 103.538 76.1899 101.984L72.7028 80.1367Z" fill="#FFF8F8"/>
<ellipse cx="42.5391" cy="129.143" rx="9.70435" ry="10.9174" fill="black"/>
<ellipse cx="37.687" cy="124.291" rx="2.42609" ry="1.21304" fill="white"/>
<ellipse cx="93.6726" cy="218.422" rx="10.7243" ry="25.2491" transform="rotate(25.1368 93.6726 218.422)" fill="white"/>
<ellipse cx="258.796" cy="208.477" rx="10.7243" ry="25.2491" transform="rotate(-30.9064 258.796 208.477)" fill="white"/>
<ellipse cx="220.669" cy="223.274" rx="10.7243" ry="25.2491" transform="rotate(-14.6904 220.669 223.274)" fill="white"/>
<ellipse cx="123.625" cy="225.7" rx="10.7243" ry="25.2491" transform="rotate(15.0923 123.625 225.7)" fill="white"/>
<ellipse cx="285.148" cy="138.848" rx="4.85217" ry="6.06522" fill="#414141"/>
<ellipse cx="17" cy="150.5" rx="6" ry="6.5" fill="#FFAFAF"/>
<ellipse cx="256.5" cy="116" rx="5.5" ry="6" fill="#414141"/>
<ellipse cx="121.515" cy="226.096" rx="7.5" ry="23.596" transform="rotate(12.7307 121.515 226.096)" fill="#414141"/>
</svg>
