<svg width="300" height="300" viewBox="0 0 300 300" fill="none" xmlns="http://www.w3.org/2000/svg">
<ellipse cx="168.696" cy="150.978" rx="116.452" ry="69.1435" fill="#FFD4AC"/>
<ellipse cx="74.0783" cy="140.061" rx="63.0783" ry="58.2261" fill="#FFDDBD"/>
<path d="M78.3591 73.4067C78.097 72.0058 76.4955 71.3208 75.3014 72.0988L46.1945 91.0632C44.8552 91.9358 45.0301 93.9491 46.4997 94.5777L81.996 109.761C83.4657 110.389 85.0424 109.125 84.7484 107.554L78.3591 73.4067Z" fill="#FFD4AC"/>
<ellipse cx="42.5391" cy="129.143" rx="9.70435" ry="10.9174" fill="black"/>
<ellipse cx="37.687" cy="124.291" rx="2.42609" ry="1.21304" fill="white"/>
<ellipse cx="93.6726" cy="218.422" rx="10.7243" ry="25.2491" transform="rotate(25.1368 93.6726 218.422)" fill="#FFD4AC"/>
<ellipse cx="258.796" cy="208.477" rx="10.7243" ry="25.2491" transform="rotate(-30.9064 258.796 208.477)" fill="#FFD4AC"/>
<ellipse cx="220.669" cy="223.274" rx="10.7243" ry="25.2491" transform="rotate(-14.6904 220.669 223.274)" fill="#FFD4AC"/>
<ellipse cx="123.625" cy="225.7" rx="10.7243" ry="25.2491" transform="rotate(15.0923 123.625 225.7)" fill="#FFD4AC"/>
<ellipse cx="285.148" cy="138.848" rx="4.85217" ry="6.06522" fill="#FFD4AC"/>
<ellipse cx="17.0652" cy="150.978" rx="6.06522" ry="10.9174" fill="#FFB7B7"/>
</svg>
