<svg width="209" height="321" viewBox="0 0 209 321" fill="none" xmlns="http://www.w3.org/2000/svg">
<g id="hamster_2">
<ellipse id="Ellipse 2" cx="110.067" cy="198.619" rx="93.2774" ry="108.338" fill="#FFD4AC"/>
<ellipse id="Ellipse 1" cx="109.134" cy="109.341" rx="73.6891" ry="75.2344" fill="#FFDDBD"/>
<g id="Ellipse 3">
<ellipse cx="137.118" cy="204.637" rx="12.1261" ry="14.0437" fill="#FF8080"/>
<ellipse cx="137.118" cy="204.637" rx="12.1261" ry="14.0437" fill="#FF8080"/>
<ellipse cx="137.118" cy="204.637" rx="12.1261" ry="14.0437" fill="#FFACAC"/>
</g>
<g id="Ellipse 6">
<ellipse cx="148.311" cy="306.956" rx="17.7227" ry="14.0437" fill="#FF8080"/>
<ellipse cx="148.311" cy="306.956" rx="17.7227" ry="14.0437" fill="#FF8080"/>
<ellipse cx="148.311" cy="306.956" rx="17.7227" ry="14.0437" fill="#FFACAC"/>
</g>
<g id="Ellipse 7">
<ellipse cx="81.1514" cy="306.956" rx="17.7227" ry="14.0437" fill="#FF8080"/>
<ellipse cx="81.1514" cy="306.956" rx="17.7227" ry="14.0437" fill="#FF8080"/>
<ellipse cx="81.1514" cy="306.956" rx="17.7227" ry="14.0437" fill="#FFACAC"/>
</g>
<g id="Ellipse 4">
<ellipse cx="97.9415" cy="204.637" rx="12.1261" ry="14.0437" fill="#FF8080"/>
<ellipse cx="97.9415" cy="204.637" rx="12.1261" ry="14.0437" fill="#FF8080"/>
<ellipse cx="97.9415" cy="204.637" rx="12.1261" ry="14.0437" fill="#FFACAC"/>
</g>
<path id="Polygon 1" d="M174.249 33.2729C179.694 32.8492 183.728 38.4327 181.999 44.0026L171.382 78.2198C169.418 84.5493 161.677 86.0703 157.918 80.8656L135.081 49.2512C131.321 44.0465 134.605 36.3572 140.794 35.8757L174.249 33.2729Z" fill="#FFD4AC"/>
<path id="Polygon 2" d="M34.7513 43.3041C29.3055 42.8804 25.2722 48.464 27.0005 54.0338L37.6183 88.251C39.5824 94.5805 47.3225 96.1015 51.0822 90.8968L73.9194 59.2825C77.6791 54.0778 74.3947 46.3885 68.2063 45.907L34.7513 43.3041Z" fill="#FFD4AC"/>
<ellipse id="Ellipse 8" cx="93.277" cy="112.35" rx="9.32774" ry="10.0312" fill="black"/>
<ellipse id="Ellipse 9" cx="134.32" cy="112.35" rx="9.32774" ry="10.0312" fill="black"/>
<ellipse id="Ellipse 10" cx="97.0081" cy="106.331" rx="1.86555" ry="2.00625" fill="white"/>
<ellipse id="Ellipse 11" cx="136.185" cy="106.331" rx="1.86555" ry="2.00625" fill="white"/>
<path id="Polygon 3" d="M114.731 162.506L128.464 144.45H100.998L114.731 162.506Z" fill="#FFACAC"/>
</g>
</svg>
