<svg width="342" height="345" viewBox="0 0 342 345" fill="none" xmlns="http://www.w3.org/2000/svg">
<g id="hamster_wrapper">
<g id="hamster_wrapper_2">
<g id="hamster_1">
<ellipse id="Ellipse 2" cx="173.653" cy="209.13" rx="103.096" ry="111.344" fill="#FFD4AC"/>
<ellipse id="Ellipse 1" cx="172.622" cy="117.375" rx="81.4459" ry="77.3221" fill="#FFDDBD"/>
<g id="Ellipse 3">
<ellipse cx="203.551" cy="215.316" rx="13.4025" ry="14.4334" fill="#FF8080"/>
<ellipse cx="203.551" cy="215.316" rx="13.4025" ry="14.4334" fill="#FF8080"/>
<ellipse cx="203.551" cy="215.316" rx="13.4025" ry="14.4334" fill="#FFACAC"/>
</g>
<g id="Ellipse 6">
<ellipse cx="215.923" cy="320.474" rx="19.5883" ry="14.4334" fill="#FF8080"/>
<ellipse cx="215.923" cy="320.474" rx="19.5883" ry="14.4334" fill="#FF8080"/>
<ellipse cx="215.923" cy="320.474" rx="19.5883" ry="14.4334" fill="#FFACAC"/>
</g>
<g id="Ellipse 7">
<ellipse cx="141.694" cy="320.474" rx="19.5883" ry="14.4334" fill="#FF8080"/>
<ellipse cx="141.694" cy="320.474" rx="19.5883" ry="14.4334" fill="#FF8080"/>
<ellipse cx="141.694" cy="320.474" rx="19.5883" ry="14.4334" fill="#FFACAC"/>
</g>
<g id="Ellipse 4">
<ellipse cx="160.251" cy="215.316" rx="13.4025" ry="14.4334" fill="#FF8080"/>
<ellipse cx="160.251" cy="215.316" rx="13.4025" ry="14.4334" fill="#FF8080"/>
<ellipse cx="160.251" cy="215.316" rx="13.4025" ry="14.4334" fill="#FFACAC"/>
</g>
<path id="Polygon 1" d="M245.178 39.1537C250.87 38.7419 255.15 44.2517 253.343 49.6652L241.048 86.5086C239.026 92.5704 231.063 93.9307 227.142 88.8841L200.698 54.8433C196.777 49.7968 200.064 42.4174 206.438 41.9563L245.178 39.1537Z" fill="#FFD4AC"/>
<path id="Polygon 2" d="M89.8224 49.4633C84.1303 49.0515 79.85 54.5613 81.6565 59.9748L93.9515 96.8182C95.9744 102.88 103.937 104.24 107.858 99.1937L134.302 65.1529C138.223 60.1064 134.936 52.727 128.562 52.2659L89.8224 49.4633Z" fill="#FFD4AC"/>
<circle id="Ellipse 8" cx="155.096" cy="120.468" r="10.3096" fill="black"/>
<circle id="Ellipse 9" cx="200.458" cy="120.468" r="10.3096" fill="black"/>
<circle id="Ellipse 10" cx="159.22" cy="114.282" r="2.06192" fill="white"/>
<circle id="Ellipse 11" cx="202.52" cy="114.282" r="2.06192" fill="white"/>
<path id="Polygon 3" d="M178.808 172.016L193.986 153.458H163.63L178.808 172.016Z" fill="#FFACAC"/>
</g>
<g id="hamster_2">
<ellipse id="Ellipse 2_2" cx="178.067" cy="213.619" rx="93.2774" ry="108.338" fill="#FFD4AC"/>
<ellipse id="Ellipse 1_2" cx="177.135" cy="124.341" rx="73.6891" ry="75.2344" fill="#FFDDBD"/>
<g id="Ellipse 3_2">
<ellipse cx="205.118" cy="219.637" rx="12.1261" ry="14.0437" fill="#FF8080"/>
<ellipse cx="205.118" cy="219.637" rx="12.1261" ry="14.0437" fill="#FF8080"/>
<ellipse cx="205.118" cy="219.637" rx="12.1261" ry="14.0437" fill="#FFACAC"/>
</g>
<g id="Ellipse 6_2">
<ellipse cx="216.311" cy="321.956" rx="17.7227" ry="14.0437" fill="#FF8080"/>
<ellipse cx="216.311" cy="321.956" rx="17.7227" ry="14.0437" fill="#FF8080"/>
<ellipse cx="216.311" cy="321.956" rx="17.7227" ry="14.0437" fill="#FFACAC"/>
</g>
<g id="Ellipse 7_2">
<ellipse cx="149.151" cy="321.956" rx="17.7227" ry="14.0437" fill="#FF8080"/>
<ellipse cx="149.151" cy="321.956" rx="17.7227" ry="14.0437" fill="#FF8080"/>
<ellipse cx="149.151" cy="321.956" rx="17.7227" ry="14.0437" fill="#FFACAC"/>
</g>
<g id="Ellipse 4_2">
<ellipse cx="165.941" cy="219.637" rx="12.1261" ry="14.0437" fill="#FF8080"/>
<ellipse cx="165.941" cy="219.637" rx="12.1261" ry="14.0437" fill="#FF8080"/>
<ellipse cx="165.941" cy="219.637" rx="12.1261" ry="14.0437" fill="#FFACAC"/>
</g>
<path id="Polygon 1_2" d="M242.249 48.2729C247.694 47.8492 251.728 53.4327 249.999 59.0026L239.382 93.2198C237.417 99.5493 229.677 101.07 225.918 95.8656L203.08 64.2512C199.321 59.0465 202.605 51.3572 208.794 50.8757L242.249 48.2729Z" fill="#FFD4AC"/>
<path id="Polygon 2_2" d="M102.751 58.3041C97.3057 57.8804 93.2723 63.464 95.0007 69.0338L105.618 103.251C107.583 109.581 115.323 111.102 119.082 105.897L141.92 74.2825C145.679 69.0778 142.395 61.3885 136.206 60.907L102.751 58.3041Z" fill="#FFD4AC"/>
<ellipse id="Ellipse 8_2" cx="161.277" cy="127.35" rx="9.32774" ry="10.0312" fill="black"/>
<ellipse id="Ellipse 9_2" cx="202.319" cy="127.35" rx="9.32774" ry="10.0312" fill="black"/>
<ellipse id="Ellipse 10_2" cx="165.008" cy="121.331" rx="1.86555" ry="2.00625" fill="white"/>
<ellipse id="Ellipse 11_2" cx="204.185" cy="121.331" rx="1.86555" ry="2.00625" fill="white"/>
<path id="Polygon 3_2" d="M182.731 177.506L196.464 159.45H168.998L182.731 177.506Z" fill="#FFACAC"/>
</g>
<g id="hamster_run_2">
<ellipse id="Ellipse 22" cx="184.256" cy="172.217" rx="128.545" ry="78.2445" fill="#FFD4AC"/>
<ellipse id="Ellipse 23" cx="71.0806" cy="172.217" rx="60.0806" ry="55.889" fill="#FFDDBD"/>
<path id="Polygon 6" d="M105.367 120.067C106.864 120.166 107.722 121.816 106.946 123.099L90.3195 150.556C89.5115 151.891 87.555 151.828 86.8347 150.444L71.4322 120.859C70.7119 119.475 71.7823 117.836 73.3388 117.94L105.367 120.067Z" fill="#FFD4AC"/>
<path id="Polygon 7" d="M112.669 207.441C113.766 208.464 113.388 210.285 111.976 210.788L81.7362 221.555C80.2667 222.078 78.7905 220.792 79.1069 219.265L85.8731 186.604C86.1895 185.076 88.055 184.483 89.1957 185.547L112.669 207.441Z" fill="#FFD4AC"/>
<g id="Ellipse 24">
<circle cx="47.3278" cy="191.778" r="8.38334" fill="black"/>
<circle cx="47.3278" cy="191.778" r="8.38334" fill="black"/>
<circle cx="47.3278" cy="191.778" r="8.38334" fill="black"/>
</g>
<g id="Ellipse 25">
<circle cx="47.3278" cy="149.861" r="8.38334" fill="black"/>
<circle cx="47.3278" cy="149.861" r="8.38334" fill="black"/>
<circle cx="47.3278" cy="149.861" r="8.38334" fill="black"/>
</g>
<g id="Ellipse 26">
<ellipse cx="47.3278" cy="145.669" rx="2.79445" ry="1.39722" fill="white"/>
<ellipse cx="47.3278" cy="145.669" rx="2.79445" ry="1.39722" fill="white"/>
</g>
<g id="Ellipse 27">
<ellipse cx="47.3278" cy="187.586" rx="2.79445" ry="1.39722" fill="white"/>
<ellipse cx="47.3278" cy="187.586" rx="2.79445" ry="1.39722" fill="white"/>
</g>
<ellipse id="Ellipse 28" cx="88.367" cy="244.855" rx="37.725" ry="9.78057" transform="rotate(-25.6225 88.367 244.855)" fill="#FFD4AC"/>
<ellipse id="Ellipse 29" cx="37.725" cy="9.78057" rx="37.725" ry="9.78057" transform="matrix(-0.901663 -0.43244 -0.43244 0.901663 132.201 112.628)" fill="#FFD4AC"/>
<ellipse id="Ellipse 30" cx="297.951" cy="119.105" rx="37.725" ry="9.78057" transform="rotate(154.378 297.951 119.105)" fill="#FFD4AC"/>
<ellipse id="Ellipse 31" cx="37.725" cy="9.78057" rx="37.725" ry="9.78057" transform="matrix(0.901663 0.43244 0.43244 -0.901663 262.5 217.799)" fill="#FFD4AC"/>
<circle id="Ellipse 32" cx="315.595" cy="177.806" r="5.5889" fill="#FFD4AC"/>
<path id="Polygon 8" d="M20.7827 169.612L33.163 160.859L33.546 177.796L20.7827 169.612Z" fill="#FFB1B1"/>
</g>
<g id="hamster_run">
<ellipse id="Ellipse 12" cx="196.783" cy="168.605" rx="136.455" ry="81.0202" fill="#FFD4AC"/>
<ellipse id="Ellipse 13" cx="85.9131" cy="155.813" rx="73.9131" ry="68.2275" fill="#FFDDBD"/>
<path id="Polygon 5" d="M90.8348 77.2043C90.5726 75.8034 88.9712 75.1184 87.7771 75.8964L52.7012 98.7498C51.362 99.6223 51.5369 101.636 53.0065 102.264L95.7819 120.561C97.2516 121.189 98.8283 119.925 98.5343 118.354L90.8348 77.2043Z" fill="#FFD4AC"/>
<ellipse id="Ellipse 14" cx="48.9566" cy="143.02" rx="11.3713" ry="12.7927" fill="black"/>
<ellipse id="Ellipse 15" cx="43.2709" cy="137.335" rx="2.84281" ry="1.42141" fill="white"/>
<ellipse id="Ellipse 16" cx="108.873" cy="247.634" rx="12.5663" ry="29.5861" transform="rotate(25.1368 108.873 247.634)" fill="#FFD4AC"/>
<ellipse id="Ellipse 17" cx="302.36" cy="235.98" rx="12.5663" ry="29.5861" transform="rotate(-30.9064 302.36 235.98)" fill="#FFD4AC"/>
<ellipse id="Ellipse 18" cx="257.683" cy="253.32" rx="12.5663" ry="29.5861" transform="rotate(-14.6904 257.683 253.32)" fill="#FFD4AC"/>
<ellipse id="Ellipse 19" cx="143.971" cy="256.162" rx="12.5663" ry="29.5861" transform="rotate(15.0923 143.971 256.162)" fill="#FFD4AC"/>
<ellipse id="Ellipse 20" cx="333.238" cy="154.391" rx="5.68563" ry="7.10703" fill="#FFD4AC"/>
<ellipse id="Ellipse 21" cx="19.107" cy="168.605" rx="7.10703" ry="12.7927" fill="#FFB7B7"/>
</g>
<g id="hamster_chew">
<ellipse id="Ellipse 22_2" cx="209.71" cy="168.017" rx="116.053" ry="114.017" fill="#FFD4AC"/>
<ellipse id="Ellipse 23_2" cx="107.909" cy="161.909" rx="79.4047" ry="75.3327" fill="#FFDDBD"/>
<path id="Polygon 6_2" d="M106.435 116.557C107.931 116.656 108.79 118.306 108.014 119.588L82.1648 162.277C81.3569 163.611 79.4004 163.548 78.68 162.165L54.7339 116.169C54.0136 114.785 55.084 113.146 56.6404 113.249L106.435 116.557Z" fill="#FFD4AC"/>
<path id="Polygon 7_2" d="M112.603 208.155C113.699 209.178 113.322 210.999 111.909 211.502L64.8957 228.241C63.4262 228.764 61.9501 227.478 62.2665 225.951L72.7858 175.173C73.1022 173.645 74.9677 173.052 76.1084 174.116L112.603 208.155Z" fill="#FFD4AC"/>
<g id="Ellipse 24_2">
<path d="M48.5388 143.339C46.6967 149.829 39.9418 153.598 33.4514 151.755C26.961 149.913 30.8113 146.33 32.6534 139.839C34.4955 133.349 33.6319 126.409 40.1223 128.252C46.6127 130.094 50.3809 136.849 48.5388 143.339Z" fill="black"/>
<path d="M48.5388 143.339C46.6967 149.829 39.9418 153.598 33.4514 151.755C26.961 149.913 30.8113 146.33 32.6534 139.839C34.4955 133.349 33.6319 126.409 40.1223 128.252C46.6127 130.094 50.3809 136.849 48.5388 143.339Z" fill="black"/>
<path d="M48.5388 143.339C46.6967 149.829 39.9418 153.598 33.4514 151.755C26.961 149.913 30.8113 146.33 32.6534 139.839C34.4955 133.349 33.6319 126.409 40.1223 128.252C46.6127 130.094 50.3809 136.849 48.5388 143.339Z" fill="black"/>
</g>
<g id="Group 1">
<g id="Ellipse 33">
<path d="M47.9838 183.841C46.1417 177.35 39.3868 173.582 32.8964 175.424C26.406 177.266 30.2563 180.85 32.0984 187.341C33.9405 193.831 33.0769 200.77 39.5673 198.928C46.0577 197.086 49.8259 190.331 47.9838 183.841Z" fill="black"/>
<path d="M47.9838 183.841C46.1417 177.35 39.3868 173.582 32.8964 175.424C26.406 177.266 30.2563 180.85 32.0984 187.341C33.9405 193.831 33.0769 200.77 39.5673 198.928C46.0577 197.086 49.8259 190.331 47.9838 183.841Z" fill="black"/>
<path d="M47.9838 183.841C46.1417 177.35 39.3868 173.582 32.8964 175.424C26.406 177.266 30.2563 180.85 32.0984 187.341C33.9405 193.831 33.0769 200.77 39.5673 198.928C46.0577 197.086 49.8259 190.331 47.9838 183.841Z" fill="black"/>
</g>
</g>
<g id="Ellipse 26_2">
<ellipse cx="4.07204" cy="328.862" rx="4.07204" ry="2.03602" fill="white"/>
<ellipse cx="4.07204" cy="328.862" rx="4.07204" ry="2.03602" fill="white"/>
</g>
<ellipse id="Ellipse 28_2" cx="190.107" cy="249.432" rx="54.9725" ry="14.2521" transform="rotate(-25.6225 190.107 249.432)" fill="#FFD4AC"/>
<ellipse id="Ellipse 29_2" cx="54.9725" cy="14.2521" rx="54.9725" ry="14.2521" transform="matrix(-0.901663 -0.43244 -0.43244 0.901663 241.765 101.545)" fill="#FFD4AC"/>
<ellipse id="Ellipse 30_2" cx="309.463" cy="118.631" rx="54.9725" ry="14.2521" transform="rotate(-106.241 309.463 118.631)" fill="#FFD4AC"/>
<ellipse id="Ellipse 31_2" cx="54.9725" cy="14.2521" rx="54.9725" ry="14.2521" transform="matrix(-0.39851 0.917164 0.917164 0.39851 300.353 188.377)" fill="#FFD4AC"/>
<circle id="Ellipse 32_2" cx="325.763" cy="188.377" r="8.14407" fill="#FFD4AC"/>
<circle id="Ellipse 35" cx="42.7564" cy="133.404" r="2.03602" fill="white"/>
<circle id="Ellipse 34" cx="38.6843" cy="178.197" r="2.03602" fill="white"/>
</g>
<ellipse id="dirt" cx="175" cy="175" rx="155" ry="144" fill="#321F0E"/>
<g id="hamster_dig">
<ellipse id="Ellipse 41" cx="152.757" cy="75.9709" rx="20.3883" ry="20.9709" fill="#FFDDBD"/>
<ellipse id="Ellipse 42" cx="104.99" cy="255.388" rx="20.3883" ry="20.9709" fill="#FFDDBD"/>
<ellipse id="Ellipse 38" cx="124.796" cy="169.175" rx="71.6505" ry="72.233" fill="#FFDDBD"/>
<ellipse id="Ellipse 37" cx="196.447" cy="183.738" rx="115.34" ry="111.262" fill="#FFD4AC"/>
<ellipse id="Ellipse 39" cx="230.233" cy="250.728" rx="23.301" ry="25.6311" fill="#FFBDD9"/>
<ellipse id="Ellipse 40" cx="276.835" cy="147.621" rx="23.301" ry="25.0485" fill="#FFBDD9"/>
<path id="Polygon 9" d="M116.502 105.489C121.494 105.46 124.336 111.183 121.297 115.142L102.98 139.004C100.277 142.524 94.8205 141.994 92.8465 138.019L81.0824 114.331C79.1084 110.356 81.9835 105.688 86.4215 105.663L116.502 105.489Z" fill="#FFCA99"/>
<path id="Polygon 10" d="M93.2014 201.761C98.1926 201.79 101.035 196.067 97.9955 192.108L79.6787 168.246C76.9763 164.726 71.5195 165.256 69.5454 169.231L57.7814 192.919C55.8073 196.894 58.6825 201.562 63.1205 201.587L93.2014 201.761Z" fill="#FFCA99"/>
</g>
<g id="hamster_distracted">
<ellipse id="Ellipse 43" cx="176.633" cy="219.479" rx="83.574" ry="117.941" fill="#FFD4AC"/>
<ellipse id="Ellipse 44" cx="177.414" cy="219.479" rx="64.0474" ry="88.2604" fill="#FFEDED"/>
<ellipse id="Ellipse 45" cx="176.633" cy="78.1066" rx="52.3314" ry="53.1125" fill="#FFDDBD"/>
<path id="Polygon 11" d="M114.674 35.5829C109.815 34.4442 105.359 38.6118 106.17 43.5366L111.181 73.937C112.09 79.4555 118.785 81.7315 122.869 77.911L147.857 54.54C151.941 50.7196 150.118 43.8883 144.672 42.6123L114.674 35.5829Z" fill="#FFD4AC"/>
<path id="Polygon 12" d="M235.816 26.5464C240.7 25.5171 245.061 29.7839 244.139 34.6892L238.447 64.9693C237.413 70.4659 230.67 72.5909 226.672 68.6796L202.216 44.7529C198.218 40.8417 200.195 34.0531 205.668 32.8998L235.816 26.5464Z" fill="#FFD4AC"/>
<path id="Polygon 13" d="M179.406 44.6948L167.027 31.0088L190.357 29.8414L179.406 44.6948Z" fill="#FFAFAF"/>
<ellipse id="Ellipse 46" cx="197.722" cy="185.113" rx="12.497" ry="16.4024" fill="#FFD4AC"/>
<ellipse id="Ellipse 47" cx="158.669" cy="185.113" rx="12.497" ry="16.4024" fill="#FFD4AC"/>
<ellipse id="Ellipse 48" cx="132.894" cy="324.142" rx="27.3373" ry="13.2781" fill="#FFD4AC"/>
<ellipse id="Ellipse 49" cx="220.373" cy="324.142" rx="27.3373" ry="13.2781" fill="#FFD4AC"/>
</g>
<g id="hamster_run_screwdriver">
<ellipse id="Ellipse 12_2" cx="194.783" cy="170.605" rx="136.455" ry="81.0202" fill="#FFD4AC"/>
<ellipse id="Ellipse 13_2" cx="83.9131" cy="157.813" rx="73.9131" ry="68.2275" fill="#FFDDBD"/>
<path id="Polygon 5_2" d="M88.8348 79.2043C88.5726 77.8034 86.9712 77.1184 85.7771 77.8964L50.7012 100.75C49.362 101.622 49.5369 103.636 51.0065 104.264L93.7819 122.561C95.2516 123.189 96.8283 121.925 96.5343 120.354L88.8348 79.2043Z" fill="#FFD4AC"/>
<ellipse id="Ellipse 14_2" cx="46.9566" cy="145.02" rx="11.3713" ry="12.7927" fill="black"/>
<ellipse id="Ellipse 15_2" cx="41.2709" cy="139.335" rx="2.84281" ry="1.42141" fill="white"/>
<ellipse id="Ellipse 16_2" cx="106.873" cy="249.634" rx="12.5663" ry="29.5861" transform="rotate(25.1368 106.873 249.634)" fill="#FFD4AC"/>
<g id="screwdriver">
<path id="Polygon 167" d="M66.9724 233.662L79.2949 234.99L72.4145 244.797L66.9724 233.662Z" fill="#CDBEBE"/>
<rect id="Rectangle 238" x="67.9215" y="234" width="44" height="1.67513" transform="rotate(33.3751 67.9215 234)" fill="#666666"/>
<rect id="Rectangle 237" x="78.115" y="235" width="44" height="11.1158" transform="rotate(33.3751 78.115 235)" fill="#CDBEBE"/>
<rect id="Rectangle 236" x="109.653" y="248" width="44" height="23" transform="rotate(33.3751 109.653 248)" fill="#ED4848"/>
<rect id="Rectangle 239" x="100.922" y="262" width="44" height="1.67513" transform="rotate(33.3751 100.922 262)" fill="white"/>
<rect id="Rectangle 240" x="103.922" y="257" width="44" height="1.67513" transform="rotate(33.3751 103.922 257)" fill="white"/>
<rect id="Rectangle 241" x="106.922" y="252" width="44" height="1.67513" transform="rotate(33.3751 106.922 252)" fill="white"/>
</g>
<ellipse id="Ellipse 17_2" cx="300.36" cy="237.98" rx="12.5663" ry="29.5861" transform="rotate(-30.9064 300.36 237.98)" fill="#FFD4AC"/>
<ellipse id="Ellipse 18_2" cx="255.683" cy="255.32" rx="12.5663" ry="29.5861" transform="rotate(-14.6904 255.683 255.32)" fill="#FFD4AC"/>
<ellipse id="Ellipse 19_2" cx="141.971" cy="258.162" rx="12.5663" ry="29.5861" transform="rotate(15.0923 141.971 258.162)" fill="#FFD4AC"/>
<ellipse id="Ellipse 20_2" cx="331.238" cy="156.391" rx="5.68563" ry="7.10703" fill="#FFD4AC"/>
<ellipse id="Ellipse 21_2" cx="17.107" cy="170.605" rx="7.10703" ry="12.7927" fill="#FFB7B7"/>
</g>
</g>
<g id="hamster_knight_sit">
<g id="hamster_1_2">
<ellipse id="Ellipse 2_3" cx="184.594" cy="224.391" rx="93.7237" ry="101.222" fill="#FFD4AC"/>
<ellipse id="Ellipse 390" cx="186.273" cy="237.455" rx="65" ry="62.2727" fill="#818181"/>
<ellipse id="Ellipse 391" cx="184.455" cy="233.818" rx="48.6364" ry="46.8182" fill="#C4C4C4"/>
<ellipse id="Ellipse 1_3" cx="183.657" cy="140.977" rx="74.0417" ry="70.2928" fill="#FFDDBD"/>
<g id="Ellipse 6_3">
<ellipse cx="223.021" cy="325.613" rx="17.8075" ry="13.1213" fill="#FF8080"/>
<ellipse cx="223.021" cy="325.613" rx="17.8075" ry="13.1213" fill="#FF8080"/>
<ellipse cx="223.021" cy="325.613" rx="17.8075" ry="13.1213" fill="#FFACAC"/>
</g>
<g id="Ellipse 7_3">
<ellipse cx="155.54" cy="325.613" rx="17.8075" ry="13.1213" fill="#FF8080"/>
<ellipse cx="155.54" cy="325.613" rx="17.8075" ry="13.1213" fill="#FF8080"/>
<ellipse cx="155.54" cy="325.613" rx="17.8075" ry="13.1213" fill="#FFACAC"/>
</g>
<path id="Polygon 1_3" d="M248.528 69.9456C254.221 69.5338 258.501 75.0437 256.694 80.4572L246.293 111.627C244.27 117.689 236.307 119.05 232.386 114.003L210.014 85.2038C206.093 80.1572 209.38 72.7779 215.754 72.3167L248.528 69.9456Z" fill="#FFD4AC"/>
<path id="Polygon 2_3" d="M109.472 79.318C103.779 78.9062 99.4991 84.4161 101.306 89.8296L111.707 121C113.73 127.062 121.693 128.422 125.614 123.375L147.986 94.5761C151.907 89.5296 148.62 82.1502 142.246 81.6891L109.472 79.318Z" fill="#FFD4AC"/>
<circle id="Ellipse 8_3" cx="167.724" cy="143.789" r="9.37237" fill="black"/>
<circle id="Ellipse 9_3" cx="208.962" cy="143.789" r="9.37237" fill="black"/>
<circle id="Ellipse 10_3" cx="171.473" cy="138.165" r="1.87447" fill="white"/>
<circle id="Ellipse 11_3" cx="210.837" cy="138.165" r="1.87447" fill="white"/>
<path id="Polygon 3_3" d="M189.28 190.651L203.079 173.78H175.482L189.28 190.651Z" fill="#FFACAC"/>
</g>
<ellipse id="Ellipse 389" cx="184.455" cy="72.4545" rx="49.5455" ry="13.6364" fill="#C4C4C4"/>
<rect id="Rectangle 128" x="134.909" y="71.5455" width="99.0909" height="24.5455" fill="#818181"/>
<rect id="Rectangle 129" x="182.182" y="26.0909" width="3.63636" height="32.7273" fill="#0085FF"/>
<rect id="Rectangle 130" x="184" y="57.8446" width="21.8182" height="1.81818" transform="rotate(-56.1373 184 57.8446)" fill="#0085FF"/>
<rect id="Rectangle 131" x="183.091" y="51.4809" width="21.8182" height="1.81818" transform="rotate(-56.1373 183.091 51.4809)" fill="#0085FF"/>
<rect id="Rectangle 132" x="182.182" y="46.9355" width="21.8182" height="1.81818" transform="rotate(-56.1373 182.182 46.9355)" fill="#0085FF"/>
<rect id="Rectangle 133" x="183.091" y="36.9355" width="21.8182" height="1.81818" transform="rotate(-56.1373 183.091 36.9355)" fill="#0085FF"/>
<rect id="Rectangle 134" x="181.273" y="32.39" width="21.8182" height="1.81818" transform="rotate(-56.1373 181.273 32.39)" fill="#0085FF"/>
<rect id="Rectangle 140" width="21.8182" height="1.81818" transform="matrix(-0.37848 -0.925609 -0.925609 0.37848 185.759 28.1042)" fill="#0085FF"/>
<rect id="Rectangle 141" x="181.273" y="27.1951" width="21.8182" height="1.81818" transform="rotate(-67.7604 181.273 27.1951)" fill="#0085FF"/>
<rect id="Rectangle 135" width="21.8182" height="1.81818" transform="matrix(-0.557204 -0.830376 -0.830376 0.557204 185.849 31.481)" fill="#0085FF"/>
<rect id="Rectangle 136" width="21.8182" height="1.81818" transform="matrix(-0.557204 -0.830376 -0.830376 0.557204 186.758 37.8446)" fill="#0085FF"/>
<rect id="Rectangle 137" width="21.8182" height="1.81818" transform="matrix(-0.557204 -0.830376 -0.830376 0.557204 184.94 42.39)" fill="#0085FF"/>
<rect id="Rectangle 138" width="21.8182" height="1.81818" transform="matrix(-0.557204 -0.830376 -0.830376 0.557204 184.94 51.4809)" fill="#0085FF"/>
<rect id="Rectangle 139" width="21.8182" height="1.81818" transform="matrix(-0.557204 -0.830376 -0.830376 0.557204 184.94 60.5718)" fill="#0085FF"/>
<ellipse id="Ellipse 391_2" cx="230.448" cy="219.083" rx="31.3636" ry="14.5455" transform="rotate(-43.2451 230.448 219.083)" fill="#FFD4AC"/>
<ellipse id="Ellipse 392" cx="31.3636" cy="14.5455" rx="31.3636" ry="14.5455" transform="matrix(0.728429 0.685121 0.685121 -0.728429 114 216.373)" fill="#FFD4AC"/>
<rect id="Rectangle 142" x="91.2728" y="232.455" width="30" height="11.8182" fill="#C4C4C4"/>
<rect id="Rectangle 143" x="94.9091" y="251.545" width="30" height="11.8182" fill="#C4C4C4"/>
<rect id="Rectangle 144" x="248.545" y="224.273" width="30" height="11.8182" fill="#C4C4C4"/>
<rect id="Rectangle 145" x="248.545" y="239.727" width="30" height="11.8182" fill="#C4C4C4"/>
</g>
<g id="hamster_knight_run">
<g id="hamster_knight">
<ellipse id="Ellipse 12_3" cx="199.783" cy="164.605" rx="136.455" ry="81.0202" fill="#FFD4AC"/>
<ellipse id="Ellipse 16_3" cx="111.873" cy="243.634" rx="12.5663" ry="29.5861" transform="rotate(25.1368 111.873 243.634)" fill="#FFD4AC"/>
<ellipse id="Ellipse 379" cx="228.864" cy="120.63" rx="87.1559" ry="36.6086" transform="rotate(6.77159 228.864 120.63)" fill="#A0A0A0"/>
<ellipse id="Ellipse 18_3" cx="260.683" cy="249.32" rx="12.5663" ry="29.5861" transform="rotate(-14.6904 260.683 249.32)" fill="#FFD4AC"/>
<ellipse id="Ellipse 17_3" cx="305.36" cy="231.98" rx="12.5663" ry="29.5861" transform="rotate(-30.9064 305.36 231.98)" fill="#FFD4AC"/>
<ellipse id="Ellipse 19_3" cx="146.971" cy="252.163" rx="12.5663" ry="29.5861" transform="rotate(15.0923 146.971 252.163)" fill="#FFD4AC"/>
<rect id="Rectangle 83" x="200" y="149" width="13" height="43" fill="#A0A0A0"/>
<rect id="Rectangle 82" x="228" y="144" width="13" height="43" fill="#A0A0A0"/>
<ellipse id="Ellipse 380" cx="227.988" cy="206.023" rx="87.1559" ry="36.6086" transform="rotate(-7.04616 227.988 206.023)" fill="#A0A0A0"/>
<ellipse id="Ellipse 13_3" cx="88.9131" cy="151.813" rx="73.9131" ry="68.2275" fill="#FFDDBD"/>
<ellipse id="Ellipse 383" cx="229.085" cy="118.586" rx="57.3553" ry="33.6953" transform="rotate(5.02172 229.085 118.586)" fill="#C4C4C4"/>
<ellipse id="Ellipse 384" cx="232.295" cy="203.32" rx="57.3553" ry="33.6953" transform="rotate(-1.63732 232.295 203.32)" fill="#C4C4C4"/>
<path id="Polygon 5_3" d="M93.8348 73.2043C93.5726 71.8034 91.9712 71.1184 90.7771 71.8964L55.7012 94.7498C54.362 95.6223 54.5369 97.6357 56.0065 98.2643L98.7819 116.561C100.252 117.189 101.828 115.925 101.534 114.354L93.8348 73.2043Z" fill="#FFD4AC"/>
<ellipse id="Ellipse 14_3" cx="51.9566" cy="139.02" rx="11.3713" ry="12.7927" fill="black"/>
<ellipse id="Ellipse 15_3" cx="46.2709" cy="133.335" rx="2.84281" ry="1.42141" fill="white"/>
<ellipse id="Ellipse 20_3" cx="336.238" cy="150.391" rx="5.68563" ry="7.10703" fill="#FFD4AC"/>
<ellipse id="Ellipse 21_3" cx="22.107" cy="164.605" rx="7.10703" ry="12.7927" fill="#FFB7B7"/>
</g>
<ellipse id="Ellipse 385" cx="105.588" cy="107.875" rx="52.0557" ry="24.8282" transform="rotate(30.6095 105.588 107.875)" fill="#C4C4C4"/>
<rect id="Rectangle 84" x="62.995" y="74" width="109" height="35" transform="rotate(29.05 62.995 74)" fill="#A0A0A0"/>
<g id="feather">
<rect id="Rectangle 85" x="127.022" y="57" width="4.63519" height="31.3001" transform="rotate(20.6191 127.022 57)" fill="#0085FF"/>
<rect id="Rectangle 86" x="127.202" y="57.1483" width="35.9643" height="4.29965" transform="rotate(-42.1793 127.202 57.1483)" fill="#0085FF"/>
<rect id="Rectangle 91" x="166.866" y="35" width="2" height="15" transform="rotate(77.8404 166.866 35)" fill="#0085FF"/>
<rect id="Rectangle 103" x="149.233" y="55.248" width="2" height="15" transform="rotate(90.9473 149.233 55.248)" fill="#0085FF"/>
<rect id="Rectangle 108" x="149.233" y="55.248" width="2" height="15" transform="rotate(90.9473 149.233 55.248)" fill="#0085FF"/>
<rect id="Rectangle 109" x="136.673" y="62" width="2" height="15" transform="rotate(63.9031 136.673 62)" fill="#0085FF"/>
<rect id="Rectangle 111" x="131.673" y="80" width="2" height="15" transform="rotate(63.9031 131.673 80)" fill="#0085FF"/>
<rect id="Rectangle 112" x="133.673" y="76" width="2" height="15" transform="rotate(63.9031 133.673 76)" fill="#0085FF"/>
<rect id="Rectangle 113" x="135.673" y="70" width="2" height="15" transform="rotate(63.9031 135.673 70)" fill="#0085FF"/>
<rect id="Rectangle 114" x="136.673" y="65" width="2" height="15" transform="rotate(63.9031 136.673 65)" fill="#0085FF"/>
<rect id="Rectangle 110" x="145.233" y="60.248" width="2" height="15" transform="rotate(90.9473 145.233 60.248)" fill="#0085FF"/>
<rect id="Rectangle 104" x="152.221" y="51.1438" width="2" height="15" transform="rotate(88.1552 152.221 51.1438)" fill="#0085FF"/>
<rect id="Rectangle 105" x="156.177" y="47" width="2" height="15" transform="rotate(86.6453 156.177 47)" fill="#0085FF"/>
<rect id="Rectangle 106" x="157.866" y="42" width="2" height="15" transform="rotate(77.8404 157.866 42)" fill="#0085FF"/>
<rect id="Rectangle 107" x="160.866" y="39" width="2" height="15" transform="rotate(77.8404 160.866 39)" fill="#0085FF"/>
<rect id="Rectangle 92" x="127.183" y="45" width="2" height="15" transform="rotate(7.58915 127.183 45)" fill="#0085FF"/>
<rect id="Rectangle 97" x="139.183" y="37" width="2" height="15" transform="rotate(7.58915 139.183 37)" fill="#0085FF"/>
<rect id="Rectangle 100" x="152.183" y="27" width="2" height="15" transform="rotate(7.58915 152.183 27)" fill="#0085FF"/>
<rect id="Rectangle 101" x="148.183" y="28" width="2" height="15" transform="rotate(7.58915 148.183 28)" fill="#0085FF"/>
<rect id="Rectangle 102" x="144.183" y="31" width="2" height="15" transform="rotate(7.58915 144.183 31)" fill="#0085FF"/>
<rect id="Rectangle 98" x="135.183" y="39" width="2" height="15" transform="rotate(7.58915 135.183 39)" fill="#0085FF"/>
<rect id="Rectangle 99" x="131.183" y="42" width="2" height="15" transform="rotate(7.58915 131.183 42)" fill="#0085FF"/>
<rect id="Rectangle 93" x="123.202" y="51" width="2" height="15" fill="#0085FF"/>
<rect id="Rectangle 94" x="121.202" y="58" width="2" height="15" fill="#0085FF"/>
<rect id="Rectangle 95" x="119.202" y="65" width="2" height="15" fill="#0085FF"/>
<rect id="Rectangle 96" x="117.202" y="71" width="2" height="15" fill="#0085FF"/>
</g>
</g>
<g id="hamster_knight_chew">
<g id="hamster_chew_2">
<ellipse id="Ellipse 22_3" cx="205.71" cy="175.017" rx="116.053" ry="114.017" fill="#FFD4AC"/>
<ellipse id="Ellipse 29_3" cx="54.9725" cy="14.2521" rx="54.9725" ry="14.2521" transform="matrix(-0.901663 -0.43244 -0.43244 0.901663 237.765 108.545)" fill="#FFD4AC"/>
<ellipse id="Ellipse 28_3" cx="186.107" cy="256.432" rx="54.9725" ry="14.2521" transform="rotate(-25.6225 186.107 256.432)" fill="#FFD4AC"/>
<ellipse id="Ellipse 386" cx="208" cy="170.5" rx="90" ry="87.5" fill="#818181"/>
<ellipse id="Ellipse 387" cx="211" cy="170.5" rx="72" ry="70.5" fill="#C4C4C4"/>
<ellipse id="Ellipse 23_3" cx="103.909" cy="168.909" rx="79.4047" ry="75.3327" fill="#FFDDBD"/>
<path id="Polygon 6_3" d="M102.435 123.557C103.931 123.656 104.79 125.306 104.014 126.588L78.1648 169.277C77.3569 170.611 75.4004 170.548 74.68 169.165L50.7339 123.169C50.0136 121.785 51.084 120.146 52.6404 120.249L102.435 123.557Z" fill="#FFD4AC"/>
<path id="Polygon 7_3" d="M108.603 215.155C109.699 216.178 109.322 217.999 107.909 218.502L60.8957 235.241C59.4262 235.764 57.9501 234.478 58.2665 232.951L68.7858 182.173C69.1022 180.645 70.9677 180.052 72.1084 181.116L108.603 215.155Z" fill="#FFD4AC"/>
<g id="Ellipse 24_3">
<path d="M44.5388 150.339C42.6967 156.829 35.9418 160.598 29.4514 158.755C22.961 156.913 26.8113 153.33 28.6534 146.839C30.4955 140.349 29.6319 133.409 36.1223 135.252C42.6127 137.094 46.3809 143.849 44.5388 150.339Z" fill="black"/>
<path d="M44.5388 150.339C42.6967 156.829 35.9418 160.598 29.4514 158.755C22.961 156.913 26.8113 153.33 28.6534 146.839C30.4955 140.349 29.6319 133.409 36.1223 135.252C42.6127 137.094 46.3809 143.849 44.5388 150.339Z" fill="black"/>
<path d="M44.5388 150.339C42.6967 156.829 35.9418 160.598 29.4514 158.755C22.961 156.913 26.8113 153.33 28.6534 146.839C30.4955 140.349 29.6319 133.409 36.1223 135.252C42.6127 137.094 46.3809 143.849 44.5388 150.339Z" fill="black"/>
</g>
<g id="Group 1_2">
<g id="Ellipse 33_2">
<path d="M43.9838 190.841C42.1417 184.35 35.3868 180.582 28.8964 182.424C22.406 184.266 26.2563 187.85 28.0984 194.341C29.9405 200.831 29.0769 207.77 35.5673 205.928C42.0577 204.086 45.8259 197.331 43.9838 190.841Z" fill="black"/>
<path d="M43.9838 190.841C42.1417 184.35 35.3868 180.582 28.8964 182.424C22.406 184.266 26.2563 187.85 28.0984 194.341C29.9405 200.831 29.0769 207.77 35.5673 205.928C42.0577 204.086 45.8259 197.331 43.9838 190.841Z" fill="black"/>
<path d="M43.9838 190.841C42.1417 184.35 35.3868 180.582 28.8964 182.424C22.406 184.266 26.2563 187.85 28.0984 194.341C29.9405 200.831 29.0769 207.77 35.5673 205.928C42.0577 204.086 45.8259 197.331 43.9838 190.841Z" fill="black"/>
</g>
</g>
<g id="Ellipse 26_3">
<ellipse cx="0.0720363" cy="335.862" rx="4.07204" ry="2.03602" fill="white"/>
<ellipse cx="0.0720363" cy="335.862" rx="4.07204" ry="2.03602" fill="white"/>
</g>
<ellipse id="Ellipse 30_3" cx="305.463" cy="125.631" rx="54.9725" ry="14.2521" transform="rotate(-106.241 305.463 125.631)" fill="#FFD4AC"/>
<ellipse id="Ellipse 31_3" cx="54.9725" cy="14.2521" rx="54.9725" ry="14.2521" transform="matrix(-0.39851 0.917164 0.917164 0.39851 296.353 195.377)" fill="#FFD4AC"/>
<circle id="Ellipse 32_3" cx="321.763" cy="195.377" r="8.14407" fill="#FFD4AC"/>
<circle id="Ellipse 35_2" cx="38.7564" cy="140.404" r="2.03602" fill="white"/>
<circle id="Ellipse 34_2" cx="34.6843" cy="185.197" r="2.03602" fill="white"/>
</g>
<rect id="Rectangle 115" x="189" y="62" width="10" height="21" fill="#C4C4C4"/>
<rect id="Rectangle 116" x="206" y="62" width="10" height="21" fill="#C4C4C4"/>
<rect id="Rectangle 117" x="216" y="258" width="10" height="31" fill="#C4C4C4"/>
<rect id="Rectangle 118" x="194" y="258" width="10" height="31" fill="#C4C4C4"/>
<ellipse id="Ellipse 393" cx="134.5" cy="171" rx="51.5" ry="64" fill="#A0A0A0"/>
<ellipse id="Ellipse 388" cx="136" cy="170.5" rx="46" ry="57.5" fill="#C4C4C4"/>
<rect id="Rectangle 119" x="181.999" y="158" width="8" height="46" transform="rotate(89.6094 181.999 158)" fill="#0085FF"/>
<rect id="Rectangle 120" x="156.654" y="149" width="5" height="24" transform="rotate(70.7187 156.654 149)" fill="#0085FF"/>
<rect id="Rectangle 121" x="169.654" y="150" width="5" height="24" transform="rotate(70.7187 169.654 150)" fill="#0085FF"/>
<rect id="Rectangle 122" x="187.654" y="149" width="5" height="24" transform="rotate(70.7187 187.654 149)" fill="#0085FF"/>
<rect id="Rectangle 123" x="196.654" y="153" width="5" height="24" transform="rotate(70.7187 196.654 153)" fill="#0085FF"/>
<rect id="Rectangle 124" width="5" height="24" transform="matrix(0.330207 -0.943909 -0.943909 -0.330207 198.654 173.645)" fill="#0085FF"/>
<rect id="Rectangle 125" width="5" height="24" transform="matrix(0.330207 -0.943909 -0.943909 -0.330207 186.654 176.645)" fill="#0085FF"/>
<rect id="Rectangle 126" width="5" height="24" transform="matrix(0.330207 -0.943909 -0.943909 -0.330207 175.654 176.645)" fill="#0085FF"/>
<rect id="Rectangle 127" width="5" height="24" transform="matrix(0.330207 -0.943909 -0.943909 -0.330207 159.654 175.645)" fill="#0085FF"/>
</g>
<g id="hamster_knight_run_up">
<ellipse id="Ellipse 22_4" cx="172.02" cy="202.455" rx="136.455" ry="81.0202" transform="rotate(90 172.02 202.455)" fill="#FFD4AC"/>
<g id="paw">
<ellipse id="Ellipse 33_3" cx="100.779" cy="271.645" rx="4.59177" ry="11.0459" transform="rotate(170.663 100.779 271.645)" fill="#FFD4AC"/>
<ellipse id="Ellipse 34_3" cx="111.108" cy="271.472" rx="4.59177" ry="11.0459" transform="rotate(178.223 111.108 271.472)" fill="#FFD4AC"/>
<ellipse id="Ellipse 35_3" cx="122.184" cy="272.798" rx="4.59177" ry="11.0459" transform="rotate(-173.258 122.184 272.798)" fill="#FFD4AC"/>
<ellipse id="Ellipse 36" cx="112.95" cy="283.534" rx="10.8685" ry="11.0459" transform="rotate(-173.258 112.95 283.534)" fill="#FFD4AC"/>
</g>
<g id="paw_2">
<ellipse id="Ellipse 33_4" cx="222.779" cy="266.645" rx="4.59177" ry="11.0459" transform="rotate(170.663 222.779 266.645)" fill="#FFD4AC"/>
<ellipse id="Ellipse 34_4" cx="233.108" cy="266.472" rx="4.59177" ry="11.0459" transform="rotate(178.223 233.108 266.472)" fill="#FFD4AC"/>
<ellipse id="Ellipse 35_4" cx="244.184" cy="267.798" rx="4.59177" ry="11.0459" transform="rotate(-173.258 244.184 267.798)" fill="#FFD4AC"/>
<ellipse id="Ellipse 36_2" cx="234.95" cy="278.534" rx="10.8685" ry="11.0459" transform="rotate(-173.258 234.95 278.534)" fill="#FFD4AC"/>
</g>
<g id="paw_3">
<ellipse id="Ellipse 33_5" cx="216.779" cy="110.645" rx="4.59177" ry="11.0459" transform="rotate(170.663 216.779 110.645)" fill="#FFD4AC"/>
<ellipse id="Ellipse 34_5" cx="227.108" cy="110.472" rx="4.59177" ry="11.0459" transform="rotate(178.223 227.108 110.472)" fill="#FFD4AC"/>
<ellipse id="Ellipse 35_5" cx="238.184" cy="111.798" rx="4.59177" ry="11.0459" transform="rotate(-173.258 238.184 111.798)" fill="#FFD4AC"/>
<ellipse id="Ellipse 36_3" cx="228.95" cy="122.534" rx="10.8685" ry="11.0459" transform="rotate(-173.258 228.95 122.534)" fill="#FFD4AC"/>
</g>
<g id="paw_4">
<ellipse id="Ellipse 33_6" cx="105.779" cy="111.645" rx="4.59177" ry="11.0459" transform="rotate(170.663 105.779 111.645)" fill="#FFD4AC"/>
<ellipse id="Ellipse 34_6" cx="116.108" cy="111.472" rx="4.59177" ry="11.0459" transform="rotate(178.223 116.108 111.472)" fill="#FFD4AC"/>
<ellipse id="Ellipse 35_6" cx="127.184" cy="112.798" rx="4.59177" ry="11.0459" transform="rotate(-173.258 127.184 112.798)" fill="#FFD4AC"/>
<ellipse id="Ellipse 36_4" cx="117.95" cy="123.534" rx="10.8685" ry="11.0459" transform="rotate(-173.258 117.95 123.534)" fill="#FFD4AC"/>
</g>
<ellipse id="Ellipse 23_4" cx="171.813" cy="80.9131" rx="73.9131" ry="68.2275" transform="rotate(90 171.813 80.9131)" fill="#FFDDBD"/>
<path id="Polygon 6_4" d="M116.736 96.0409C116.71 97.4658 118.14 98.4603 119.467 97.9397L158.437 82.6461C159.925 82.0622 160.161 80.055 158.848 79.1424L120.653 52.5792C119.341 51.6666 117.541 52.586 117.511 54.1841L116.736 96.0409Z" fill="#FFD4AC"/>
<path id="Polygon 7_4" d="M227.385 96.0409C227.412 97.4658 225.982 98.4603 224.655 97.9397L185.684 82.6461C184.197 82.0621 183.961 80.055 185.273 79.1424L223.469 52.5792C224.781 51.6666 226.581 52.586 226.61 54.1841L227.385 96.0409Z" fill="#FFD4AC"/>
<path id="Ellipse 24_4" d="M145.248 43.7425C138.182 43.7425 132.455 38.6514 132.455 32.3712C132.455 26.0911 138.182 21 145.248 21C152.313 21 158.04 26.0911 158.04 32.3713C158.04 38.6514 152.313 43.7425 145.248 43.7425Z" fill="black"/>
<ellipse id="Ellipse 26_4" cx="141.899" cy="37.2233" rx="2.84281" ry="1.42141" transform="rotate(17.8219 141.899 37.2233)" fill="white"/>
<path id="Ellipse 27_2" d="M191.248 40.7425C184.182 40.7425 178.455 35.6514 178.455 29.3712C178.455 23.0911 184.182 18 191.248 18C198.313 18 204.04 23.0911 204.04 29.3713C204.04 35.6514 198.313 40.7425 191.248 40.7425Z" fill="black"/>
<ellipse id="Ellipse 28_4" cx="187.899" cy="34.2233" rx="2.84281" ry="1.42141" transform="rotate(17.8219 187.899 34.2233)" fill="white"/>
<ellipse id="Ellipse 32_4" cx="172.933" cy="338.686" rx="5.68563" ry="7.10703" transform="rotate(90 172.933 338.686)" fill="#FFD4AC"/>
<ellipse id="Ellipse 29_4" cx="166.04" cy="12" rx="6" ry="11" transform="rotate(90 166.04 12)" fill="#FFB7B7"/>
<g id="armor">
<g id="armor_2">
<ellipse id="Ellipse 33_7" cx="170.999" cy="205.5" rx="112.5" ry="67" transform="rotate(90 170.999 205.5)" fill="#A0A0A0"/>
<ellipse id="Ellipse 644" cx="170.499" cy="203.5" rx="58.5" ry="81.5" fill="#D9D9D9"/>
</g>
<rect id="Rectangle 269" x="232" y="183" width="22" height="11" fill="#A0A0A0"/>
<rect id="Rectangle 270" x="232" y="202" width="22" height="11" fill="#A0A0A0"/>
<circle id="Ellipse 645" cx="169.5" cy="97.5" r="51.5" fill="#A0A0A0"/>
<circle id="Ellipse 646" cx="169.5" cy="97.5" r="43.5" fill="#C4C4C4"/>
<g id="feather_2">
<rect id="Rectangle 85_2" x="168.538" y="128.16" width="4.63519" height="31.3001" transform="rotate(-173.537 168.538 128.16)" fill="#0085FF"/>
<rect id="Rectangle 86_2" x="168.439" y="124.633" width="35.9643" height="4.29965" transform="rotate(93.0726 168.439 124.633)" fill="#0085FF"/>
<rect id="Rectangle 91_2" x="160.008" y="173.4" width="2" height="15" transform="rotate(-160.776 160.008 173.4)" fill="#0085FF"/>
<rect id="Rectangle 103_2" x="156.04" y="139.798" width="2" height="15" transform="rotate(-138.438 156.04 139.798)" fill="#0085FF"/>
<rect id="Rectangle 108_2" x="157.533" y="143.852" width="2" height="15" transform="rotate(-140.623 157.533 143.852)" fill="#0085FF"/>
<rect id="Rectangle 117_2" x="156.575" y="148.713" width="2" height="15" transform="rotate(-133.801 156.575 148.713)" fill="#0085FF"/>
<rect id="Rectangle 109_2" x="157.958" y="125.672" width="2" height="15" transform="rotate(-130.253 157.958 125.672)" fill="#0085FF"/>
<rect id="Rectangle 111_2" x="158.404" y="106.996" width="2" height="15" transform="rotate(-130.253 158.404 106.996)" fill="#0085FF"/>
<rect id="Rectangle 112_2" x="157.443" y="111.364" width="2" height="15" transform="rotate(-130.253 157.443 111.364)" fill="#0085FF"/>
<rect id="Rectangle 113_2" x="156.971" y="117.671" width="2" height="15" transform="rotate(-130.253 156.971 117.671)" fill="#0085FF"/>
<rect id="Rectangle 114_2" x="157.224" y="122.763" width="2" height="15" transform="rotate(-130.253 157.224 122.763)" fill="#0085FF"/>
<rect id="Rectangle 110_2" x="156.659" y="133.577" width="2" height="15" transform="rotate(-140.183 156.659 133.577)" fill="#0085FF"/>
<rect id="Rectangle 104_2" x="153.856" y="155.159" width="2" height="17.103" transform="rotate(-136.808 153.856 155.159)" fill="#0085FF"/>
<rect id="Rectangle 115_2" x="153.756" y="159.499" width="2" height="17.103" transform="rotate(-136.808 153.756 159.499)" fill="#0085FF"/>
<rect id="Rectangle 116_2" x="153.534" y="164.879" width="2" height="17.103" transform="rotate(-136.808 153.534 164.879)" fill="#0085FF"/>
<rect id="Rectangle 106_2" x="168.658" y="173.346" width="2" height="15" transform="rotate(169.614 168.658 173.346)" fill="#0085FF"/>
<rect id="Rectangle 107_2" x="158.558" y="168.571" width="2" height="15" transform="rotate(-148.817 158.558 168.571)" fill="#0085FF"/>
<rect id="Rectangle 97_2" x="172.787" y="152.859" width="2" height="15" transform="rotate(155.833 172.787 152.859)" fill="#0085FF"/>
<rect id="Rectangle 100_2" x="174.954" y="166.874" width="2" height="15" transform="rotate(141.429 174.954 166.874)" fill="#0085FF"/>
<rect id="Rectangle 101_2" x="173.026" y="159.258" width="2" height="15" transform="rotate(149.674 173.026 159.258)" fill="#0085FF"/>
<rect id="Rectangle 102_2" x="172.011" y="144.199" width="2" height="15" transform="rotate(163.564 172.011 144.199)" fill="#0085FF"/>
<rect id="Rectangle 98_2" x="173.903" y="138.925" width="2" height="15" transform="rotate(160.233 173.903 138.925)" fill="#0085FF"/>
<rect id="Rectangle 99_2" x="171.808" y="172.268" width="2" height="15" transform="rotate(161.789 171.808 172.268)" fill="#0085FF"/>
<rect id="Rectangle 93_2" x="173.71" y="133.044" width="2" height="15" transform="rotate(165.844 173.71 133.044)" fill="#0085FF"/>
<rect id="Rectangle 94_2" x="174.792" y="125.362" width="2" height="15" transform="rotate(158.671 174.792 125.362)" fill="#0085FF"/>
<rect id="Rectangle 95_2" x="175.171" y="118" width="2" height="15" transform="rotate(157.353 175.171 118)" fill="#0085FF"/>
<rect id="Rectangle 96_2" x="175.824" y="111.584" width="2" height="15" transform="rotate(155.754 175.824 111.584)" fill="#0085FF"/>
</g>
<rect id="Rectangle 271" x="91" y="183" width="22" height="11" fill="#A0A0A0"/>
<rect id="Rectangle 273" x="91" y="203" width="22" height="11" fill="#A0A0A0"/>
</g>
</g>
</g>
</svg>
