<svg width="350" height="350" viewBox="0 0 350 350" fill="none" xmlns="http://www.w3.org/2000/svg">
<g id="Frame 58">
<rect width="350" height="350" fill="white"/>
<g id="rocket_booster">
<rect id="Rectangle 234" x="260.026" y="202.428" width="15.8957" height="163.981" transform="rotate(90.1495 260.026 202.428)" fill="#604637"/>
<g id="rocket">
<rect id="Rectangle 235" x="70.1821" y="177.411" width="31.9369" height="74.8866" transform="rotate(0.152273 70.1821 177.411)" fill="#FBFBFB"/>
<path id="Polygon 163" d="M86.276 130.098L104.737 181.77L67.5411 181.671L86.276 130.098Z" fill="#B64343"/>
<path id="Polygon 164" d="M102.019 214.939L122.865 268.819L101.919 252.244L102.019 214.939Z" fill="#B64343"/>
<path id="Polygon 166" d="M85.4998 214.895L80.9923 253.427L85.3403 274.914L89.8024 253.451L85.4998 214.895Z" fill="#B64343"/>
<path id="Polygon 165" d="M70.147 214.854L49.0149 268.623L70.0478 252.159L70.147 214.854Z" fill="#B64343"/>
</g>
<g id="rocket_2">
<rect id="Rectangle 235_2" x="70.1821" y="177.411" width="31.9369" height="74.8866" transform="rotate(0.152273 70.1821 177.411)" fill="#FBFBFB"/>
<path id="Polygon 163_2" d="M86.276 130.098L104.737 181.77L67.5411 181.671L86.276 130.098Z" fill="#B64343"/>
<path id="Polygon 164_2" d="M102.019 214.939L122.865 268.819L101.919 252.244L102.019 214.939Z" fill="#B64343"/>
<path id="Polygon 166_2" d="M85.4998 214.895L80.9923 253.427L85.3403 274.914L89.8024 253.451L85.4998 214.895Z" fill="#B64343"/>
<path id="Polygon 165_2" d="M70.147 214.854L49.0149 268.623L70.0478 252.159L70.147 214.854Z" fill="#B64343"/>
</g>
<g id="rocket_3">
<rect id="Rectangle 235_3" x="252.19" y="177.411" width="31.9369" height="74.8866" transform="rotate(0.152273 252.19 177.411)" fill="#FBFBFB"/>
<path id="Polygon 163_3" d="M268.284 130.099L286.745 181.77L249.549 181.671L268.284 130.099Z" fill="#B64343"/>
<path id="Polygon 164_3" d="M284.027 214.939L304.873 268.819L283.928 252.244L284.027 214.939Z" fill="#B64343"/>
<path id="Polygon 166_3" d="M267.508 214.895L263.001 253.428L267.349 274.914L271.811 253.451L267.508 214.895Z" fill="#B64343"/>
<path id="Polygon 165_3" d="M252.155 214.854L231.023 268.623L252.056 252.16L252.155 214.854Z" fill="#B64343"/>
</g>
</g>
</g>
</svg>
