<svg width="246" height="186" viewBox="0 0 246 186" fill="none" xmlns="http://www.w3.org/2000/svg">
<g id="&#209;&#129;amoflauge">
<ellipse id="Ellipse 482" cx="145.5" cy="82" rx="79.5" ry="74" fill="#628B5B"/>
<ellipse id="Ellipse 486" cx="162" cy="81" rx="78" ry="65" fill="#628B5B"/>
<rect id="Rectangle 207" x="66" y="5" width="71" height="153" fill="#628B5B"/>
<path id="Rectangle 208" d="M48 16H95V156H48L54.5 86L48 16Z" fill="#628B5B"/>
<ellipse id="Ellipse 22" cx="108" cy="15.5" rx="61" ry="14.5" fill="#628B5B"/>
<ellipse id="Ellipse 483" cx="112" cy="146.5" rx="61" ry="14.5" fill="#628B5B"/>
<rect id="Rectangle 209" x="51.6282" y="121.115" width="22" height="58.5939" transform="rotate(14.1817 51.6282 121.115)" fill="#628B5B"/>
<rect id="Rectangle 213" x="64.7319" y="152.943" width="10.2061" height="55.1422" transform="rotate(110.214 64.7319 152.943)" fill="#628B5B"/>
<path id="Rectangle 214" d="M10.2271 146.007L4.99999 137.241L29.6601 124.287L52.3614 109L57.5885 117.766L33.9078 131.886L10.2271 146.007Z" fill="#628B5B"/>
<rect id="Rectangle 212" x="12.1267" y="140" width="24.8323" height="25.0173" transform="rotate(28.995 12.1267 140)" fill="#628B5B"/>
<rect id="Rectangle 210" x="142.939" y="129.141" width="23.1004" height="58.5939" transform="rotate(-15.4157 142.939 129.141)" fill="#628B5B"/>
<rect id="Rectangle 211" x="176" y="119.816" width="23.1004" height="58.5938" transform="rotate(-33.6985 176 119.816)" fill="#628B5B"/>
<ellipse id="Ellipse 485" cx="40.1012" cy="134.78" rx="24.9554" ry="12.9225" transform="rotate(-26.7761 40.1012 134.78)" fill="#628B5B"/>
<ellipse id="Ellipse 487" cx="240.5" cy="63.5" rx="5.5" ry="3.5" fill="#628B5B"/>
<path id="Ellipse 511" d="M232.781 62C232.781 76.9117 211.626 89 194.781 89C177.936 89 171.781 76.9117 171.781 62C171.781 47.0883 151.936 35 168.781 35C185.626 35 232.781 47.0883 232.781 62Z" fill="#5EB64F"/>
<path id="Ellipse 484" d="M141.781 54C141.781 68.9117 120.626 81 103.781 81C86.9363 81 80.7805 68.9117 80.7805 54C80.7805 39.0883 60.9361 27 77.7808 27C94.6255 27 141.781 39.0883 141.781 54Z" fill="#5EB64F"/>
<path id="Ellipse 488" d="M226.5 84.7137C226.5 95.2072 212.5 92.6699 209 103.714C199.335 103.714 198.5 105.708 198.5 95.2148C198.5 84.7214 196.335 95.2148 206 95.2148C215.665 95.2148 226.5 74.2203 226.5 84.7137Z" fill="#3CBA67"/>
<path id="Ellipse 510" d="M48.3028 122.049C49.3841 111.612 63.0481 115.578 67.6675 104.954C77.281 105.95 78.3171 104.052 77.2358 114.49C76.1545 124.927 79.3893 114.713 69.7757 113.717C60.1622 112.721 47.2214 132.487 48.3028 122.049Z" fill="#3CBA67"/>
<path id="Ellipse 499" d="M94.4518 132.577C89.2729 123.451 102.701 118.748 100.295 107.416C108.701 102.646 108.443 100.499 113.622 109.625C118.8 118.752 115.505 108.557 107.099 113.327C98.6927 118.097 99.6306 141.704 94.4518 132.577Z" fill="#3CBA67"/>
<path id="Ellipse 489" d="M104.5 138.5C104.5 149.822 92.6356 142 78 142C63.3643 142 64.5 149.822 64.5 138.5C64.5 127.178 67.8643 122.5 82.4999 122.5C97.1356 122.5 91.4998 134.679 104.5 138.5Z" fill="#7AA00D"/>
<path id="Ellipse 498" d="M193.894 70.4255C185.975 78.5178 182.966 64.6295 172.505 54.3936C162.044 44.1577 157.385 50.5426 165.304 42.4503C173.222 34.358 178.898 33.3673 189.359 43.6031C199.82 53.839 187.274 58.6022 193.894 70.4255Z" fill="#7AA00D"/>
<g id="spot">
<ellipse id="Ellipse 490" cx="153.035" cy="132.5" rx="14" ry="15.5" fill="#947C57"/>
<ellipse id="Ellipse 491" cx="151.035" cy="141.5" rx="12" ry="17.5" transform="rotate(36.3272 151.035 141.5)" fill="#947C57"/>
</g>
<g id="spot_2">
<ellipse id="Ellipse 490_2" cx="104.154" cy="32.1344" rx="14" ry="15.5" transform="rotate(53.8793 104.154 32.1344)" fill="#947C57"/>
<ellipse id="Ellipse 491_2" cx="95.7051" cy="35.824" rx="12" ry="17.5" transform="rotate(90.2065 95.7051 35.824)" fill="#947C57"/>
</g>
<g id="spot_3">
<ellipse id="Ellipse 492" cx="157" cy="26.5" rx="17" ry="14.5" fill="#6F9462"/>
<rect id="Rectangle 215" x="165" y="36" width="16" height="13" fill="#6F9462"/>
<ellipse id="Ellipse 493" cx="171.5" cy="48" rx="9.5" ry="12" fill="#6F9462"/>
</g>
<g id="spot_4">
<ellipse id="Ellipse 492_2" cx="188.747" cy="96.5966" rx="17" ry="14.5" transform="rotate(128.774 188.747 96.5966)" fill="#6F9462"/>
<rect id="Rectangle 215_2" x="188.983" y="95.5038" width="16" height="13" transform="rotate(128.774 188.983 95.5038)" fill="#6F9462"/>
<ellipse id="Ellipse 493_2" cx="175.557" cy="93.0563" rx="9.5" ry="12" transform="rotate(128.774 175.557 93.0563)" fill="#6F9462"/>
</g>
<path id="Ellipse 508" d="M166.72 51.0794C169.875 57.5288 173.619 54.9408 164.798 66.4922C152.643 72.4382 150.504 73.6845 147.349 67.2352C144.194 60.7859 141.218 49.083 153.372 43.137C165.527 37.1911 163.565 44.6301 166.72 51.0794Z" fill="#816740"/>
<path id="Ellipse 512" d="M207.72 120.079C210.875 126.529 214.619 123.941 205.798 135.492C193.643 141.438 191.504 142.685 188.349 136.235C185.194 129.786 182.218 118.083 194.372 112.137C206.527 106.191 204.565 113.63 207.72 120.079Z" fill="#A78757"/>
<g id="spot_5">
<ellipse id="Ellipse 492_3" cx="91.7469" cy="111.597" rx="17" ry="14.5" transform="rotate(128.774 91.7469 111.597)" fill="#6F9462"/>
<rect id="Rectangle 215_3" x="91.9834" y="110.504" width="16" height="13" transform="rotate(128.774 91.9834 110.504)" fill="#6F9462"/>
<ellipse id="Ellipse 493_3" cx="78.5572" cy="108.056" rx="9.5" ry="12" transform="rotate(128.774 78.5572 108.056)" fill="#6F9462"/>
</g>
<g id="spot_6">
<ellipse id="Ellipse 492_4" cx="46.6456" cy="136.5" rx="17" ry="14.5" transform="rotate(-26.1005 46.6456 136.5)" fill="#6F9462"/>
<rect id="Rectangle 215_4" x="45.9675" y="137.389" width="16" height="13" transform="rotate(-26.1005 45.9675 137.389)" fill="#6F9462"/>
<ellipse id="Ellipse 493_4" cx="57.084" cy="145.306" rx="9.5" ry="12" transform="rotate(-26.1005 57.084 145.306)" fill="#6F9462"/>
</g>
<path id="Ellipse 494" d="M143 36.4992C143 45.0596 133.598 51.9992 122 51.9992C110.402 51.9992 101 45.0596 101 36.4992C101 27.9387 112.402 34.4996 124 34.4996C135.598 34.4996 143 27.9387 143 36.4992Z" fill="#4A7924"/>
<ellipse id="Ellipse 495" cx="173.5" cy="77" rx="24.5" ry="17" fill="#5DA460"/>
<path id="Ellipse 496" d="M81.5 78C81.5 85.1797 86 84.5 73 91C59.469 91 57 91.1797 57 84C57 76.8203 59.469 65 73 65C86.531 65 81.5 70.8203 81.5 78Z" fill="#816740"/>
<path id="Ellipse 504" d="M180 34.5032C180 41.6829 159.5 66 146.5 72.5C132.969 72.5 100.5 112.18 100.5 105C100.5 97.8206 111.469 52.0006 125 52.0006C138.531 52.0006 180 27.3235 180 34.5032Z" fill="#4A8B64"/>
<path id="Ellipse 500" d="M208.028 93.0653C200.856 92.7389 201.331 97.2651 195.428 83.983C196.044 70.4661 195.976 67.9914 203.149 68.3178C210.321 68.6442 222.017 71.6481 221.401 85.1651C220.786 98.6821 215.201 93.3917 208.028 93.0653Z" fill="#816740"/>
<path id="Ellipse 497" d="M135 111C123.5 114.5 120.5 119.5 112 131C99.2974 131 97 125.546 97 114.5C97 103.454 99.2974 91 112 91C124.703 91 135 99.9543 135 111Z" fill="#24723E"/>
<path id="Ellipse 509" d="M192.177 60.0991C188.014 48.8222 182.847 46.1182 170.872 38.3015C170.134 25.6205 175.445 23.0097 186.472 22.3671C197.499 21.7245 210.066 23.2935 210.805 35.9746C211.544 48.6556 203.204 59.4565 192.177 60.0991Z" fill="#24723E"/>
<g id="Ellipse 507">
<path d="M150.175 82.9873C159.719 87.3483 151.45 103.055 143.647 120.134C135.843 137.213 131.459 149.198 121.915 144.837C112.37 140.476 118.365 123.73 126.169 106.651C133.973 89.5718 140.631 78.6263 150.175 82.9873Z" fill="#A98C53"/>
<path d="M150.175 82.9873C159.719 87.3483 151.45 103.055 143.647 120.134C135.843 137.213 131.459 149.198 121.915 144.837C112.37 140.476 118.365 123.73 126.169 106.651C133.973 89.5718 140.631 78.6263 150.175 82.9873Z" fill="#A98C53"/>
</g>
<g id="Ellipse 501">
<path d="M122.182 85.7961C124.773 93.3734 116.495 103.065 103.692 107.443C90.011 96.7973 78.409 109.228 75.8179 101.651C73.2267 94.0734 81.5052 84.3816 94.3083 80.0034C102.312 92.591 119.591 78.2188 122.182 85.7961Z" fill="#84AE63"/>
<path d="M193.06 113.237C195.651 120.815 187.373 130.507 174.57 134.885C160.889 124.239 149.287 136.669 146.696 129.092C144.105 121.515 152.383 111.823 165.187 107.445C173.19 120.032 190.469 105.66 193.06 113.237Z" fill="#3AA945"/>
</g>
<path id="Ellipse 502" d="M196 100.5C177.5 105 184.583 116 170.5 116C167.5 103 145 109.06 145 100.5C164.5 100.5 156.417 85 170.5 85C174.5 100.5 196 91.9396 196 100.5Z" fill="#2B7042"/>
<path id="Ellipse 503" d="M64.402 9.74096C70.9514 27.6185 81.0862 19.3445 82.668 33.3387C70.0872 37.7798 78.6364 59.4568 70.1302 60.4182C67.94 41.0416 53.446 50.8147 51.8642 36.8205C66.8168 31.1049 55.8957 10.7024 64.402 9.74096Z" fill="#70652B"/>
<path id="Ellipse 505" d="M137.369 129.044C169.805 158.577 131.943 163.016 113.725 156.201C97.2589 163.346 81.1482 162.772 77.7406 154.919C74.333 147.066 85.8256 142.149 104.803 143.176C109.108 63.9159 167.713 102.256 137.369 129.044Z" fill="#69BE4A"/>
<g id="Ellipse 506">
<path d="M145 12C145 22.4934 127.278 21.5 108.5 21.5C89.7223 21.5 77 22.4934 77 12C77 1.50659 94.7223 0 113.5 0C132.278 0 145 1.50659 145 12Z" fill="#A98C53"/>
<path d="M145 12C145 22.4934 127.278 21.5 108.5 21.5C89.7223 21.5 77 22.4934 77 12C77 1.50659 94.7223 0 113.5 0C132.278 0 145 1.50659 145 12Z" fill="#A98C53"/>
</g>
</g>
</svg>
