<svg width="350" height="350" viewBox="0 0 350 350" fill="none" xmlns="http://www.w3.org/2000/svg">
<g id="Frame 61">
<rect width="350" height="350" fill="white"/>
<path id="Rectangle 235" d="M342.596 314.59L341.423 330.442C284.948 332.031 288.75 342.197 118.06 313.913L119.233 298.061C232.891 318.6 283.815 323.292 342.596 314.59Z" fill="#604637"/>
<g id="rocket">
<rect id="Rectangle 235_2" x="292.184" y="239.41" width="31.9369" height="74.8866" transform="rotate(0.152273 292.184 239.41)" fill="#FBFBFB"/>
<path id="Polygon 163" d="M308.278 192.098L326.738 243.77L289.543 243.671L308.278 192.098Z" fill="#B64343"/>
<path id="Polygon 164" d="M324.02 276.938L344.866 330.819L323.921 314.244L324.02 276.938Z" fill="#B64343"/>
<path id="Polygon 166" d="M307.501 276.894L302.994 315.427L307.342 336.914L311.804 315.451L307.501 276.894Z" fill="#B64343"/>
<path id="Polygon 165" d="M292.148 276.854L271.016 330.622L292.049 314.159L292.148 276.854Z" fill="#B64343"/>
</g>
<g id="rocket_2">
<rect id="Rectangle 235_3" x="53.4121" y="320.056" width="31.9369" height="74.8866" transform="rotate(-89.8421 53.4121 320.056)" fill="#FBFBFB"/>
<path id="Polygon 163_2" d="M6.10165 303.957L57.7749 285.502L57.6724 322.697L6.10165 303.957Z" fill="#B64343"/>
<path id="Polygon 164_2" d="M90.9434 288.223L144.826 267.382L128.249 288.325L90.9434 288.223Z" fill="#B64343"/>
<path id="Polygon 166_2" d="M90.8979 304.742L129.43 309.253L150.917 304.907L129.454 300.443L90.8979 304.742Z" fill="#B64343"/>
<path id="Polygon 165_2" d="M90.8555 320.094L144.622 341.232L128.161 320.197L90.8555 320.094Z" fill="#B64343"/>
</g>
</g>
</svg>
