<svg width="350" height="350" viewBox="0 0 350 350" fill="none" xmlns="http://www.w3.org/2000/svg">
<g id="Frame 50">
<rect width="350" height="350" fill="white"/>
<g id="&#209;&#129;amoflauge">
<ellipse id="Ellipse 482" cx="238.5" cy="170" rx="79.5" ry="74" fill="#628B5B"/>
<ellipse id="Ellipse 486" cx="255" cy="169" rx="78" ry="65" fill="#628B5B"/>
<rect id="Rectangle 207" x="159" y="93" width="71" height="153" fill="#628B5B"/>
<path id="Rectangle 208" d="M141 104H188V244H141L147.5 174L141 104Z" fill="#628B5B"/>
<ellipse id="Ellipse 22" cx="201" cy="103.5" rx="61" ry="14.5" fill="#628B5B"/>
<ellipse id="Ellipse 483" cx="205" cy="234.5" rx="61" ry="14.5" fill="#628B5B"/>
<rect id="Rectangle 209" x="144.628" y="209.115" width="22" height="58.5939" transform="rotate(14.1817 144.628 209.115)" fill="#628B5B"/>
<rect id="Rectangle 213" x="157.732" y="240.943" width="10.2061" height="55.1422" transform="rotate(110.214 157.732 240.943)" fill="#628B5B"/>
<path id="Rectangle 214" d="M103.227 234.007L98 225.241L122.66 212.287L145.361 197L150.588 205.766L126.908 219.886L103.227 234.007Z" fill="#628B5B"/>
<rect id="Rectangle 212" x="105.127" y="228" width="24.8323" height="25.0173" transform="rotate(28.995 105.127 228)" fill="#628B5B"/>
<rect id="Rectangle 210" x="235.939" y="217.141" width="23.1004" height="58.5939" transform="rotate(-15.4157 235.939 217.141)" fill="#628B5B"/>
<rect id="Rectangle 211" x="269" y="207.816" width="23.1004" height="58.5938" transform="rotate(-33.6985 269 207.816)" fill="#628B5B"/>
<ellipse id="Ellipse 485" cx="133.101" cy="222.78" rx="24.9554" ry="12.9225" transform="rotate(-26.7761 133.101 222.78)" fill="#628B5B"/>
<ellipse id="Ellipse 487" cx="333.5" cy="151.5" rx="5.5" ry="3.5" fill="#628B5B"/>
<path id="Ellipse 511" d="M325.781 150C325.781 164.912 304.626 177 287.781 177C270.936 177 264.781 164.912 264.781 150C264.781 135.088 244.936 123 261.781 123C278.626 123 325.781 135.088 325.781 150Z" fill="#5EB64F"/>
<path id="Ellipse 484" d="M234.781 142C234.781 156.912 213.626 169 196.781 169C179.936 169 173.781 156.912 173.781 142C173.781 127.088 153.936 115 170.781 115C187.626 115 234.781 127.088 234.781 142Z" fill="#5EB64F"/>
<path id="Ellipse 488" d="M319.5 172.714C319.5 183.207 305.5 180.67 302 191.714C292.335 191.714 291.5 193.708 291.5 183.215C291.5 172.721 289.335 183.215 299 183.215C308.665 183.215 319.5 162.22 319.5 172.714Z" fill="#3CBA67"/>
<path id="Ellipse 510" d="M141.303 210.049C142.384 199.612 156.048 203.578 160.668 192.954C170.281 193.95 171.317 192.052 170.236 202.49C169.154 212.927 172.389 202.713 162.776 201.717C153.162 200.721 140.221 220.487 141.303 210.049Z" fill="#3CBA67"/>
<path id="Ellipse 499" d="M187.452 220.577C182.273 211.451 195.701 206.748 193.295 195.416C201.701 190.646 201.443 188.499 206.622 197.625C211.8 206.752 208.505 196.557 200.099 201.327C191.693 206.097 192.631 229.704 187.452 220.577Z" fill="#3CBA67"/>
<path id="Ellipse 489" d="M197.5 226.5C197.5 237.822 185.636 230 171 230C156.364 230 157.5 237.822 157.5 226.5C157.5 215.178 160.864 210.5 175.5 210.5C190.136 210.5 184.5 222.679 197.5 226.5Z" fill="#7AA00D"/>
<path id="Ellipse 498" d="M286.894 158.425C278.975 166.518 275.966 152.629 265.505 142.394C255.044 132.158 250.385 138.543 258.304 130.45C266.222 122.358 271.898 121.367 282.359 131.603C292.82 141.839 280.274 146.602 286.894 158.425Z" fill="#7AA00D"/>
<g id="spot">
<ellipse id="Ellipse 490" cx="246.035" cy="220.5" rx="14" ry="15.5" fill="#947C57"/>
<ellipse id="Ellipse 491" cx="244.035" cy="229.5" rx="12" ry="17.5" transform="rotate(36.3272 244.035 229.5)" fill="#947C57"/>
</g>
<g id="spot_2">
<ellipse id="Ellipse 490_2" cx="197.154" cy="120.134" rx="14" ry="15.5" transform="rotate(53.8793 197.154 120.134)" fill="#947C57"/>
<ellipse id="Ellipse 491_2" cx="188.705" cy="123.824" rx="12" ry="17.5" transform="rotate(90.2065 188.705 123.824)" fill="#947C57"/>
</g>
<g id="spot_3">
<ellipse id="Ellipse 492" cx="250" cy="114.5" rx="17" ry="14.5" fill="#6F9462"/>
<rect id="Rectangle 215" x="258" y="124" width="16" height="13" fill="#6F9462"/>
<ellipse id="Ellipse 493" cx="264.5" cy="136" rx="9.5" ry="12" fill="#6F9462"/>
</g>
<g id="spot_4">
<ellipse id="Ellipse 492_2" cx="281.747" cy="184.597" rx="17" ry="14.5" transform="rotate(128.774 281.747 184.597)" fill="#6F9462"/>
<rect id="Rectangle 215_2" x="281.983" y="183.504" width="16" height="13" transform="rotate(128.774 281.983 183.504)" fill="#6F9462"/>
<ellipse id="Ellipse 493_2" cx="268.557" cy="181.056" rx="9.5" ry="12" transform="rotate(128.774 268.557 181.056)" fill="#6F9462"/>
</g>
<path id="Ellipse 508" d="M259.72 139.079C262.875 145.529 266.619 142.941 257.798 154.492C245.643 160.438 243.504 161.685 240.349 155.235C237.194 148.786 234.218 137.083 246.372 131.137C258.527 125.191 256.565 132.63 259.72 139.079Z" fill="#816740"/>
<path id="Ellipse 512" d="M300.72 208.079C303.875 214.529 307.619 211.941 298.798 223.492C286.643 229.438 284.504 230.685 281.349 224.235C278.194 217.786 275.218 206.083 287.372 200.137C299.527 194.191 297.565 201.63 300.72 208.079Z" fill="#A78757"/>
<g id="spot_5">
<ellipse id="Ellipse 492_3" cx="184.747" cy="199.597" rx="17" ry="14.5" transform="rotate(128.774 184.747 199.597)" fill="#6F9462"/>
<rect id="Rectangle 215_3" x="184.983" y="198.504" width="16" height="13" transform="rotate(128.774 184.983 198.504)" fill="#6F9462"/>
<ellipse id="Ellipse 493_3" cx="171.557" cy="196.056" rx="9.5" ry="12" transform="rotate(128.774 171.557 196.056)" fill="#6F9462"/>
</g>
<g id="spot_6">
<ellipse id="Ellipse 492_4" cx="139.646" cy="224.5" rx="17" ry="14.5" transform="rotate(-26.1005 139.646 224.5)" fill="#6F9462"/>
<rect id="Rectangle 215_4" x="138.968" y="225.389" width="16" height="13" transform="rotate(-26.1005 138.968 225.389)" fill="#6F9462"/>
<ellipse id="Ellipse 493_4" cx="150.084" cy="233.306" rx="9.5" ry="12" transform="rotate(-26.1005 150.084 233.306)" fill="#6F9462"/>
</g>
<path id="Ellipse 494" d="M236 124.499C236 133.06 226.598 139.999 215 139.999C203.402 139.999 194 133.06 194 124.499C194 115.939 205.402 122.5 217 122.5C228.598 122.5 236 115.939 236 124.499Z" fill="#4A7924"/>
<ellipse id="Ellipse 495" cx="266.5" cy="165" rx="24.5" ry="17" fill="#5DA460"/>
<path id="Ellipse 496" d="M174.5 166C174.5 173.18 179 172.5 166 179C152.469 179 150 179.18 150 172C150 164.82 152.469 153 166 153C179.531 153 174.5 158.82 174.5 166Z" fill="#816740"/>
<path id="Ellipse 504" d="M273 122.503C273 129.683 252.5 154 239.5 160.5C225.969 160.5 193.5 200.18 193.5 193C193.5 185.821 204.469 140.001 218 140.001C231.531 140.001 273 115.323 273 122.503Z" fill="#4A8B64"/>
<path id="Ellipse 500" d="M301.028 181.065C293.856 180.739 294.331 185.265 288.428 171.983C289.044 158.466 288.976 155.991 296.149 156.318C303.321 156.644 315.017 159.648 314.401 173.165C313.786 186.682 308.201 181.392 301.028 181.065Z" fill="#816740"/>
<path id="Ellipse 497" d="M228 199C216.5 202.5 213.5 207.5 205 219C192.297 219 190 213.546 190 202.5C190 191.454 192.297 179 205 179C217.703 179 228 187.954 228 199Z" fill="#24723E"/>
<path id="Ellipse 509" d="M285.177 148.099C281.014 136.822 275.847 134.118 263.872 126.302C263.134 113.621 268.445 111.01 279.472 110.367C290.499 109.725 303.066 111.294 303.805 123.975C304.544 136.656 296.204 147.457 285.177 148.099Z" fill="#24723E"/>
<g id="Ellipse 507">
<path d="M243.175 170.987C252.719 175.348 244.45 191.055 236.647 208.134C228.843 225.213 224.459 237.198 214.915 232.837C205.37 228.476 211.365 211.73 219.169 194.651C226.973 177.572 233.631 166.626 243.175 170.987Z" fill="#A98C53"/>
<path d="M243.175 170.987C252.719 175.348 244.45 191.055 236.647 208.134C228.843 225.213 224.459 237.198 214.915 232.837C205.37 228.476 211.365 211.73 219.169 194.651C226.973 177.572 233.631 166.626 243.175 170.987Z" fill="#A98C53"/>
</g>
<g id="Ellipse 501">
<path d="M215.182 173.796C217.773 181.373 209.495 191.065 196.692 195.443C183.011 184.797 171.409 197.228 168.818 189.651C166.227 182.073 174.505 172.382 187.308 168.003C195.312 180.591 212.591 166.219 215.182 173.796Z" fill="#84AE63"/>
<path d="M286.06 201.237C288.651 208.815 280.373 218.507 267.57 222.885C253.889 212.239 242.287 224.669 239.696 217.092C237.105 209.515 245.383 199.823 258.187 195.445C266.19 208.032 283.469 193.66 286.06 201.237Z" fill="#3AA945"/>
</g>
<path id="Ellipse 502" d="M289 188.5C270.5 193 277.583 204 263.5 204C260.5 191 238 197.06 238 188.5C257.5 188.5 249.417 173 263.5 173C267.5 188.5 289 179.94 289 188.5Z" fill="#2B7042"/>
<path id="Ellipse 503" d="M157.402 97.741C163.951 115.618 174.086 107.345 175.668 121.339C163.087 125.78 171.636 147.457 163.13 148.418C160.94 129.042 146.446 138.815 144.864 124.821C159.817 119.105 148.896 98.7024 157.402 97.741Z" fill="#70652B"/>
<path id="Ellipse 505" d="M230.369 217.044C262.805 246.577 224.943 251.016 206.725 244.201C190.259 251.346 174.148 250.772 170.741 242.919C167.333 235.066 178.826 230.149 197.803 231.176C202.108 151.916 260.713 190.256 230.369 217.044Z" fill="#69BE4A"/>
<g id="Ellipse 506">
<path d="M238 100C238 110.493 220.278 109.5 201.5 109.5C182.722 109.5 170 110.493 170 100C170 89.5066 187.722 88 206.5 88C225.278 88 238 89.5066 238 100Z" fill="#A98C53"/>
<path d="M238 100C238 110.493 220.278 109.5 201.5 109.5C182.722 109.5 170 110.493 170 100C170 89.5066 187.722 88 206.5 88C225.278 88 238 89.5066 238 100Z" fill="#A98C53"/>
</g>
</g>
</g>
</svg>
