<svg width="350" height="350" viewBox="0 0 350 350" fill="none" xmlns="http://www.w3.org/2000/svg">
<g id="Frame 65">
<rect width="350" height="350" fill="white"/>
<g id="saddle">
<ellipse id="Ellipse 516" cx="175.986" cy="221.988" rx="57.4158" ry="48.0205" fill="#916B23"/>
<ellipse id="Ellipse 517" cx="177.03" cy="196.933" rx="50.1083" ry="39.6691" fill="#AD873C"/>
<ellipse id="Ellipse 518" cx="177.03" cy="242.866" rx="50.1083" ry="39.6691" fill="#AD873C"/>
<ellipse id="Ellipse 519" cx="177.03" cy="247.042" rx="27.142" ry="22.9663" fill="#6F5436"/>
<path id="Ellipse 520" d="M196.711 172.019C209.964 183.134 205.603 192.895 196.711 203.497C187.82 214.099 177.765 221.527 164.512 210.413C151.26 199.299 145.129 182.621 154.02 172.019C170.767 188.582 174.943 215.726 196.711 172.019Z" fill="#6E5436"/>
<path id="Ellipse 521" d="M186.425 219.9C186.425 231.431 187.875 240.778 178.074 240.778C168.273 240.778 168.679 231.431 168.679 219.9C157.195 199.021 168.273 199.021 178.074 199.021C187.875 199.021 199.996 199.021 186.425 219.9Z" fill="#6E5436"/>
<ellipse id="Ellipse 522" cx="178.074" cy="173.967" rx="30.2738" ry="16.7028" fill="#845D22"/>
<rect id="Rectangle 218" x="170.767" y="155.177" width="14.6149" height="20.8785" fill="#694918"/>
<ellipse id="Ellipse 523" cx="178.074" cy="158.308" rx="9.39531" ry="7.30746" fill="#9C702F"/>
<g id="foothold">
<path id="Ellipse 524" d="M233.308 235.151C231.229 235.117 231.4 229.842 231.506 223.333C231.611 216.825 231.61 211.547 233.69 211.581C235.769 211.614 238.919 216.943 238.814 223.452C238.709 229.96 235.388 235.184 233.308 235.151Z" fill="#D9D9D9"/>
<path id="Ellipse 525" d="M233.693 232.538C232.181 232.513 232.305 228.703 232.381 224.003C232.457 219.302 232.457 215.49 233.969 215.515C235.481 215.539 237.772 219.388 237.696 224.089C237.62 228.789 235.205 232.562 233.693 232.538Z" fill="white"/>
</g>
<g id="foothold_2">
<path id="Ellipse 524_2" d="M117.311 209.459C119.389 209.37 119.527 214.646 119.804 221.15C120.08 227.654 120.39 232.922 118.313 233.011C116.235 233.099 112.777 227.964 112.501 221.461C112.224 214.957 115.233 209.547 117.311 209.459Z" fill="#D9D9D9"/>
<path id="Ellipse 525_2" d="M117.081 212.091C118.591 212.027 118.691 215.837 118.891 220.534C119.09 225.231 119.315 229.036 117.804 229.1C116.293 229.165 113.78 225.457 113.58 220.76C113.38 216.063 115.57 212.155 117.081 212.091Z" fill="white"/>
</g>
<rect id="Rectangle 219" x="116.482" y="215.724" width="4.17569" height="10.4392" fill="#845D22"/>
<rect id="Rectangle 220" x="231.314" y="217.812" width="4.17569" height="10.4392" fill="#845D22"/>
</g>
<path id="Rectangle 283" d="M255.023 230C255.233 234.438 255.507 238.575 255.023 242.126C195.348 245.635 159.952 245.589 100.411 240.19C97 239.881 96.8586 231.601 97 226C158.49 232.518 197.55 233.952 255.023 230Z" fill="#AA784A"/>
</g>
</svg>
