<svg width="350" height="350" viewBox="0 0 350 350" fill="none" xmlns="http://www.w3.org/2000/svg">
<g id="Frame 63" clip-path="url(#clip0_1110_534)">
<rect width="350" height="350" fill="white"/>
<ellipse id="Ellipse 385" cx="104.754" cy="308.057" rx="87.1559" ry="36.6086" transform="rotate(0.955502 104.754 308.057)" fill="#A0A0A0"/>
<ellipse id="Ellipse 386" cx="104.766" cy="306.002" rx="57.3553" ry="33.6953" transform="rotate(-0.794375 104.766 306.002)" fill="#C4C4C4"/>
<ellipse id="Ellipse 385_2" cx="131.54" cy="313.031" rx="87.1559" ry="36.6086" transform="rotate(2.27451 131.54 313.031)" fill="#A0A0A0"/>
<ellipse id="Ellipse 386_2" cx="136.227" cy="311.061" rx="57.3553" ry="33.6953" transform="rotate(7.68336 136.227 311.061)" fill="#C4C4C4"/>
<ellipse id="Ellipse 385_3" cx="283.329" cy="312.254" rx="52.0557" ry="24.8282" transform="rotate(3.01845 283.329 312.254)" fill="#C4C4C4"/>
<rect id="Rectangle 84" x="229.891" y="301.959" width="109" height="35" transform="rotate(1.45888 229.891 301.959)" fill="#A0A0A0"/>
<g id="feather">
<rect id="Rectangle 85" x="278.764" y="257.237" width="4.63519" height="31.3001" transform="rotate(-6.97194 278.764 257.237)" fill="#0085FF"/>
<rect id="Rectangle 86" x="278.992" y="257.285" width="35.9643" height="4.29965" transform="rotate(-69.7704 278.992 257.285)" fill="#0085FF"/>
<rect id="Rectangle 91" x="303.886" y="219.285" width="2" height="15" transform="rotate(50.2493 303.886 219.285)" fill="#0085FF"/>
<rect id="Rectangle 103" x="297.637" y="245.397" width="2" height="15" transform="rotate(63.3562 297.637 245.397)" fill="#0085FF"/>
<rect id="Rectangle 108" x="297.637" y="245.397" width="2" height="15" transform="rotate(63.3562 297.637 245.397)" fill="#0085FF"/>
<rect id="Rectangle 109" x="289.633" y="257.199" width="2" height="15" transform="rotate(36.312 289.633 257.199)" fill="#0085FF"/>
<rect id="Rectangle 111" x="293.538" y="275.468" width="2" height="15" transform="rotate(36.312 293.538 275.468)" fill="#0085FF"/>
<rect id="Rectangle 112" x="293.458" y="270.996" width="2" height="15" transform="rotate(36.312 293.458 270.996)" fill="#0085FF"/>
<rect id="Rectangle 113" x="292.452" y="264.752" width="2" height="15" transform="rotate(36.312 292.452 264.752)" fill="#0085FF"/>
<rect id="Rectangle 114" x="291.022" y="259.858" width="2" height="15" transform="rotate(36.312 291.022 259.858)" fill="#0085FF"/>
<rect id="Rectangle 110" x="296.408" y="251.681" width="2" height="15" transform="rotate(63.3562 296.408 251.681)" fill="#0085FF"/>
<rect id="Rectangle 104" x="298.384" y="240.376" width="2" height="15" transform="rotate(60.5641 298.384 240.376)" fill="#0085FF"/>
<rect id="Rectangle 105" x="299.971" y="234.871" width="2" height="15" transform="rotate(59.0542 299.971 234.871)" fill="#0085FF"/>
<rect id="Rectangle 106" x="299.152" y="229.658" width="2" height="15" transform="rotate(50.2493 299.152 229.658)" fill="#0085FF"/>
<rect id="Rectangle 107" x="300.421" y="225.609" width="2" height="15" transform="rotate(50.2493 300.421 225.609)" fill="#0085FF"/>
<rect id="Rectangle 92" x="273.349" y="246.527" width="2" height="15" transform="rotate(-20.0019 273.349 246.527)" fill="#0085FF"/>
<rect id="Rectangle 97" x="280.278" y="233.879" width="2" height="15" transform="rotate(-20.0019 280.278 233.879)" fill="#0085FF"/>
<rect id="Rectangle 100" x="287.168" y="218.995" width="2" height="15" transform="rotate(-20.0019 287.168 218.995)" fill="#0085FF"/>
<rect id="Rectangle 101" x="284.086" y="221.734" width="2" height="15" transform="rotate(-20.0019 284.086 221.734)" fill="#0085FF"/>
<rect id="Rectangle 102" x="281.931" y="226.246" width="2" height="15" transform="rotate(-20.0019 281.931 226.246)" fill="#0085FF"/>
<rect id="Rectangle 98" x="277.66" y="237.504" width="2" height="15" transform="rotate(-20.0019 277.66 237.504)" fill="#0085FF"/>
<rect id="Rectangle 99" x="275.504" y="242.016" width="2" height="15" transform="rotate(-20.0019 275.504 242.016)" fill="#0085FF"/>
<rect id="Rectangle 93" x="272.599" y="253.689" width="2" height="15" transform="rotate(-27.5911 272.599 253.689)" fill="#0085FF"/>
<rect id="Rectangle 94" x="274.069" y="260.819" width="2" height="15" transform="rotate(-27.5911 274.069 260.819)" fill="#0085FF"/>
<rect id="Rectangle 95" x="275.538" y="267.949" width="2" height="15" transform="rotate(-27.5911 275.538 267.949)" fill="#0085FF"/>
<rect id="Rectangle 96" x="276.544" y="274.193" width="2" height="15" transform="rotate(-27.5911 276.544 274.193)" fill="#0085FF"/>
</g>
</g>
<defs>
<clipPath id="clip0_1110_534">
<rect width="350" height="350" fill="white"/>
</clipPath>
</defs>
</svg>
