<svg width="350" height="350" viewBox="0 0 350 350" fill="none" xmlns="http://www.w3.org/2000/svg">
<g id="Frame 62">
<rect width="350" height="350" fill="white"/>
<g id="hamster_wrapper">
<g id="hamster_distracted">
<ellipse id="Ellipse 43" cx="176.633" cy="219.479" rx="83.574" ry="117.941" fill="#FFD4AC"/>
<ellipse id="Ellipse 44" cx="177.414" cy="219.479" rx="64.0474" ry="88.2604" fill="#FFEDED"/>
<ellipse id="Ellipse 45" cx="176.633" cy="78.1065" rx="52.3314" ry="53.1125" fill="#FFDDBD"/>
<path id="Polygon 11" d="M114.674 35.5829C109.814 34.4442 105.358 38.6118 106.17 43.5366L111.181 73.937C112.09 79.4555 118.784 81.7315 122.869 77.911L147.857 54.54C151.941 50.7196 150.117 43.8883 144.672 42.6123L114.674 35.5829Z" fill="#FFD4AC"/>
<path id="Polygon 12" d="M235.817 26.5464C240.701 25.5171 245.062 29.7839 244.139 34.6892L238.447 64.9693C237.414 70.4659 230.67 72.5909 226.672 68.6796L202.216 44.7529C198.219 40.8417 200.196 34.0531 205.668 32.8998L235.817 26.5464Z" fill="#FFD4AC"/>
<path id="Polygon 13" d="M179.405 44.6948L167.027 31.0088L190.356 29.8414L179.405 44.6948Z" fill="#FFAFAF"/>
<ellipse id="Ellipse 48" cx="132.893" cy="324.142" rx="27.3373" ry="13.2781" fill="#FFD4AC"/>
<ellipse id="Ellipse 49" cx="220.373" cy="324.142" rx="27.3373" ry="13.2781" fill="#FFD4AC"/>
</g>
</g>
<g id="Group 25">
<g id="Group 24">
<path id="Ellipse 50" d="M259.076 218.941C259.076 284.078 221.658 336.882 175.502 336.882C129.345 336.882 91.9277 284.078 91.9277 218.941C111 105 136 109 175.502 133C233 91 259.076 153.804 259.076 218.941Z" fill="#628B5B"/>
<g id="Ellipse 528">
<path d="M168.928 295.556C160.245 289.664 171.017 275.557 181.56 260.018C192.102 244.479 198.423 233.393 207.106 239.285C215.79 245.176 207.087 260.687 196.544 276.226C186.002 291.765 177.612 301.447 168.928 295.556Z" fill="#A98C53"/>
<path d="M168.928 295.556C160.245 289.664 171.017 275.557 181.56 260.018C192.102 244.479 198.423 233.393 207.106 239.285C215.79 245.176 207.087 260.687 196.544 276.226C186.002 291.765 177.612 301.447 168.928 295.556Z" fill="#A98C53"/>
</g>
<path id="Ellipse 515" d="M233.367 202.915C243.436 213.913 235.995 237.114 223.571 248.489C211.147 259.863 198.443 255.104 188.374 244.105C178.305 233.107 155.505 237.591 167.93 226.216C180.354 214.842 223.297 191.916 233.367 202.915Z" fill="#5EB64F"/>
<g id="Ellipse 526">
<path d="M180.923 228.919C178.81 236.643 166.516 240.009 153.465 236.438C148.129 219.945 131.547 223.71 133.661 215.986C135.774 208.262 148.068 204.895 161.119 208.466C160.668 223.376 183.037 221.194 180.923 228.919Z" fill="#84AE63"/>
<path d="M224.14 291.441C222.027 299.165 209.733 302.532 196.682 298.96C191.346 282.467 174.764 286.232 176.878 278.508C178.992 270.784 191.285 267.417 204.336 270.989C203.885 285.898 226.254 283.717 224.14 291.441Z" fill="#3AA945"/>
</g>
<path id="Ellipse 521" d="M193.928 149.5C175.428 154 182.511 165 168.428 165C165.428 152 142.928 158.06 142.928 149.5C162.428 149.5 154.345 134 168.428 134C172.428 149.5 193.928 140.94 193.928 149.5Z" fill="#2B7042"/>
<path id="Ellipse 522" d="M186.422 291.511C179.243 291.613 154.635 271.462 147.95 258.556C147.757 245.027 107.618 213.127 114.797 213.025C121.976 212.922 167.948 223.236 168.141 236.766C168.334 250.295 193.601 291.408 186.422 291.511Z" fill="#4A8B64"/>
<path id="Ellipse 524" d="M229.384 245.05C223.609 240.784 216.232 209.846 218.729 195.527C226.769 184.644 214.148 134.951 219.922 139.217C225.697 143.483 256.033 179.533 247.992 190.416C239.952 201.299 235.158 249.316 229.384 245.05Z" fill="#69BE4A"/>
<path id="Ellipse 518" d="M143.773 228.377C130.08 241.606 141.749 247.521 129.595 254.635C120.439 244.931 104.082 261.527 99.7579 254.139C116.587 244.289 101.781 234.995 113.936 227.881C125.217 239.238 139.449 220.989 143.773 228.377Z" fill="#70652B"/>
<g id="spot">
<ellipse id="Ellipse 490" cx="207.318" cy="164.936" rx="14" ry="15.5" transform="rotate(53.8793 207.318 164.936)" fill="#947C57"/>
<ellipse id="Ellipse 491" cx="198.869" cy="168.626" rx="12" ry="17.5" transform="rotate(90.2065 198.869 168.626)" fill="#947C57"/>
</g>
<g id="spot_2">
<ellipse id="Ellipse 490_2" cx="238.962" cy="207.168" rx="14" ry="15.5" transform="rotate(102.229 238.962 207.168)" fill="#947C57"/>
<ellipse id="Ellipse 491_2" cx="230.59" cy="203.307" rx="12" ry="17.5" transform="rotate(138.556 230.59 203.307)" fill="#947C57"/>
</g>
<path id="Ellipse 516" d="M128.978 177.108C85.7764 169.495 115.399 145.5 134.438 141.518C144.532 126.676 158.453 118.547 165.532 123.361C172.61 128.175 165.527 138.475 148.942 147.754C187.683 217.034 117.659 215.971 128.978 177.108Z" fill="#69BE4A"/>
<path id="Ellipse 519" d="M169.39 288.485C172.246 299.44 158.792 294.864 144.63 298.557C130.468 302.249 133.54 309.531 130.684 298.576C127.827 287.62 129.903 282.245 144.065 278.552C158.227 274.86 155.846 288.067 169.39 288.485Z" fill="#7AA00D"/>
<g id="Ellipse 520">
<path d="M218.861 303.717C229.295 304.828 230.184 287.1 232.172 268.428C260.928 271.124 232.172 244.329 226.428 234.829C220.928 229.829 212.251 252.452 210.263 271.124C208.275 289.796 208.426 302.606 218.861 303.717Z" fill="#A98C53"/>
<path d="M218.861 303.717C229.295 304.828 230.184 287.1 232.172 268.428C260.928 271.124 232.172 244.329 226.428 234.829C220.928 229.829 212.251 252.452 210.263 271.124C208.275 289.796 208.426 302.606 218.861 303.717Z" fill="#A98C53"/>
</g>
<g id="Ellipse 517">
<path d="M126.491 191.89C126.234 202.38 143.976 201.821 162.748 202.281C162.404 231.162 186.767 200.317 195.767 193.819C200.302 187.929 177.048 181.125 158.276 180.665C139.504 180.205 126.748 181.4 126.491 191.89Z" fill="#A98C53"/>
<path d="M126.491 191.89C126.234 202.38 143.976 201.821 162.748 202.281C162.404 231.162 186.767 200.317 195.767 193.819C200.302 187.929 177.048 181.125 158.276 180.665C139.504 180.205 126.748 181.4 126.491 191.89Z" fill="#A98C53"/>
</g>
<g id="Ellipse 527">
<path d="M138.561 290.585C132.841 299.383 148.241 308.21 163.984 318.444C148.548 342.856 185.466 329.367 196.538 328.553C203.488 325.916 187.254 307.929 171.511 297.694C155.768 287.459 144.28 281.787 138.561 290.585Z" fill="#A98C53"/>
<path d="M138.561 290.585C132.841 299.383 148.241 308.21 163.984 318.444C148.548 342.856 185.466 329.367 196.538 328.553C203.488 325.916 187.254 307.929 171.511 297.694C155.768 287.459 144.28 281.787 138.561 290.585Z" fill="#4A8B64"/>
</g>
<g id="spot_3">
<ellipse id="Ellipse 492" cx="117.916" cy="184.019" rx="17" ry="14.5" transform="rotate(46.045 117.916 184.019)" fill="#6F9462"/>
<rect id="Rectangle 215" x="116.63" y="196.372" width="16" height="13" transform="rotate(46.045 116.63 196.372)" fill="#6F9462"/>
<ellipse id="Ellipse 493" cx="112.503" cy="209.38" rx="9.5" ry="12" transform="rotate(46.045 112.503 209.38)" fill="#6F9462"/>
</g>
<g id="spot_4">
<ellipse id="Ellipse 492_2" cx="196.376" cy="194.646" rx="17" ry="14.5" transform="rotate(-9.75051 196.376 194.646)" fill="#7AA00D"/>
<rect id="Rectangle 215_2" x="205.869" y="202.654" width="16" height="13" transform="rotate(-9.75051 205.869 202.654)" fill="#7AA00D"/>
<ellipse id="Ellipse 493_2" cx="214.307" cy="213.38" rx="9.5" ry="12" transform="rotate(-9.75051 214.307 213.38)" fill="#7AA00D"/>
</g>
<path id="Ellipse 516_2" d="M225.028 139.066C217.856 138.739 218.331 143.266 212.428 129.983C213.044 116.466 212.976 113.992 220.149 114.318C227.321 114.645 239.017 117.649 238.401 131.166C237.786 144.683 232.201 139.392 225.028 139.066Z" fill="#816740"/>
<path id="Ellipse 519_2" d="M125.957 283.066C118.785 282.739 119.259 287.265 113.357 273.983C113.972 260.466 113.905 257.992 121.077 258.318C128.25 258.645 139.945 261.648 139.33 275.165C138.715 288.682 133.129 283.392 125.957 283.066Z" fill="#816740"/>
<ellipse id="Ellipse 517_2" cx="185.574" cy="316.5" rx="17" ry="14.5" transform="rotate(-26.1005 185.574 316.5)" fill="#6F9462"/>
<ellipse id="Ellipse 518_2" cx="135.035" cy="131.208" rx="12" ry="17.5" transform="rotate(36.3272 135.035 131.208)" fill="#947C57"/>
<g id="Ellipse 529">
<path d="M149.558 215.619C140.875 209.728 151.647 195.62 162.19 180.081C172.732 164.542 179.053 153.456 187.736 159.348C196.42 165.239 187.716 180.751 177.174 196.289C166.631 211.828 158.242 221.51 149.558 215.619Z" fill="#A98C53"/>
<path d="M149.558 215.619C140.875 209.728 151.647 195.62 162.19 180.081C172.732 164.542 179.053 153.456 187.736 159.348C196.42 165.239 187.716 180.751 177.174 196.289C166.631 211.828 158.242 221.51 149.558 215.619Z" fill="#A98C53"/>
</g>
<path id="Ellipse 523" d="M194.617 289.646C183.9 300.013 160.503 293.213 148.791 281.106C137.08 268.999 141.488 256.17 152.206 245.802C162.924 235.434 157.815 212.767 169.527 224.874C181.238 236.981 205.335 279.278 194.617 289.646Z" fill="#947C57"/>
<path id="Ellipse 525" d="M195.762 136.482C198.619 147.438 185.165 142.862 171.003 146.555C156.84 150.247 159.913 157.529 157.056 146.574C154.2 135.618 156.275 130.243 170.438 126.55C184.6 122.858 182.219 136.065 195.762 136.482Z" fill="#7AA00D"/>
</g>
</g>
<ellipse id="Ellipse 47" cx="158.669" cy="185.113" rx="12.497" ry="16.4024" fill="#FFD4AC"/>
<ellipse id="Ellipse 46" cx="197.722" cy="185.113" rx="12.497" ry="16.4024" fill="#FFD4AC"/>
</g>
</svg>
