<svg width="350" height="350" viewBox="0 0 350 350" fill="none" xmlns="http://www.w3.org/2000/svg">
<g id="Frame 60">
<rect width="350" height="350" fill="white"/>
<g id="water_bucket">
<path id="Rectangle 216" d="M267.84 272.705H342.915L333.29 337H275.54L267.84 272.705Z" fill="#C4C4C4"/>
<ellipse id="Ellipse 513" cx="305.378" cy="272.705" rx="37.5375" ry="12.705" fill="#E9E9E9"/>
<ellipse id="Ellipse 514" cx="305.378" cy="273.86" rx="35.9975" ry="11.55" fill="#9DC9EA"/>
<g id="handle">
<path id="Ellipse 515" d="M343 272.478C343 260.585 325.975 229.015 301.72 229.015C273.23 239.41 269.38 256.735 266.511 271.795C268.505 282.523 273.23 244.415 299.41 234.02C326.183 229.043 344.994 283.206 343 272.478Z" fill="#D9D9D9"/>
<path id="Rectangle 217" d="M296.716 235.945H310.961V229.015H296.716V235.945Z" fill="#A6A6A6"/>
</g>
</g>
<g id="water_bucket_2">
<path id="Rectangle 216_2" d="M7.84033 272.705H82.9153L73.2903 337H15.5403L7.84033 272.705Z" fill="#C4C4C4"/>
<ellipse id="Ellipse 513_2" cx="45.3778" cy="272.705" rx="37.5375" ry="12.705" fill="#E9E9E9"/>
<ellipse id="Ellipse 514_2" cx="45.3779" cy="273.86" rx="35.9975" ry="11.55" fill="#9DC9EA"/>
<g id="handle_2">
<path id="Ellipse 515_2" d="M82.9998 272.478C82.9998 260.585 65.9755 229.015 41.7205 229.015C13.2305 239.41 9.38045 256.735 6.51085 271.795C8.50502 282.523 13.2305 244.415 39.4105 234.02C66.1831 229.043 84.994 283.206 82.9998 272.478Z" fill="#D9D9D9"/>
<path id="Rectangle 217_2" d="M36.7158 235.945H50.9608V229.015H36.7158V235.945Z" fill="#A6A6A6"/>
</g>
</g>
<path id="Rectangle 281" d="M34 322.891C68.7016 312.017 205.391 327.923 230.043 322.891C254.696 317.859 230.043 340 230.043 340C133.422 334.088 61.1351 325.435 34 340V322.891Z" fill="#614626"/>
</g>
</svg>
