<svg width="350" height="350" viewBox="0 0 350 350" fill="none" xmlns="http://www.w3.org/2000/svg">
<g id="Frame 67" clip-path="url(#clip0_1208_2)">
<rect width="350" height="350" fill="white"/>
<g id="camoflauge">
<path id="Polygon 171" d="M137.41 20.9318C156.031 -2.7247 192.947 1.08498 206.344 28.0457L258 132L278.263 166.499C293.562 192.548 276.394 225.636 246.287 228.124L211.5 231L98.9137 225.465C71.4303 224.113 53.0534 196.609 62.324 170.701L95.7481 77.2933C97.2395 73.1253 99.3961 69.2263 102.134 65.7478L137.41 20.9318Z" fill="#416414"/>
<path id="Ellipse 660" d="M177 143.525C177 173.058 123.611 149.275 130.5 197C104.819 197 84 173.058 84 143.525C84 113.992 121.889 143.525 130.5 105C156.181 105 116.722 165.375 177 143.525Z" fill="#4E7724"/>
<path id="Ellipse 664" d="M172.846 118.955C144.139 112.019 179.795 65.7088 131.787 61.1974C137.818 36.2344 165.979 21.6202 194.686 28.5558C223.394 35.4914 185.788 65.3851 221.214 82.8026C215.183 107.766 165.763 55.2317 172.846 118.955Z" fill="#688150"/>
<path id="Ellipse 670" d="M182.993 174.973C180.446 152.23 194.974 169.148 189.249 132.577C195.251 131.905 202.18 149.797 204.727 172.539C207.274 195.282 195.872 173.531 197.182 203.423C191.18 204.095 195.196 156.57 182.993 174.973Z" fill="#688150"/>
<path id="Ellipse 661" d="M211 44.7079C211 61.1151 199.641 44.7079 178.102 44.7079C156.563 44.7079 133 61.1151 133 44.7079C152.633 27.9453 154.224 33.9201 172 15C193.539 15 211 28.3007 211 44.7079Z" fill="#554316"/>
<path id="Ellipse 669" d="M68 193.482C68 205.898 75.2813 193.482 89.0884 193.482C102.896 193.482 118 205.898 118 193.482C105.415 180.796 104.395 185.318 93 171C79.1929 171 68 181.065 68 193.482Z" fill="#554316"/>
<path id="Ellipse 665" d="M102.307 198.071C101.149 181.705 113.637 197.27 135.123 195.75C156.608 194.231 178.955 176.202 180.112 192.569C161.711 210.675 159.702 204.827 143.305 224.954C121.82 226.473 103.464 214.438 102.307 198.071Z" fill="#25602B"/>
<g id="Ellipse 672">
<path d="M97.4484 84.1516C101.473 76.3189 126.572 81.1897 153.509 95.0308C180.445 108.872 165.969 101.672 161.944 109.504C157.92 117.337 169.156 130.843 142.219 117.002C115.283 103.161 93.4236 91.9842 97.4484 84.1516Z" fill="#27770B"/>
<path d="M97.4484 84.1516C101.473 76.3189 126.572 81.1897 153.509 95.0308C180.445 108.872 165.969 101.672 161.944 109.504C157.92 117.337 169.156 130.843 142.219 117.002C115.283 103.161 93.4236 91.9842 97.4484 84.1516Z" fill="#335A2F"/>
</g>
<path id="Ellipse 662" d="M159.433 107.533C168.656 138.135 203.155 98.1034 204.915 116.997C206.675 135.89 187.651 106.77 163.886 155.326C139.466 157.6 154.496 144.811 152.736 125.917C150.976 107.024 159.419 137.473 159.433 107.533Z" fill="#2E511D"/>
<path id="Ellipse 668" d="M266.618 201.823C246.454 177.024 229.764 227.166 220.953 210.36C212.143 193.554 240.808 213.256 244.331 159.311C266.052 147.924 257.013 165.467 265.823 182.273C274.634 199.079 255.248 174.125 266.618 201.823Z" fill="#438C21"/>
<path id="Ellipse 663" d="M210.993 153.705C223.872 165.4 250.305 158.25 240.798 168.72C231.29 179.19 189.442 203.315 176.563 191.62C163.684 179.924 135.338 191.142 144.846 180.672C154.353 170.202 198.625 186.214 210.993 153.705Z" fill="#41760C"/>
<g id="Ellipse 666">
<path d="M232.254 164.196C208.945 159.464 234.309 91.8215 196.449 124.097C199.984 106.682 154.583 88.7711 209.074 77.6946C232.384 82.4261 248.414 100.379 244.879 117.794C241.344 135.208 249.549 120.805 232.254 164.196Z" fill="#256F24"/>
<path d="M232.254 164.196C208.945 159.464 234.309 91.8215 196.449 124.097C199.984 106.682 154.583 88.7711 209.074 77.6946C232.384 82.4261 248.414 100.379 244.879 117.794C241.344 135.208 249.549 120.805 232.254 164.196Z" fill="#256F24"/>
</g>
<g id="Ellipse 667">
<path d="M174.132 6.86124C187.888 26.2644 123.099 58.2218 172.791 60.6024C158.295 70.8796 179.137 115.012 131.828 85.7923C118.072 66.3892 118.672 42.3285 133.168 32.0512C147.664 21.7739 131.824 26.6598 174.132 6.86124Z" fill="#256F24"/>
<path d="M174.132 6.86124C187.888 26.2644 123.099 58.2218 172.791 60.6024C158.295 70.8796 179.137 115.012 131.828 85.7923C118.072 66.3892 118.672 42.3285 133.168 32.0512C147.664 21.7739 131.824 26.6598 174.132 6.86124Z" fill="#4D4320"/>
</g>
<g id="Ellipse 671">
<path d="M160.506 191.406C183.154 184.14 182.158 218.355 205.961 192.111C208.417 199.766 255.354 188.756 209.601 213.744C186.954 221.01 166.603 220.694 164.147 213.039C161.691 205.383 158.94 213.748 160.506 191.406Z" fill="#256F24"/>
<path d="M160.506 191.406C183.154 184.14 182.158 218.355 205.961 192.111C208.417 199.766 255.354 188.756 209.601 213.744C186.954 221.01 166.603 220.694 164.147 213.039C161.691 205.383 158.94 213.748 160.506 191.406Z" fill="#5F501C"/>
</g>
<g id="zipper">
<rect id="Rectangle 287" x="254.308" y="164.283" width="5.27778" height="3.33333" transform="rotate(-25.7119 254.308 164.283)" fill="#8F8F8F"/>
<rect id="Rectangle 288" x="256.115" y="159.714" width="5.27778" height="3.33333" transform="rotate(-25.7119 256.115 159.714)" fill="#8F8F8F"/>
<rect id="Rectangle 290" x="253.223" y="153.707" width="5.27778" height="3.33333" transform="rotate(-25.7119 253.223 153.707)" fill="#8F8F8F"/>
<rect id="Rectangle 293" x="250.33" y="147.7" width="5.27778" height="3.33333" transform="rotate(-25.7119 250.33 147.7)" fill="#8F8F8F"/>
<rect id="Rectangle 295" x="247.438" y="141.694" width="5.27778" height="3.33333" transform="rotate(-25.7119 247.438 141.694)" fill="#8F8F8F"/>
<rect id="Rectangle 297" x="244.546" y="135.687" width="5.27778" height="3.33333" transform="rotate(-25.7119 244.546 135.687)" fill="#8F8F8F"/>
<rect id="Rectangle 299" x="241.653" y="129.681" width="5.27778" height="3.33333" transform="rotate(-25.7119 241.653 129.681)" fill="#8F8F8F"/>
<rect id="Rectangle 300" x="238.761" y="123.674" width="5.27778" height="3.33333" transform="rotate(-25.7119 238.761 123.674)" fill="#8F8F8F"/>
<rect id="Rectangle 301" x="235.869" y="117.667" width="5.27778" height="3.33333" transform="rotate(-25.7119 235.869 117.667)" fill="#8F8F8F"/>
<rect id="Rectangle 302" x="232.977" y="111.661" width="5.27778" height="3.33333" transform="rotate(-25.7119 232.977 111.661)" fill="#8F8F8F"/>
<rect id="Rectangle 289" x="251.415" y="158.277" width="5.27778" height="3.33333" transform="rotate(-25.7119 251.415 158.277)" fill="#8F8F8F"/>
<rect id="Rectangle 292" x="248.523" y="152.27" width="5.27778" height="3.33333" transform="rotate(-25.7119 248.523 152.27)" fill="#8F8F8F"/>
<rect id="Rectangle 294" x="245.631" y="146.264" width="5.27778" height="3.33333" transform="rotate(-25.7119 245.631 146.264)" fill="#8F8F8F"/>
<rect id="Rectangle 296" x="242.738" y="140.257" width="5.27778" height="3.33333" transform="rotate(-25.7119 242.738 140.257)" fill="#8F8F8F"/>
<rect id="Rectangle 303" x="236.954" y="128.244" width="5.27778" height="3.33333" transform="rotate(-25.7119 236.954 128.244)" fill="#8F8F8F"/>
<rect id="Rectangle 304" x="234.062" y="122.237" width="5.27778" height="3.33333" transform="rotate(-25.7119 234.062 122.237)" fill="#8F8F8F"/>
<rect id="Rectangle 305" x="231.169" y="116.231" width="5.27778" height="3.33333" transform="rotate(-25.7119 231.169 116.231)" fill="#8F8F8F"/>
<rect id="Rectangle 306" x="228.277" y="110.224" width="5.27778" height="3.33333" transform="rotate(-25.7119 228.277 110.224)" fill="#8F8F8F"/>
<rect id="Rectangle 298" x="239.846" y="134.251" width="5.27778" height="3.33333" transform="rotate(-25.7119 239.846 134.251)" fill="#8F8F8F"/>
<rect id="Rectangle 345" x="270.81" y="189.307" width="5.27778" height="3.33333" transform="rotate(-25.7119 270.81 189.307)" fill="#8F8F8F"/>
<rect id="Rectangle 359" x="272" y="192.29" width="5.27778" height="3.33333" transform="rotate(-25.7119 272 192.29)" fill="#8F8F8F"/>
<rect id="Rectangle 346" x="267.917" y="183.3" width="5.27778" height="3.33333" transform="rotate(-25.7119 267.917 183.3)" fill="#8F8F8F"/>
<rect id="Rectangle 347" x="265.024" y="177.294" width="5.27778" height="3.33333" transform="rotate(-25.7119 265.024 177.294)" fill="#8F8F8F"/>
<rect id="Rectangle 348" x="262.132" y="171.287" width="5.27778" height="3.33333" transform="rotate(-25.7119 262.132 171.287)" fill="#8F8F8F"/>
<rect id="Rectangle 349" x="259.24" y="165.28" width="5.27778" height="3.33333" transform="rotate(-25.7119 259.24 165.28)" fill="#8F8F8F"/>
<rect id="Rectangle 353" x="269.002" y="193.877" width="5.27778" height="3.33333" transform="rotate(-25.7119 269.002 193.877)" fill="#8F8F8F"/>
<rect id="Rectangle 354" x="263.217" y="181.864" width="5.27778" height="3.33333" transform="rotate(-25.7119 263.217 181.864)" fill="#8F8F8F"/>
<rect id="Rectangle 355" x="260.325" y="175.857" width="5.27778" height="3.33333" transform="rotate(-25.7119 260.325 175.857)" fill="#8F8F8F"/>
<rect id="Rectangle 356" x="257.433" y="169.851" width="5.27778" height="3.33333" transform="rotate(-25.7119 257.433 169.851)" fill="#8F8F8F"/>
<rect id="Rectangle 358" x="266.109" y="187.87" width="5.27778" height="3.33333" transform="rotate(-25.7119 266.109 187.87)" fill="#8F8F8F"/>
<rect id="Rectangle 307" x="230.084" y="105.654" width="5.27778" height="3.33333" transform="rotate(-25.7119 230.084 105.654)" fill="#8F8F8F"/>
<rect id="Rectangle 308" x="227.192" y="99.6477" width="5.27778" height="3.33333" transform="rotate(-25.7119 227.192 99.6477)" fill="#8F8F8F"/>
<rect id="Rectangle 309" x="224.3" y="93.6411" width="5.27778" height="3.33333" transform="rotate(-25.7119 224.3 93.6411)" fill="#8F8F8F"/>
<rect id="Rectangle 310" x="221.407" y="87.6346" width="5.27778" height="3.33333" transform="rotate(-25.7119 221.407 87.6346)" fill="#8F8F8F"/>
<rect id="Rectangle 311" x="218.515" y="81.628" width="5.27778" height="3.33333" transform="rotate(-25.7119 218.515 81.628)" fill="#8F8F8F"/>
<rect id="Rectangle 312" x="215.623" y="75.6214" width="5.27778" height="3.33333" transform="rotate(-25.7119 215.623 75.6214)" fill="#8F8F8F"/>
<rect id="Rectangle 313" x="212.73" y="69.6148" width="5.27778" height="3.33333" transform="rotate(-25.7119 212.73 69.6148)" fill="#8F8F8F"/>
<rect id="Rectangle 314" x="209.838" y="63.6082" width="5.27778" height="3.33333" transform="rotate(-25.7119 209.838 63.6082)" fill="#8F8F8F"/>
<rect id="Rectangle 315" x="225.385" y="104.218" width="5.27778" height="3.33333" transform="rotate(-25.7119 225.385 104.218)" fill="#8F8F8F"/>
<rect id="Rectangle 316" x="222.492" y="98.2111" width="5.27778" height="3.33333" transform="rotate(-25.7119 222.492 98.2111)" fill="#8F8F8F"/>
<rect id="Rectangle 317" x="219.6" y="92.2045" width="5.27778" height="3.33333" transform="rotate(-25.7119 219.6 92.2045)" fill="#8F8F8F"/>
<rect id="Rectangle 318" x="213.815" y="80.1913" width="5.27778" height="3.33333" transform="rotate(-25.7119 213.815 80.1913)" fill="#8F8F8F"/>
<rect id="Rectangle 319" x="210.923" y="74.1848" width="5.27778" height="3.33333" transform="rotate(-25.7119 210.923 74.1848)" fill="#8F8F8F"/>
<rect id="Rectangle 320" x="208.03" y="68.1782" width="5.27778" height="3.33333" transform="rotate(-25.7119 208.03 68.1782)" fill="#8F8F8F"/>
<rect id="Rectangle 321" x="205.139" y="62.1716" width="5.27778" height="3.33333" transform="rotate(-25.7119 205.139 62.1716)" fill="#8F8F8F"/>
<rect id="Rectangle 322" x="216.708" y="86.1979" width="5.27778" height="3.33333" transform="rotate(-25.7119 216.708 86.1979)" fill="#8F8F8F"/>
<rect id="Rectangle 323" x="206.946" y="57.6016" width="5.27778" height="3.33333" transform="rotate(-25.7119 206.946 57.6016)" fill="#8F8F8F"/>
<rect id="Rectangle 324" x="204.054" y="51.5951" width="5.27778" height="3.33333" transform="rotate(-25.7119 204.054 51.5951)" fill="#8F8F8F"/>
<rect id="Rectangle 325" x="201.161" y="45.5885" width="5.27778" height="3.33333" transform="rotate(-25.7119 201.161 45.5885)" fill="#8F8F8F"/>
<rect id="Rectangle 326" x="198.269" y="39.5819" width="5.27778" height="3.33333" transform="rotate(-25.7119 198.269 39.5819)" fill="#8F8F8F"/>
<rect id="Rectangle 327" x="195.377" y="33.5753" width="5.27778" height="3.33333" transform="rotate(-25.7119 195.377 33.5753)" fill="#8F8F8F"/>
<rect id="Rectangle 328" x="192.484" y="27.5687" width="5.27778" height="3.33333" transform="rotate(-25.7119 192.484 27.5687)" fill="#8F8F8F"/>
<rect id="Rectangle 329" x="189.592" y="21.5621" width="5.27778" height="3.33333" transform="rotate(-25.7119 189.592 21.5621)" fill="#8F8F8F"/>
<rect id="Rectangle 330" x="186.699" y="15.5556" width="5.27778" height="3.33333" transform="rotate(-25.7119 186.699 15.5556)" fill="#8F8F8F"/>
<rect id="Rectangle 331" x="202.246" y="56.165" width="5.27778" height="3.33333" transform="rotate(-25.7119 202.246 56.165)" fill="#8F8F8F"/>
<rect id="Rectangle 332" x="199.354" y="50.1584" width="5.27778" height="3.33333" transform="rotate(-25.7119 199.354 50.1584)" fill="#8F8F8F"/>
<rect id="Rectangle 333" x="196.462" y="44.1519" width="5.27778" height="3.33333" transform="rotate(-25.7119 196.462 44.1519)" fill="#8F8F8F"/>
<rect id="Rectangle 334" x="190.677" y="32.1387" width="5.27778" height="3.33333" transform="rotate(-25.7119 190.677 32.1387)" fill="#8F8F8F"/>
<rect id="Rectangle 335" x="187.784" y="26.1321" width="5.27778" height="3.33333" transform="rotate(-25.7119 187.784 26.1321)" fill="#8F8F8F"/>
<rect id="Rectangle 336" x="184.893" y="20.1255" width="5.27778" height="3.33333" transform="rotate(-25.7119 184.893 20.1255)" fill="#8F8F8F"/>
<rect id="Rectangle 337" x="182" y="14.119" width="5.27778" height="3.33333" transform="rotate(-25.7119 182 14.119)" fill="#8F8F8F"/>
<rect id="Rectangle 339" x="185.254" y="12.5523" width="5.27778" height="3.33333" transform="rotate(-25.7119 185.254 12.5523)" fill="#8F8F8F"/>
<rect id="Rectangle 338" x="193.569" y="38.1453" width="5.27778" height="3.33333" transform="rotate(-25.7119 193.569 38.1453)" fill="#8F8F8F"/>
<path id="Ellipse 673" d="M196.962 19.2433C204.234 21.2889 204.361 23.8899 202.533 26.3278C200.706 28.7657 197.748 29.7183 194.011 23.1788C189.606 19.8758 185.761 17.5622 187.589 15.1244C189.416 12.6865 192.556 15.9404 196.962 19.2433Z" fill="#8F8F8F"/>
<ellipse id="Ellipse 674" cx="199.001" cy="23.8143" rx="2.22222" ry="2.5" transform="rotate(-25.7119 199.001 23.8143)" fill="#416414"/>
</g>
<path id="Ellipse 660_2" d="M123.184 68.5004C140.444 63.9271 142.734 81.4639 146.437 95.4403C150.141 109.417 136.544 96.2563 119.285 100.83C102.026 105.403 102.343 116.064 98.6394 102.088C113.897 90.8222 105.925 73.0738 123.184 68.5004Z" fill="#1A521C"/>
<path id="Ellipse 659" d="M257 207.329C257 225.184 239.462 222.906 225.003 222.906C210.544 222.906 226.748 213.134 226.748 195.279C226.748 177.424 216.362 175 230.82 175C237.802 192.634 257 189.474 257 207.329Z" fill="#274E29"/>
</g>
</g>
<defs>
<clipPath id="clip0_1208_2">
<rect width="350" height="350" fill="white"/>
</clipPath>
</defs>
</svg>
