<svg width="350" height="350" viewBox="0 0 350 350" fill="none" xmlns="http://www.w3.org/2000/svg">
<g id="Frame 70" clip-path="url(#clip0_1215_353)">
<rect width="350" height="350" fill="white"/>
<g id="camoflauge">
<path id="Polygon 171" d="M105.334 23.2387C108.569 11.4736 122.527 6.5192 132.456 13.6113L139.095 18.3536C143.58 21.5575 149.765 20.8353 153.392 16.6843V16.6843C158.323 11.0393 167.379 12.0733 170.911 18.6849L215.269 101.713C216.917 104.798 218.162 108.084 218.972 111.487V111.487C223.144 129.006 215.336 147.188 199.759 156.226L156.178 181.514C146.274 187.261 134.418 188.604 123.479 185.219L110.169 181.099C94.328 176.197 82.9998 162.234 81.4667 145.723L72.6698 50.9818C71.8371 42.0141 79.8773 34.7754 88.7086 36.5417V36.5417C95.6334 37.9267 102.451 33.7232 104.323 26.914L105.334 23.2387Z" fill="#416414"/>
<path id="Ellipse 660" d="M153.416 98.5422C174.801 110.457 136.041 139.522 173.378 153.787C163.018 172.383 137.282 177.8 115.897 165.885C94.511 153.97 131.182 138.449 106.76 116.672C117.12 98.0753 144.92 151.005 153.416 98.5422Z" fill="#4E7724"/>
<path id="Ellipse 664" d="M157.713 98.2532C141.109 116.243 121.959 71.7405 99.3247 104.684C83.6816 90.246 84.4603 63.9583 101.064 45.9687C117.668 27.9791 124.143 67.2698 151.047 48.6443C166.69 63.0823 108.712 77.6745 157.713 98.2532Z" fill="#688150"/>
<path id="Ellipse 670" d="M162.131 119.698C144.636 112.367 162.747 108.673 133.955 98.0642C135.89 93.4471 151.642 95.6472 169.137 102.978C186.633 110.309 166.283 109.79 188.457 120.901C186.522 125.519 153.728 103.437 162.131 119.698Z" fill="#688150"/>
<path id="Ellipse 661" d="M149.759 30.8982C155.98 42.9923 141.386 35.205 125.509 43.3717C109.633 51.5384 98.4849 72.5666 92.264 60.4725C100.38 40.6726 103.819 44.4732 109.748 23.7871C125.624 15.6204 143.538 18.8041 149.759 30.8982Z" fill="#554316"/>
<path id="Ellipse 669" d="M101.637 156.175C105.303 165.792 107.277 154.026 117.971 149.949C128.666 145.873 144.031 151.03 140.365 141.413C126.872 135.304 127.417 139.107 114.364 131.381C103.669 135.457 97.9715 146.558 101.637 156.175Z" fill="#554316"/>
<path id="Ellipse 665" d="M162.291 159.973C149.973 154.209 166.282 151.445 173.85 135.274C181.417 119.103 177.378 95.6483 189.696 101.413C195.383 122.042 190.338 121.138 198.298 141.131C190.73 157.302 174.61 165.738 162.291 159.973Z" fill="#25602B"/>
<g id="Ellipse 672">
<path d="M80.1999 132.292C76.1518 126.218 89.8046 110.008 110.694 96.0866C131.584 82.1653 120.53 89.7429 124.578 95.8172C128.626 101.892 142.939 99.204 122.049 113.125C101.16 127.047 84.2479 138.366 80.1999 132.292Z" fill="#27770B"/>
<path d="M80.1999 132.292C76.1518 126.218 89.8046 110.008 110.694 96.0866C131.584 82.1653 120.53 89.7429 124.578 95.8172C128.626 101.892 142.939 99.204 122.049 113.125C101.16 127.047 84.2479 138.366 80.1999 132.292Z" fill="#335A2F"/>
</g>
<path id="Ellipse 662" d="M129.345 86.1544C155.226 91.8225 140.156 50.6911 154.547 57.0388C168.938 63.3865 140.177 65.4138 165.749 102.212C157.545 120.812 154.347 104.769 139.956 98.4211C125.565 92.0734 151.02 98.2437 129.345 86.1544Z" fill="#2E511D"/>
<path id="Ellipse 668" d="M199.362 85.3212C173.269 89.9176 202.845 122.232 187.121 121.832C171.397 121.432 197.228 108.623 159.586 84.3092C160.104 63.9862 169.16 77.6092 184.884 78.0093C200.608 78.4094 174.718 82.3797 199.362 85.3212Z" fill="#438C21"/>
<path id="Ellipse 663" d="M158.026 90.8425C171.691 86.2347 177.178 64.2096 180.924 75.318C184.67 86.4265 185.256 126.462 171.591 131.07C157.927 135.678 154.614 160.729 150.868 149.62C147.123 138.512 176.578 112.914 158.026 90.8425Z" fill="#41760C"/>
<g id="Ellipse 666">
<path d="M194.519 74.6549C178.052 85.497 153.427 30.9122 150.037 72.0109C141.937 59.7085 104.782 75.7152 130.338 37.3566C146.805 26.5145 166.72 27.6983 174.82 40.0007C182.92 52.3031 179.325 39.0414 194.519 74.6549Z" fill="#256F24"/>
<path d="M194.519 74.6549C178.052 85.497 153.427 30.9122 150.037 72.0109C141.937 59.7085 104.782 75.7152 130.338 37.3566C146.805 26.5145 166.72 27.6983 174.82 40.0007C182.92 52.3031 179.325 39.0414 194.519 74.6549Z" fill="#256F24"/>
</g>
<g id="Ellipse 667">
<path d="M98.0475 49.1392C116.914 54.8636 90.7012 108.704 124.464 85.0256C120.187 99.1207 156.255 117.446 110.422 122.332C91.556 116.608 79.729 100.541 84.0059 86.4459C88.2827 72.3508 80.3874 83.5965 98.0475 49.1392Z" fill="#256F24"/>
<path d="M98.0475 49.1392C116.914 54.8636 90.7012 108.704 124.464 85.0256C120.187 99.1207 156.255 117.446 110.422 122.332C91.556 116.608 79.729 100.541 84.0059 86.4459C88.2827 72.3508 80.3874 83.5965 98.0475 49.1392Z" fill="#4D4320"/>
</g>
<g id="Ellipse 671">
<path d="M190.658 137.213C184.796 118.389 213.149 119.457 191.564 99.5416C197.927 97.5599 189.132 58.5768 209.521 96.6768C215.383 115.5 214.978 132.367 208.615 134.348C202.252 136.33 209.167 138.67 190.658 137.213Z" fill="#256F24"/>
<path d="M190.658 137.213C184.796 118.389 213.149 119.457 191.564 99.5416C197.927 97.5599 189.132 58.5768 209.521 96.6768C215.383 115.5 214.978 132.367 208.615 134.348C202.252 136.33 209.167 138.67 190.658 137.213Z" fill="#5F501C"/>
</g>
<path id="Ellipse 660_2" d="M93.1504 113.909C96.8017 99.566 110.424 104.983 122.039 107.939C133.654 110.896 118.639 115.432 114.988 129.775C111.336 144.118 119.184 148.189 107.569 145.232C105.567 129.639 89.4991 128.251 93.1504 113.909Z" fill="#1A521C"/>
<path id="Ellipse 659" d="M171.736 119.77C168.067 134.108 154.451 128.675 142.84 125.704C131.229 122.733 146.249 118.215 149.918 103.877C153.587 89.5389 145.744 85.4578 157.355 88.4289C159.338 104.024 175.405 105.432 171.736 119.77Z" fill="#274E29"/>
<g id="zipper">
<rect id="Rectangle 287" x="199.475" y="117.053" width="3.45318" height="2.18096" transform="rotate(-23.2193 199.475 117.053)" fill="#8F8F8F"/>
<rect id="Rectangle 288" x="200.786" y="114.117" width="3.45318" height="2.18096" transform="rotate(-23.2193 200.786 114.117)" fill="#8F8F8F"/>
<rect id="Rectangle 290" x="199.066" y="110.108" width="3.45318" height="2.18096" transform="rotate(-23.2193 199.066 110.108)" fill="#8F8F8F"/>
<rect id="Rectangle 293" x="197.346" y="106.1" width="3.45318" height="2.18096" transform="rotate(-23.2193 197.346 106.1)" fill="#8F8F8F"/>
<rect id="Rectangle 295" x="195.627" y="102.091" width="3.45318" height="2.18096" transform="rotate(-23.2193 195.627 102.091)" fill="#8F8F8F"/>
<rect id="Rectangle 297" x="193.908" y="98.0822" width="3.45318" height="2.18096" transform="rotate(-23.2193 193.908 98.0822)" fill="#8F8F8F"/>
<rect id="Rectangle 299" x="192.188" y="94.0745" width="3.45318" height="2.18096" transform="rotate(-23.2193 192.188 94.0745)" fill="#8F8F8F"/>
<rect id="Rectangle 300" x="190.468" y="90.0654" width="3.45318" height="2.18096" transform="rotate(-23.2193 190.468 90.0654)" fill="#8F8F8F"/>
<rect id="Rectangle 301" x="188.749" y="86.0573" width="3.45318" height="2.18096" transform="rotate(-23.2193 188.749 86.0573)" fill="#8F8F8F"/>
<rect id="Rectangle 302" x="187.028" y="82.0481" width="3.45318" height="2.18096" transform="rotate(-23.2193 187.028 82.0481)" fill="#8F8F8F"/>
<rect id="Rectangle 289" x="197.755" y="113.044" width="3.45318" height="2.18096" transform="rotate(-23.2193 197.755 113.044)" fill="#8F8F8F"/>
<rect id="Rectangle 292" x="196.035" y="109.036" width="3.45318" height="2.18096" transform="rotate(-23.2193 196.035 109.036)" fill="#8F8F8F"/>
<rect id="Rectangle 294" x="194.315" y="105.027" width="3.45318" height="2.18096" transform="rotate(-23.2193 194.315 105.027)" fill="#8F8F8F"/>
<rect id="Rectangle 296" x="192.597" y="101.019" width="3.45318" height="2.18096" transform="rotate(-23.2193 192.597 101.019)" fill="#8F8F8F"/>
<rect id="Rectangle 303" x="189.156" y="93.0012" width="3.45318" height="2.18096" transform="rotate(-23.2193 189.156 93.0012)" fill="#8F8F8F"/>
<rect id="Rectangle 304" x="187.437" y="88.9928" width="3.45318" height="2.18096" transform="rotate(-23.2193 187.437 88.9928)" fill="#8F8F8F"/>
<rect id="Rectangle 305" x="185.716" y="84.9844" width="3.45318" height="2.18096" transform="rotate(-23.2193 185.716 84.9844)" fill="#8F8F8F"/>
<rect id="Rectangle 306" x="183.998" y="80.9755" width="3.45318" height="2.18096" transform="rotate(-23.2193 183.998 80.9755)" fill="#8F8F8F"/>
<rect id="Rectangle 298" x="190.876" y="97.0101" width="3.45318" height="2.18096" transform="rotate(-23.2193 190.876 97.0101)" fill="#8F8F8F"/>
<rect id="Rectangle 345" x="209.55" y="133.88" width="3.45318" height="2.18096" transform="rotate(-23.2193 209.55 133.88)" fill="#8F8F8F"/>
<rect id="Rectangle 359" x="210.242" y="135.863" width="3.45318" height="2.18096" transform="rotate(-23.2193 210.242 135.863)" fill="#8F8F8F"/>
<rect id="Rectangle 346" x="207.829" y="129.871" width="3.45318" height="2.18096" transform="rotate(-23.2193 207.829 129.871)" fill="#8F8F8F"/>
<rect id="Rectangle 347" x="206.109" y="125.862" width="3.45318" height="2.18096" transform="rotate(-23.2193 206.109 125.862)" fill="#8F8F8F"/>
<rect id="Rectangle 348" x="204.39" y="121.853" width="3.45318" height="2.18096" transform="rotate(-23.2193 204.39 121.853)" fill="#8F8F8F"/>
<rect id="Rectangle 349" x="202.671" y="117.845" width="3.45318" height="2.18096" transform="rotate(-23.2193 202.671 117.845)" fill="#8F8F8F"/>
<rect id="Rectangle 353" x="208.238" y="136.815" width="3.45318" height="2.18096" transform="rotate(-23.2193 208.238 136.815)" fill="#8F8F8F"/>
<rect id="Rectangle 354" x="204.799" y="128.798" width="3.45318" height="2.18096" transform="rotate(-23.2193 204.799 128.798)" fill="#8F8F8F"/>
<rect id="Rectangle 355" x="203.078" y="124.79" width="3.45318" height="2.18096" transform="rotate(-23.2193 203.078 124.79)" fill="#8F8F8F"/>
<rect id="Rectangle 356" x="201.358" y="120.781" width="3.45318" height="2.18096" transform="rotate(-23.2193 201.358 120.781)" fill="#8F8F8F"/>
<rect id="Rectangle 358" x="206.519" y="132.806" width="3.45318" height="2.18096" transform="rotate(-23.2193 206.519 132.806)" fill="#8F8F8F"/>
<rect id="Rectangle 307" x="185.31" y="78.0392" width="3.45318" height="2.18096" transform="rotate(-23.2193 185.31 78.0392)" fill="#8F8F8F"/>
<rect id="Rectangle 308" x="183.589" y="74.0315" width="3.45318" height="2.18096" transform="rotate(-23.2193 183.589 74.0315)" fill="#8F8F8F"/>
<rect id="Rectangle 309" x="181.869" y="70.0231" width="3.45318" height="2.18096" transform="rotate(-23.2193 181.869 70.0231)" fill="#8F8F8F"/>
<rect id="Rectangle 310" x="180.15" y="66.0142" width="3.45318" height="2.18096" transform="rotate(-23.2193 180.15 66.0142)" fill="#8F8F8F"/>
<rect id="Rectangle 311" x="178.431" y="62.0051" width="3.45318" height="2.18096" transform="rotate(-23.2193 178.431 62.0051)" fill="#8F8F8F"/>
<rect id="Rectangle 312" x="176.71" y="57.9966" width="3.45318" height="2.18096" transform="rotate(-23.2193 176.71 57.9966)" fill="#8F8F8F"/>
<rect id="Rectangle 313" x="174.99" y="53.9885" width="3.45318" height="2.18096" transform="rotate(-23.2193 174.99 53.9885)" fill="#8F8F8F"/>
<rect id="Rectangle 314" x="173.271" y="49.98" width="3.45318" height="2.18096" transform="rotate(-23.2193 173.271 49.98)" fill="#8F8F8F"/>
<rect id="Rectangle 315" x="182.277" y="76.967" width="3.45318" height="2.18096" transform="rotate(-23.2193 182.277 76.967)" fill="#8F8F8F"/>
<rect id="Rectangle 316" x="180.559" y="72.9582" width="3.45318" height="2.18096" transform="rotate(-23.2193 180.559 72.9582)" fill="#8F8F8F"/>
<rect id="Rectangle 317" x="178.838" y="68.9498" width="3.45318" height="2.18096" transform="rotate(-23.2193 178.838 68.9498)" fill="#8F8F8F"/>
<rect id="Rectangle 318" x="175.399" y="60.9324" width="3.45318" height="2.18096" transform="rotate(-23.2193 175.399 60.9324)" fill="#8F8F8F"/>
<rect id="Rectangle 319" x="173.679" y="56.9241" width="3.45318" height="2.18096" transform="rotate(-23.2193 173.679 56.9241)" fill="#8F8F8F"/>
<rect id="Rectangle 320" x="171.96" y="52.9152" width="3.45318" height="2.18096" transform="rotate(-23.2193 171.96 52.9152)" fill="#8F8F8F"/>
<rect id="Rectangle 321" x="170.24" y="48.9067" width="3.45318" height="2.18096" transform="rotate(-23.2193 170.24 48.9067)" fill="#8F8F8F"/>
<rect id="Rectangle 322" x="177.118" y="64.9413" width="3.45318" height="2.18096" transform="rotate(-23.2193 177.118 64.9413)" fill="#8F8F8F"/>
<rect id="Rectangle 323" x="171.552" y="45.9711" width="3.45318" height="2.18096" transform="rotate(-23.2193 171.552 45.9711)" fill="#8F8F8F"/>
<rect id="Rectangle 324" x="169.832" y="41.962" width="3.45318" height="2.18096" transform="rotate(-23.2193 169.832 41.962)" fill="#8F8F8F"/>
<rect id="Rectangle 325" x="168.111" y="37.9537" width="3.45318" height="2.18096" transform="rotate(-23.2193 168.111 37.9537)" fill="#8F8F8F"/>
<rect id="Rectangle 326" x="166.393" y="33.9454" width="3.45318" height="2.18096" transform="rotate(-23.2193 166.393 33.9454)" fill="#8F8F8F"/>
<rect id="Rectangle 327" x="164.672" y="29.937" width="3.45318" height="2.18096" transform="rotate(-23.2193 164.672 29.937)" fill="#8F8F8F"/>
<rect id="Rectangle 328" x="162.953" y="25.9281" width="3.45318" height="2.18096" transform="rotate(-23.2193 162.953 25.9281)" fill="#8F8F8F"/>
<rect id="Rectangle 329" x="161.233" y="21.9189" width="3.45318" height="2.18096" transform="rotate(-23.2193 161.233 21.9189)" fill="#8F8F8F"/>
<rect id="Rectangle 330" x="159.513" y="17.9106" width="3.45318" height="2.18096" transform="rotate(-23.2193 159.513 17.9106)" fill="#8F8F8F"/>
<rect id="Rectangle 331" x="168.521" y="44.8983" width="3.45318" height="2.18096" transform="rotate(-23.2193 168.521 44.8983)" fill="#8F8F8F"/>
<rect id="Rectangle 332" x="166.801" y="40.8894" width="3.45318" height="2.18096" transform="rotate(-23.2193 166.801 40.8894)" fill="#8F8F8F"/>
<rect id="Rectangle 333" x="165.08" y="36.881" width="3.45318" height="2.18096" transform="rotate(-23.2193 165.08 36.881)" fill="#8F8F8F"/>
<rect id="Rectangle 334" x="161.642" y="28.8636" width="3.45318" height="2.18096" transform="rotate(-23.2193 161.642 28.8636)" fill="#8F8F8F"/>
<rect id="Rectangle 335" x="159.922" y="24.8553" width="3.45318" height="2.18096" transform="rotate(-23.2193 159.922 24.8553)" fill="#8F8F8F"/>
<rect id="Rectangle 336" x="158.202" y="20.8464" width="3.45318" height="2.18096" transform="rotate(-23.2193 158.202 20.8464)" fill="#8F8F8F"/>
<rect id="Rectangle 337" x="156.481" y="16.838" width="3.45318" height="2.18096" transform="rotate(-23.2193 156.481 16.838)" fill="#8F8F8F"/>
<rect id="Rectangle 339" x="158.653" y="15.9061" width="3.45318" height="2.18096" transform="rotate(-23.2193 158.653 15.9061)" fill="#8F8F8F"/>
<rect id="Rectangle 338" x="163.36" y="32.8719" width="3.45318" height="2.18096" transform="rotate(-23.2193 163.36 32.8719)" fill="#8F8F8F"/>
<path id="Subtract" fill-rule="evenodd" clip-rule="evenodd" d="M169.558 25.4021C170.822 23.8605 170.813 22.1567 166.117 20.6127C165.647 20.2272 165.201 19.8436 164.777 19.4797C162.69 17.6873 161.159 16.3721 160.108 17.6535C158.994 19.0122 160.763 20.4331 163.105 22.3151C163.421 22.5685 163.746 22.8302 164.077 23.1012C166.334 27.4822 168.294 26.9437 169.558 25.4021ZM167.965 25.1619C168.703 24.8454 169.012 23.9157 168.656 23.0855C168.3 22.2553 167.413 21.8389 166.675 22.1555C165.937 22.4721 165.628 23.4017 165.984 24.2319C166.34 25.0622 167.227 25.4785 167.965 25.1619Z" fill="#8F8F8F"/>
</g>
</g>
</g>
<defs>
<clipPath id="clip0_1215_353">
<rect width="350" height="350" fill="white"/>
</clipPath>
</defs>
</svg>
