<svg width="350" height="350" viewBox="0 0 350 350" fill="none" xmlns="http://www.w3.org/2000/svg">
<g id="Frame 68">
<rect width="350" height="350" fill="white"/>
<g id="camoflauge">
<path id="Polygon 171" d="M165.35 53.2367C179.211 32.557 209.827 33.1745 222.843 54.3962L230.005 66.0733C233.968 72.5361 239.815 77.6314 246.758 80.6752V80.6752C266.76 89.4429 274.92 113.489 264.386 132.62L237.686 181.106C236.626 183.032 235.412 184.87 234.057 186.601L218.006 207.107C209.293 218.238 195.461 224.096 181.403 222.607L148.976 219.174C131.143 217.286 116.606 204.027 113.089 186.443L95.3758 97.8784C91.321 77.6044 111.276 60.8593 130.538 68.3727V68.3727C141.964 72.8292 154.951 68.7518 161.779 58.5648L165.35 53.2367Z" fill="#416414"/>
<path id="Ellipse 660" d="M214.154 154.739C216.492 183.671 162.309 164.599 172.836 210.806C147.678 212.839 125.388 191.034 123.05 162.103C120.712 133.171 160.166 159.103 165.552 120.682C190.709 118.648 156.835 180.916 214.154 154.739Z" fill="#4E7724"/>
<path id="Ellipse 664" d="M199.914 148.472C171.243 143.95 202.505 95.761 155.119 95.1425C159.05 70.211 185.48 53.6652 214.151 58.1865C242.823 62.7078 208.351 94.9693 244.433 109.227C240.502 134.158 187.93 86.6084 199.914 148.472Z" fill="#688150"/>
<path id="Ellipse 670" d="M181.681 166.952C177.386 144.875 192.957 160.297 184.453 124.925C190.279 123.792 198.485 140.77 202.78 162.847C207.075 184.925 194.184 164.52 197.834 193.699C192.007 194.832 192.178 147.958 181.681 166.952Z" fill="#688150"/>
<path id="Ellipse 661" d="M233.762 85.1022C235.061 101.175 222.634 86.0015 201.534 87.7068C180.435 89.4122 158.651 107.35 157.352 91.2777C175.257 73.3026 177.29 79.0295 193.205 59.0878C214.305 57.3825 232.463 69.0295 233.762 85.1022Z" fill="#554316"/>
<path id="Ellipse 669" d="M121.78 194.982C122.763 207.145 128.913 194.405 142.438 193.312C155.964 192.219 171.743 203.186 170.76 191.023C157.428 179.593 156.786 184.103 144.49 170.979C130.965 172.073 120.797 182.819 121.78 194.982Z" fill="#554316"/>
<path id="Ellipse 665" d="M142.08 193.635C139.65 177.694 153.116 191.953 174.043 188.764C194.97 185.574 215.434 166.144 217.863 182.085C201.271 201.278 198.84 195.709 184.371 216.724C163.444 219.913 144.51 209.576 142.08 193.635Z" fill="#25602B"/>
<g id="Ellipse 672">
<path d="M115.304 94.4701C118.626 86.4785 143.599 89.2628 171.082 100.689C198.565 112.115 183.815 106.208 180.492 114.2C177.17 122.191 189.246 134.532 161.763 123.106C134.279 111.68 111.981 102.462 115.304 94.4701Z" fill="#27770B"/>
<path d="M115.304 94.4701C118.626 86.4785 143.599 89.2628 171.082 100.689C198.565 112.115 183.815 106.208 180.492 114.2C177.17 122.191 189.246 134.532 161.763 123.106C134.279 111.68 111.981 102.462 115.304 94.4701Z" fill="#335A2F"/>
</g>
<path id="Ellipse 662" d="M193.158 112.536C204.616 141.784 235.242 99.8372 238.462 118.206C241.682 136.575 220.741 109.555 201.304 159.002C177.562 163.164 191.273 149.445 188.053 131.076C184.833 112.707 195.515 141.867 193.158 112.536Z" fill="#2E511D"/>
<path id="Ellipse 668" d="M240.095 181.016C218.378 158.319 205.999 208.76 196.037 192.995C186.076 177.229 215.717 194.259 214.896 141.136C235.273 128.261 227.807 146.162 237.768 161.928C247.73 177.693 226.764 154.783 240.095 181.016Z" fill="#438C21"/>
<path id="Ellipse 663" d="M207.427 143.901C220.97 154.338 246.298 145.241 237.813 156.25C229.329 167.26 190.244 194.205 176.701 183.768C163.159 173.331 136.279 186.564 144.764 175.555C153.249 164.546 197.885 176.727 207.427 143.901Z" fill="#41760C"/>
<g id="Ellipse 666">
<path d="M244.513 164.864C222.978 155.77 260.575 95.5419 217.823 119.268C224.617 103.179 184.365 77.0904 239.014 77.0227C260.549 86.1163 272.498 106.53 265.704 122.619C258.91 138.707 269.617 126.428 244.513 164.864Z" fill="#256F24"/>
<path d="M244.513 164.864C222.978 155.77 260.575 95.5419 217.823 119.268C224.617 103.179 184.365 77.0904 239.014 77.0227C260.549 86.1163 272.498 106.53 265.704 122.619C258.91 138.707 269.617 126.428 244.513 164.864Z" fill="#256F24"/>
</g>
<g id="Ellipse 667">
<path d="M159.377 67.5658C174.389 85.4841 113.452 121.92 162.319 120.317C148.932 131.533 172.844 173.115 124.185 148.237C109.174 130.318 107.856 106.701 121.243 95.4853C134.63 84.2699 119.5 90.3103 159.377 67.5658Z" fill="#256F24"/>
<path d="M159.377 67.5658C174.389 85.4841 113.452 121.92 162.319 120.317C148.932 131.533 172.844 173.115 124.185 148.237C109.174 130.318 107.856 106.701 121.243 95.4853C134.63 84.2699 119.5 90.3103 159.377 67.5658Z" fill="#4D4320"/>
</g>
<g id="Ellipse 671">
<path d="M168.924 201.548C183.621 183.37 201.243 212.027 206.661 177.629C212.805 182.597 245.446 148.252 221.312 193.446C206.615 211.624 189.72 222.332 183.575 217.365C177.431 212.397 179.678 220.755 168.924 201.548Z" fill="#256F24"/>
<path d="M168.924 201.548C183.621 183.37 201.243 212.027 206.661 177.629C212.805 182.597 245.446 148.252 221.312 193.446C206.615 211.624 189.72 222.332 183.575 217.365C177.431 212.397 179.678 220.755 168.924 201.548Z" fill="#5F501C"/>
</g>
<path id="Ellipse 660_2" d="M141.958 95.1314C158.503 89.2848 162.135 106.283 166.87 119.681C171.604 133.079 157.243 121.264 140.698 127.11C124.153 132.957 125.307 143.375 120.573 129.977C134.627 117.733 125.413 100.978 141.958 95.1314Z" fill="#1A521C"/>
<path id="Ellipse 659" d="M224.785 148.67C226.198 166.161 208.837 165.318 194.673 166.462C180.51 167.607 195.609 156.752 194.196 139.261C192.782 121.77 182.415 120.218 196.579 119.073C204.815 135.794 223.371 131.179 224.785 148.67Z" fill="#274E29"/>
</g>
<g id="zipper">
<rect id="Rectangle 287" x="200.606" y="197.374" width="3.63992" height="2.2989" transform="rotate(30.1702 200.606 197.374)" fill="#8F8F8F"/>
<rect id="Rectangle 288" x="203.916" y="196.639" width="3.63992" height="2.2989" transform="rotate(30.1702 203.916 196.639)" fill="#8F8F8F"/>
<rect id="Rectangle 290" x="206.226" y="192.663" width="3.63992" height="2.2989" transform="rotate(30.1702 206.226 192.663)" fill="#8F8F8F"/>
<rect id="Rectangle 293" x="208.536" y="188.689" width="3.63992" height="2.2989" transform="rotate(30.1702 208.536 188.689)" fill="#8F8F8F"/>
<rect id="Rectangle 295" x="210.848" y="184.714" width="3.63992" height="2.2989" transform="rotate(30.1702 210.848 184.714)" fill="#8F8F8F"/>
<rect id="Rectangle 297" x="213.159" y="180.739" width="3.63992" height="2.2989" transform="rotate(30.1702 213.159 180.739)" fill="#8F8F8F"/>
<rect id="Rectangle 299" x="215.468" y="176.764" width="3.63992" height="2.2989" transform="rotate(30.1702 215.468 176.764)" fill="#8F8F8F"/>
<rect id="Rectangle 300" x="217.779" y="172.789" width="3.63992" height="2.2989" transform="rotate(30.1702 217.779 172.789)" fill="#8F8F8F"/>
<rect id="Rectangle 301" x="220.09" y="168.814" width="3.63992" height="2.2989" transform="rotate(30.1702 220.09 168.814)" fill="#8F8F8F"/>
<rect id="Rectangle 302" x="222.401" y="164.839" width="3.63992" height="2.2989" transform="rotate(30.1702 222.401 164.839)" fill="#8F8F8F"/>
<rect id="Rectangle 289" x="202.918" y="193.4" width="3.63992" height="2.2989" transform="rotate(30.1702 202.918 193.4)" fill="#8F8F8F"/>
<rect id="Rectangle 292" x="205.228" y="189.424" width="3.63992" height="2.2989" transform="rotate(30.1702 205.228 189.424)" fill="#8F8F8F"/>
<rect id="Rectangle 294" x="207.539" y="185.45" width="3.63992" height="2.2989" transform="rotate(30.1702 207.539 185.45)" fill="#8F8F8F"/>
<rect id="Rectangle 296" x="209.85" y="181.475" width="3.63992" height="2.2989" transform="rotate(30.1702 209.85 181.475)" fill="#8F8F8F"/>
<rect id="Rectangle 303" x="214.472" y="173.525" width="3.63992" height="2.2989" transform="rotate(30.1702 214.472 173.525)" fill="#8F8F8F"/>
<rect id="Rectangle 304" x="216.781" y="169.55" width="3.63992" height="2.2989" transform="rotate(30.1702 216.781 169.55)" fill="#8F8F8F"/>
<rect id="Rectangle 305" x="219.092" y="165.575" width="3.63992" height="2.2989" transform="rotate(30.1702 219.092 165.575)" fill="#8F8F8F"/>
<rect id="Rectangle 306" x="221.403" y="161.6" width="3.63992" height="2.2989" transform="rotate(30.1702 221.403 161.6)" fill="#8F8F8F"/>
<rect id="Rectangle 298" x="212.16" y="177.5" width="3.63992" height="2.2989" transform="rotate(30.1702 212.16 177.5)" fill="#8F8F8F"/>
<rect id="Rectangle 345" x="192.702" y="216.477" width="3.63992" height="2.2989" transform="rotate(30.1702 192.702 216.477)" fill="#8F8F8F"/>
<rect id="Rectangle 359" x="191.46" y="218.31" width="3.63992" height="2.2989" transform="rotate(30.1702 191.46 218.31)" fill="#8F8F8F"/>
<rect id="Rectangle 346" x="195.014" y="212.501" width="3.63992" height="2.2989" transform="rotate(30.1702 195.014 212.501)" fill="#8F8F8F"/>
<rect id="Rectangle 347" x="197.324" y="208.526" width="3.63992" height="2.2989" transform="rotate(30.1702 197.324 208.526)" fill="#8F8F8F"/>
<rect id="Rectangle 348" x="199.635" y="204.551" width="3.63992" height="2.2989" transform="rotate(30.1702 199.635 204.551)" fill="#8F8F8F"/>
<rect id="Rectangle 349" x="201.945" y="200.576" width="3.63992" height="2.2989" transform="rotate(30.1702 201.945 200.576)" fill="#8F8F8F"/>
<rect id="Rectangle 353" x="189.395" y="217.212" width="3.63992" height="2.2989" transform="rotate(30.1702 189.395 217.212)" fill="#8F8F8F"/>
<rect id="Rectangle 354" x="194.016" y="209.262" width="3.63992" height="2.2989" transform="rotate(30.1702 194.016 209.262)" fill="#8F8F8F"/>
<rect id="Rectangle 355" x="196.326" y="205.287" width="3.63992" height="2.2989" transform="rotate(30.1702 196.326 205.287)" fill="#8F8F8F"/>
<rect id="Rectangle 356" x="198.638" y="201.312" width="3.63992" height="2.2989" transform="rotate(30.1702 198.638 201.312)" fill="#8F8F8F"/>
<rect id="Rectangle 358" x="191.705" y="213.237" width="3.63992" height="2.2989" transform="rotate(30.1702 191.705 213.237)" fill="#8F8F8F"/>
<rect id="Rectangle 307" x="224.712" y="160.864" width="3.63992" height="2.2989" transform="rotate(30.1702 224.712 160.864)" fill="#8F8F8F"/>
<rect id="Rectangle 308" x="227.021" y="156.889" width="3.63992" height="2.2989" transform="rotate(30.1702 227.021 156.889)" fill="#8F8F8F"/>
<rect id="Rectangle 309" x="229.332" y="152.914" width="3.63992" height="2.2989" transform="rotate(30.1702 229.332 152.914)" fill="#8F8F8F"/>
<rect id="Rectangle 310" x="231.644" y="148.939" width="3.63992" height="2.2989" transform="rotate(30.1702 231.644 148.939)" fill="#8F8F8F"/>
<rect id="Rectangle 311" x="233.955" y="144.964" width="3.63992" height="2.2989" transform="rotate(30.1702 233.955 144.964)" fill="#8F8F8F"/>
<rect id="Rectangle 312" x="236.265" y="140.989" width="3.63992" height="2.2989" transform="rotate(30.1702 236.265 140.989)" fill="#8F8F8F"/>
<rect id="Rectangle 313" x="238.575" y="137.014" width="3.63992" height="2.2989" transform="rotate(30.1702 238.575 137.014)" fill="#8F8F8F"/>
<rect id="Rectangle 314" x="240.886" y="133.039" width="3.63992" height="2.2989" transform="rotate(30.1702 240.886 133.039)" fill="#8F8F8F"/>
<rect id="Rectangle 315" x="223.714" y="157.625" width="3.63992" height="2.2989" transform="rotate(30.1702 223.714 157.625)" fill="#8F8F8F"/>
<rect id="Rectangle 316" x="226.024" y="153.65" width="3.63992" height="2.2989" transform="rotate(30.1702 226.024 153.65)" fill="#8F8F8F"/>
<rect id="Rectangle 317" x="228.335" y="149.675" width="3.63992" height="2.2989" transform="rotate(30.1702 228.335 149.675)" fill="#8F8F8F"/>
<rect id="Rectangle 318" x="232.957" y="141.725" width="3.63992" height="2.2989" transform="rotate(30.1702 232.957 141.725)" fill="#8F8F8F"/>
<rect id="Rectangle 319" x="235.267" y="137.75" width="3.63992" height="2.2989" transform="rotate(30.1702 235.267 137.75)" fill="#8F8F8F"/>
<rect id="Rectangle 320" x="237.578" y="133.775" width="3.63992" height="2.2989" transform="rotate(30.1702 237.578 133.775)" fill="#8F8F8F"/>
<rect id="Rectangle 321" x="239.889" y="129.8" width="3.63992" height="2.2989" transform="rotate(30.1702 239.889 129.8)" fill="#8F8F8F"/>
<rect id="Rectangle 322" x="230.646" y="145.7" width="3.63992" height="2.2989" transform="rotate(30.1702 230.646 145.7)" fill="#8F8F8F"/>
<rect id="Rectangle 323" x="243.197" y="129.064" width="3.63992" height="2.2989" transform="rotate(30.1702 243.197 129.064)" fill="#8F8F8F"/>
<rect id="Rectangle 324" x="245.508" y="125.089" width="3.63992" height="2.2989" transform="rotate(30.1702 245.508 125.089)" fill="#8F8F8F"/>
<rect id="Rectangle 325" x="247.818" y="121.114" width="3.63992" height="2.2989" transform="rotate(30.1702 247.818 121.114)" fill="#8F8F8F"/>
<rect id="Rectangle 326" x="250.129" y="117.139" width="3.63992" height="2.2989" transform="rotate(30.1702 250.129 117.139)" fill="#8F8F8F"/>
<rect id="Rectangle 327" x="252.439" y="113.164" width="3.63992" height="2.2989" transform="rotate(30.1702 252.439 113.164)" fill="#8F8F8F"/>
<rect id="Rectangle 328" x="254.751" y="109.19" width="3.63992" height="2.2989" transform="rotate(30.1702 254.751 109.19)" fill="#8F8F8F"/>
<rect id="Rectangle 329" x="257.062" y="105.214" width="3.63992" height="2.2989" transform="rotate(30.1702 257.062 105.214)" fill="#8F8F8F"/>
<rect id="Rectangle 330" x="259.372" y="101.239" width="3.63992" height="2.2989" transform="rotate(30.1702 259.372 101.239)" fill="#8F8F8F"/>
<rect id="Rectangle 331" x="242.199" y="125.825" width="3.63992" height="2.2989" transform="rotate(30.1702 242.199 125.825)" fill="#8F8F8F"/>
<rect id="Rectangle 332" x="244.511" y="121.85" width="3.63992" height="2.2989" transform="rotate(30.1702 244.511 121.85)" fill="#8F8F8F"/>
<rect id="Rectangle 333" x="246.82" y="117.875" width="3.63992" height="2.2989" transform="rotate(30.1702 246.82 117.875)" fill="#8F8F8F"/>
<rect id="Rectangle 334" x="251.442" y="109.925" width="3.63992" height="2.2989" transform="rotate(30.1702 251.442 109.925)" fill="#8F8F8F"/>
<rect id="Rectangle 335" x="253.753" y="105.95" width="3.63992" height="2.2989" transform="rotate(30.1702 253.753 105.95)" fill="#8F8F8F"/>
<rect id="Rectangle 336" x="256.063" y="101.976" width="3.63992" height="2.2989" transform="rotate(30.1702 256.063 101.976)" fill="#8F8F8F"/>
<rect id="Rectangle 337" x="258.374" y="98.0002" width="3.63992" height="2.2989" transform="rotate(30.1702 258.374 98.0002)" fill="#8F8F8F"/>
<rect id="Rectangle 339" x="260.527" y="99.252" width="3.63992" height="2.2989" transform="rotate(30.1702 260.527 99.252)" fill="#8F8F8F"/>
<rect id="Rectangle 338" x="249.132" y="113.9" width="3.63992" height="2.2989" transform="rotate(30.1702 249.132 113.9)" fill="#8F8F8F"/>
<path id="Subtract" fill-rule="evenodd" clip-rule="evenodd" d="M259.347 114.447C261.446 114.547 262.882 113.469 261.237 108.525C261.268 107.885 261.312 107.266 261.353 106.679C261.558 103.786 261.708 101.664 259.963 101.58C258.113 101.492 258.023 103.881 257.903 107.047C257.887 107.473 257.87 107.913 257.849 108.363C255.561 113.026 257.248 114.346 259.347 114.447ZM258.55 112.948C259.281 113.374 260.262 113.051 260.741 112.228C261.22 111.405 261.014 110.393 260.283 109.967C259.551 109.542 258.57 109.864 258.091 110.687C257.612 111.511 257.818 112.523 258.55 112.948Z" fill="#8F8F8F"/>
</g>
</g>
</svg>
