<svg width="300" height="300" viewBox="0 0 300 300" fill="none" xmlns="http://www.w3.org/2000/svg">
<rect x="233.174" y="95" width="9" height="135" transform="rotate(25.5258 233.174 95)" fill="#6C4F23"/>
<rect x="227" y="115" width="6" height="17" fill="white"/>
<ellipse cx="230" cy="115" rx="4" ry="3" fill="white"/>
<rect x="208.301" y="153.068" width="6" height="17" transform="rotate(4.39871 208.301 153.068)" fill="white"/>
<ellipse cx="211.292" cy="153.298" rx="4" ry="3" transform="rotate(4.39871 211.292 153.298)" fill="white"/>
<rect x="188.543" y="193.255" width="6" height="17" transform="rotate(-10.7645 188.543 193.255)" fill="white"/>
<ellipse cx="191.49" cy="192.694" rx="4" ry="3" transform="rotate(-10.7645 191.49 192.694)" fill="white"/>
<rect x="227" y="124" width="6" height="8" fill="#9524A8"/>
<ellipse cx="229" cy="129.5" rx="1" ry="0.5" fill="#690A8A"/>
<ellipse cx="229" cy="129.5" rx="1" ry="0.5" fill="#690A8A"/>
<ellipse cx="231" cy="126.5" rx="1" ry="0.5" fill="#690A8A"/>
<ellipse cx="231" cy="126.5" rx="1" ry="0.5" fill="#690A8A"/>
<rect x="207.567" y="162" width="5.99663" height="8" transform="rotate(4.06662 207.567 162)" fill="#87E3BC"/>
<rect x="190.729" y="202.868" width="5.23154" height="7.32727" transform="rotate(-10.2456 190.729 202.868)" fill="#ED5E5E"/>
<circle cx="212.5" cy="160.5" r="1.5" fill="#3EA7AE"/>
<circle cx="210" cy="157" r="1" fill="#3EA7AE"/>
</svg>
