<svg width="295" height="300" viewBox="0 0 295 300" fill="none" xmlns="http://www.w3.org/2000/svg">
<g clip-path="url(#clip0_23_10)">
<path d="M59.5282 69.3997C57.7488 54.3933 74.9683 44.6982 86.8763 54.0018L137.92 93.8827C147.479 101.351 146.365 116.141 135.795 122.092L92.3778 146.537C81.8074 152.489 68.584 145.772 67.1556 133.725L59.5282 69.3997Z" fill="#A0FFF4"/>
<path d="M101.315 76.4519C49.4456 52.9038 92.4791 100 81.579 100C70.679 100 67 84.5124 67 73.9016C67 63.2908 70.679 62 81.579 62C92.4791 62 153.185 100 101.315 76.4519Z" fill="white"/>
<path d="M96.4779 127.575C62.4992 151.083 90.722 104.02 83.5874 104.011C76.4529 104.003 74.0265 119.488 74.014 130.098C74.0015 140.709 76.4081 142.003 83.5426 142.011C90.6772 142.02 130.457 104.066 96.4779 127.575Z" fill="white"/>
<path d="M112.947 44.8726C117.336 30.3927 137.032 28.4294 144.192 41.758L174.971 99.051C180.708 109.73 173.744 122.81 161.682 124.012L112.039 128.961C99.9766 130.163 90.5677 118.715 94.0837 107.114L112.947 44.8726Z" fill="#AEF0FF"/>
<path d="M119.652 68.3866C150.425 77.6981 173.185 92.4708 170.489 101.383C167.792 110.294 140.66 109.97 109.887 100.659C79.1147 91.3473 150.5 105.062 153.196 96.1501C155.893 87.2384 88.8799 59.0752 119.652 68.3866Z" fill="white"/>
<path d="M105.249 60.0991C121.825 46.7895 139.988 41.8854 145.817 49.1455C151.647 56.4055 142.935 73.0805 126.359 86.39C109.783 99.6996 142.332 63.8846 136.503 56.6246C130.673 49.3645 88.6726 73.4086 105.249 60.0991Z" fill="white"/>
<path d="M81.6898 43.0716C80.0387 24.3751 105.446 17.1887 113.832 33.9801L154.981 116.366C159.744 125.903 154.656 137.419 144.399 140.32L111.352 149.668C101.095 152.569 90.7287 145.423 89.791 134.805L81.6898 43.0716Z" fill="#279BBF"/>
<path d="M123.713 115.66C126.64 156.874 100.51 108.618 96.8694 114.754C93.2288 120.889 105.32 130.863 114.445 136.278C123.57 141.692 125.909 140.28 129.55 134.144C133.19 128.008 120.786 74.4455 123.713 115.66Z" fill="white"/>
<path d="M122.019 81.6497C115.734 96.103 124.384 54.4178 114.554 50.1432C104.723 45.8686 80.1348 80.6234 86.4196 66.1701C92.7044 51.7167 105.768 43.4652 115.599 47.7398C125.429 52.0144 128.303 67.1964 122.019 81.6497Z" fill="white"/>
</g>
<defs>
<clipPath id="clip0_23_10">
<rect width="300" height="300" fill="white"/>
</clipPath>
</defs>
</svg>
