<svg width="294" height="300" viewBox="0 0 294 300" fill="none" xmlns="http://www.w3.org/2000/svg">
<g clip-path="url(#clip0_18_594)">
<path d="M229.946 75.4047C239.552 73.5163 246.654 84.1749 241.211 92.313L178.926 185.45C174.566 191.97 164.978 191.962 160.628 185.434L112.973 113.909C108.624 107.382 112.309 98.5298 120.006 97.0168L229.946 75.4047Z" fill="#FFC997"/>
<path d="M84.3147 58.517C82.9977 49.726 92.9472 43.715 100.116 48.9703L193.337 117.304C199.092 121.523 198.703 130.239 192.596 133.929L116.5 179.903C110.392 183.593 102.496 179.882 101.439 172.825L84.3147 58.517Z" fill="#FFDFE5"/>
<path d="M161.205 37.1245C168.075 22.0553 190.704 27.5969 189.833 44.1351L182.405 185.242C181.91 194.635 172.993 201.26 163.858 199.023L112.674 186.489C103.538 184.252 98.6913 174.256 102.593 165.697L161.205 37.1245Z" fill="#FFD1BD"/>
<ellipse cx="174.5" cy="45" rx="16.5" ry="15" fill="#FFC997"/>
<path d="M170.345 81.967L155.853 49.7066L188.938 51.883L170.345 81.967Z" fill="#FFDFE5"/>
<rect x="186.448" y="104" width="12" height="46" transform="rotate(1.80438 186.448 104)" fill="#FFC997"/>
</g>
<defs>
<clipPath id="clip0_18_594">
<rect width="300" height="300" fill="white"/>
</clipPath>
</defs>
</svg>
