<svg width="206" height="336" viewBox="0 0 206 336" fill="none" xmlns="http://www.w3.org/2000/svg">
<path d="M54.3052 89.5C54.3052 93.6421 57.663 97 61.8052 97C65.9473 97 69.3052 93.6421 69.3052 89.5C69.3052 85.3579 65.9473 82 61.8052 82C57.663 82 54.3052 85.3579 54.3052 89.5Z" fill="#FF1F00"/>
<rect width="21.0016" height="15.4094" transform="matrix(-0.684286 0.729214 0.729214 0.684286 57.0685 83.7304)" fill="#FF1F00"/>
<rect width="42" height="12" transform="matrix(-0.668795 0.743446 0.743446 0.668795 43.3838 99.7304)" fill="#FFD89E"/>
<ellipse cx="17.1852" cy="137.104" rx="7.5" ry="6.80841" transform="rotate(-60.3033 17.1852 137.104)" fill="#FFD89E"/>
<ellipse cx="11.6973" cy="130.726" rx="2" ry="5.5" transform="rotate(-30.09 11.6973 130.726)" fill="#FFD89E"/>
<ellipse cx="6.55043" cy="139.946" rx="2" ry="6.26816" transform="rotate(-113.083 6.55043 139.946)" fill="#FFD89E"/>
<ellipse cx="12.7196" cy="146.8" rx="2" ry="6.26816" transform="rotate(-155.846 12.7196 146.8)" fill="#FFD89E"/>
<ellipse cx="16.9601" cy="146.877" rx="2" ry="6.26816" transform="rotate(-172.782 16.9601 146.877)" fill="#FFD89E"/>
<ellipse cx="8.84766" cy="144.034" rx="2" ry="7.08398" transform="rotate(-127.04 8.84766 144.034)" fill="#FFD89E"/>
<rect width="29" height="43" transform="matrix(-0.990135 -0.140114 -0.140114 0.990135 94.3052 166.063)" fill="#0022D4"/>
<rect width="21.8907" height="80" transform="matrix(-0.985902 -0.167321 -0.167321 0.985902 84.3052 207.663)" fill="#FFD89E"/>
<ellipse cx="58.8391" cy="315.368" rx="13.2706" ry="16.9196" transform="rotate(-17.9502 58.8391 315.368)" fill="#965100"/>
<rect x="51.3287" y="275" width="22.4028" height="33" transform="rotate(9.31173 51.3287 275)" fill="#965100"/>
<rect x="49.8663" y="312.491" width="6" height="4" transform="rotate(128.52 49.8663 312.491)" fill="#965100"/>
<path d="M121.976 87.0185C121.782 91.1561 124.979 94.6677 129.116 94.8619C133.254 95.0562 136.766 91.8594 136.96 87.7219C137.154 83.5843 133.957 80.0727 129.82 79.8784C125.682 79.6842 122.171 82.8809 121.976 87.0185Z" fill="#FF1F00"/>
<rect width="21.0016" height="15.4094" transform="matrix(0.849901 0.526943 0.526943 -0.849901 125.8 94.1684)" fill="#FF1F00"/>
<rect width="42" height="12" transform="matrix(-0.84885 -0.528634 -0.528634 0.84885 186.731 115.092)" fill="#FFD89E"/>
<ellipse rx="7.5" ry="6.80841" transform="matrix(-0.755545 -0.655097 -0.655097 0.755545 185.762 121.019)" fill="#FFD89E"/>
<ellipse rx="2" ry="5.5" transform="matrix(-0.982568 -0.185902 -0.185902 0.982568 188.823 113.182)" fill="#FFD89E"/>
<ellipse rx="2" ry="6.26816" transform="matrix(0.0646559 -0.997908 -0.997908 -0.0646559 196.737 120.172)" fill="#FFD89E"/>
<ellipse rx="2" ry="6.26816" transform="matrix(0.725012 -0.688737 -0.688737 -0.725012 193.192 128.685)" fill="#FFD89E"/>
<ellipse rx="2" ry="6.26816" transform="matrix(0.894197 -0.447673 -0.447673 -0.894197 189.217 130.164)" fill="#FFD89E"/>
<ellipse rx="2" ry="7.08398" transform="matrix(0.303428 -0.952854 -0.952854 -0.303428 195.926 124.79)" fill="#FFD89E"/>
<rect width="29.7309" height="44.0757" transform="matrix(-0.995836 0.0911581 0.0911581 0.995836 125.255 159.192)" fill="#0022D5"/>
<rect width="21.8907" height="80" transform="matrix(-0.993788 0.111288 0.111288 0.993788 126.144 203.248)" fill="#FFD89E"/>
<ellipse cx="131.363" cy="307.5" rx="13.2706" ry="16.9196" transform="rotate(-37.1413 131.363 307.5)" fill="#965100"/>
<rect x="111.01" y="271.713" width="22.4028" height="33" transform="rotate(-9.8794 111.01 271.713)" fill="#965100"/>
<rect x="121.98" y="308.52" width="6" height="4" transform="rotate(112.334 121.98 308.52)" fill="#965100"/>
<rect width="60" height="76" transform="matrix(-1 0 0 1 125.305 83)" fill="#FF1F00"/>
<path d="M95.8112 107.828L124.704 85.437L66.6902 85.7352L95.8112 107.828Z" fill="white"/>
<rect width="16" height="22" transform="matrix(-1 0 0 1 104.305 72)" fill="#FFD89E"/>
<ellipse rx="8" ry="4" transform="matrix(-1 0 0 1 96.3052 94)" fill="#FFD89E"/>
<ellipse rx="30" ry="7.5" transform="matrix(-1 0 0 1 95.3052 160.5)" fill="#0022D4"/>
<circle r="34" transform="matrix(-1 0 0 1 97.3052 42)" fill="#FFD89E"/>
<ellipse rx="7" ry="6" transform="matrix(-1 0 0 1 88.3052 37)" fill="black"/>
<path d="M88.0008 35.2857C88.0008 36.0747 88.9547 36.7143 90.1313 36.7143C91.3079 36.7143 92.2617 36.0747 92.2617 35.2857C92.2617 34.4967 91.3079 33.8571 90.1313 33.8571C88.9547 33.8571 88.0008 34.4967 88.0008 35.2857Z" fill="white"/>
<ellipse rx="7" ry="6" transform="matrix(-1 0 0 1 117.305 37)" fill="black"/>
<path d="M117.001 35.2857C117.001 36.0747 117.955 36.7143 119.131 36.7143C120.308 36.7143 121.262 36.0747 121.262 35.2857C121.262 34.4967 120.308 33.8571 119.131 33.8571C117.955 33.8571 117.001 34.4967 117.001 35.2857Z" fill="white"/>
<path d="M100.805 66.0302L113.338 54.004L88.2228 54.0564L100.805 66.0302Z" fill="#D72D2D"/>
<ellipse cx="81.1499" cy="20.9056" rx="16" ry="7.5" transform="rotate(-39.0585 81.1499 20.9056)" fill="#7D3F05"/>
<ellipse cx="94.3341" cy="16.0643" rx="19.5" ry="7.5" transform="rotate(-7.76012 94.3341 16.0643)" fill="#7D3F05"/>
<ellipse cx="111.156" cy="18.3728" rx="11.5" ry="7" transform="rotate(19.0675 111.156 18.3728)" fill="#7D3F05"/>
<path d="M121.5 18L127.129 26.25H115.871L121.5 18Z" fill="#7D3F05"/>
<path d="M68.5 23.5L75.5 32L64.5 33L68.5 23.5Z" fill="#7D3F05"/>
<path d="M121.436 9.14792C121.924 8.33728 121.118 7.36515 120.231 7.69492L105.932 13.0119C105.15 13.303 105.047 14.3686 105.761 14.8032L113.881 19.7508C114.354 20.0392 114.972 19.8875 115.258 19.4125L121.436 9.14792Z" fill="#7D3F05"/>
<path d="M102.436 6.14792C102.924 5.33728 102.118 4.36515 101.231 4.69492L86.9324 10.0119C86.1496 10.303 86.0474 11.3686 86.7606 11.8032L94.8809 16.7508C95.3543 17.0392 95.9721 16.8875 96.258 16.4125L102.436 6.14792Z" fill="#7D3F05"/>
<path d="M109.436 7.14792C109.924 6.33728 109.118 5.36515 108.231 5.69492L93.9324 11.0119C93.1496 11.303 93.0474 12.3686 93.7606 12.8032L101.881 17.7508C102.354 18.0392 102.972 17.8875 103.258 17.4125L109.436 7.14792Z" fill="#7D3F05"/>
<path d="M116.436 7.14792C116.924 6.33728 116.118 5.36515 115.231 5.69492L100.932 11.0119C100.15 11.303 100.047 12.3686 100.761 12.8032L108.881 17.7508C109.354 18.0392 109.972 17.8875 110.258 17.4125L116.436 7.14792Z" fill="#7D3F05"/>
</svg>
