<svg width="205" height="326" viewBox="0 0 205 326" fill="none" xmlns="http://www.w3.org/2000/svg">
<g id="Roni">
<g id="Head">
<circle id="Ellipse 14" cx="107" cy="38" r="34" fill="#FFD89E"/>
<path id="Polygon 22" d="M108.652 5.60461L137.348 54.3954L138.24 21.2874L108.652 5.60461Z" fill="#F88720"/>
<ellipse id="Ellipse 15" cx="122.648" cy="14.9837" rx="18.1408" ry="5.96336" transform="rotate(33.4923 122.648 14.9837)" fill="#F88720"/>
<ellipse id="Ellipse 16" cx="137.257" cy="38.033" rx="15.9702" ry="3.99829" transform="rotate(90.9287 137.257 38.033)" fill="#F88720"/>
<g id="Group 5">
<ellipse id="Ellipse 17" cx="116" cy="33" rx="7" ry="6" fill="black"/>
<path id="Ellipse 18" d="M116.304 31.2857C116.304 32.0747 115.35 32.7143 114.174 32.7143C112.997 32.7143 112.043 32.0747 112.043 31.2857C112.043 30.4967 112.997 29.8571 114.174 29.8571C115.35 29.8571 116.304 30.4967 116.304 31.2857Z" fill="white"/>
</g>
<g id="Group 6">
<ellipse id="Ellipse 17_2" cx="87" cy="33" rx="7" ry="6" fill="black"/>
<path id="Ellipse 18_2" d="M87.3043 31.2857C87.3043 32.0747 86.3505 32.7143 85.1739 32.7143C83.9973 32.7143 83.0435 32.0747 83.0435 31.2857C83.0435 30.4967 83.9973 29.8571 85.1739 29.8571C86.3505 29.8571 87.3043 30.4967 87.3043 31.2857Z" fill="white"/>
</g>
<ellipse id="Ellipse 19" cx="92.415" cy="14.0717" rx="17" ry="5.55171" transform="rotate(-31.2295 92.415 14.0717)" fill="#F88720"/>
<ellipse id="Ellipse 20" cx="107" cy="6.01056" rx="3" ry="1.5" fill="#F88720"/>
<path id="Polygon 23" d="M103.5 62.0302L90.9677 50.004L116.082 50.0564L103.5 62.0302Z" fill="#D72D2D"/>
</g>
<g id="Left arm">
<path id="Ellipse 23" d="M83.0756 84.4996C83.12 88.6415 79.7983 92.0351 75.6564 92.0795C71.5145 92.1239 68.1208 88.8022 68.0764 84.6603C68.0321 80.5184 71.3538 77.1247 75.4957 77.0804C79.6376 77.036 83.0312 80.3577 83.0756 84.4996Z" fill="#6094D2"/>
<rect id="Rectangle 51" x="78.9958" y="91.5064" width="21.0016" height="15.4094" transform="rotate(150.275 78.9958 91.5064)" fill="#6094D2"/>
<g id="Left hand">
<rect id="Rectangle 53" x="17.3473" y="110.212" width="42" height="12" transform="rotate(-29.8395 17.3473 110.212)" fill="#FFD89E"/>
<ellipse id="Ellipse 24" cx="18.1013" cy="116.17" rx="7.5" ry="6.80841" transform="rotate(-38.8533 18.1013 116.17)" fill="#FFD89E"/>
<ellipse id="Ellipse 25" cx="15.3259" cy="108.227" rx="2" ry="5.5" transform="rotate(-8.63994 15.3259 108.227)" fill="#FFD89E"/>
<ellipse id="Ellipse 26" cx="7.16386" cy="114.926" rx="2" ry="6.26816" transform="rotate(-91.6333 7.16386 114.926)" fill="#FFD89E"/>
<ellipse id="Ellipse 28" cx="10.3993" cy="123.561" rx="2" ry="6.26816" transform="rotate(-134.396 10.3993 123.561)" fill="#FFD89E"/>
<ellipse id="Ellipse 29" cx="14.3178" cy="125.184" rx="2" ry="6.26816" transform="rotate(-151.332 14.3178 125.184)" fill="#FFD89E"/>
<ellipse id="Ellipse 27" cx="7.80716" cy="119.571" rx="2" ry="7.08398" transform="rotate(-105.59 7.80716 119.571)" fill="#FFD89E"/>
</g>
</g>
<g id="Right arm ">
<path id="Ellipse 22" d="M150 85.5C150 89.6421 146.642 93 142.5 93C138.358 93 135 89.6421 135 85.5C135 81.3579 138.358 78 142.5 78C146.642 78 150 81.3579 150 85.5Z" fill="#6094D2"/>
<rect id="Rectangle 50" x="147.237" y="79.7304" width="21.0016" height="15.4094" transform="rotate(46.8205 147.237 79.7304)" fill="#6094D2"/>
<g id="Right hand">
<rect id="Rectangle 52" x="160.921" y="95.7304" width="42" height="12" transform="rotate(48.0258 160.921 95.7304)" fill="#FFD89E"/>
<ellipse id="Ellipse 30" rx="7.5" ry="6.80841" transform="matrix(-0.495409 -0.86866 -0.86866 0.495409 187.12 133.104)" fill="#FFD89E"/>
<ellipse id="Ellipse 31" rx="2" ry="5.5" transform="matrix(-0.865239 -0.501359 -0.501359 0.865239 192.608 126.726)" fill="#FFD89E"/>
<ellipse id="Ellipse 32" rx="2" ry="6.26816" transform="matrix(0.39207 -0.919935 -0.919935 -0.39207 197.755 135.946)" fill="#FFD89E"/>
<ellipse id="Ellipse 33" rx="2" ry="6.26816" transform="matrix(0.912449 -0.409189 -0.409189 -0.912449 191.586 142.8)" fill="#FFD89E"/>
<ellipse id="Ellipse 34" rx="2" ry="6.26816" transform="matrix(0.992075 -0.125649 -0.125649 -0.992075 187.345 142.877)" fill="#FFD89E"/>
<ellipse id="Ellipse 35" rx="2" ry="7.08398" transform="matrix(0.602371 -0.798216 -0.798216 -0.602371 195.458 140.034)" fill="#FFD89E"/>
</g>
</g>
<g id="Body">
<rect id="Rectangle 48" x="79" y="79" width="60" height="76" fill="#6094D2"/>
<path id="Polygon 24" d="M108.494 103.828L79.6017 81.437L137.615 81.7352L108.494 103.828Z" fill="white"/>
<rect id="Rectangle 49" x="100" y="68" width="16" height="22" fill="#FFD89E"/>
<ellipse id="Ellipse 21" cx="108" cy="90" rx="8" ry="4" fill="#FFD89E"/>
<ellipse id="Ellipse 36" cx="109" cy="156.5" rx="30" ry="7.5" fill="#430474"/>
</g>
<g id="Left Leg">
<rect id="Rectangle 55" x="79.0499" y="155.192" width="29.7309" height="44.0757" transform="rotate(5.23023 79.0499 155.192)" fill="#430474"/>
<rect id="Rectangle 57" x="78.1611" y="199.248" width="21.8907" height="80" transform="rotate(6.38954 78.1611 199.248)" fill="#FFD89E"/>
<g id="Left shoe">
<rect id="Rectangle 58" x="70.7211" y="259.195" width="24.7892" height="27" transform="rotate(9.62778 70.7211 259.195)" fill="#550909"/>
<ellipse id="Ellipse 37" cx="82.8846" cy="261.785" rx="12.5" ry="2.5" transform="rotate(9.2037 82.8846 261.785)" fill="#550909"/>
<ellipse id="Ellipse 38" cx="74.4443" cy="292.397" rx="18.5" ry="12.5" transform="rotate(-37.033 74.4443 292.397)" fill="#550909"/>
<rect id="Rectangle 59" x="84.1578" y="292.295" width="6" height="12" transform="rotate(0.425945 84.1578 292.295)" fill="#550909"/>
</g>
</g>
<g id="Right Leg">
<rect id="Rectangle 54" x="110" y="162.063" width="29" height="43" transform="rotate(-8.05441 110 162.063)" fill="#430474"/>
<rect id="Rectangle 56" x="120" y="203.663" width="21.8907" height="80" transform="rotate(-9.63211 120 203.663)" fill="#FFD89E"/>
<g id="Right Shoe">
<ellipse id="Ellipse 40" cx="142.612" cy="272.141" rx="12.5" ry="2.5" transform="rotate(2.95523 142.612 272.141)" fill="#550909"/>
<rect id="Rectangle 60" x="130.145" y="271.657" width="24.7892" height="27" transform="rotate(2.43759 130.145 271.657)" fill="#550909"/>
<ellipse id="Ellipse 39" cx="137.994" cy="304.132" rx="18.5" ry="12.5" transform="rotate(-44.2232 137.994 304.132)" fill="#550909"/>
<rect id="Rectangle 61" x="147.619" y="302.815" width="6" height="12" transform="rotate(-6.76425 147.619 302.815)" fill="#550909"/>
</g>
</g>
</g>
</svg>
