<svg width="1342" height="681" viewBox="0 0 1342 681" fill="none" xmlns="http://www.w3.org/2000/svg">
<path d="M552.714 531H355V148.443L552.492 222.453L552.662 222.516H552.843H838.679H1112.09H1112.25L1112.4 222.467L1341 148.375V531H1112.22L838.942 456.519L838.685 456.449L838.427 456.516L552.714 531Z" fill="#F4F08D" stroke="black" stroke-width="2"/>
<path d="M462.068 126.08L592.949 259.402C577.08 363.748 552.747 435.464 512.747 494.451C472.811 553.345 417.118 599.763 338.073 653.287C263.561 602.351 212.108 555.692 173.226 496.072C134.253 436.312 107.794 363.353 83.5844 259.637L211.219 131.848L338.087 4.82695L462.068 126.08Z" fill="#6975E3" stroke="black" stroke-width="5"/>
<ellipse cx="346.233" cy="395.377" rx="104.435" ry="121.297" fill="#FFD4AC"/>
<ellipse cx="345.189" cy="295.42" rx="82.5036" ry="84.2337" fill="#FFDDBD"/>
<ellipse cx="376.519" cy="402.115" rx="13.5765" ry="15.7236" fill="#FF8080"/>
<ellipse cx="376.519" cy="402.115" rx="13.5765" ry="15.7236" fill="#FF8080"/>
<ellipse cx="376.519" cy="402.115" rx="13.5765" ry="15.7236" fill="#FFACAC"/>
<ellipse cx="389.052" cy="516.673" rx="19.8426" ry="15.7236" fill="#FF8080"/>
<ellipse cx="389.052" cy="516.673" rx="19.8426" ry="15.7236" fill="#FF8080"/>
<ellipse cx="389.052" cy="516.673" rx="19.8426" ry="15.7236" fill="#FFACAC"/>
<ellipse cx="313.858" cy="516.673" rx="19.8426" ry="15.7236" fill="#FF8080"/>
<ellipse cx="313.858" cy="516.673" rx="19.8426" ry="15.7236" fill="#FF8080"/>
<ellipse cx="313.858" cy="516.673" rx="19.8426" ry="15.7236" fill="#FFACAC"/>
<ellipse cx="332.657" cy="402.115" rx="13.5765" ry="15.7236" fill="#FF8080"/>
<ellipse cx="332.657" cy="402.115" rx="13.5765" ry="15.7236" fill="#FF8080"/>
<ellipse cx="332.657" cy="402.115" rx="13.5765" ry="15.7236" fill="#FFACAC"/>
<path d="M419.45 210.147C424.896 209.723 428.929 215.307 427.201 220.877L414.329 262.357C412.365 268.687 404.625 270.208 400.865 265.003L373.18 226.678C369.421 221.473 372.705 213.784 378.894 213.303L419.45 210.147Z" fill="#FFD4AC"/>
<path d="M260.55 221.379C255.104 220.955 251.071 226.539 252.799 232.108L265.671 273.589C267.635 279.918 275.375 281.439 279.135 276.234L306.819 237.91C310.579 232.705 307.295 225.015 301.106 224.534L260.55 221.379Z" fill="#FFD4AC"/>
<ellipse cx="327.435" cy="298.789" rx="10.4435" ry="11.2312" fill="black"/>
<ellipse cx="373.386" cy="298.789" rx="10.4435" ry="11.2312" fill="black"/>
<ellipse cx="331.612" cy="292.051" rx="2.0887" ry="2.24623" fill="white"/>
<ellipse cx="375.475" cy="292.051" rx="2.0887" ry="2.24623" fill="white"/>
<path d="M351.455 354.944L366.83 334.728H336.08L351.455 354.944Z" fill="#FFACAC"/>
</svg>
