<svg width="300" height="300" viewBox="0 0 300 300" fill="none" xmlns="http://www.w3.org/2000/svg">
<ellipse cx="186.241" cy="142.01" rx="22.6565" ry="3.59864" transform="rotate(-60.6519 186.241 142.01)" fill="black"/>
<ellipse cx="191.039" cy="146.067" rx="22.6565" ry="3.59864" transform="rotate(-42.9343 191.039 146.067)" fill="white"/>
<ellipse cx="194.091" cy="151.725" rx="22.6565" ry="3.59864" transform="rotate(-24.665 194.091 151.725)" fill="black"/>
<ellipse cx="199.906" cy="155.296" rx="22.6565" ry="3.59864" transform="rotate(-12.1765 199.906 155.296)" fill="white"/>
<ellipse cx="180.068" cy="138.915" rx="22.6565" ry="3.59864" transform="rotate(-76.3838 180.068 138.915)" fill="white"/>
<ellipse cx="102.85" cy="168.652" rx="23.0481" ry="4.56127" transform="rotate(79.0678 102.85 168.652)" fill="black"/>
<ellipse cx="109.319" cy="168.54" rx="25.309" ry="4.43239" transform="rotate(73.7957 109.319 168.54)" fill="white"/>
<ellipse cx="96.8959" cy="168.818" rx="22.5766" ry="4.43239" transform="rotate(93.7408 96.8959 168.818)" fill="black"/>
<ellipse cx="112.213" cy="165.918" rx="23.3383" ry="3.98584" transform="rotate(65.7685 112.213 165.918)" fill="black"/>
<ellipse cx="102.346" cy="169.623" rx="23.3383" ry="3.98584" transform="rotate(95.8565 102.346 169.623)" fill="white"/>
</svg>
