<svg width="300" height="300" viewBox="0 0 300 300" fill="none" xmlns="http://www.w3.org/2000/svg">
<ellipse rx="16.7126" ry="8.35631" transform="matrix(0.923992 -0.382411 -0.382411 -0.923992 193.121 169.908)" fill="#FDCA15"/>
<ellipse rx="22.0017" ry="8.35631" transform="matrix(0.71589 -0.698213 -0.698213 -0.71589 193.068 155.676)" fill="#FDCA15"/>
<ellipse rx="28.0028" ry="8.35631" transform="matrix(0.594393 -0.804174 -0.804174 -0.594393 188.365 146.486)" fill="#FDCA15"/>
<ellipse rx="22.7014" ry="6.63173" transform="matrix(0.689422 -0.72436 -0.72436 -0.689422 190.267 150.426)" fill="#FEECAC"/>
<ellipse rx="22.7014" ry="6.63173" transform="matrix(0.689422 -0.72436 -0.72436 -0.689422 190.267 150.426)" fill="#FEECAC"/>
<ellipse cx="193.707" cy="164.917" rx="17.3503" ry="5.65493" transform="rotate(-31.6455 193.707 164.917)" fill="#FEECAC"/>
<ellipse cx="193.707" cy="164.917" rx="17.3503" ry="5.65493" transform="rotate(-31.6455 193.707 164.917)" fill="#FEECAC"/>
<ellipse cx="91.5224" cy="170.261" rx="15.4828" ry="7.7414" transform="rotate(-170.837 91.5224 170.261)" fill="#FDCA15"/>
<ellipse cx="88.5322" cy="157.42" rx="20.3827" ry="7.7414" transform="rotate(-149.037 88.5322 157.42)" fill="#FDCA15"/>
<ellipse cx="90.811" cy="148.131" rx="25.9422" ry="7.7414" transform="rotate(-139.79 90.811 148.131)" fill="#FDCA15"/>
<ellipse cx="87.7011" cy="149.828" rx="21.366" ry="5.7212" transform="rotate(-153.858 87.7011 149.828)" fill="#FEECAC"/>
<ellipse cx="89.1619" cy="165.431" rx="16.5058" ry="4.83304" transform="rotate(-167.437 89.1619 165.431)" fill="#FEECAC"/>
</svg>
