<svg width="282" height="83" viewBox="0 0 282 83" fill="none" xmlns="http://www.w3.org/2000/svg">
<rect x="154.906" y="14.0805" width="46.8245" height="46.1256" transform="rotate(-12.2661 154.906 14.0805)" fill="#7EE319"/>
<path d="M199.691 3.11719L268.342 50.9367L208.837 50.3112L199.691 3.11719Z" fill="#7EE319"/>
<ellipse cx="219.761" cy="54.5929" rx="3.49436" ry="18.5201" transform="rotate(-7.52252 219.761 54.5929)" fill="#1E9D59"/>
<ellipse cx="226.4" cy="52.7561" rx="3.49436" ry="19.1315" transform="rotate(-7.52252 226.4 52.7561)" fill="#1E9D59"/>
<ellipse cx="232.319" cy="52.1519" rx="3.49436" ry="21.4139" transform="rotate(-28.2024 232.319 52.1519)" fill="#1E9D59"/>
<ellipse cx="258.459" cy="48.4046" rx="3.49436" ry="25.1584" transform="rotate(-53.5054 258.459 48.4046)" fill="#1E9D59"/>
<ellipse cx="248.025" cy="50.6702" rx="3.49436" ry="25.1584" transform="rotate(-38.1314 248.025 50.6702)" fill="#1E9D59"/>
<ellipse cx="240.199" cy="52.1884" rx="3.49436" ry="21.9146" transform="rotate(-38.1314 240.199 52.1884)" fill="#1E9D59"/>
<ellipse cx="213.362" cy="53.9108" rx="3.49436" ry="18.5201" transform="rotate(-7.52252 213.362 53.9108)" fill="#1E9D59"/>
<ellipse cx="207.129" cy="55.5413" rx="3.49436" ry="18.5201" transform="rotate(-7.52252 207.129 55.5413)" fill="#1E9D59"/>
<ellipse cx="200.171" cy="56.4994" rx="3.49436" ry="18.5201" transform="rotate(-7.52252 200.171 56.4994)" fill="#1E9D59"/>
<ellipse cx="194.61" cy="57.4055" rx="3.49436" ry="18.5201" transform="rotate(-7.52252 194.61 57.4055)" fill="#1E9D59"/>
<ellipse cx="188.376" cy="59.0359" rx="3.49436" ry="18.5201" transform="rotate(-7.52252 188.376 59.0359)" fill="#1E9D59"/>
<ellipse cx="182.116" cy="59.968" rx="3.49436" ry="18.5201" transform="rotate(-7.52252 182.116 59.968)" fill="#1E9D59"/>
<ellipse cx="175.159" cy="60.926" rx="3.49436" ry="18.5201" transform="rotate(-7.52252 175.159 60.926)" fill="#1E9D59"/>
<ellipse cx="167.193" cy="63.0551" rx="3.49436" ry="18.5201" transform="rotate(-7.52252 167.193 63.0551)" fill="#1E9D59"/>
<ellipse rx="3.49436" ry="18.5201" transform="matrix(-0.995573 -0.0939913 -0.0939913 0.995573 60.1185 56.9463)" fill="#1E9D59"/>
<ellipse rx="3.49436" ry="18.5201" transform="matrix(-0.995573 -0.0939913 -0.0939913 0.995573 60.1185 56.9463)" fill="#1E9D59"/>
<ellipse rx="3.49436" ry="18.5201" transform="matrix(-0.995573 -0.0939913 -0.0939913 0.995573 60.1185 56.9463)" fill="#1E9D59"/>
<rect width="46.8245" height="46.1256" transform="matrix(-0.98439 -0.175999 -0.175999 0.98439 127.894 13.5737)" fill="#7EE319"/>
<path d="M82.4487 4.45105L16.4898 53.9203L75.1585 51.1333L82.4487 4.45105Z" fill="#7EE319"/>
<ellipse rx="3.49436" ry="18.5201" transform="matrix(-0.995573 -0.0939913 -0.0939913 0.995573 60.1185 56.9463)" fill="#1E9D59"/>
<ellipse rx="3.49436" ry="18.9339" transform="matrix(-0.995573 -0.0939913 -0.0939913 0.995573 54.0172 57.1723)" fill="#1E9D59"/>
<ellipse rx="3.49436" ry="20.4513" transform="matrix(-0.898233 -0.439519 -0.439519 0.898233 47.675 57.4563)" fill="#1E9D59"/>
<ellipse rx="3.49436" ry="25.1584" transform="matrix(-0.624205 -0.781261 -0.781261 0.624205 21.8365 53.8181)" fill="#1E9D59"/>
<ellipse rx="3.49436" ry="25.1584" transform="matrix(-0.808995 -0.587816 -0.587816 0.808995 32.3473 55.6946)" fill="#1E9D59"/>
<ellipse rx="3.49436" ry="22.0999" transform="matrix(-0.808995 -0.587816 -0.587816 0.808995 40.3338 56.7711)" fill="#1E9D59"/>
<ellipse rx="3.49436" ry="18.5201" transform="matrix(-0.995573 -0.0939913 -0.0939913 0.995573 67.107 57.6451)" fill="#1E9D59"/>
<ellipse rx="3.49436" ry="18.5201" transform="matrix(-0.995573 -0.0939913 -0.0939913 0.995573 73.397 59.0428)" fill="#1E9D59"/>
<ellipse rx="3.49436" ry="18.5201" transform="matrix(-0.995573 -0.0939913 -0.0939913 0.995573 80.3857 59.7416)" fill="#1E9D59"/>
<ellipse rx="3.49436" ry="18.5201" transform="matrix(-0.995573 -0.0939913 -0.0939913 0.995573 85.9767 60.4405)" fill="#1E9D59"/>
<ellipse rx="3.49436" ry="18.5201" transform="matrix(-0.995573 -0.0939913 -0.0939913 0.995573 92.2665 61.8383)" fill="#1E9D59"/>
<ellipse rx="3.49436" ry="18.5201" transform="matrix(-0.995573 -0.0939913 -0.0939913 0.995573 98.5564 62.5372)" fill="#1E9D59"/>
<ellipse rx="3.49436" ry="18.5201" transform="matrix(-0.995573 -0.0939913 -0.0939913 0.995573 105.545 63.236)" fill="#1E9D59"/>
<ellipse rx="3.49436" ry="18.5201" transform="matrix(-0.995573 -0.0939913 -0.0939913 0.995573 111.969 64.0079)" fill="#1E9D59"/>
</svg>
