<svg width="279" height="86" viewBox="0 0 279 86" fill="none" xmlns="http://www.w3.org/2000/svg">
<rect x="150.281" y="13.5737" width="46.8245" height="46.1256" transform="rotate(-10.1368 150.281 13.5737)" fill="#1A76B8"/>
<path d="M195.726 4.45105L261.685 53.9203L203.017 51.1333L195.726 4.45105Z" fill="#7EE319"/>
<ellipse cx="213.559" cy="38.5351" rx="3.49436" ry="41.6422" transform="rotate(-38.3983 213.559 38.5351)" fill="#FCE72F"/>
<ellipse cx="211.577" cy="39.0919" rx="3.25622" ry="39.1113" transform="rotate(-27.8889 211.577 39.0919)" fill="#FCE72F"/>
<ellipse cx="207.002" cy="39.0919" rx="3.25622" ry="39.1113" transform="rotate(-27.8889 207.002 39.0919)" fill="#FCE72F"/>
<ellipse cx="203.151" cy="39.2879" rx="3.25622" ry="38.2016" transform="rotate(-27.8889 203.151 39.2879)" fill="#FCE72F"/>
<ellipse cx="196.163" cy="40.4647" rx="3.25622" ry="37.3369" transform="rotate(-17.8334 196.163 40.4647)" fill="#FCE72F"/>
<ellipse cx="189.641" cy="42.5401" rx="3.25622" ry="37.3369" transform="rotate(-14.3911 189.641 42.5401)" fill="#FCE72F"/>
<ellipse cx="193.741" cy="40.9746" rx="3.25622" ry="37.3369" transform="rotate(-14.3911 193.741 40.9746)" fill="#FCE72F"/>
<ellipse cx="184.741" cy="43.9746" rx="3.25622" ry="37.3369" transform="rotate(-11.3519 184.741 43.9746)" fill="#FCE72F"/>
<ellipse cx="178.633" cy="44.2474" rx="3.25622" ry="37.3369" transform="rotate(-7.30597 178.633 44.2474)" fill="#FCE72F"/>
<ellipse cx="175.308" cy="45.3997" rx="3.25622" ry="37.3369" transform="rotate(-11.9911 175.308 45.3997)" fill="#FCE72F"/>
<ellipse cx="180.233" cy="45.1987" rx="3.25622" ry="37.3369" transform="rotate(-11.9911 180.233 45.1987)" fill="#FCE72F"/>
<ellipse cx="171.197" cy="46.4478" rx="3.25622" ry="37.3369" transform="rotate(-10.0261 171.197 46.4478)" fill="#FCE72F"/>
<ellipse cx="159.668" cy="48.1218" rx="3.25622" ry="37.3369" transform="rotate(-12.8968 159.668 48.1218)" fill="#FCE72F"/>
<ellipse cx="165.668" cy="48.1218" rx="3.25622" ry="37.3369" transform="rotate(-12.8968 165.668 48.1218)" fill="#FCE72F"/>
<ellipse cx="199.64" cy="39.9884" rx="3.25622" ry="37.3369" transform="rotate(-21.1952 199.64 39.9884)" fill="#FCE72F"/>
<ellipse cx="219.865" cy="35.5804" rx="3.49436" ry="41.094" transform="rotate(-40.35 219.865 35.5804)" fill="#FCE72F"/>
<ellipse cx="235.871" cy="37.4652" rx="3.49436" ry="51.3564" transform="rotate(-51.3762 235.871 37.4652)" fill="#FCE72F"/>
<ellipse cx="242.282" cy="46.1225" rx="3.49436" ry="33.0037" transform="rotate(-42.5518 242.282 46.1225)" fill="#FCE72F"/>
<ellipse cx="224.442" cy="36.1289" rx="3.49436" ry="43.0965" transform="rotate(-42.8416 224.442 36.1289)" fill="#FCE72F"/>
<ellipse cx="215.309" cy="37.976" rx="3.49436" ry="43.0965" transform="rotate(-42.8416 215.309 37.976)" fill="#FCE72F"/>
<ellipse cx="163.591" cy="30.7126" rx="3.25622" ry="19.4427" transform="rotate(-10.0261 163.591 30.7126)" fill="#1A76B8"/>
<ellipse cx="168.176" cy="29.3569" rx="3.25622" ry="19.9809" transform="rotate(-10.0261 168.176 29.3569)" fill="#1A76B8"/>
<ellipse cx="158.9" cy="32.4598" rx="3.25622" ry="21.217" transform="rotate(-10.0261 158.9 32.4598)" fill="#1A76B8"/>
<ellipse cx="154.443" cy="32.8715" rx="3.25622" ry="18.5885" transform="rotate(-10.0261 154.443 32.8715)" fill="#1A76B8"/>
<ellipse cx="171.949" cy="28.3482" rx="3.48325" ry="19.7827" transform="rotate(-10.0261 171.949 28.3482)" fill="#1A76B8"/>
<ellipse cx="175.901" cy="27.4665" rx="3.25622" ry="21.2237" transform="rotate(-10.0261 175.901 27.4665)" fill="#1A76B8"/>
<ellipse cx="179.827" cy="27.3854" rx="3.25622" ry="21.1314" transform="rotate(-15.0422 179.827 27.3854)" fill="#1A76B8"/>
<ellipse cx="185.377" cy="26.2252" rx="3.25622" ry="21.0975" transform="rotate(-16.4647 185.377 26.2252)" fill="#1A76B8"/>
<ellipse cx="190.929" cy="25.0547" rx="3.25622" ry="20.0499" transform="rotate(-20.763 190.929 25.0547)" fill="#1A76B8"/>
<ellipse cx="198.057" cy="24.3895" rx="3.25622" ry="20.8721" transform="rotate(-39.9586 198.057 24.3895)" fill="#1A76B8"/>
<ellipse cx="204.968" cy="22.8127" rx="3.25622" ry="23.1548" transform="rotate(-40.386 204.968 22.8127)" fill="#1A76B8"/>
<ellipse cx="195.05" cy="23.906" rx="3.25622" ry="22.5834" transform="rotate(-30.6614 195.05 23.906)" fill="#1A76B8"/>
<ellipse cx="212.017" cy="20.3552" rx="3.25622" ry="27.7906" transform="rotate(-50.0079 212.017 20.3552)" fill="#1A76B8"/>
<rect width="46.8245" height="46.1256" transform="matrix(-0.98439 -0.175999 -0.175999 0.98439 127.894 13.5737)" fill="#1A76B8"/>
<path d="M82.449 4.45105L16.49 53.9203L75.1588 51.1333L82.449 4.45105Z" fill="#7EE319"/>
<ellipse rx="3.49436" ry="41.6422" transform="matrix(-0.783712 -0.621124 -0.621124 0.783712 64.6158 38.5351)" fill="#FCE72F"/>
<ellipse rx="3.25622" ry="39.1113" transform="matrix(-0.883856 -0.467759 -0.467759 0.883856 66.5983 39.0919)" fill="#FCE72F"/>
<ellipse rx="3.25622" ry="39.1113" transform="matrix(-0.883856 -0.467759 -0.467759 0.883856 71.1727 39.0919)" fill="#FCE72F"/>
<ellipse rx="3.25622" ry="38.2016" transform="matrix(-0.883856 -0.467759 -0.467759 0.883856 75.0238 39.2879)" fill="#FCE72F"/>
<ellipse rx="3.25622" ry="37.3369" transform="matrix(-0.951951 -0.30625 -0.30625 0.951951 82.0121 40.4647)" fill="#FCE72F"/>
<ellipse rx="3.25622" ry="37.3369" transform="matrix(-0.968622 -0.24854 -0.24854 0.968622 88.5343 42.5401)" fill="#FCE72F"/>
<ellipse rx="3.25622" ry="37.3369" transform="matrix(-0.968622 -0.24854 -0.24854 0.968622 84.4337 40.9746)" fill="#FCE72F"/>
<ellipse rx="3.25622" ry="37.3369" transform="matrix(-0.980437 -0.196835 -0.196835 0.980437 93.4337 43.9746)" fill="#FCE72F"/>
<ellipse rx="3.25622" ry="37.3369" transform="matrix(-0.991881 -0.127168 -0.127168 0.991881 99.5418 44.2474)" fill="#FCE72F"/>
<ellipse rx="3.25622" ry="37.3369" transform="matrix(-0.97818 -0.20776 -0.20776 0.97818 102.867 45.3997)" fill="#FCE72F"/>
<ellipse rx="3.25622" ry="37.3369" transform="matrix(-0.97818 -0.20776 -0.20776 0.97818 97.9422 45.1987)" fill="#FCE72F"/>
<ellipse rx="3.25622" ry="37.3369" transform="matrix(-0.984729 -0.174096 -0.174096 0.984729 106.978 46.4478)" fill="#FCE72F"/>
<ellipse rx="3.25622" ry="37.3369" transform="matrix(-0.974774 -0.223196 -0.223196 0.974774 118.508 48.1218)" fill="#FCE72F"/>
<ellipse rx="3.25622" ry="37.3369" transform="matrix(-0.974774 -0.223196 -0.223196 0.974774 112.508 48.1218)" fill="#FCE72F"/>
<ellipse rx="3.25622" ry="37.3369" transform="matrix(-0.932354 -0.361546 -0.361546 0.932354 78.5349 39.9884)" fill="#FCE72F"/>
<ellipse rx="3.49436" ry="41.094" transform="matrix(-0.762104 -0.647455 -0.647455 0.762104 58.3098 35.5804)" fill="#FCE72F"/>
<ellipse rx="3.49436" ry="51.3564" transform="matrix(-0.624205 -0.781261 -0.781261 0.624205 42.3042 37.4652)" fill="#FCE72F"/>
<ellipse rx="3.49436" ry="33.0037" transform="matrix(-0.736667 -0.676256 -0.676256 0.736667 35.8932 46.1225)" fill="#FCE72F"/>
<ellipse rx="3.49436" ry="43.0965" transform="matrix(-0.733237 -0.679974 -0.679974 0.733237 53.7335 36.1289)" fill="#FCE72F"/>
<ellipse rx="3.49436" ry="43.0965" transform="matrix(-0.733237 -0.679974 -0.679974 0.733237 62.8667 37.976)" fill="#FCE72F"/>
<ellipse rx="3.25622" ry="19.4427" transform="matrix(-0.984729 -0.174096 -0.174096 0.984729 114.584 30.7126)" fill="#1A76B8"/>
<ellipse rx="3.25622" ry="19.9809" transform="matrix(-0.984729 -0.174096 -0.174096 0.984729 109.999 29.3569)" fill="#1A76B8"/>
<ellipse rx="3.25622" ry="21.217" transform="matrix(-0.984729 -0.174096 -0.174096 0.984729 119.275 32.4598)" fill="#1A76B8"/>
<ellipse rx="3.25622" ry="18.5885" transform="matrix(-0.984729 -0.174096 -0.174096 0.984729 123.732 32.8715)" fill="#1A76B8"/>
<ellipse rx="3.48325" ry="19.7827" transform="matrix(-0.984729 -0.174096 -0.174096 0.984729 106.226 28.3482)" fill="#1A76B8"/>
<ellipse rx="3.25622" ry="21.2237" transform="matrix(-0.984729 -0.174096 -0.174096 0.984729 102.274 27.4665)" fill="#1A76B8"/>
<ellipse rx="3.25622" ry="21.1314" transform="matrix(-0.965735 -0.259531 -0.259531 0.965735 98.3477 27.3854)" fill="#1A76B8"/>
<ellipse rx="3.25622" ry="21.0975" transform="matrix(-0.958994 -0.283425 -0.283425 0.958994 92.7984 26.2252)" fill="#1A76B8"/>
<ellipse rx="3.25622" ry="20.0499" transform="matrix(-0.935055 -0.354503 -0.354503 0.935055 87.2461 25.0547)" fill="#1A76B8"/>
<ellipse rx="3.25622" ry="20.8721" transform="matrix(-0.766508 -0.642234 -0.642234 0.766508 80.1181 24.3895)" fill="#1A76B8"/>
<ellipse rx="3.25622" ry="24.2618" transform="matrix(-0.725897 -0.687804 -0.687804 0.725897 73.9684 22.0091)" fill="#1A76B8"/>
<ellipse rx="3.25622" ry="22.5834" transform="matrix(-0.860196 -0.509963 -0.509963 0.860196 83.1252 23.906)" fill="#1A76B8"/>
<ellipse rx="3.25622" ry="27.7906" transform="matrix(-0.642682 -0.766133 -0.766133 0.642682 66.1583 20.3552)" fill="#1A76B8"/>
<ellipse cx="197.526" cy="8.89388" rx="2" ry="7.5" transform="rotate(-42.29 197.526 8.89388)" fill="#B71414"/>
<ellipse cx="197.526" cy="8.89388" rx="2" ry="7.5" transform="rotate(-42.29 197.526 8.89388)" fill="#B71414"/>
<ellipse cx="199.526" cy="7.89387" rx="2" ry="7.5" transform="rotate(-49.1772 199.526 7.89387)" fill="#B71414"/>
<ellipse cx="199.526" cy="7.89387" rx="2" ry="7.5" transform="rotate(-49.1772 199.526 7.89387)" fill="#B71414"/>
<ellipse cx="194.526" cy="10.8939" rx="2" ry="7.5" transform="rotate(-42.29 194.526 10.8939)" fill="#B71414"/>
<ellipse cx="194.526" cy="10.8939" rx="2" ry="7.5" transform="rotate(-42.29 194.526 10.8939)" fill="#B71414"/>
<ellipse cx="190.526" cy="11.8939" rx="2" ry="7.5" transform="rotate(-35.748 190.526 11.8939)" fill="#B71414"/>
<ellipse cx="190.526" cy="11.8939" rx="2" ry="7.5" transform="rotate(-35.748 190.526 11.8939)" fill="#B71414"/>
<ellipse cx="186.005" cy="12.2554" rx="2" ry="7.5" transform="rotate(-21.4537 186.005 12.2554)" fill="#B71414"/>
<ellipse cx="186.005" cy="12.2554" rx="2" ry="7.5" transform="rotate(-21.4537 186.005 12.2554)" fill="#B71414"/>
<ellipse cx="182.85" cy="13.7621" rx="2" ry="7.5" transform="rotate(-14.8059 182.85 13.7621)" fill="#B71414"/>
<ellipse cx="182.85" cy="13.7621" rx="2" ry="7.5" transform="rotate(-14.8059 182.85 13.7621)" fill="#B71414"/>
<ellipse cx="179.809" cy="14.6738" rx="2" ry="7.5" transform="rotate(-6.28226 179.809 14.6738)" fill="#B71414"/>
<ellipse cx="179.809" cy="14.6738" rx="2" ry="7.5" transform="rotate(-6.28226 179.809 14.6738)" fill="#B71414"/>
<ellipse cx="176.809" cy="15.6738" rx="2" ry="7.5" transform="rotate(-6.28226 176.809 15.6738)" fill="#B71414"/>
<ellipse cx="176.809" cy="15.6738" rx="2" ry="7.5" transform="rotate(-6.28226 176.809 15.6738)" fill="#B71414"/>
<ellipse cx="173.307" cy="15.5759" rx="2" ry="7.5" transform="rotate(2.35785 173.307 15.5759)" fill="#B71414"/>
<ellipse cx="173.307" cy="15.5759" rx="2" ry="7.5" transform="rotate(2.35785 173.307 15.5759)" fill="#B71414"/>
<ellipse cx="170.307" cy="15.5759" rx="2" ry="7.5" transform="rotate(2.35785 170.307 15.5759)" fill="#B71414"/>
<ellipse cx="170.307" cy="15.5759" rx="2" ry="7.5" transform="rotate(2.35785 170.307 15.5759)" fill="#B71414"/>
<ellipse cx="166.88" cy="16.6849" rx="2" ry="7.5" transform="rotate(-6.84575 166.88 16.6849)" fill="#B71414"/>
<ellipse cx="166.88" cy="16.6849" rx="2" ry="7.5" transform="rotate(-6.84575 166.88 16.6849)" fill="#B71414"/>
<ellipse cx="163.88" cy="17.6849" rx="2" ry="7.5" transform="rotate(-6.84575 163.88 17.6849)" fill="#B71414"/>
<ellipse cx="163.88" cy="17.6849" rx="2" ry="7.5" transform="rotate(-6.84575 163.88 17.6849)" fill="#B71414"/>
<ellipse cx="160.88" cy="18.6849" rx="2" ry="7.5" transform="rotate(-6.84575 160.88 18.6849)" fill="#B71414"/>
<ellipse cx="160.88" cy="18.6849" rx="2" ry="7.5" transform="rotate(-6.84575 160.88 18.6849)" fill="#B71414"/>
<ellipse cx="157.88" cy="19.6849" rx="2" ry="7.5" transform="rotate(-6.84575 157.88 19.6849)" fill="#B71414"/>
<ellipse cx="157.88" cy="19.6849" rx="2" ry="7.5" transform="rotate(-6.84575 157.88 19.6849)" fill="#B71414"/>
<ellipse cx="154.426" cy="19.6022" rx="2" ry="7.5" transform="rotate(3.28232 154.426 19.6022)" fill="#B71414"/>
<ellipse cx="154.426" cy="19.6022" rx="2" ry="7.5" transform="rotate(3.28232 154.426 19.6022)" fill="#B71414"/>
<ellipse cx="151.426" cy="19.6022" rx="2" ry="7.5" transform="rotate(3.28232 151.426 19.6022)" fill="#B71414"/>
<ellipse cx="151.426" cy="19.6022" rx="2" ry="7.5" transform="rotate(3.28232 151.426 19.6022)" fill="#B71414"/>
<ellipse cx="81.6282" cy="8.43805" rx="2" ry="7.5" transform="rotate(47.184 81.6282 8.43805)" fill="#B71414"/>
<ellipse cx="81.6282" cy="8.43805" rx="2" ry="7.5" transform="rotate(47.184 81.6282 8.43805)" fill="#B71414"/>
<ellipse cx="80.8608" cy="7.56442" rx="2" ry="7.5" transform="rotate(47.184 80.8608 7.56442)" fill="#B71414"/>
<ellipse cx="80.8608" cy="7.56442" rx="2" ry="7.5" transform="rotate(47.184 80.8608 7.56442)" fill="#B71414"/>
<ellipse cx="84.8607" cy="10.5644" rx="2" ry="7.5" transform="rotate(30.509 84.8607 10.5644)" fill="#B71414"/>
<ellipse cx="84.8607" cy="10.5644" rx="2" ry="7.5" transform="rotate(30.509 84.8607 10.5644)" fill="#B71414"/>
<ellipse cx="88.5307" cy="11.477" rx="2" ry="7.5" transform="rotate(30.509 88.5307 11.477)" fill="#B71414"/>
<ellipse cx="88.5307" cy="11.477" rx="2" ry="7.5" transform="rotate(30.509 88.5307 11.477)" fill="#B71414"/>
<ellipse cx="91.5306" cy="12.477" rx="2" ry="7.5" transform="rotate(23.8348 91.5306 12.477)" fill="#B71414"/>
<ellipse cx="91.5306" cy="12.477" rx="2" ry="7.5" transform="rotate(23.8348 91.5306 12.477)" fill="#B71414"/>
<ellipse cx="94.8602" cy="12.6686" rx="2" ry="7.5" transform="rotate(23.8348 94.8602 12.6686)" fill="#B71414"/>
<ellipse cx="94.8602" cy="12.6686" rx="2" ry="7.5" transform="rotate(23.8348 94.8602 12.6686)" fill="#B71414"/>
<ellipse cx="97.8602" cy="13.6686" rx="2" ry="7.5" transform="rotate(23.8348 97.8602 13.6686)" fill="#B71414"/>
<ellipse cx="97.8602" cy="13.6686" rx="2" ry="7.5" transform="rotate(23.8348 97.8602 13.6686)" fill="#B71414"/>
<ellipse cx="101.86" cy="14.6686" rx="2" ry="7.5" transform="rotate(23.8348 101.86 14.6686)" fill="#B71414"/>
<ellipse cx="101.86" cy="14.6686" rx="2" ry="7.5" transform="rotate(23.8348 101.86 14.6686)" fill="#B71414"/>
<ellipse cx="104.86" cy="15.6686" rx="2" ry="7.5" transform="rotate(23.8348 104.86 15.6686)" fill="#B71414"/>
<ellipse cx="104.86" cy="15.6686" rx="2" ry="7.5" transform="rotate(23.8348 104.86 15.6686)" fill="#B71414"/>
<ellipse cx="108.007" cy="16.7603" rx="2" ry="7.5" transform="rotate(16.1497 108.007 16.7603)" fill="#B71414"/>
<ellipse cx="108.007" cy="16.7603" rx="2" ry="7.5" transform="rotate(16.1497 108.007 16.7603)" fill="#B71414"/>
<ellipse cx="111.007" cy="17.7603" rx="2" ry="7.5" transform="rotate(16.1497 111.007 17.7603)" fill="#B71414"/>
<ellipse cx="111.007" cy="17.7603" rx="2" ry="7.5" transform="rotate(16.1497 111.007 17.7603)" fill="#B71414"/>
<ellipse cx="115.007" cy="17.7603" rx="2" ry="7.5" transform="rotate(16.1497 115.007 17.7603)" fill="#B71414"/>
<ellipse cx="115.007" cy="17.7603" rx="2" ry="7.5" transform="rotate(16.1497 115.007 17.7603)" fill="#B71414"/>
<ellipse cx="118.031" cy="18.7673" rx="2.02518" ry="7.5" transform="rotate(8.21468 118.031 18.7673)" fill="#B71414"/>
<ellipse cx="118.031" cy="18.7673" rx="2.02518" ry="7.5" transform="rotate(8.21468 118.031 18.7673)" fill="#B71414"/>
<ellipse cx="121.076" cy="19.7124" rx="2.02518" ry="7.5" transform="rotate(8.21468 121.076 19.7124)" fill="#B71414"/>
<ellipse cx="121.076" cy="19.7124" rx="2.02518" ry="7.5" transform="rotate(8.21468 121.076 19.7124)" fill="#B71414"/>
<ellipse cx="125.076" cy="19.7124" rx="2.02518" ry="7.5" transform="rotate(8.21468 125.076 19.7124)" fill="#B71414"/>
<ellipse cx="125.076" cy="19.7124" rx="2.02518" ry="7.5" transform="rotate(8.21468 125.076 19.7124)" fill="#B71414"/>
<ellipse cx="127.076" cy="20.7124" rx="2.02518" ry="7.5" transform="rotate(8.21468 127.076 20.7124)" fill="#B71414"/>
<ellipse cx="127.076" cy="20.7124" rx="2.02518" ry="7.5" transform="rotate(8.21468 127.076 20.7124)" fill="#B71414"/>
</svg>
