<svg width="278" height="87" viewBox="0 0 278 87" fill="none" xmlns="http://www.w3.org/2000/svg">
<rect width="46.8245" height="46.1256" transform="matrix(-0.98439 -0.175999 -0.175999 0.98439 127.894 13.5737)" fill="#1A8D4F"/>
<path d="M82.449 4.45105L16.49 53.9203L75.1588 51.1333L82.449 4.45105Z" fill="#7EE319"/>
<ellipse rx="3.49436" ry="41.6422" transform="matrix(-0.783712 -0.621124 -0.621124 0.783712 64.6158 38.5351)" fill="#1E9D59"/>
<ellipse rx="3.25622" ry="39.1113" transform="matrix(-0.883856 -0.467759 -0.467759 0.883856 66.5983 39.0919)" fill="#1E9D59"/>
<ellipse rx="3.25622" ry="39.1113" transform="matrix(-0.883856 -0.467759 -0.467759 0.883856 71.1727 39.0919)" fill="#1E9D59"/>
<ellipse rx="3.25622" ry="38.2016" transform="matrix(-0.883856 -0.467759 -0.467759 0.883856 75.0238 39.2879)" fill="#1E9D59"/>
<ellipse rx="3.25622" ry="37.3369" transform="matrix(-0.951951 -0.30625 -0.30625 0.951951 82.0121 40.4647)" fill="#1E9D59"/>
<ellipse rx="3.25622" ry="37.3369" transform="matrix(-0.968622 -0.24854 -0.24854 0.968622 88.5343 42.5401)" fill="#1E9D59"/>
<ellipse rx="3.25622" ry="37.3369" transform="matrix(-0.968622 -0.24854 -0.24854 0.968622 84.4337 40.9746)" fill="#1E9D59"/>
<ellipse rx="3.25622" ry="37.3369" transform="matrix(-0.980437 -0.196835 -0.196835 0.980437 93.4337 43.9746)" fill="#1E9D59"/>
<ellipse rx="3.25622" ry="37.3369" transform="matrix(-0.991881 -0.127168 -0.127168 0.991881 99.5418 44.2474)" fill="#1E9D59"/>
<ellipse rx="3.25622" ry="37.3369" transform="matrix(-0.97818 -0.20776 -0.20776 0.97818 102.867 45.3997)" fill="#1E9D59"/>
<ellipse rx="3.25622" ry="37.3369" transform="matrix(-0.97818 -0.20776 -0.20776 0.97818 97.9422 45.1987)" fill="#1E9D59"/>
<ellipse rx="3.25622" ry="37.3369" transform="matrix(-0.984729 -0.174096 -0.174096 0.984729 106.978 46.4478)" fill="#1E9D59"/>
<ellipse rx="3.25622" ry="37.3369" transform="matrix(-0.974774 -0.223196 -0.223196 0.974774 118.508 48.1218)" fill="#1E9D59"/>
<ellipse rx="3.25622" ry="37.3369" transform="matrix(-0.974774 -0.223196 -0.223196 0.974774 112.508 48.1218)" fill="#1E9D59"/>
<ellipse rx="3.25622" ry="37.3369" transform="matrix(-0.932354 -0.361546 -0.361546 0.932354 78.5349 39.9884)" fill="#1E9D59"/>
<ellipse rx="3.49436" ry="41.094" transform="matrix(-0.762104 -0.647455 -0.647455 0.762104 58.3098 35.5804)" fill="#1E9D59"/>
<ellipse rx="3.49436" ry="51.3564" transform="matrix(-0.624205 -0.781261 -0.781261 0.624205 42.3042 37.4652)" fill="#1E9D59"/>
<ellipse rx="3.49436" ry="33.0037" transform="matrix(-0.736667 -0.676256 -0.676256 0.736667 35.8932 46.1225)" fill="#1E9D59"/>
<ellipse rx="3.49436" ry="43.0965" transform="matrix(-0.733237 -0.679974 -0.679974 0.733237 53.7335 36.1289)" fill="#1E9D59"/>
<ellipse rx="3.49436" ry="43.0965" transform="matrix(-0.733237 -0.679974 -0.679974 0.733237 62.8667 37.976)" fill="#1E9D59"/>
<ellipse rx="3.25622" ry="16.5486" transform="matrix(-0.984729 -0.174096 -0.174096 0.984729 115.088 27.8628)" fill="#1A8D4F"/>
<ellipse rx="3.25622" ry="16.5486" transform="matrix(-0.984729 -0.174096 -0.174096 0.984729 110.597 25.9771)" fill="#1A8D4F"/>
<ellipse rx="3.25622" ry="16.5486" transform="matrix(-0.984729 -0.174096 -0.174096 0.984729 120.088 27.8628)" fill="#1A8D4F"/>
<ellipse rx="3.25622" ry="16.5486" transform="matrix(-0.984729 -0.174096 -0.174096 0.984729 124.088 30.8628)" fill="#1A8D4F"/>
<ellipse rx="3.25622" ry="16.5486" transform="matrix(-0.984729 -0.174096 -0.174096 0.984729 105.088 24.8628)" fill="#1A8D4F"/>
<ellipse rx="3.25622" ry="16.5486" transform="matrix(-0.984729 -0.174096 -0.174096 0.984729 103.088 22.8628)" fill="#1A8D4F"/>
<ellipse rx="3.25622" ry="16.5486" transform="matrix(-0.984729 -0.174096 -0.174096 0.984729 99.0877 22.8628)" fill="#1A8D4F"/>
<ellipse rx="3.25622" ry="16.5486" transform="matrix(-0.958994 -0.283425 -0.283425 0.958994 94.0876 21.8628)" fill="#1A8D4F"/>
<ellipse rx="3.25622" ry="16.5486" transform="matrix(-0.849925 -0.526904 -0.526904 0.849925 88.4873 21.7808)" fill="#1A8D4F"/>
<ellipse rx="3.25622" ry="16.5486" transform="matrix(-0.849925 -0.526904 -0.526904 0.849925 82.4873 20.7808)" fill="#1A8D4F"/>
<ellipse rx="3.25622" ry="16.5486" transform="matrix(-0.761697 -0.647934 -0.647934 0.761697 77.4873 17.7808)" fill="#1A8D4F"/>
<ellipse rx="3.25622" ry="16.5486" transform="matrix(-0.860196 -0.509963 -0.509963 0.860196 86.2027 18.7149)" fill="#1A8D4F"/>
<ellipse rx="3.25622" ry="16.5486" transform="matrix(-0.642682 -0.766133 -0.766133 0.642682 74.7712 13.1302)" fill="#1A8D4F"/>
<rect x="149.281" y="14.5737" width="46.8245" height="46.1256" transform="rotate(-10.1368 149.281 14.5737)" fill="#1A8D4F"/>
<path d="M194.726 5.45105L260.685 54.9203L202.017 52.1333L194.726 5.45105Z" fill="#7EE319"/>
<ellipse cx="212.559" cy="39.5351" rx="3.49436" ry="41.6422" transform="rotate(-38.3983 212.559 39.5351)" fill="#1E9D59"/>
<ellipse cx="210.577" cy="40.0919" rx="3.25622" ry="39.1113" transform="rotate(-27.8889 210.577 40.0919)" fill="#1E9D59"/>
<ellipse cx="206.002" cy="40.0919" rx="3.25622" ry="39.1113" transform="rotate(-27.8889 206.002 40.0919)" fill="#1E9D59"/>
<ellipse cx="202.151" cy="40.2879" rx="3.25622" ry="38.2016" transform="rotate(-27.8889 202.151 40.2879)" fill="#1E9D59"/>
<ellipse cx="195.163" cy="41.4647" rx="3.25622" ry="37.3369" transform="rotate(-17.8334 195.163 41.4647)" fill="#1E9D59"/>
<ellipse cx="188.641" cy="43.5401" rx="3.25622" ry="37.3369" transform="rotate(-14.3911 188.641 43.5401)" fill="#1E9D59"/>
<ellipse cx="192.741" cy="41.9746" rx="3.25622" ry="37.3369" transform="rotate(-14.3911 192.741 41.9746)" fill="#1E9D59"/>
<ellipse cx="183.741" cy="44.9746" rx="3.25622" ry="37.3369" transform="rotate(-11.3519 183.741 44.9746)" fill="#1E9D59"/>
<ellipse cx="177.633" cy="45.2474" rx="3.25622" ry="37.3369" transform="rotate(-7.30597 177.633 45.2474)" fill="#1E9D59"/>
<ellipse cx="174.308" cy="46.3997" rx="3.25622" ry="37.3369" transform="rotate(-11.9911 174.308 46.3997)" fill="#1E9D59"/>
<ellipse cx="179.233" cy="46.1987" rx="3.25622" ry="37.3369" transform="rotate(-11.9911 179.233 46.1987)" fill="#1E9D59"/>
<ellipse cx="170.197" cy="47.4478" rx="3.25622" ry="37.3369" transform="rotate(-10.0261 170.197 47.4478)" fill="#1E9D59"/>
<ellipse cx="158.668" cy="49.1218" rx="3.25622" ry="37.3369" transform="rotate(-12.8968 158.668 49.1218)" fill="#1E9D59"/>
<ellipse cx="164.668" cy="49.1218" rx="3.25622" ry="37.3369" transform="rotate(-12.8968 164.668 49.1218)" fill="#1E9D59"/>
<ellipse cx="198.64" cy="40.9884" rx="3.25622" ry="37.3369" transform="rotate(-21.1952 198.64 40.9884)" fill="#1E9D59"/>
<ellipse cx="218.865" cy="36.5804" rx="3.49436" ry="41.094" transform="rotate(-40.35 218.865 36.5804)" fill="#1E9D59"/>
<ellipse cx="234.871" cy="38.4652" rx="3.49436" ry="51.3564" transform="rotate(-51.3762 234.871 38.4652)" fill="#1E9D59"/>
<ellipse cx="241.282" cy="47.1225" rx="3.49436" ry="33.0037" transform="rotate(-42.5518 241.282 47.1225)" fill="#1E9D59"/>
<ellipse cx="223.442" cy="37.1289" rx="3.49436" ry="43.0965" transform="rotate(-42.8416 223.442 37.1289)" fill="#1E9D59"/>
<ellipse cx="214.309" cy="38.976" rx="3.49436" ry="43.0965" transform="rotate(-42.8416 214.309 38.976)" fill="#1E9D59"/>
<ellipse cx="162.088" cy="28.8628" rx="3.25622" ry="16.5486" transform="rotate(-10.0261 162.088 28.8628)" fill="#1A8D4F"/>
<ellipse cx="166.578" cy="26.9771" rx="3.25622" ry="16.5486" transform="rotate(-10.0261 166.578 26.9771)" fill="#1A8D4F"/>
<ellipse cx="164.088" cy="28.8628" rx="3.25622" ry="16.5486" transform="rotate(-10.0261 164.088 28.8628)" fill="#1A8D4F"/>
<ellipse cx="157.088" cy="28.8628" rx="3.25622" ry="16.5486" transform="rotate(-10.0261 157.088 28.8628)" fill="#1A8D4F"/>
<ellipse cx="153.088" cy="31.8628" rx="3.25622" ry="16.5486" transform="rotate(-10.0261 153.088 31.8628)" fill="#1A8D4F"/>
<ellipse cx="172.088" cy="25.8628" rx="3.25622" ry="16.5486" transform="rotate(-10.0261 172.088 25.8628)" fill="#1A8D4F"/>
<ellipse cx="178.088" cy="23.8628" rx="3.25622" ry="16.5486" transform="rotate(-10.0261 178.088 23.8628)" fill="#1A8D4F"/>
<ellipse cx="183.088" cy="22.8628" rx="3.25622" ry="16.5486" transform="rotate(-16.4647 183.088 22.8628)" fill="#1A8D4F"/>
<ellipse cx="188.688" cy="22.7808" rx="3.25622" ry="16.5486" transform="rotate(-31.7965 188.688 22.7808)" fill="#1A8D4F"/>
<ellipse cx="194.688" cy="21.7808" rx="3.25622" ry="16.5486" transform="rotate(-31.7965 194.688 21.7808)" fill="#1A8D4F"/>
<ellipse cx="190.487" cy="20.7808" rx="3.25622" ry="16.5486" transform="rotate(-31.7965 190.487 20.7808)" fill="#1A8D4F"/>
<ellipse cx="199.688" cy="18.7808" rx="3.25622" ry="16.5486" transform="rotate(-40.386 199.688 18.7808)" fill="#1A8D4F"/>
<ellipse cx="202.404" cy="14.1302" rx="3.25622" ry="16.5486" transform="rotate(-50.0079 202.404 14.1302)" fill="#1A8D4F"/>
</svg>
