<svg width="1356" height="681" viewBox="0 0 1356 681" fill="none" xmlns="http://www.w3.org/2000/svg">
<path d="M544.35 537H341V143.443L544.127 219.582L544.297 219.645H544.478H838.415H1119.57H1119.73L1119.88 219.596L1355 143.375V537H1119.71L838.678 460.39L838.421 460.32L838.163 460.387L544.35 537Z" fill="#BCFBDD" stroke="black" stroke-width="2"/>
<path d="M462.068 126.08L592.949 259.402C577.08 363.748 552.747 435.464 512.747 494.451C472.811 553.345 417.118 599.763 338.073 653.287C263.561 602.351 212.108 555.692 173.226 496.072C134.253 436.312 107.794 363.353 83.5844 259.637L211.219 131.848L338.087 4.82695L462.068 126.08Z" fill="#F6FA4F" stroke="black" stroke-width="5"/>
<path d="M247.93 260.791C246.151 245.784 263.37 236.089 275.278 245.393L343.431 298.641C352.99 306.109 351.876 320.899 341.305 326.85L283.336 359.489C272.766 365.44 259.542 358.724 258.114 346.677L247.93 260.791Z" fill="#EC0B33"/>
<path d="M312.96 232.423C317.348 217.943 337.045 215.98 344.205 229.308L385.287 305.781C391.024 316.46 384.06 329.54 371.998 330.742L305.737 337.347C293.675 338.549 284.266 327.101 287.782 315.5L312.96 232.423Z" fill="#EC0B33"/>
<path d="M273.253 222.035C271.602 203.338 297.009 196.152 305.396 212.943L361.509 325.291C366.272 334.827 361.184 346.344 350.927 349.245L305.862 361.992C295.604 364.893 285.238 357.747 284.301 347.129L273.253 222.035Z" fill="#CA0B2D"/>
<ellipse cx="331.705" cy="350.717" rx="12.1983" ry="9.91111" fill="#447C0C"/>
<path d="M327.022 353.804L335.996 350.767C335.996 350.767 376.988 382.025 389.084 395.748C401.179 409.471 381.944 486.532 381.944 486.532L372.97 489.569C391.924 420.534 381.973 390.757 327.022 353.804Z" fill="#447C0C"/>
<ellipse cx="379.935" cy="499.434" rx="25.159" ry="19.0598" fill="#264704"/>
<rect x="274.293" y="487.091" width="108.26" height="8.66485" transform="rotate(2.71854 274.293 487.091)" fill="#264704"/>
<rect x="243.144" y="471.645" width="44.4351" height="8.66485" transform="rotate(26.1805 243.144 471.645)" fill="#264704"/>
<path d="M236.841 462.96L250.005 475.16L240.862 480.452L236.841 462.96Z" fill="#264704"/>
<path d="M259.199 468.31L267.341 484.306L256.933 486.115L259.199 468.31Z" fill="#264704"/>
<path d="M292.28 472.231L295.074 489.961L284.617 488.461L292.28 472.231Z" fill="#264704"/>
<path d="M320.477 475.291L323.271 493.021L312.814 491.522L320.477 475.291Z" fill="#264704"/>
<path d="M350.758 478.907L353.552 496.637L343.095 495.137L350.758 478.907Z" fill="#264704"/>
<path d="M243.283 499.49L248.939 482.456L257.541 488.588L243.283 499.49Z" fill="#264704"/>
<path d="M278.686 512.783L274.329 495.372L284.878 495.936L278.686 512.783Z" fill="#264704"/>
<path d="M310.583 513.21L306.226 495.798L316.775 496.363L310.583 513.21Z" fill="#264704"/>
<path d="M341.212 511.34L336.855 493.928L347.404 494.493L341.212 511.34Z" fill="#264704"/>
<rect width="125.248" height="9.77705" transform="matrix(-0.637086 0.770793 0.804666 0.593728 459.694 390.758)" fill="#264704"/>
<rect width="50.1874" height="10.0152" transform="matrix(-0.278566 0.960417 0.974469 0.224521 470.5 353.014)" fill="#264704"/>
<path d="M467.839 341.42L468.219 361.408L479.959 357.32L467.839 341.42Z" fill="#264704"/>
<path d="M455.08 364.43L462.684 382.804L472.372 375.151L455.08 364.43Z" fill="#264704"/>
<path d="M432.72 395.637L446.002 410.651L452.844 400.602L432.72 395.637Z" fill="#264704"/>
<path d="M413.414 422.034L426.697 437.048L433.539 426.999L413.414 422.034Z" fill="#264704"/>
<path d="M392.97 450.617L406.253 465.631L413.094 455.582L392.97 450.617Z" fill="#264704"/>
<path d="M494.672 372.944L475.411 365.682L474.054 377.434L494.672 372.944Z" fill="#264704"/>
<path d="M478.674 412.812L466.887 396.681L459.159 406.144L478.674 412.812Z" fill="#264704"/>
<path d="M454.189 440.514L442.402 424.383L434.674 433.846L454.189 440.514Z" fill="#264704"/>
<path d="M428.689 465.492L416.902 449.361L409.174 458.824L428.689 465.492Z" fill="#264704"/>
</svg>
