<svg width="350" height="350" viewBox="0 0 350 350" fill="none" xmlns="http://www.w3.org/2000/svg">
<g id="Frame 9" clip-path="url(#clip0)">
<rect width="350" height="350" fill="white"/>
<g id="bird_wrapper">
<g id="bird_stroke">
<ellipse id="Ellipse 101" cx="169.707" cy="174.5" rx="42" ry="105.5" fill="#109AB8"/>
<ellipse id="Ellipse 104" cx="169.707" cy="69" rx="32" ry="31" fill="#F8FC34"/>
<path id="Polygon 24" d="M169.707 22L180.099 46H159.314L169.707 22Z" fill="#E89518"/>
<rect id="Rectangle 1" x="179.707" y="261" width="12" height="38" fill="#E89518"/>
<rect id="Rectangle 2" x="152.707" y="261" width="12" height="38" fill="#E89518"/>
<g id="wing_right">
<path id="Union" fill-rule="evenodd" clip-rule="evenodd" d="M103.11 169.305C138.567 184.83 171.597 185.025 180.991 168.312C191.79 149.102 167.27 114.826 126.225 91.7554C85.1808 68.6847 43.154 65.5555 32.3559 84.7661C31.963 85.4653 31.6167 86.1844 31.3164 86.9222C28.2619 88.1645 24.9152 91.3543 22.4555 95.7304C18.5562 102.668 18.3622 109.959 22.0222 112.016C24.7841 113.569 28.9513 111.697 32.5057 107.704C33.621 110.517 35.07 113.403 36.8296 116.331C35.3323 117.818 33.9092 119.682 32.7003 121.833C28.801 128.77 28.607 136.061 32.267 138.119C35.9271 140.176 42.0551 136.22 45.9544 129.283C46.0156 129.174 46.0758 129.065 46.1352 128.956C48.1771 131.301 50.3911 133.643 52.7659 135.966C51.671 137.223 50.6379 138.682 49.7265 140.303C45.8272 147.241 45.6332 154.532 49.2932 156.589C52.9533 158.647 59.0813 154.691 62.9806 147.753C63.3414 147.112 63.6704 146.467 63.9676 145.823C65.7072 147.207 67.5022 148.575 69.3498 149.924C68.92 150.555 68.5078 151.219 68.1179 151.913C64.2186 158.85 64.0246 166.141 67.6846 168.198C71.3446 170.256 77.4727 166.3 81.372 159.363C81.5709 159.009 81.7602 158.654 81.9398 158.299C83.6359 159.326 85.3638 160.335 87.1221 161.323C87.9207 161.772 88.7196 162.213 89.5188 162.647C89.323 162.964 89.1319 163.289 88.9458 163.62C85.0465 170.557 84.8525 177.848 88.5125 179.906C92.1725 181.963 98.3006 178.007 102.2 171.07C102.53 170.483 102.833 169.894 103.11 169.305Z" fill="#CE0505"/>
<path id="Union_2" fill-rule="evenodd" clip-rule="evenodd" d="M91.7491 162.919C127.206 178.444 160.237 178.64 169.631 161.927C180.429 142.716 155.909 108.44 114.865 85.3696C73.8201 62.2989 31.7933 59.1697 20.9952 78.3803C20.6022 79.0795 20.256 79.7987 19.9556 80.5365C16.9011 81.7789 13.5545 84.9687 11.0947 89.3448C7.19544 96.2819 7.00147 103.573 10.6615 105.631C13.4234 107.183 17.5906 105.311 21.145 101.318C22.2603 104.131 23.7093 107.017 25.4689 109.945C23.9715 111.432 22.5485 113.296 21.3396 115.447C17.4403 122.384 17.2463 129.676 20.9063 131.733C24.5664 133.79 30.6944 129.834 34.5937 122.897C34.6549 122.788 34.7151 122.679 34.7745 122.57C36.8164 124.915 39.0304 127.257 41.4052 129.581C40.3103 130.838 39.2772 132.296 38.3658 133.918C34.4665 140.855 34.2725 148.146 37.9325 150.204C41.5926 152.261 47.7206 148.305 51.6199 141.368C51.9807 140.726 52.3097 140.081 52.6069 139.438C54.3466 140.821 56.1415 142.189 57.9891 143.538C57.5593 144.169 57.1471 144.833 56.7571 145.527C52.8578 152.464 52.6639 159.755 56.3239 161.813C59.9839 163.87 66.112 159.914 70.0113 152.977C70.2102 152.623 70.3995 152.268 70.5791 151.913C72.2752 152.94 74.0031 153.949 75.7614 154.937C76.56 155.386 77.3589 155.828 78.1581 156.261C77.9623 156.579 77.7711 156.903 77.585 157.234C73.6857 164.171 73.4918 171.463 77.1518 173.52C80.8118 175.577 86.9399 171.621 90.8392 164.684C91.169 164.097 91.4723 163.508 91.7491 162.919Z" fill="#CE0505"/>
</g>
<g id="wing">
<path id="Union_3" fill-rule="evenodd" clip-rule="evenodd" d="M245.716 168.67C209.678 183.446 176.307 182.653 167.053 165.316C156.416 145.389 181.67 111.152 223.46 88.8442C265.249 66.5367 307.75 64.6069 318.387 84.5338C318.774 85.259 319.113 86.0032 319.406 86.7651C322.475 88.1246 325.81 91.48 328.233 96.0193C332.075 103.215 332.168 110.661 328.441 112.65C325.629 114.151 321.446 112.116 317.911 107.935C316.745 110.772 315.24 113.673 313.422 116.608C314.913 118.17 316.324 120.115 317.515 122.346C321.356 129.542 321.449 136.988 317.723 138.977C313.997 140.966 307.862 136.745 304.021 129.55C303.96 129.437 303.901 129.324 303.843 129.211C301.747 131.542 299.477 133.865 297.045 136.165C298.133 137.48 299.157 139 300.054 140.682C303.896 147.877 303.989 155.323 300.262 157.313C296.536 159.302 290.401 155.081 286.56 147.885C286.204 147.219 285.881 146.551 285.59 145.886C283.813 147.246 281.98 148.588 280.095 149.908C280.52 150.565 280.927 151.255 281.311 151.975C285.152 159.17 285.245 166.616 281.519 168.606C277.792 170.595 271.658 166.374 267.817 159.178C267.621 158.811 267.434 158.443 267.258 158.076C265.53 159.073 263.77 160.05 261.98 161.006C261.167 161.44 260.354 161.866 259.54 162.285C259.733 162.614 259.922 162.951 260.105 163.294C263.946 170.49 264.039 177.936 260.313 179.925C256.586 181.915 250.452 177.694 246.611 170.498C246.286 169.889 245.988 169.279 245.716 168.67Z" fill="#CE0505"/>
<path id="Union_4" fill-rule="evenodd" clip-rule="evenodd" d="M257.283 162.496C221.245 177.272 187.874 176.478 178.62 159.142C167.983 139.215 193.237 104.978 235.027 82.67C276.816 60.3625 319.316 58.4327 329.954 78.3596C330.341 79.0848 330.68 79.829 330.973 80.5909C334.041 81.9504 337.377 85.3058 339.8 89.8451C343.641 97.0409 343.734 104.487 340.008 106.476C337.196 107.977 333.013 105.942 329.478 101.761C328.312 104.598 326.807 107.499 324.988 110.433C326.48 111.996 327.891 113.941 329.082 116.172C332.923 123.368 333.016 130.814 329.29 132.803C325.563 134.792 319.429 130.571 315.588 123.375C315.527 123.262 315.468 123.15 315.41 123.037C313.314 125.368 311.044 127.691 308.612 129.991C309.7 131.306 310.724 132.825 311.621 134.507C315.462 141.703 315.555 149.149 311.829 151.138C308.103 153.127 301.968 148.907 298.127 141.711C297.771 141.045 297.448 140.377 297.157 139.712C295.38 141.071 293.547 142.413 291.662 143.734C292.087 144.391 292.494 145.081 292.878 145.8C296.719 152.996 296.812 160.442 293.086 162.431C289.359 164.421 283.225 160.2 279.383 153.004C279.187 152.637 279.001 152.269 278.825 151.901C277.097 152.899 275.337 153.876 273.547 154.832C272.734 155.266 271.92 155.692 271.107 156.111C271.3 156.44 271.489 156.777 271.672 157.12C275.513 164.316 275.606 171.762 271.88 173.751C268.153 175.74 262.019 171.52 258.177 164.324C257.853 163.715 257.554 163.105 257.283 162.496Z" fill="#CE0505"/>
</g>
<g id="Ellipse 110">
<ellipse cx="155.707" cy="58.5" rx="6" ry="6.5" fill="black"/>
<ellipse cx="155.707" cy="58.5" rx="6" ry="6.5" fill="black"/>
<ellipse cx="155.707" cy="58.5" rx="6" ry="6.5" fill="black"/>
<ellipse cx="155.707" cy="58.5" rx="6" ry="6.5" fill="black"/>
</g>
<g id="Ellipse 111">
<ellipse cx="182.707" cy="58.5" rx="6" ry="6.5" fill="black"/>
<ellipse cx="182.707" cy="58.5" rx="6" ry="6.5" fill="black"/>
<ellipse cx="182.707" cy="58.5" rx="6" ry="6.5" fill="black"/>
<ellipse cx="182.707" cy="58.5" rx="6" ry="6.5" fill="black"/>
</g>
</g>
<g id="bird_fly">
<ellipse id="Ellipse 101_2" cx="170" cy="189.5" rx="42" ry="105.5" fill="#109AB8"/>
<ellipse id="Ellipse 104_2" cx="170" cy="84" rx="32" ry="31" fill="#F8FC34"/>
<path id="Polygon 24_2" d="M168 37L178.392 61H157.608L168 37Z" fill="#E89518"/>
<rect id="Rectangle 1_2" x="180" y="276" width="12" height="38" fill="#E89518"/>
<rect id="Rectangle 2_2" x="153" y="276" width="12" height="38" fill="#E89518"/>
<path id="Union_5" fill-rule="evenodd" clip-rule="evenodd" d="M123.934 200.21C159.399 196.745 186 182.297 186 165C186 145.118 150.854 129 107.5 129C64.1456 129 29 145.118 29 165C29 165.724 29.0466 166.442 29.1384 167.155C27.2471 169.483 26 173.471 26 178C26 185.18 29.134 191 33 191C35.9173 191 38.4178 187.686 39.4693 182.974C41.6336 184.693 44.0989 186.323 46.8321 187.847C46.3012 189.679 46 191.774 46 194C46 201.18 49.134 207 53 207C56.866 207 60 201.18 60 194C60 193.887 59.9992 193.775 59.9977 193.663C62.6946 194.605 65.5284 195.468 68.483 196.245C68.1712 197.718 68 199.322 68 201C68 208.18 71.134 214 75 214C78.866 214 82 208.18 82 201C82 200.336 81.9732 199.683 81.9214 199.046C83.9421 199.365 86.0001 199.647 88.0916 199.891C88.0313 200.578 88 201.282 88 202C88 209.18 91.134 215 95 215C98.866 215 102 209.18 102 202C102 201.634 101.992 201.271 101.976 200.912C103.801 200.97 105.643 201 107.5 201C108.344 201 109.184 200.994 110.021 200.982C110.007 201.318 110 201.657 110 202C110 209.18 113.134 215 117 215C120.866 215 124 209.18 124 202C124 201.393 123.978 200.795 123.934 200.21Z" fill="#CE0505"/>
<path id="Union_6" fill-rule="evenodd" clip-rule="evenodd" d="M111.934 200.21C147.399 196.745 174 182.297 174 165C174 145.118 138.854 129 95.5 129C52.1456 129 17 145.118 17 165C17 165.724 17.0466 166.442 17.1384 167.155C15.2471 169.483 14 173.471 14 178C14 185.18 17.134 191 21 191C23.9173 191 26.4178 187.686 27.4693 182.974C29.6336 184.693 32.0989 186.323 34.8321 187.847C34.3012 189.679 34 191.774 34 194C34 201.18 37.134 207 41 207C44.866 207 48 201.18 48 194C48 193.887 47.9992 193.775 47.9977 193.663C50.6946 194.605 53.5284 195.468 56.483 196.245C56.1712 197.718 56 199.322 56 201C56 208.18 59.134 214 63 214C66.866 214 70 208.18 70 201C70 200.336 69.9732 199.683 69.9214 199.046C71.9421 199.365 74.0001 199.647 76.0916 199.891C76.0313 200.578 76 201.282 76 202C76 209.18 79.134 215 83 215C86.866 215 90 209.18 90 202C90 201.634 89.9918 201.271 89.9758 200.912C91.8008 200.97 93.6428 201 95.5 201C96.3436 201 97.184 200.994 98.0212 200.982C98.0071 201.318 98 201.657 98 202C98 209.18 101.134 215 105 215C108.866 215 112 209.18 112 202C112 201.393 111.978 200.795 111.934 200.21Z" fill="#CE0505"/>
<path id="Union_7" fill-rule="evenodd" clip-rule="evenodd" d="M224.066 200.21C188.601 196.745 162 182.297 162 165C162 145.118 197.146 129 240.5 129C283.854 129 319 145.118 319 165C319 165.724 318.953 166.442 318.862 167.155C320.753 169.483 322 173.471 322 178C322 185.18 318.866 191 315 191C312.083 191 309.582 187.686 308.531 182.974C306.366 184.693 303.901 186.323 301.168 187.847C301.699 189.679 302 191.774 302 194C302 201.18 298.866 207 295 207C291.134 207 288 201.18 288 194C288 193.887 288.001 193.775 288.002 193.663C285.305 194.605 282.472 195.468 279.517 196.245C279.829 197.718 280 199.322 280 201C280 208.18 276.866 214 273 214C269.134 214 266 208.18 266 201C266 200.336 266.027 199.683 266.079 199.046C264.058 199.365 262 199.647 259.908 199.891C259.969 200.578 260 201.282 260 202C260 209.18 256.866 215 253 215C249.134 215 246 209.18 246 202C246 201.634 246.008 201.271 246.024 200.912C244.199 200.97 242.357 201 240.5 201C239.656 201 238.816 200.994 237.979 200.982C237.993 201.318 238 201.657 238 202C238 209.18 234.866 215 231 215C227.134 215 224 209.18 224 202C224 201.393 224.022 200.795 224.066 200.21Z" fill="#CE0505"/>
<path id="Union_8" fill-rule="evenodd" clip-rule="evenodd" d="M236.066 200.21C200.601 196.745 174 182.297 174 165C174 145.118 209.146 129 252.5 129C295.854 129 331 145.118 331 165C331 165.724 330.953 166.442 330.862 167.155C332.753 169.483 334 173.471 334 178C334 185.18 330.866 191 327 191C324.083 191 321.582 187.686 320.531 182.974C318.366 184.693 315.901 186.323 313.168 187.847C313.699 189.679 314 191.774 314 194C314 201.18 310.866 207 307 207C303.134 207 300 201.18 300 194C300 193.887 300.001 193.775 300.002 193.663C297.305 194.605 294.472 195.468 291.517 196.245C291.829 197.718 292 199.322 292 201C292 208.18 288.866 214 285 214C281.134 214 278 208.18 278 201C278 200.336 278.027 199.683 278.079 199.046C276.058 199.365 274 199.647 271.908 199.891C271.969 200.578 272 201.282 272 202C272 209.18 268.866 215 265 215C261.134 215 258 209.18 258 202C258 201.634 258.008 201.271 258.024 200.912C256.199 200.97 254.357 201 252.5 201C251.656 201 250.816 200.994 249.979 200.982C249.993 201.318 250 201.657 250 202C250 209.18 246.866 215 243 215C239.134 215 236 209.18 236 202C236 201.393 236.022 200.795 236.066 200.21Z" fill="#CE0505"/>
<g id="Ellipse 110_2">
<ellipse cx="156" cy="73.5" rx="6" ry="6.5" fill="black"/>
<ellipse cx="156" cy="73.5" rx="6" ry="6.5" fill="black"/>
<ellipse cx="156" cy="73.5" rx="6" ry="6.5" fill="black"/>
<ellipse cx="156" cy="73.5" rx="6" ry="6.5" fill="black"/>
</g>
<g id="Ellipse 111_2">
<ellipse cx="183" cy="73.5" rx="6" ry="6.5" fill="black"/>
<ellipse cx="183" cy="73.5" rx="6" ry="6.5" fill="black"/>
<ellipse cx="183" cy="73.5" rx="6" ry="6.5" fill="black"/>
<ellipse cx="183" cy="73.5" rx="6" ry="6.5" fill="black"/>
</g>
</g>
</g>
</g>
<defs>
<clipPath id="clip0">
<rect width="350" height="350" fill="white"/>
</clipPath>
</defs>
</svg>
