<svg width="299" height="300" viewBox="0 0 299 300" fill="none" xmlns="http://www.w3.org/2000/svg">
<ellipse cx="156.385" cy="188.981" rx="12.3416" ry="10.0275" fill="#8CC256"/>
<rect x="151.757" y="191.295" width="9.25617" height="75.592" fill="#8CC256"/>
<ellipse cx="157.157" cy="266.116" rx="25.4545" ry="19.2837" fill="#8CC256"/>
<path d="M238.349 227.6C238.349 235.268 204.41 233.77 196.696 231.456C188.983 229.142 155.044 235.268 155.044 227.6C155.044 219.932 196.696 213.715 196.696 213.715C196.696 213.715 238.349 219.932 238.349 227.6Z" fill="#518C22"/>
<path d="M77.909 212.173C77.909 219.841 111.848 218.344 119.562 216.03C127.275 213.715 161.214 219.841 161.214 212.173C161.214 204.505 119.562 198.289 119.562 198.289C119.562 198.289 77.909 204.505 77.909 212.173Z" fill="#508D20"/>
</svg>
