<svg width="298" height="300" viewBox="0 0 298 300" fill="none" xmlns="http://www.w3.org/2000/svg">
<g clip-path="url(#clip0_18_590)">
<path d="M94.646 55.949C97.2037 41.0555 116.468 36.6526 125.242 48.9563L184.046 131.42C191.089 141.296 185.818 155.16 173.993 157.862L98.0454 175.22C86.2197 177.923 75.4498 167.726 77.503 155.77L94.646 55.949Z" fill="#EC0B33"/>
<path d="M173.385 46.9671C181.706 34.331 201.149 38.0449 204.227 52.8587L224.906 152.377C227.372 164.245 216.979 174.808 205.072 172.533L128.488 157.904C116.581 155.63 110.812 141.98 117.48 131.856L173.385 46.9671Z" fill="#EC0B33"/>
<path d="M134.409 18.4775C138.138 0.0824559 164.54 0.411213 167.81 18.8935L193.664 165.026C195.522 175.522 187.372 185.119 176.713 184.986L121.373 184.297C110.714 184.164 102.806 174.368 104.924 163.92L134.409 18.4775Z" fill="#CA0B2D"/>
<ellipse cx="150.869" cy="187.498" rx="13.3794" ry="10.8708" fill="#447C0C"/>
<rect x="145.852" y="190.007" width="10.0346" height="81.9489" fill="#447C0C"/>
<ellipse cx="151.705" cy="271.119" rx="27.595" ry="20.9053" fill="#447C0C"/>
</g>
<defs>
<clipPath id="clip0_18_590">
<rect width="300" height="300" fill="white"/>
</clipPath>
</defs>
</svg>
