<svg width="295" height="300" viewBox="0 0 295 300" fill="none" xmlns="http://www.w3.org/2000/svg">
<g clip-path="url(#clip0_18_593)">
<path d="M59.5282 69.3997C57.7488 54.3933 74.9683 44.6982 86.8763 54.0018L137.92 93.8826C147.479 101.351 146.365 116.141 135.795 122.092L92.3778 146.537C81.8074 152.489 68.584 145.772 67.1556 133.725L59.5282 69.3997Z" fill="#EC0B33"/>
<path d="M112.947 44.8726C117.336 30.3927 137.032 28.4294 144.192 41.758L174.971 99.051C180.708 109.73 173.744 122.81 161.682 124.012L112.039 128.961C99.9766 130.163 90.5677 118.715 94.0837 107.114L112.947 44.8726Z" fill="#EC0B33"/>
<path d="M81.6898 43.0716C80.0387 24.3751 105.446 17.1887 113.832 33.9801L154.981 116.366C159.744 125.903 154.656 137.419 144.399 140.32L111.352 149.668C101.095 152.569 90.7287 145.423 89.791 134.805L81.6898 43.0716Z" fill="#CA0B2D"/>
<ellipse cx="130.716" cy="140.789" rx="10.4649" ry="8.50271" fill="#447C0C"/>
<path d="M126.698 143.438L134.397 140.833C134.397 140.833 169.564 167.649 179.941 179.422C190.317 191.195 173.816 257.305 173.816 257.305L166.117 259.911C182.378 200.686 173.84 175.14 126.698 143.438Z" fill="#447C0C"/>
<ellipse cx="172.092" cy="268.373" rx="21.5838" ry="16.3514" fill="#264704"/>
<rect x="81.462" y="257.784" width="92.8758" height="7.43355" transform="rotate(2.71854 81.462 257.784)" fill="#264704"/>
<rect x="54.7394" y="244.533" width="38.1208" height="7.43355" transform="rotate(26.1805 54.7394 244.533)" fill="#264704"/>
<path d="M49.3325 237.082L60.626 247.55L52.7821 252.089L49.3325 237.082Z" fill="#264704"/>
<path d="M68.5133 241.672L75.4978 255.394L66.5688 256.946L68.5133 241.672Z" fill="#264704"/>
<path d="M96.8936 245.036L99.2904 260.246L90.3193 258.96L96.8936 245.036Z" fill="#264704"/>
<path d="M121.084 247.661L123.481 262.871L114.51 261.585L121.084 247.661Z" fill="#264704"/>
<path d="M147.062 250.763L149.458 265.974L140.487 264.687L147.062 250.763Z" fill="#264704"/>
<path d="M54.8591 268.421L59.7112 253.808L67.0911 259.068L54.8591 268.421Z" fill="#264704"/>
<path d="M85.2314 279.826L81.4931 264.888L90.543 265.373L85.2314 279.826Z" fill="#264704"/>
<path d="M112.596 280.192L108.858 265.254L117.907 265.739L112.596 280.192Z" fill="#264704"/>
<path d="M138.872 278.587L135.134 263.649L144.184 264.134L138.872 278.587Z" fill="#264704"/>
<rect width="107.45" height="8.38771" transform="matrix(-0.637086 0.770793 0.804666 0.593728 240.517 175.141)" fill="#264704"/>
<rect width="43.0557" height="8.59205" transform="matrix(-0.278566 0.960417 0.974469 0.224521 249.788 142.76)" fill="#264704"/>
<path d="M247.505 132.815L247.831 149.962L257.902 146.455L247.505 132.815Z" fill="#264704"/>
<path d="M236.559 152.555L243.082 168.318L251.393 161.753L236.559 152.555Z" fill="#264704"/>
<path d="M217.376 179.327L228.771 192.207L234.641 183.586L217.376 179.327Z" fill="#264704"/>
<path d="M200.814 201.973L212.209 214.854L218.078 206.233L200.814 201.973Z" fill="#264704"/>
<path d="M183.275 226.494L194.67 239.375L200.539 230.753L183.275 226.494Z" fill="#264704"/>
<path d="M270.525 159.859L254.001 153.629L252.837 163.711L270.525 159.859Z" fill="#264704"/>
<path d="M256.8 194.061L246.688 180.223L240.058 188.341L256.8 194.061Z" fill="#264704"/>
<path d="M235.794 217.827L225.682 203.988L219.052 212.106L235.794 217.827Z" fill="#264704"/>
<path d="M213.918 239.255L203.806 225.417L197.176 233.535L213.918 239.255Z" fill="#264704"/>
</g>
<defs>
<clipPath id="clip0_18_593">
<rect width="300" height="300" fill="white"/>
</clipPath>
</defs>
</svg>
