<svg width="297" height="300" viewBox="0 0 297 300" fill="none" xmlns="http://www.w3.org/2000/svg">
<g clip-path="url(#clip0_18_591)">
<path d="M87.3147 58.517C85.9977 49.726 95.9472 43.715 103.116 48.9703L196.337 117.304C202.092 121.523 201.703 130.239 195.596 133.929L119.5 179.903C113.392 183.593 105.496 179.882 104.439 172.825L87.3147 58.517Z" fill="#EC0B33"/>
<path d="M232.946 75.4047C242.552 73.5163 249.654 84.1749 244.211 92.313L181.926 185.45C177.566 191.97 167.978 191.962 163.628 185.434L115.973 113.909C111.624 107.382 115.309 98.5298 123.006 97.0168L232.946 75.4047Z" fill="#EC0B33"/>
<path d="M164.205 37.1245C171.075 22.0553 193.704 27.5969 192.833 44.1351L185.405 185.242C184.91 194.635 175.993 201.26 166.858 199.023L115.674 186.489C106.538 184.252 101.691 174.256 105.593 165.697L164.205 37.1245Z" fill="#CA0B2D"/>
<ellipse cx="154.385" cy="188.981" rx="12.3416" ry="10.0275" fill="#447C0C"/>
<rect x="149.757" y="191.295" width="9.25617" height="75.592" fill="#447C0C"/>
<ellipse cx="155.157" cy="266.116" rx="25.4545" ry="19.2837" fill="#447C0C"/>
<ellipse cx="177.5" cy="45" rx="16.5" ry="15" fill="#EC0B33"/>
<path d="M173.345 81.967L158.853 49.7066L191.938 51.883L173.345 81.967Z" fill="#EC0B33"/>
<path d="M236.349 227.6C236.349 235.268 202.41 233.77 194.696 231.456C186.983 229.142 153.044 235.268 153.044 227.6C153.044 219.932 194.696 213.715 194.696 213.715C194.696 213.715 236.349 219.932 236.349 227.6Z" fill="#2E6900"/>
<path d="M75.909 212.173C75.909 219.841 109.848 218.344 117.562 216.03C125.275 213.715 159.214 219.841 159.214 212.173C159.214 204.505 117.562 198.289 117.562 198.289C117.562 198.289 75.909 204.505 75.909 212.173Z" fill="#2E6900"/>
</g>
<defs>
<clipPath id="clip0_18_591">
<rect width="300" height="300" fill="white"/>
</clipPath>
</defs>
</svg>
