<svg width="50" height="142" viewBox="0 0 50 142" fill="none" xmlns="http://www.w3.org/2000/svg">
<ellipse cx="25.2949" cy="26.9043" rx="18.6594" ry="18.2255" fill="#1BAC5E"/>
<ellipse cx="24.8611" cy="86.788" rx="24.3007" ry="54.6765" fill="#1BAC5E"/>
<path d="M25.7289 0L30.2385 9.76366H21.2193L25.7289 0Z" fill="#F9F028"/>
<ellipse cx="33.9737" cy="19.9613" rx="3.03758" ry="3.47152" fill="black"/>
<ellipse cx="16.6162" cy="19.9613" rx="3.03758" ry="3.47152" fill="black"/>
<ellipse cx="28.7846" cy="33.4677" rx="2.1697" ry="3.90546" transform="rotate(-28.8427 28.7846 33.4677)" fill="#1E9D59"/>
<ellipse cx="22.1533" cy="32.9875" rx="2.1697" ry="3.90546" transform="rotate(42.3857 22.1533 32.9875)" fill="#1E9D59"/>
<ellipse cx="25.2327" cy="36.7588" rx="2.1697" ry="6.73875" transform="rotate(-0.536523 25.2327 36.7588)" fill="#1E9D59"/>
<ellipse cx="18.105" cy="17.9861" rx="1" ry="0.5" transform="rotate(35.3139 18.105 17.9861)" fill="white"/>
<ellipse cx="35.105" cy="17.9861" rx="1" ry="0.5" transform="rotate(35.3139 35.105 17.9861)" fill="white"/>
</svg>
