<svg width="382" height="710" viewBox="0 0 382 710" fill="none" xmlns="http://www.w3.org/2000/svg">
<g id="Frame 30" clip-path="url(#clip0)">
<g id="winning-plant">
<g id="rose">
<path id="Polygon 42" d="M80.6626 152.687C83.2203 137.793 102.485 133.39 111.259 145.694L278.713 380.522C285.756 390.398 280.485 404.262 268.66 406.965L52.3876 456.394C40.5618 459.097 29.792 448.899 31.8452 436.944L80.6626 152.687Z" fill="#EC0B33"/>
<path id="Polygon 44" d="M264.755 140.405C273.077 127.769 292.519 131.483 295.597 146.297L354.453 429.541C356.919 441.41 346.526 451.973 334.619 449.698L116.648 408.061C104.741 405.786 98.9729 392.137 105.64 382.013L264.755 140.405Z" fill="#EC0B33"/>
<path id="Polygon 43" d="M176.989 20.2514C180.718 1.85637 207.12 2.18523 210.39 20.6675L286.534 451.045C288.391 461.542 280.241 471.138 269.582 471.006L106.6 468.976C95.941 468.843 88.0325 459.047 90.1504 448.599L176.989 20.2514Z" fill="#CA0B2D"/>
<ellipse id="Ellipse 205" cx="191.956" cy="476.037" rx="28.3197" ry="23.0098" fill="#447C0C"/>
<rect id="Rectangle 6" x="181.336" y="481.347" width="21.2398" height="173.458" fill="#447C0C"/>
<ellipse id="Ellipse 206" cx="193.726" cy="653.036" rx="58.4095" ry="44.2496" fill="#447C0C"/>
</g>
<g id="crown">
<ellipse id="Ellipse 238" rx="141" ry="13" transform="matrix(-1 0 0 1 203 157.261)" fill="#F2E359"/>
<path id="Polygon 61" d="M184 0.260742L105.192 154.011H262.808L184 0.260742Z" fill="#F2E359"/>
<path id="Polygon 62" d="M93 78.2607L60.091 158.511H125.909L93 78.2607Z" fill="#F2E359"/>
<path id="Polygon 63" d="M296 43.2607L248.369 154.261H343.631L296 43.2607Z" fill="#F2E359"/>
<ellipse id="Ellipse 239" rx="14" ry="25" transform="matrix(-1 0 0 1 182 114.261)" fill="#19628A"/>
</g>
</g>
</g>
<defs>
<clipPath id="clip0">
<rect width="382" height="710" fill="white"/>
</clipPath>
</defs>
</svg>
